<!-- Generator: Adobe Illustrator 24.2.0, SVG Export Plug-In  -->
<svg version="1.1" xmlns="http://www.w3.org/2000/svg" xmlns:xlink="http://www.w3.org/1999/xlink" x="0px" y="0px"
	 width="1161.624px" height="743.357px" viewBox="0 0 1161.624 743.357"
	 style="overflow:visible;enable-background:new 0 0 1161.624 743.357;" xml:space="preserve">
<style type="text/css">
	.st0{fill:#9F2D00;}
	.st1{fill:none;stroke:#9F2D00;stroke-miterlimit:10;}
	.st2{fill:none;stroke:#9F2D00;stroke-miterlimit:10;stroke-dasharray:1.9967,2.9951;}
	.st3{fill:none;stroke:#E4E4E4;stroke-width:5;stroke-miterlimit:10;}
	.st4{fill:#E4E4E4;}
	.st5{fill:none;stroke:url(#SVGID_1_);stroke-width:0.5;stroke-miterlimit:10;}
	.st6{fill:none;stroke:url(#SVGID_2_);stroke-width:0.5;stroke-miterlimit:10;}
	.st7{fill:#FFFFFF;}
	.st8{fill:none;stroke:url(#SVGID_3_);stroke-width:0.5;stroke-miterlimit:10;}
	.st9{fill:none;stroke:url(#SVGID_4_);stroke-width:0.5;stroke-miterlimit:10;}
</style>
<defs>
</defs>
<g>
	<path class="st0" d="M124.427,25.512v-0.208l1.105-0.533v-7.098l-1.105-0.533v-0.208h4.173v0.208l-1.105,0.533v7.098l1.105,0.533
		v0.208H124.427z"/>
	<path class="st0" d="M133.644,25.512v-0.208l1.105-0.533v-7.085l-1.105-0.546v-0.208h2.47l5.044,5.694V17.66l-1.482-0.52v-0.208
		h3.484v0.208l-1.092,0.533v7.904h-0.806l-5.603-6.266v5.46l1.482,0.533v0.208H133.644z"/>
	<path class="st0" d="M149.802,25.512v-0.208l1.378-0.533v-7.124h-1.859l-1.04,2.145h-0.208v-2.86h8.177v2.86h-0.208l-1.04-2.145
		h-1.859v7.124l1.378,0.533v0.208H149.802z"/>
	<path class="st0" d="M161.19,25.512v-0.208l1.105-0.533v-7.098l-1.105-0.533v-0.208h4.446c0.91,0,1.627,0.188,2.151,0.566
		c0.524,0.377,0.787,0.895,0.787,1.553c0,0.477-0.161,0.886-0.481,1.229c-0.321,0.342-0.741,0.613-1.261,0.812l2.405,3.692
		l0.936,0.52v0.208h-2.821l-2.405-3.978h-0.689v3.224l0.975,0.546v0.208H161.19z M164.778,17.647h-0.52v3.25h0.598
		c0.538,0,0.962-0.152,1.274-0.455c0.312-0.303,0.468-0.698,0.468-1.183c0-0.511-0.154-0.908-0.461-1.189
		S165.376,17.647,164.778,17.647z"/>
	<path class="st0" d="M179.013,25.642c-0.642,0-1.235-0.11-1.781-0.331c-0.546-0.221-1.021-0.529-1.423-0.923
		c-0.403-0.394-0.717-0.86-0.942-1.397c-0.226-0.537-0.338-1.126-0.338-1.768c0-0.641,0.112-1.23,0.338-1.768
		c0.225-0.537,0.54-1.003,0.942-1.397c0.403-0.394,0.877-0.702,1.423-0.923c0.546-0.221,1.14-0.332,1.781-0.332
		c0.65,0,1.248,0.11,1.794,0.332c0.546,0.221,1.021,0.529,1.423,0.923c0.403,0.395,0.717,0.86,0.943,1.397
		c0.225,0.538,0.338,1.127,0.338,1.768c0,0.642-0.113,1.231-0.338,1.768c-0.226,0.537-0.54,1.003-0.943,1.397
		c-0.403,0.395-0.877,0.702-1.423,0.923C180.261,25.531,179.663,25.642,179.013,25.642z M179.221,24.966
		c0.433,0,0.817-0.139,1.15-0.416s0.594-0.667,0.78-1.17c0.186-0.502,0.279-1.092,0.279-1.768c0-0.832-0.115-1.56-0.345-2.184
		s-0.54-1.107-0.929-1.449c-0.39-0.342-0.828-0.514-1.313-0.514c-0.434,0-0.819,0.137-1.157,0.41s-0.604,0.661-0.799,1.163
		c-0.195,0.503-0.292,1.092-0.292,1.768c0,0.832,0.117,1.56,0.351,2.184c0.234,0.624,0.55,1.109,0.949,1.456
		S178.736,24.966,179.221,24.966z"/>
</g>
<g>
	<path class="st0" d="M220.641,25.512v-0.208l1.104-0.533v-7.098l-1.104-0.533v-0.208h4.498c1.022,0,1.844,0.184,2.464,0.552
		c0.619,0.369,0.929,0.956,0.929,1.761c0,0.486-0.162,0.912-0.487,1.281c-0.325,0.369-0.765,0.655-1.319,0.858
		s-1.188,0.305-1.898,0.305h-1.117v3.081l1.325,0.533v0.208H220.641z M223.709,17.647v3.406h0.624c0.692,0,1.234-0.16,1.625-0.481
		c0.39-0.321,0.585-0.724,0.585-1.209c0-0.607-0.2-1.044-0.599-1.313s-0.962-0.403-1.689-0.403H223.709z"/>
	<path class="st0" d="M232.146,25.512v-0.208l0.793-0.442l3.394-7.995h1.144l3.354,7.969l0.884,0.468v0.208h-4.108v-0.208
		l1.131-0.468l-0.884-2.158h-3.081l-0.884,2.158l1.079,0.468v0.208H232.146z M235.07,21.963h2.483l-1.235-3.029L235.07,21.963z"/>
	<path class="st0" d="M246.433,25.512v-0.208l1.104-0.533v-7.098l-1.104-0.533v-0.208h4.446c0.91,0,1.627,0.188,2.151,0.566
		c0.524,0.377,0.786,0.895,0.786,1.553c0,0.477-0.16,0.886-0.48,1.229c-0.321,0.342-0.741,0.613-1.262,0.812l2.405,3.692l0.937,0.52
		v0.208h-2.821l-2.405-3.978h-0.688v3.224l0.975,0.546v0.208H246.433z M250.021,17.647h-0.52v3.25h0.598
		c0.537,0,0.962-0.152,1.274-0.455c0.312-0.303,0.468-0.698,0.468-1.183c0-0.511-0.154-0.908-0.462-1.189
		S250.618,17.647,250.021,17.647z"/>
	<path class="st0" d="M261.278,25.512v-0.208l1.378-0.533v-7.124h-1.859l-1.04,2.145h-0.208v-2.86h8.178v2.86h-0.208l-1.04-2.145
		h-1.859v7.124l1.378,0.533v0.208H261.278z"/>
	<path class="st0" d="M281.168,25.512v-0.208l1.235-0.455v-6.422l-2.158,0.975v-0.52l3.237-1.95h0.819v7.917l1.104,0.455v0.208
		H281.168z"/>
</g>
<g>
	<path class="st0" d="M323.029,25.512v-0.208l1.105-0.533v-7.098l-1.105-0.533v-0.208h4.498c1.023,0,1.844,0.184,2.464,0.552
		c0.619,0.369,0.929,0.956,0.929,1.761c0,0.486-0.163,0.912-0.487,1.281c-0.325,0.369-0.765,0.655-1.32,0.858
		s-1.187,0.305-1.898,0.305h-1.118v3.081l1.326,0.533v0.208H323.029z M326.098,17.647v3.406h0.624c0.693,0,1.235-0.16,1.625-0.481
		c0.39-0.321,0.585-0.724,0.585-1.209c0-0.607-0.2-1.044-0.598-1.313c-0.399-0.269-0.962-0.403-1.69-0.403H326.098z"/>
	<path class="st0" d="M334.535,25.512v-0.208l0.793-0.442l3.393-7.995h1.144l3.354,7.969l0.884,0.468v0.208h-4.108v-0.208
		l1.131-0.468l-0.884-2.158h-3.081l-0.884,2.158l1.079,0.468v0.208H334.535z M337.459,21.963h2.483l-1.235-3.029L337.459,21.963z"/>
	<path class="st0" d="M348.821,25.512v-0.208l1.105-0.533v-7.098l-1.105-0.533v-0.208h4.446c0.91,0,1.627,0.188,2.151,0.566
		c0.524,0.377,0.787,0.895,0.787,1.553c0,0.477-0.161,0.886-0.481,1.229c-0.321,0.342-0.741,0.613-1.261,0.812l2.405,3.692
		l0.936,0.52v0.208h-2.821l-2.405-3.978h-0.689v3.224l0.975,0.546v0.208H348.821z M352.41,17.647h-0.52v3.25h0.598
		c0.538,0,0.962-0.152,1.274-0.455c0.312-0.303,0.468-0.698,0.468-1.183c0-0.511-0.154-0.908-0.461-1.189
		S353.007,17.647,352.41,17.647z"/>
	<path class="st0" d="M363.667,25.512v-0.208l1.378-0.533v-7.124h-1.859l-1.04,2.145h-0.208v-2.86h8.177v2.86h-0.208l-1.04-2.145
		h-1.859v7.124l1.378,0.533v0.208H363.667z"/>
	<path class="st0" d="M382.309,25.512v-0.481c0.702-0.763,1.283-1.402,1.742-1.917s0.826-0.956,1.099-1.32s0.477-0.691,0.611-0.981
		c0.134-0.29,0.221-0.581,0.26-0.871c0.039-0.29,0.058-0.626,0.058-1.007c0-0.416-0.095-0.767-0.286-1.053
		c-0.191-0.286-0.481-0.429-0.871-0.429c-0.416,0-0.73,0.13-0.942,0.39c-0.213,0.26-0.319,0.628-0.319,1.105v0.611l-0.091,0.117
		h-0.884c-0.174,0-0.304-0.03-0.39-0.091c-0.087-0.061-0.13-0.212-0.13-0.455c0-0.251,0.078-0.505,0.234-0.76
		c0.156-0.255,0.416-0.513,0.78-0.773c0.338-0.251,0.672-0.446,1.001-0.585c0.33-0.139,0.763-0.208,1.3-0.208
		c0.52,0,0.979,0.102,1.378,0.305c0.398,0.204,0.708,0.481,0.929,0.832c0.221,0.351,0.332,0.739,0.332,1.164
		c0,0.269-0.032,0.52-0.097,0.754c-0.065,0.234-0.18,0.475-0.345,0.721c-0.165,0.247-0.398,0.529-0.702,0.845
		c-0.303,0.316-0.695,0.687-1.176,1.111c-0.481,0.425-1.072,0.932-1.774,1.521h3.445l0.754-1.3h0.208l-0.13,2.756H382.309z"/>
</g>
<g>
	<path class="st0" d="M425.418,25.512v-0.208l1.105-0.533v-7.098l-1.105-0.533v-0.208h4.498c1.023,0,1.844,0.184,2.464,0.552
		c0.619,0.369,0.929,0.956,0.929,1.761c0,0.486-0.163,0.912-0.487,1.281c-0.325,0.369-0.765,0.655-1.32,0.858
		s-1.187,0.305-1.898,0.305h-1.118v3.081l1.326,0.533v0.208H425.418z M428.487,17.647v3.406h0.624c0.693,0,1.235-0.16,1.625-0.481
		c0.39-0.321,0.585-0.724,0.585-1.209c0-0.607-0.2-1.044-0.598-1.313c-0.399-0.269-0.962-0.403-1.69-0.403H428.487z"/>
	<path class="st0" d="M436.924,25.512v-0.208l0.793-0.442l3.393-7.995h1.144l3.354,7.969l0.884,0.468v0.208h-4.108v-0.208
		l1.131-0.468l-0.884-2.158h-3.081l-0.884,2.158l1.079,0.468v0.208H436.924z M439.849,21.963h2.483l-1.235-3.029L439.849,21.963z"/>
	<path class="st0" d="M451.21,25.512v-0.208l1.105-0.533v-7.098l-1.105-0.533v-0.208h4.446c0.91,0,1.627,0.188,2.151,0.566
		c0.524,0.377,0.787,0.895,0.787,1.553c0,0.477-0.161,0.886-0.481,1.229c-0.321,0.342-0.741,0.613-1.261,0.812l2.405,3.692
		l0.936,0.52v0.208h-2.821l-2.405-3.978h-0.689v3.224l0.975,0.546v0.208H451.21z M454.799,17.647h-0.52v3.25h0.598
		c0.538,0,0.962-0.152,1.274-0.455c0.312-0.303,0.468-0.698,0.468-1.183c0-0.511-0.154-0.908-0.461-1.189
		S455.396,17.647,454.799,17.647z"/>
	<path class="st0" d="M466.056,25.512v-0.208l1.378-0.533v-7.124h-1.859l-1.04,2.145h-0.208v-2.86h8.177v2.86h-0.208l-1.04-2.145
		h-1.859v7.124l1.378,0.533v0.208H466.056z"/>
	<path class="st0" d="M487.494,25.642c-0.373,0-0.748-0.048-1.125-0.143s-0.717-0.243-1.021-0.442
		c-0.243-0.165-0.444-0.344-0.604-0.539c-0.161-0.195-0.241-0.41-0.241-0.644c0-0.225,0.041-0.364,0.124-0.416
		c0.082-0.052,0.21-0.078,0.383-0.078h0.858l0.13,0.13v0.455c0,0.355,0.121,0.62,0.364,0.793s0.568,0.26,0.975,0.26
		c0.485,0,0.854-0.165,1.105-0.494c0.251-0.329,0.377-0.745,0.377-1.248c0-0.606-0.154-1.074-0.461-1.404s-0.834-0.494-1.58-0.494
		h-0.689v-0.624h0.65c0.52,0,0.923-0.18,1.209-0.54c0.286-0.359,0.429-0.799,0.429-1.319c0-0.988-0.369-1.482-1.105-1.482
		c-0.304,0-0.561,0.102-0.773,0.306s-0.318,0.496-0.318,0.877v0.572l-0.104,0.117h-0.871c-0.165,0-0.291-0.028-0.377-0.084
		c-0.087-0.056-0.13-0.197-0.13-0.422c0-0.494,0.286-0.919,0.858-1.274c0.373-0.242,0.717-0.42,1.033-0.533
		c0.316-0.113,0.704-0.169,1.164-0.169c0.502,0,0.956,0.083,1.358,0.247c0.403,0.165,0.722,0.399,0.956,0.702
		c0.234,0.303,0.351,0.667,0.351,1.092c0,0.347-0.102,0.654-0.306,0.923c-0.204,0.269-0.477,0.494-0.819,0.676
		c-0.342,0.182-0.73,0.312-1.164,0.39c0.867,0.104,1.541,0.344,2.021,0.721s0.722,0.908,0.722,1.593
		c0,0.485-0.158,0.917-0.475,1.293s-0.73,0.672-1.242,0.884C488.646,25.536,488.091,25.642,487.494,25.642z"/>
</g>
<g>
	<path class="st0" d="M527.808,25.512v-0.208l1.105-0.533v-7.098l-1.105-0.533v-0.208h4.498c1.023,0,1.844,0.184,2.464,0.552
		c0.619,0.369,0.929,0.956,0.929,1.761c0,0.486-0.163,0.912-0.487,1.281c-0.325,0.369-0.765,0.655-1.32,0.858
		s-1.187,0.305-1.898,0.305h-1.118v3.081l1.326,0.533v0.208H527.808z M530.876,17.647v3.406h0.624c0.693,0,1.235-0.16,1.625-0.481
		c0.39-0.321,0.585-0.724,0.585-1.209c0-0.607-0.2-1.044-0.598-1.313c-0.399-0.269-0.962-0.403-1.69-0.403H530.876z"/>
	<path class="st0" d="M539.313,25.512v-0.208l0.793-0.442l3.393-7.995h1.144l3.354,7.969l0.884,0.468v0.208h-4.108v-0.208
		l1.131-0.468l-0.884-2.158h-3.081l-0.884,2.158l1.079,0.468v0.208H539.313z M542.238,21.963h2.483l-1.235-3.029L542.238,21.963z"/>
	<path class="st0" d="M553.6,25.512v-0.208l1.105-0.533v-7.098L553.6,17.14v-0.208h4.446c0.91,0,1.627,0.188,2.151,0.566
		c0.524,0.377,0.787,0.895,0.787,1.553c0,0.477-0.161,0.886-0.481,1.229c-0.321,0.342-0.741,0.613-1.261,0.812l2.405,3.692
		l0.936,0.52v0.208h-2.821l-2.405-3.978h-0.689v3.224l0.975,0.546v0.208H553.6z M557.188,17.647h-0.52v3.25h0.598
		c0.538,0,0.962-0.152,1.274-0.455c0.312-0.303,0.468-0.698,0.468-1.183c0-0.511-0.154-0.908-0.461-1.189
		S557.786,17.647,557.188,17.647z"/>
	<path class="st0" d="M568.445,25.512v-0.208l1.378-0.533v-7.124h-1.859l-1.04,2.145h-0.208v-2.86h8.177v2.86h-0.208l-1.04-2.145
		h-1.859v7.124l1.378,0.533v0.208H568.445z"/>
	<path class="st0" d="M588.869,25.512v-0.208l1.235-0.455v-1.612h-3.497V22.86l4.576-5.928h0.819v5.278h1.547v1.027h-1.547v1.612
		l1.105,0.455v0.208H588.869z M587.881,22.21h2.223v-2.951L587.881,22.21z"/>
</g>
<g>
	<path class="st0" d="M634.811,25.642c-0.91,0-1.707-0.186-2.392-0.559c-0.685-0.373-1.216-0.877-1.593-1.515
		c-0.377-0.637-0.565-1.358-0.565-2.164c0-0.65,0.13-1.252,0.39-1.807c0.261-0.554,0.613-1.042,1.06-1.462s0.953-0.748,1.521-0.981
		c0.567-0.234,1.163-0.351,1.787-0.351c0.46,0,0.841,0.026,1.145,0.078c0.303,0.052,0.576,0.126,0.818,0.221
		c0.243,0.095,0.485,0.204,0.729,0.325l0.143,2.431h-0.233l-1.235-2.015c-0.217-0.139-0.421-0.238-0.611-0.299
		c-0.19-0.061-0.42-0.091-0.688-0.091c-0.529,0-1.004,0.158-1.424,0.475s-0.752,0.763-0.994,1.339
		c-0.243,0.577-0.364,1.246-0.364,2.009c0,0.754,0.117,1.406,0.351,1.957c0.234,0.551,0.553,0.975,0.956,1.274
		c0.403,0.299,0.855,0.448,1.358,0.448c0.32,0,0.608-0.041,0.864-0.124c0.256-0.082,0.501-0.188,0.734-0.318l1.17-1.742h0.222
		l-0.183,2.197c-0.355,0.208-0.782,0.373-1.28,0.494S635.435,25.642,634.811,25.642z"/>
	<path class="st0" d="M643.339,25.512v-0.208l1.104-0.533v-7.098l-1.104-0.533v-0.208h4.446c0.91,0,1.627,0.188,2.151,0.566
		c0.524,0.377,0.786,0.895,0.786,1.553c0,0.477-0.16,0.886-0.48,1.229c-0.321,0.342-0.741,0.613-1.262,0.812l2.405,3.692l0.937,0.52
		v0.208h-2.821l-2.405-3.978h-0.688v3.224l0.975,0.546v0.208H643.339z M646.927,17.647h-0.52v3.25h0.598
		c0.537,0,0.962-0.152,1.274-0.455c0.312-0.303,0.468-0.698,0.468-1.183c0-0.511-0.154-0.908-0.462-1.189
		S647.524,17.647,646.927,17.647z"/>
	<path class="st0" d="M656.689,25.512v-0.208l1.104-0.533v-7.098l-1.104-0.533v-0.208h7.085v2.249h-0.208l-0.962-1.534h-2.847v3.081
		h2.002l0.728-1.118h0.208v2.925h-0.208l-0.728-1.092h-2.002v3.354h3.158l1.015-1.937h0.208v2.652H656.689z"/>
	<path class="st0" d="M669.442,25.512v-0.208l1.105-0.533v-7.098l-1.105-0.533v-0.208h4.434c1.031,0,1.906,0.169,2.626,0.507
		c0.719,0.338,1.268,0.802,1.645,1.391s0.565,1.257,0.565,2.002c0,0.676-0.124,1.3-0.37,1.872c-0.247,0.572-0.592,1.066-1.034,1.482
		c-0.441,0.416-0.962,0.741-1.56,0.975c-0.599,0.234-1.253,0.351-1.963,0.351H669.442z M673.343,17.647h-0.832v7.15h1.014
		c1.006,0,1.781-0.323,2.327-0.969c0.546-0.646,0.819-1.51,0.819-2.594c0-1.092-0.279-1.963-0.839-2.613
		C675.273,17.972,674.443,17.647,673.343,17.647z"/>
	<path class="st0" d="M683.795,25.512v-0.208l1.104-0.533v-7.098l-1.104-0.533v-0.208h4.173v0.208l-1.105,0.533v7.098l1.105,0.533
		v0.208H683.795z"/>
	<path class="st0" d="M694.662,25.512v-0.208l1.379-0.533v-7.124h-1.859l-1.04,2.145h-0.208v-2.86h8.177v2.86h-0.208l-1.04-2.145
		h-1.858v7.124l1.378,0.533v0.208H694.662z"/>
	<path class="st0" d="M709.001,25.642c-0.571,0-1.077-0.058-1.515-0.175c-0.438-0.117-0.859-0.28-1.267-0.488l-0.131-2.197h0.234
		l0.923,1.599c0.234,0.191,0.487,0.338,0.761,0.442c0.272,0.104,0.553,0.156,0.839,0.156c0.468,0,0.849-0.111,1.144-0.332
		s0.442-0.548,0.442-0.981c0-0.295-0.067-0.537-0.202-0.728c-0.134-0.191-0.357-0.371-0.669-0.54
		c-0.312-0.169-0.741-0.375-1.287-0.617c-0.615-0.269-1.088-0.589-1.417-0.962c-0.33-0.372-0.494-0.836-0.494-1.391
		c0-0.346,0.089-0.678,0.267-0.995c0.178-0.316,0.416-0.598,0.715-0.845c0.299-0.247,0.633-0.44,1.001-0.578
		s0.747-0.208,1.138-0.208c0.441,0,0.866,0.052,1.273,0.156s0.785,0.251,1.132,0.442l0.13,2.08h-0.222l-0.909-1.469
		c-0.226-0.173-0.444-0.305-0.657-0.396c-0.212-0.091-0.453-0.136-0.722-0.136c-0.355,0-0.649,0.113-0.884,0.338
		c-0.233,0.226-0.351,0.524-0.351,0.897c0,0.355,0.128,0.648,0.384,0.878c0.255,0.23,0.699,0.487,1.332,0.773
		c0.788,0.364,1.369,0.737,1.742,1.118c0.372,0.382,0.559,0.884,0.559,1.508c0,0.555-0.16,1.031-0.48,1.43
		c-0.321,0.399-0.732,0.702-1.235,0.91C710.071,25.538,709.547,25.642,709.001,25.642z"/>
</g>
<g>
	<g>
		<line class="st1" x1="1157.124" y1="25.512" x2="1157.124" y2="26.512"/>
		<line class="st2" x1="1157.124" y1="29.507" x2="1157.124" y2="731.86"/>
		<line class="st1" x1="1157.124" y1="733.357" x2="1157.124" y2="734.357"/>
	</g>
</g>
<g>
	<circle class="st0" cx="1157.124" cy="25.512" r="4.5"/>
	<circle class="st0" cx="1157.124" cy="168.181" r="4.5"/>
	<circle class="st0" cx="1157.124" cy="310.85" r="4.5"/>
	<circle class="st0" cx="1157.124" cy="453.519" r="4.5"/>
	<circle class="st0" cx="1157.124" cy="596.188" r="4.5"/>
	<circle class="st0" cx="1157.124" cy="738.857" r="4.5"/>
</g>
<g>
	<path class="st0" d="M8.84,605.325c0,0.572-0.058,1.077-0.175,1.515c-0.117,0.438-0.28,0.86-0.488,1.267l-2.197,0.13v-0.234
		l1.599-0.923c0.191-0.234,0.338-0.487,0.442-0.76c0.104-0.273,0.156-0.553,0.156-0.839c0-0.468-0.111-0.849-0.332-1.144
		c-0.221-0.294-0.548-0.442-0.981-0.442c-0.295,0-0.537,0.067-0.728,0.202s-0.371,0.357-0.54,0.669s-0.375,0.741-0.617,1.287
		c-0.269,0.615-0.59,1.088-0.962,1.417c-0.373,0.33-0.836,0.494-1.391,0.494c-0.346,0-0.678-0.089-0.994-0.267
		s-0.598-0.416-0.845-0.715c-0.247-0.299-0.44-0.632-0.579-1.001C0.069,605.613,0,605.234,0,604.844
		c0-0.442,0.052-0.867,0.156-1.274s0.251-0.785,0.442-1.131l2.08-0.13v0.221l-1.469,0.91c-0.173,0.226-0.305,0.444-0.396,0.657
		c-0.091,0.212-0.136,0.453-0.136,0.722c0,0.355,0.113,0.65,0.338,0.884c0.226,0.234,0.524,0.351,0.897,0.351
		c0.355,0,0.648-0.128,0.878-0.384c0.229-0.255,0.487-0.7,0.773-1.333c0.364-0.788,0.736-1.369,1.118-1.742s0.884-0.559,1.508-0.559
		c0.555,0,1.031,0.161,1.43,0.481c0.398,0.321,0.702,0.732,0.91,1.235C8.736,604.255,8.84,604.779,8.84,605.325z"/>
	<path class="st0" d="M8.84,592.169c0,0.91-0.186,1.708-0.559,2.392c-0.373,0.685-0.877,1.215-1.515,1.592
		c-0.637,0.377-1.358,0.565-2.164,0.565c-0.65,0-1.253-0.13-1.808-0.39c-0.554-0.26-1.042-0.613-1.462-1.06
		c-0.421-0.446-0.748-0.953-0.981-1.521C0.117,593.181,0,592.585,0,591.961c0-0.459,0.026-0.84,0.078-1.144
		c0.052-0.303,0.126-0.576,0.221-0.819s0.204-0.485,0.325-0.728l2.431-0.143v0.234l-2.015,1.235
		c-0.139,0.216-0.238,0.42-0.299,0.611s-0.091,0.42-0.091,0.689c0,0.529,0.158,1.003,0.475,1.423
		c0.316,0.42,0.763,0.752,1.339,0.995s1.246,0.364,2.008,0.364c0.754,0,1.406-0.117,1.957-0.351
		c0.551-0.234,0.975-0.553,1.274-0.956c0.299-0.403,0.449-0.856,0.449-1.358c0-0.321-0.041-0.609-0.124-0.865
		c-0.082-0.255-0.188-0.5-0.318-0.734l-1.742-1.17v-0.221l2.197,0.182c0.208,0.355,0.373,0.782,0.494,1.28
		C8.779,590.984,8.84,591.545,8.84,592.169z"/>
	<path class="st0" d="M8.71,583.641H8.502l-0.533-1.105H0.871l-0.533,1.105H0.13v-4.446c0-0.91,0.188-1.627,0.566-2.151
		c0.377-0.524,0.895-0.787,1.553-0.787c0.477,0,0.887,0.161,1.229,0.481c0.343,0.321,0.613,0.741,0.812,1.261l3.692-2.405
		l0.52-0.936H8.71v2.821l-3.978,2.405v0.689h3.224l0.546-0.975H8.71V583.641z M0.845,580.053v0.52h3.25v-0.598
		c0-0.538-0.152-0.962-0.455-1.274s-0.698-0.468-1.183-0.468c-0.511,0-0.907,0.154-1.189,0.461
		C0.986,579.002,0.845,579.455,0.845,580.053z"/>
	<path class="st0" d="M8.84,565.818c0,0.642-0.11,1.235-0.331,1.781c-0.221,0.546-0.528,1.021-0.923,1.423s-0.86,0.717-1.397,0.942
		c-0.538,0.226-1.127,0.338-1.769,0.338c-0.641,0-1.23-0.112-1.768-0.338c-0.537-0.225-1.003-0.54-1.397-0.942
		s-0.702-0.877-0.923-1.423C0.11,567.053,0,566.46,0,565.818c0-0.65,0.11-1.248,0.332-1.794c0.221-0.546,0.528-1.021,0.923-1.423
		c0.395-0.403,0.86-0.717,1.397-0.943c0.537-0.225,1.127-0.338,1.768-0.338c0.642,0,1.231,0.113,1.769,0.338
		c0.537,0.226,1.003,0.54,1.397,0.943c0.395,0.403,0.702,0.877,0.923,1.423C8.729,564.57,8.84,565.168,8.84,565.818z M8.164,565.61
		c0-0.433-0.139-0.817-0.416-1.15s-0.667-0.594-1.17-0.78c-0.502-0.186-1.092-0.279-1.768-0.279c-0.832,0-1.561,0.115-2.185,0.345
		s-1.106,0.54-1.449,0.929c-0.342,0.39-0.514,0.828-0.514,1.313c0,0.434,0.137,0.819,0.41,1.157s0.661,0.604,1.164,0.799
		c0.503,0.195,1.092,0.292,1.768,0.292c0.832,0,1.561-0.117,2.185-0.351c0.624-0.234,1.109-0.55,1.456-0.949
		S8.164,566.095,8.164,565.61z"/>
	<path class="st0" d="M8.71,556.212H8.502l-0.533-1.105H0.871l-0.533,1.105H0.13v-4.303h0.208l0.533,1.235h7.124v-2.86l-2.457-1.053
		v-0.208H8.71V556.212z"/>
	<path class="st0" d="M8.71,543.927H8.502l-0.533-1.105H0.871l-0.533,1.105H0.13v-4.303h0.208l0.533,1.235h7.124v-2.86l-2.457-1.053
		v-0.208H8.71V543.927z"/>
</g>
<line class="st3" x1="1152.624" y1="213.07" x2="1161.624" y2="213.07"/>
<circle class="st0" cx="40.222" cy="25.512" r="25.512"/>
<g>
	<path class="st4" d="M349.789,193.582l0.12,0.12l3.84,11.641l3.24-11.401l0.12-0.12h3.36l0.12,0.12l3.24,11.401l3.84-11.641
		l0.12-0.12h3.601l0.12,0.12l-5.881,16.562l-0.12,0.12h-3.36l-0.12-0.12l-3.24-9.961l-3.24,9.961l-0.119,0.12h-3.36l-0.12-0.12
		l-5.881-16.562l0.12-0.12H349.789z"/>
	<path class="st4" d="M396.649,193.582l0.119,0.12v3.121l-0.119,0.12h-8.041v3h5.881l0.119,0.12v3.12l-0.119,0.12h-5.881v3.72h8.28
		l0.12,0.12v3.12l-0.12,0.12h-11.521l-0.12-0.12v-16.562l0.12-0.12H396.649z"/>
	<path class="st4" d="M414.809,193.582l0.12,0.12v13.321h6.361l0.119,0.12v3.12l-0.119,0.12h-9.602l-0.12-0.12v-16.562l0.12-0.12
		H414.809z"/>
	<path class="st4" d="M438.576,193.582l0.12,0.12v13.321h6.36l0.12,0.12v3.12l-0.12,0.12h-9.601l-0.12-0.12v-16.562l0.12-0.12
		H438.576z"/>
	<path class="st4" d="M462.343,193.582l0.12,0.12v16.562l-0.12,0.12h-3.12l-0.12-0.12v-16.562l0.12-0.12H462.343z"/>
	<path class="st4" d="M481.108,193.582l0.24,0.12l8.401,10.921v-10.921l0.119-0.12h3.121l0.119,0.12v16.562l-0.119,0.12h-3.24
		l-0.24-0.12l-8.401-10.921v10.921l-0.12,0.12h-3.12l-0.12-0.12v-16.562l0.12-0.12H481.108z"/>
	<path class="st4" d="M522.656,198.142c-1.801-1.08-3.841-1.44-5.881-1.44c-3.24,0-5.4,2.4-5.4,5.28c0,2.88,2.16,5.281,5.521,5.281
		c0.84,0,1.92-0.12,2.521-0.36v-3.12h-2.521l-0.12-0.12v-3.12l0.12-0.12h5.761l0.12,0.12v8.761c-1.801,0.96-3.721,1.44-5.881,1.44
		c-5.16,0-9.241-3.84-9.241-8.761c0-4.8,3.961-8.761,9.121-8.761c2.28,0,4.2,0.24,6.001,1.08v3.721L522.656,198.142z"/>
	<path class="st4" d="M549.917,193.582l0.12,0.12v3.121l-0.12,0.12h-4.921v13.321l-0.119,0.12h-3.121l-0.119-0.12v-13.321h-4.921
		l-0.12-0.12v-3.121l0.12-0.12H549.917z"/>
	<path class="st4" d="M580.803,201.982c0,4.92-3.96,8.761-8.881,8.761c-4.92,0-8.881-3.84-8.881-8.761s3.961-8.761,8.881-8.761
		C576.843,193.221,580.803,197.062,580.803,201.982z M566.762,201.982c0,3,2.28,5.281,5.16,5.281c2.881,0,5.161-2.28,5.161-5.281
		c0-3-2.28-5.28-5.161-5.28C569.042,196.702,566.762,198.982,566.762,201.982z"/>
	<path class="st4" d="M598.721,193.582l0.239,0.12l8.401,10.921v-10.921l0.12-0.12h3.12l0.12,0.12v16.562l-0.12,0.12h-3.24
		l-0.24-0.12l-8.4-10.921v10.921l-0.12,0.12h-3.12l-0.12-0.12v-16.562l0.12-0.12H598.721z"/>
	<path class="st4" d="M629.311,207.023l0.12,0.12v2.88c0,2.04-1.44,3.48-3.961,3.48c-0.24,0-0.432,0-0.84-0.12v-0.12
		c0.84-0.36,1.44-1.44,1.44-3.121v-3l0.12-0.12H629.311z"/>
	<path class="st4" d="M666.87,193.582l0.239,0.12l8.401,10.921v-10.921l0.12-0.12h3.12l0.12,0.12v16.562l-0.12,0.12h-3.24
		l-0.24-0.12l-8.4-10.921v10.921l-0.12,0.12h-3.12l-0.12-0.12v-16.562l0.12-0.12H666.87z"/>
	<path class="st4" d="M707.177,193.582l0.12,0.12l-8.521,13.321h8.521l0.119,0.144v3.096l-0.119,0.12h-14.401l-0.12-0.12
		l8.521-13.321h-8.161l-0.119-0.12v-3.121l0.119-0.12H707.177z"/>
	<path class="st4" d="M725.594,207.023l0.12,0.12v2.88c0,2.04-1.44,3.48-3.961,3.48c-0.24,0-0.432,0-0.84-0.12v-0.12
		c0.84-0.36,1.44-1.44,1.44-3.121v-3l0.12-0.12H725.594z"/>
	<path class="st4" d="M763.153,196.462v13.801l-0.12,0.12h-3.12l-0.12-0.12v-11.089l0.12-0.24l3.12-2.592L763.153,196.462z"/>
	<path class="st4" d="M778.765,210.263c2.088-1.776,3.528-3.36,4.368-5.16c-0.359,0.12-0.6,0.12-1.08,0.12
		c-2.521,0-4.561-2.04-4.561-4.56c0-2.521,2.04-4.561,4.561-4.561c2.881,0,5.28,1.992,5.28,6.36c0,3.121-2.28,6.361-4.32,7.921
		h-4.128L778.765,210.263z M782.293,199.462c-0.72,0-1.2,0.48-1.2,1.2c0,0.72,0.48,1.2,1.2,1.2c0.6,0,0.96-0.24,1.44-0.6
		C783.613,199.822,782.893,199.462,782.293,199.462z"/>
	<path class="st4" d="M805.272,196.462v13.801l-0.12,0.12h-3.12l-0.12-0.12v-11.089l0.12-0.24l3.12-2.592L805.272,196.462z"/>
	<path class="st4" d="M829.011,199.942c0,1.2-0.6,2.4-1.68,3.072c1.56,1.008,2.16,1.968,2.16,3.528c0,2.28-2.16,4.2-4.801,4.2
		s-4.801-1.92-4.801-4.2c0-1.56,0.601-2.52,2.16-3.528c-1.08-0.672-1.68-1.872-1.68-3.072c0-2.16,1.92-3.84,4.32-3.84
		S829.011,197.782,829.011,199.942z M823.49,206.302c0,0.6,0.672,1.08,1.2,1.08s1.2-0.48,1.2-1.08c0-0.48-0.12-0.96-1.2-1.728
		C823.61,205.342,823.49,205.822,823.49,206.302z M825.53,200.182c0-0.36-0.24-0.72-0.84-0.72c-0.48,0-0.84,0.36-0.84,0.72
		c0,0.36,0.12,0.96,0.84,1.512C825.41,201.142,825.53,200.542,825.53,200.182z"/>
</g>
<linearGradient id="SVGID_1_" gradientUnits="userSpaceOnUse" x1="288.7894" y1="244.222" x2="888.7894" y2="244.222">
	<stop  offset="0" style="stop-color:#101010"/>
	<stop  offset="0.5115" style="stop-color:#E4E4E4"/>
	<stop  offset="1" style="stop-color:#101010"/>
</linearGradient>
<line class="st5" x1="288.789" y1="244.222" x2="888.789" y2="244.222"/>
<linearGradient id="SVGID_2_" gradientUnits="userSpaceOnUse" x1="288.7894" y1="155.1857" x2="888.7894" y2="155.1857">
	<stop  offset="0" style="stop-color:#101010"/>
	<stop  offset="0.5115" style="stop-color:#E4E4E4"/>
	<stop  offset="1" style="stop-color:#101010"/>
</linearGradient>
<line class="st6" x1="288.789" y1="155.186" x2="888.789" y2="155.186"/>
<g>
	<g>
		<path class="st0" d="M534.936,348.369c-1.681,0-3.152-0.344-4.416-1.032c-1.265-0.688-2.244-1.62-2.94-2.796
			c-0.696-1.176-1.044-2.508-1.044-3.996c0-1.2,0.24-2.312,0.72-3.336c0.48-1.024,1.132-1.924,1.956-2.7
			c0.824-0.776,1.76-1.38,2.809-1.812c1.047-0.432,2.147-0.648,3.3-0.648c0.848,0,1.552,0.048,2.111,0.144
			c0.561,0.096,1.064,0.232,1.513,0.408c0.447,0.176,0.896,0.376,1.344,0.6l0.264,4.488h-0.432l-2.28-3.72
			c-0.399-0.255-0.776-0.44-1.128-0.552s-0.776-0.168-1.271-0.168c-0.977,0-1.853,0.292-2.628,0.876
			c-0.776,0.584-1.389,1.408-1.836,2.472c-0.448,1.064-0.673,2.3-0.673,3.708c0,1.392,0.217,2.596,0.648,3.612s1.02,1.8,1.764,2.352
			c0.744,0.552,1.58,0.828,2.508,0.828c0.592,0,1.124-0.076,1.597-0.228c0.472-0.152,0.924-0.348,1.355-0.588l2.16-3.216h0.408
			l-0.336,4.056c-0.656,0.384-1.444,0.688-2.364,0.912C537.123,348.257,536.087,348.369,534.936,348.369z"/>
		<path class="st0" d="M543.479,348.129v-0.384l1.775-0.792v-11.088l-1.775-0.792v-0.384h6.936v0.384l-1.656,0.792v4.728h5.376
			v-4.728l-1.655-0.792v-0.384h6.911v0.384l-1.752,0.792v11.088l1.752,0.792v0.384h-6.911v-0.384l1.655-0.792v-5.136h-5.376v5.136
			l1.656,0.792v0.384H543.479z"/>
		<path class="st0" d="M560.879,348.129v-0.384l1.225-0.696l5.352-12.48h2.04l5.256,12.336l1.488,0.84v0.384h-6.72v-0.384
			l1.703-0.72l-1.367-3.288h-4.849l-1.368,3.288l1.704,0.72v0.384H560.879z M565.511,342.513h3.816l-1.92-4.584L565.511,342.513z"/>
		<path class="st0" d="M577.751,348.129v-0.384l1.776-0.792v-11.088l-1.776-0.792v-0.384h7.272c1.68,0,3,0.296,3.96,0.888
			s1.439,1.52,1.439,2.784c0,0.784-0.252,1.472-0.756,2.064c-0.504,0.592-1.196,1.048-2.076,1.368c-0.88,0.32-1.88,0.48-3,0.48
			h-1.56v4.68l2.136,0.792v0.384H577.751z M583.031,335.913v5.232h0.672c1.023,0,1.808-0.236,2.352-0.708
			c0.544-0.472,0.816-1.116,0.816-1.932c0-0.912-0.276-1.572-0.828-1.98s-1.38-0.612-2.484-0.612H583.031z"/>
		<path class="st0" d="M594.814,348.129v-0.384l2.208-0.792v-11.04h-2.976l-1.608,3.312h-0.384v-4.536h13.44v4.536h-0.385
			l-1.632-3.312h-2.976v11.04l2.231,0.792v0.384H594.814z"/>
		<path class="st0" d="M607.414,348.129v-0.384l1.776-0.792v-11.088l-1.776-0.792v-0.384h11.592v3.6h-0.384l-1.56-2.376h-4.368
			v4.704h3.096l1.104-1.728h0.359v4.56h-0.359l-1.104-1.704h-3.096v5.16h4.848l1.656-3.096h0.384v4.32H607.414z"/>
		<path class="st0" d="M621.887,348.129v-0.384l1.775-0.792v-11.088l-1.775-0.792v-0.384h7.344c1.456,0,2.604,0.292,3.444,0.876
			c0.84,0.584,1.26,1.38,1.26,2.388c0,1.472-0.896,2.52-2.688,3.144l3.696,5.88l1.56,0.768v0.384h-4.968l-3.479-6.12h-0.889v4.92
			l1.536,0.816v0.384H621.887z M627.838,335.793h-0.672v5.088h0.744c0.848,0,1.477-0.236,1.884-0.708
			c0.408-0.472,0.612-1.1,0.612-1.884C630.406,336.625,629.55,335.793,627.838,335.793z"/>
		<path class="st0" d="M643.414,348.129v-0.384l2.04-0.984v-13.104l-2.04-0.984v-0.384h7.704v0.384l-2.04,0.984v13.104l2.04,0.984
			v0.384H643.414z"/>
	</g>
	<g>
		<g>
			<path class="st7" d="M351.712,419.102v-0.765l4.252-2.007v-25.993l-4.252-2.007v-0.765h17.774c3.949,0,7.302,0.621,10.058,1.864
				c2.755,1.242,4.857,2.946,6.308,5.112c1.448,2.167,2.174,4.619,2.174,7.358c0,2.484-0.462,4.778-1.386,6.88
				c-0.925,2.103-2.238,3.918-3.942,5.447c-1.704,1.529-3.703,2.723-5.996,3.583c-2.294,0.86-4.811,1.29-7.55,1.29H351.712z
				 M366.954,390.195h-1.912v26.28h2.629c3.566,0,6.29-1.187,8.17-3.56c1.879-2.373,2.819-5.55,2.819-9.533
				c0-4.045-0.964-7.254-2.891-9.628C373.842,391.382,370.903,390.195,366.954,390.195z"/>
			<path class="st7" d="M413.621,419.102v-0.765l3.632-1.577v-22.075l-3.632-1.577v-0.764h24.799v7.454h-0.765l-3.632-4.969h-7.932
				v9.365h5.495l2.724-3.583h0.717v9.27h-0.717l-2.724-3.536h-5.495v10.273h8.792l3.918-6.785h0.765v9.27H413.621z"/>
			<path class="st7" d="M466.3,419.102v-0.765l3.631-1.577v-22.075l-3.631-1.577v-0.764h17.01c3.185,0,5.749,0.566,7.692,1.696
				c1.943,1.131,2.915,2.938,2.915,5.423c0,1.561-0.51,2.915-1.529,4.062s-2.405,2.047-4.156,2.7
				c-1.753,0.653-3.728,0.979-5.926,0.979h-3.535v9.556l4.491,1.577v0.765H466.3z M478.771,394.829v10.225h0.525
				c1.975,0,3.424-0.469,4.348-1.409c0.924-0.939,1.386-2.19,1.386-3.751c0-1.784-0.485-3.074-1.457-3.87
				c-0.972-0.796-2.493-1.195-4.563-1.195H478.771z"/>
			<path class="st7" d="M515.155,419.102v-0.765l2.484-1.433l10.655-24.799h5.352l10.416,24.321l3.059,1.911v0.765h-15.29v-0.765
				l3.44-1.481l-2.532-6.116h-9.461l-2.532,6.068l3.297,1.529v0.765H515.155z M524.329,408.256h7.358l-3.679-8.744L524.329,408.256z
				"/>
			<path class="st7" d="M573.181,419.102v-0.765l3.632-1.577v-22.075l-3.632-1.577v-0.764h17.249c2.835,0,5.08,0.558,6.737,1.672
				c1.656,1.115,2.484,2.66,2.484,4.635c0,1.402-0.414,2.604-1.242,3.607c-0.829,1.003-2.15,1.824-3.966,2.46l7.263,11.993
				l3.105,1.625v0.765h-11.897l-6.354-12.184h-0.908v9.795l3.059,1.625v0.765H573.181z M586.32,394.447h-0.669v10.321h0.717
				c1.688,0,2.867-0.493,3.536-1.481c0.669-0.987,1.003-2.262,1.003-3.823c0-1.625-0.351-2.867-1.051-3.727
				C589.155,394.877,587.977,394.447,586.32,394.447z"/>
			<path class="st7" d="M632.807,419.102v-0.765l4.491-1.577v-21.932h-4.97l-3.774,7.263h-0.765v-9.747h27.856v9.747h-0.717
				l-3.822-7.263h-4.97v21.932l4.492,1.577v0.765H632.807z"/>
			<path class="st7" d="M699.188,419.58c-2.549,0-4.834-0.382-6.856-1.147c-2.023-0.765-3.607-2.062-4.754-3.894
				c-1.146-1.832-1.72-4.324-1.72-7.478v-12.327l-3.68-1.625v-0.764h16.198v0.764l-3.68,1.625v12.662
				c0,2.198,0.318,3.935,0.956,5.208c0.637,1.274,1.513,2.174,2.628,2.699c1.114,0.526,2.356,0.789,3.727,0.789
				c1.242,0,2.381-0.239,3.417-0.717c1.034-0.478,1.863-1.25,2.484-2.317c0.621-1.067,0.932-2.476,0.932-4.229v-14.191l-3.68-1.529
				v-0.764h10.513v0.764l-3.68,1.577v13.188c0,3.982-1.067,6.928-3.201,8.839C706.657,418.624,703.456,419.58,699.188,419.58z"/>
			<path class="st7" d="M742.181,419.102v-0.765l3.631-1.577v-22.075l-3.631-1.577v-0.764h17.249c2.835,0,5.08,0.558,6.737,1.672
				c1.655,1.115,2.484,2.66,2.484,4.635c0,1.402-0.414,2.604-1.242,3.607c-0.829,1.003-2.15,1.824-3.966,2.46l7.263,11.993
				l3.105,1.625v0.765h-11.897l-6.354-12.184h-0.908v9.795l3.058,1.625v0.765H742.181z M755.32,394.447h-0.669v10.321h0.717
				c1.688,0,2.867-0.493,3.536-1.481c0.669-0.987,1.003-2.262,1.003-3.823c0-1.625-0.351-2.867-1.051-3.727
				C758.155,394.877,756.977,394.447,755.32,394.447z"/>
			<path class="st7" d="M799.446,419.102v-0.765l3.631-1.577v-22.075l-3.631-1.577v-0.764h24.798v7.454h-0.764l-3.632-4.969h-7.932
				v9.365h5.495l2.724-3.583h0.717v9.27h-0.717l-2.724-3.536h-5.495v10.273h8.792l3.918-6.785h0.765v9.27H799.446z"/>
		</g>
	</g>
</g>
</svg>
