<svg xmlns="http://www.w3.org/2000/svg" viewBox="0 0 16.727 16.727">
  <defs>
    <style>
      .cls-1 {
        fill: #f9c023;
      }

      .cls-2 {
        fill: #0f1014;
      }
    </style>
  </defs>
  <g id="Layer_2" data-name="Layer 2">
    <g id="Layer_1-2" data-name="Layer 1">
      <g>
        <circle class="cls-1" cx="8.363" cy="8.363" r="8.363"/>
        <path class="cls-2" d="M7.048,12.9a1.138,1.138,0,0,1,.393-.891,1.418,1.418,0,0,1,.977-.347,1.422,1.422,0,0,1,.978.347,1.207,1.207,0,0,1,0,1.781,1.422,1.422,0,0,1-.978.347,1.418,1.418,0,0,1-.977-.347A1.136,1.136,0,0,1,7.048,12.9Zm2.389-2.271h-2L7.122,3.346H9.751Z"/>
      </g>
    </g>
  </g>
</svg>
