<?xml version="1.0" encoding="utf-8"?>
<!-- Generator: Adobe Illustrator 24.3.0, SVG Export Plug-In . SVG Version: 6.00 Build 0)  -->
<svg version="1.1" id="Layer_1" xmlns="http://www.w3.org/2000/svg" xmlns:xlink="http://www.w3.org/1999/xlink" x="0px" y="0px"
	 viewBox="0 0 5 645" style="enable-background:new 0 0 5 645;" xml:space="preserve">
<style type="text/css">
	.st0{fill:#F9C023;}
	.st1{fill:#4E4E50;}
</style>
<g id="Layer_2_1_">
	<g id="Layer_1-2">
		<g>
			<circle class="st0" cx="2.5" cy="2.5" r="2.5"/>
			<circle class="st0" cx="2.5" cy="22.5" r="2.5"/>
			<circle class="st0" cx="2.5" cy="42.5" r="2.5"/>
			<circle class="st0" cx="2.5" cy="62.5" r="2.5"/>
			<circle class="st0" cx="2.5" cy="82.5" r="2.5"/>
			<circle class="st0" cx="2.5" cy="102.5" r="2.5"/>
			<circle class="st0" cx="2.5" cy="122.5" r="2.5"/>
			<circle class="st0" cx="2.5" cy="142.5" r="2.5"/>
			<circle class="st0" cx="2.5" cy="162.5" r="2.5"/>
			<circle class="st1" cx="2.5" cy="182.5" r="2.5"/>
			<circle class="st1" cx="2.5" cy="202.5" r="2.5"/>
			<circle class="st1" cx="2.5" cy="222.5" r="2.5"/>
			<circle class="st1" cx="2.5" cy="242.5" r="2.5"/>
			<circle class="st1" cx="2.5" cy="262.5" r="2.5"/>
			<circle class="st1" cx="2.5" cy="282.5" r="2.5"/>
			<circle class="st1" cx="2.5" cy="302.5" r="2.5"/>
			<circle class="st1" cx="2.5" cy="322.5" r="2.5"/>
			<circle class="st1" cx="2.5" cy="342.5" r="2.5"/>
			<circle class="st1" cx="2.5" cy="362.5" r="2.5"/>
			<circle class="st1" cx="2.5" cy="382.5" r="2.5"/>
			<circle class="st1" cx="2.5" cy="402.5" r="2.5"/>
			<circle class="st1" cx="2.5" cy="422.5" r="2.5"/>
			<circle class="st1" cx="2.5" cy="442.5" r="2.5"/>
			<circle class="st1" cx="2.5" cy="462.5" r="2.5"/>
			<circle class="st1" cx="2.5" cy="482.5" r="2.5"/>
			<circle class="st1" cx="2.5" cy="502.5" r="2.5"/>
			<circle class="st1" cx="2.5" cy="522.5" r="2.5"/>
			<circle class="st1" cx="2.5" cy="542.5" r="2.5"/>
			<circle class="st1" cx="2.5" cy="562.5" r="2.5"/>
			<circle class="st1" cx="2.5" cy="582.5" r="2.5"/>
			<circle class="st1" cx="2.5" cy="602.5" r="2.5"/>
			<circle class="st1" cx="2.5" cy="622.5" r="2.5"/>
			<circle class="st1" cx="2.5" cy="642.5" r="2.5"/>
			<circle class="st0" cx="2.5" cy="162.5" r="2.5"/>
		</g>
	</g>
</g>
</svg>
