<?xml version="1.0" encoding="utf-8"?>
<!-- Generator: Adobe Illustrator 24.3.0, SVG Export Plug-In . SVG Version: 6.00 Build 0)  -->
<svg version="1.1" id="Layer_1" xmlns="http://www.w3.org/2000/svg" xmlns:xlink="http://www.w3.org/1999/xlink" x="0px" y="0px"
	 viewBox="0 0 56.9 32.8" style="enable-background:new 0 0 56.9 32.8;" xml:space="preserve">
<style type="text/css">
	.st0{fill:#F2F2F2;}
</style>
<g>
	<path class="st0" d="M8,8.1c0-0.5-0.2-0.9-0.5-1.2C6.9,6.5,6.2,6.2,5.5,6.1c-1-0.2-1.9-0.6-2.6-1.2c-0.6-0.5-1-1.2-0.9-2
		c0-0.8,0.4-1.6,1-2.1C3.7,0.3,4.6,0,5.6,0c1-0.1,2,0.3,2.8,1c0.7,0.6,1,1.4,1,2.2l0,0H8c0-0.6-0.2-1.1-0.6-1.5
		C6.9,1.3,6.2,1.1,5.6,1.1C5,1.1,4.4,1.3,3.9,1.6C3.6,1.9,3.3,2.4,3.4,2.9c0,0.5,0.2,0.9,0.6,1.2c0.6,0.4,1.3,0.7,2,0.8
		c0.9,0.2,1.8,0.6,2.6,1.2c0.6,0.5,0.9,1.2,0.9,2c0,0.8-0.4,1.6-1.1,2.1C7.6,10.7,6.6,11,5.6,11c-1,0-2-0.3-2.8-0.9
		C2,9.6,1.6,8.7,1.6,7.8l0,0H3c0,0.6,0.3,1.2,0.8,1.6C4.3,9.7,5,9.9,5.6,9.8c0.6,0,1.2-0.1,1.7-0.5C7.8,9.1,8,8.6,8,8.1z"/>
	<path class="st0" d="M19,7.4L19,7.4c0.1,1-0.3,1.9-1,2.6c-0.8,0.7-1.8,1.1-2.9,1c-1.1,0-2.2-0.4-2.9-1.3C11.4,8.8,11,7.6,11,6.4
		V4.5c0-1.2,0.4-2.4,1.1-3.3C12.9,0.4,14,0,15.1,0c1-0.1,2.1,0.3,2.9,1c0.7,0.6,1.1,1.6,1,2.6l0,0h-1.4c0-0.7-0.2-1.3-0.7-1.8
		c-0.5-0.5-1.2-0.7-1.9-0.7c-0.8,0-1.5,0.3-1.9,1c-0.5,0.7-0.7,1.6-0.7,2.4v1.9c0,0.9,0.2,1.7,0.7,2.4c0.4,0.6,1.2,1,1.9,1
		c0.7,0,1.4-0.2,1.9-0.6c0.5-0.5,0.7-1.1,0.7-1.8L19,7.4z"/>
	<path class="st0" d="M22.3,6.2v4.6h-1.4V0.2h3.9c1-0.1,1.9,0.2,2.7,0.8c0.6,0.6,1,1.4,0.9,2.3c0,0.5-0.1,1-0.4,1.4
		c-0.3,0.4-0.8,0.8-1.2,1c0.5,0.1,1,0.5,1.3,0.9c0.3,0.5,0.4,1,0.4,1.6v1c0,0.3,0,0.6,0.1,0.9c0.1,0.2,0.2,0.5,0.4,0.6v0.2h-1.5
		c-0.2-0.2-0.3-0.5-0.4-0.7c-0.1-0.3-0.1-0.7-0.1-1v-1c0-0.5-0.2-1-0.5-1.4C26,6.4,25.5,6.2,25,6.2H22.3z M22.3,5.1h2.3
		c0.6,0.1,1.2-0.1,1.8-0.5c0.4-0.4,0.6-0.9,0.5-1.4c0-0.5-0.2-1-0.5-1.4c-0.5-0.4-1-0.5-1.6-0.5h-2.4V5.1z"/>
	<path class="st0" d="M38.7,6.4c0,1.2-0.4,2.4-1.2,3.2c-0.8,0.9-2,1.3-3.1,1.3c-1.2,0-2.3-0.4-3-1.3c-0.8-0.9-1.2-2.1-1.2-3.2V4.5
		c0-1.2,0.4-2.3,1.2-3.2c0.8-0.9,1.9-1.3,3-1.3c1.2,0,2.3,0.4,3.1,1.3c0.8,0.9,1.3,2,1.2,3.2L38.7,6.4z M37.2,4.5
		c0-0.9-0.2-1.7-0.8-2.4c-0.5-0.6-1.3-1-2.1-0.9c-0.8,0-1.5,0.3-2,0.9c-0.5,0.7-0.8,1.5-0.8,2.4v1.9c0,0.9,0.2,1.7,0.8,2.4
		c0.5,0.6,1.2,1,2,0.9c0.8,0,1.6-0.3,2.1-0.9c0.5-0.7,0.8-1.5,0.8-2.4L37.2,4.5z"/>
	<path class="st0" d="M42.2,9.7h5v1.1h-6.5V0.2h1.4L42.2,9.7z"/>
	<path class="st0" d="M50.3,9.7h5v1.1h-6.5V0.2h1.4L50.3,9.7z"/>
</g>
<polygon class="st0" points="20.9,25.3 28.4,32.8 36,25.2 "/>
</svg>
