<svg xmlns="http://www.w3.org/2000/svg" viewBox="0 0 74.039 38.685">
  <defs>
    <style>
      .cls-1 {
        fill: none;
        stroke: #ffb900;
        stroke-miterlimit: 10;
      }
    </style>
  </defs>
  <g id="Layer_2" data-name="Layer 2">
    <g id="Layer_8" data-name="Layer 8">
      <g>
        <g>
          <line class="cls-1" x1="74.039" y1="20.038" x2="56.471" y2="20.038"/>
          <line class="cls-1" x1="17.568" y1="20.038" y2="20.038"/>
        </g>
        <g>
          <path class="cls-1" d="M42.594,13.13v3.995a15.18,15.18,0,0,1-.484,3.9,13.858,13.858,0,0,1-3.675-1.6,12.825,12.825,0,0,0,.206-2.316V13.079c0-.319-.01-.638-.041-.947a10.044,10.044,0,0,0-.71-3.222A8.639,8.639,0,0,0,36.3,6.285a8.053,8.053,0,0,0-6.392-2.666H24.889v23h5.023A8.053,8.053,0,0,0,36.3,23.949a6.893,6.893,0,0,0,.783-1.071,17.894,17.894,0,0,0,3.561,1.462,12.589,12.589,0,0,1-1.523,1.884,11.029,11.029,0,0,1-3.634,2.46,12.905,12.905,0,0,1-3.829.947,15.981,15.981,0,0,1-1.75.093H20.936V.5h8.976a12.326,12.326,0,0,1,9.213,3.531A11.762,11.762,0,0,1,41.76,8.138a13.248,13.248,0,0,1,.72,3.088A14.12,14.12,0,0,1,42.594,13.13Z"/>
          <g>
            <path class="cls-1" d="M50.16,10.742a10.807,10.807,0,0,0-7.638-2.624c-.258,0-.515.01-.762.02a13.248,13.248,0,0,1,.72,3.088h.042a6.9,6.9,0,0,1,4.869,1.585,5.426,5.426,0,0,1,1.7,4.159h3.767l.042-.124A7.752,7.752,0,0,0,50.16,10.742Z"/>
            <path class="cls-1" d="M53.1,30.351a6.742,6.742,0,0,1-2.892,5.682,12.347,12.347,0,0,1-7.545,2.152,13.058,13.058,0,0,1-7.741-2.378,7.175,7.175,0,0,1-3.263-6.176,12.905,12.905,0,0,0,3.829-.947c.072,2.687.762,4,2.059,4.92a8.587,8.587,0,0,0,5.116,1.472A7.9,7.9,0,0,0,47.4,33.81a3.972,3.972,0,0,0,1.75-3.407,4.316,4.316,0,0,0-1.513-3.345,12.754,12.754,0,0,0-5.332-2.265c-.577-.134-1.133-.288-1.658-.453a17.894,17.894,0,0,1-3.561-1.462,12.058,12.058,0,0,1-2.018-1.337,6.771,6.771,0,0,1-2.6-5.415,7.094,7.094,0,0,1,2.8-5.713,9.2,9.2,0,0,1,2.625-1.5,10.044,10.044,0,0,1,.71,3.222,4.443,4.443,0,0,0-2.182,3.911,3.837,3.837,0,0,0,1.708,3.181c.1.072.206.144.309.206a13.858,13.858,0,0,0,3.675,1.6v.01c.484.144,1,.288,1.554.432A15.857,15.857,0,0,1,50.7,24.834,7.208,7.208,0,0,1,53.1,30.351Z"/>
          </g>
        </g>
      </g>
    </g>
  </g>
</svg>
