<?xml version="1.0" encoding="utf-8"?>
<!-- Generator: Adobe Illustrator 24.3.0, SVG Export Plug-In . SVG Version: 6.00 Build 0)  -->
<svg version="1.1" id="Layer_1" xmlns="http://www.w3.org/2000/svg" xmlns:xlink="http://www.w3.org/1999/xlink" x="0px" y="0px"
	 viewBox="0 0 104.3 118.4" style="enable-background:new 0 0 104.3 118.4;" xml:space="preserve">
<style type="text/css">
	.st0{fill:#9BB1C8;}
</style>
<g>
	<g>
		<path class="st0" d="M52,118.4c-7.7,0-14.8-1.5-21.2-4.3c-6.4-2.9-11.9-7-16.5-12.2C9.7,96.6,6.2,90.4,3.7,83.4
			C1.2,76.3,0,68.5,0,60.1v-1.7C0,50,1.2,42.2,3.7,35.1s6-13.3,10.6-18.5c4.6-5.3,10.1-9.4,16.4-12.3C37.1,1.4,44.2,0,51.9,0
			c7.8,0,14.9,1.4,21.3,4.3c6.4,2.9,12,7,16.6,12.3S98,28,100.5,35.1s3.8,14.8,3.8,23.2V60c0,8.4-1.3,16.2-3.8,23.3
			c-2.5,7.1-6.1,13.3-10.7,18.5s-10.2,9.3-16.6,12.2S59.8,118.4,52,118.4z M52,100.5c6.5,0,12-1.7,16.3-5.1s7.6-8.1,9.8-14.1
			c2.2-6.1,3.3-13.1,3.3-21.2v-1.9c0-8-1.1-15-3.3-21c-2.2-6-5.5-10.7-9.8-14.1S58.5,18,52.1,18s-11.8,1.7-16,5
			c-4.3,3.3-7.5,8-9.6,14s-3.2,13-3.2,21.1V60c0,8.1,1.1,15.1,3.2,21.2s5.3,10.8,9.6,14.1C40.2,98.8,45.6,100.5,52,100.5z"/>
	</g>
</g>
</svg>
