<!-- Generator: Adobe Illustrator 24.3.0, SVG Export Plug-In  -->
<svg version="1.1" xmlns="http://www.w3.org/2000/svg" xmlns:xlink="http://www.w3.org/1999/xlink" x="0px" y="0px" width="104.3px"
	 height="118.4px" viewBox="0 0 104.3 118.4" style="overflow:visible;enable-background:new 0 0 104.3 118.4;"
	 xml:space="preserve">
<style type="text/css">
	.st0{fill:#CECFD1;}
</style>
<defs>
</defs>
<g>
	<g>
		<path class="st0" d="M52,118.4c-7.7,0-14.8-1.5-21.2-4.3c-6.4-2.9-11.9-7-16.5-12.2C9.7,96.6,6.2,90.4,3.7,83.4
			C1.2,76.3,0,68.5,0,60.1v-1.7C0,50,1.2,42.2,3.7,35.1c2.5-7.1,6-13.3,10.6-18.5c4.6-5.3,10.1-9.4,16.4-12.3
			C37.1,1.4,44.2,0,51.9,0c7.8,0,14.9,1.4,21.3,4.3c6.4,2.9,12,7,16.6,12.3c4.6,5.3,8.2,11.4,10.7,18.5c2.5,7.1,3.8,14.8,3.8,23.2
			v1.7c0,8.4-1.3,16.2-3.8,23.3c-2.5,7.1-6.1,13.3-10.7,18.5c-4.6,5.2-10.2,9.3-16.6,12.2S59.8,118.4,52,118.4z M52,100.5
			c6.5,0,12-1.7,16.3-5.1c4.3-3.4,7.6-8.1,9.8-14.1c2.2-6.1,3.3-13.1,3.3-21.2v-1.9c0-8-1.1-15-3.3-21c-2.2-6-5.5-10.7-9.8-14.1
			c-4.3-3.4-9.8-5.1-16.2-5.1c-6.4,0-11.8,1.7-16,5c-4.3,3.3-7.5,8-9.6,14c-2.1,6-3.2,13-3.2,21.1v1.9c0,8.1,1.1,15.1,3.2,21.2
			c2.1,6.1,5.3,10.8,9.6,14.1C40.2,98.8,45.6,100.5,52,100.5z"/>
	</g>
</g>
</svg>
