<!-- Generator: Adobe Illustrator 24.3.0, SVG Export Plug-In  -->
<svg version="1.1" xmlns="http://www.w3.org/2000/svg" xmlns:xlink="http://www.w3.org/1999/xlink" x="0px" y="0px" width="426.3px"
	 height="123.7px" viewBox="0 0 426.3 123.7" style="overflow:visible;enable-background:new 0 0 426.3 123.7;"
	 xml:space="preserve">
<style type="text/css">
	.st0{fill:#9BB1C8;}
	.st1{fill:none;stroke:#9BB1C8;stroke-width:0.25;stroke-miterlimit:10;}
	.st2{fill:none;stroke:#9BB1C8;stroke-miterlimit:10;}
</style>
<defs>
</defs>
<g>
	<path class="st0" d="M15.4,115l-5.2,8.7h414.5l1.6-34.5c0,0-12.1,4.9-16.1,5.5c-3.9,0.6-43.6,1.2-43.6,1.2l-2.5,5.8l-66,1.2
		l-0.5,2.5c0,0-218.4,1.6-246.4,1v-1.2l-45.2,0.3v-1.3L0,104.3C0,104.3,1.3,111.6,15.4,115z"/>
	<path class="st0" d="M7.6,105v-5.1l2.7,0.4v1.9h1.5v-1.8h1.9v3h2l4-3.5h3.4l1.6,2.6h1.9l2.2-3.8h7.9h15.2v2.3l4.5,1.4h14.5h11v-1
		h12.7h2.3c0,0,43.7,0.7,49,0.7c5.4,0,72,0.1,87.4-0.1c15.4-0.2,54.8-0.7,54.8-0.7v-3.1l50.3-1.5l18.1-1.2l3.1-3.5l50.2-3.6
		l16.4-6.4v7.3c0,0-7.8,5.7-12.6,7.2s-44.5,3.5-44.5,3.5l-6.4,5.9l-59.3,0.7v3.2h-157H8.1L7.6,105z"/>
	<rect x="37.3" y="96.5" class="st0" width="5.9" height="6.5"/>
	<polygon class="st0" points="97,106.4 97,90.9 99.6,90.9 101.4,89.2 287.6,81.9 288.1,104.5 	"/>
	<path class="st0" d="M199.3,89.3L194,50c0,0-0.4-1.7,1.1-3.1c1.4-1.4,13.7-1.6,15.1-1.6l6.1,42.4L199.3,89.3z"/>
	<polygon class="st0" points="109.2,89.7 109.7,78.6 112.8,77.9 113.6,90.4 	"/>
	<path class="st0" d="M127.2,89.3c0,0,0-4.2,0-5.8c0-1.1,1.4-1.6,2.5-1.6c1.2,0,1.6,0,1.6,0v2.7c0,0-1.6-0.2-1.6,1
		c0,1.3,0,3.2,0,3.2L127.2,89.3z"/>
	<path class="st0" d="M145.3,89.3c0,0,0-4.2,0-5.8c0-1.6,0.9-1.6,1.7-1.6c0.8,0,1.7,0.7,1.7,0.7v1.9c0,0-1.1-0.2-1.1,1
		c0,1.3,0.3,3.2,0.3,3.2L145.3,89.3z"/>
	<polygon class="st0" points="156,87.4 156,84.4 200.3,83.7 201.5,87.4 	"/>
	<path class="st0" d="M248.7,83.4"/>
	<polygon class="st0" points="281.6,82.8 281.6,77.4 288.6,73.5 288.1,101.2 283.8,99.7 	"/>
	<path class="st0" d="M292.9,98.9V80.7c0,0-0.2-1.6,1.1-2.6c1.3-1,2.6-1.4,2.6-1.4v4c0,0-0.9,0.1-0.9,1.1s0,17.1,0,17.1H292.9z"/>
	<polygon class="st0" points="287.6,86.8 291.5,86.8 293.1,89.2 293.1,83.4 291.5,85.1 287.2,84.8 	"/>
	<path class="st0" d="M97,90.9c0,0-5.9-44.1-8-60.7s-2.1-20-2.1-20l0.5-0.1c0,0,11.9,77.1,12.2,80.8H97z"/>
	<path class="st0" d="M92.5,102.1c0,0-1.2-22-1.2-23.6c0-1.6,1.6-1.9,1.9,0l1.9,23.6H92.5z"/>
	<polygon class="st0" points="94.1,98.2 98.1,98.2 98.1,94.1 93.6,94.1 	"/>
	<path class="st0" d="M322.5,98.9l-5.3-42.6l-4.5-55.9c0,0,0.4-0.8,1,0l11.8,97.8L322.5,98.9z"/>
	<polygon class="st0" points="321.6,73.5 324.9,73.5 324.9,66.3 320.5,66.3 	"/>
	<polygon class="st0" points="318.2,37.3 318.2,33.7 319.7,33.7 320.5,29.1 316.5,29.1 	"/>
	<polygon class="st0" points="312.7,98.9 312.7,83.4 316,83.4 318.6,91.8 315.6,92.1 315.6,98.9 	"/>
	<polyline class="st1" points="93.7,57.3 81.1,49.4 91.3,41 	"/>
	<path class="st0" d="M82.1,54.3c0,0-2.1,0.1-3.2,0.9c-1.2,0.8-2.2,1.6-4.2,1.5c-2.1-0.1-0.3-0.7,0.8-2.4c1.5-2.4,5.7-5.6,5.7-5.6
		L82.1,54.3z"/>
	<rect x="274" y="76.8" class="st0" width="1.3" height="7"/>
	<rect x="266.1" y="76.8" class="st0" width="1.3" height="7"/>
	<path class="st0" d="M248.7,84.4v-2.6l1.7-1.6h19c0,0,0.2-1.1,1-1.1c0.8,0,2,1.1,2,1.1l11.3-0.7l-0.4,4.1L248.7,84.4z"/>
	<polygon class="st0" points="250.6,78.2 277.9,77 277.9,80.3 278.9,80.3 278.9,67.1 278.4,67.1 278.1,76.1 250.6,76.6 	"/>
	<path class="st0" d="M221.6,86.3l1.1-8.4c0.1-0.5-0.4-0.9-0.9-0.7l-4.4,1.6c-0.7,0.3-1.3,0.9-1.5,1.6l-1.2,5.2L221.6,86.3z"/>
	<polygon class="st0" points="221,81.5 250.4,80.3 250.6,76.6 249.8,76.8 249.6,79.1 221,80.3 	"/>
	<polyline class="st2" points="318.6,101.2 318.5,56 316.5,101.2 	"/>
	<polyline class="st2" points="331.4,98.9 318.5,56 329.4,98.9 	"/>
	<polyline class="st2" points="111.2,94.1 93.2,56 109.2,94.1 	"/>
</g>
</svg>
