<svg xmlns="http://www.w3.org/2000/svg" viewBox="0 0 263.896 319.733">
  <defs>
    <style>
      .cls-1 {
        fill: #97adc4;
      }

      .cls-2 {
        opacity: 0.4;
      }
    </style>
  </defs>
  <g id="Layer_2" data-name="Layer 2">
    <g id="Layer_8" data-name="Layer 8">
      <g>
        <g>
          <path class="cls-1" d="M33.948,112.033a10.924,10.924,0,0,1-3.255-.42,13.3,13.3,0,0,1-2.66-1.189l.665-5.356h.561l1.05,4.13a4.833,4.833,0,0,0,1.872,1.208,6.419,6.419,0,0,0,2.222.4,4.926,4.926,0,0,0,3.8-1.452,5.362,5.362,0,0,0,1.348-3.8,3.793,3.793,0,0,0-.508-2,5.616,5.616,0,0,0-1.5-1.575q-1-.734-2.5-1.68a10.747,10.747,0,0,1-2.939-2.467,4.707,4.707,0,0,1-.91-2.922,5.987,5.987,0,0,1,.98-3.308,7.433,7.433,0,0,1,2.59-2.45,6.761,6.761,0,0,1,3.43-.928,9.148,9.148,0,0,1,2.712.385,10.88,10.88,0,0,1,2.4,1.085l-.63,5.216H42.1l-.911-3.955a4.659,4.659,0,0,0-1.364-1.016,4.426,4.426,0,0,0-2.065-.455,4.489,4.489,0,0,0-3.238,1.226,4.342,4.342,0,0,0-1.277,3.29,3.984,3.984,0,0,0,.8,2.467,10.89,10.89,0,0,0,3.009,2.4,21.215,21.215,0,0,1,2.7,1.854,5.756,5.756,0,0,1,1.54,1.89,5.52,5.52,0,0,1,.49,2.415,6.251,6.251,0,0,1-1.033,3.431,7.653,7.653,0,0,1-2.818,2.59A8.149,8.149,0,0,1,33.948,112.033Z"/>
          <path class="cls-1" d="M49.174,112.033a1.977,1.977,0,0,1-1.628-.665,2.911,2.911,0,0,1-.542-1.89,3.435,3.435,0,0,1,.052-.559q.053-.315.088-.665l1.924-11.061h-2.66v-.245l3.08-1.085L51.8,92.084h.245l-.665,3.849h4.234v1.26H51.134l-1.681,9.7c-.047.327-.087.629-.122.91a6,6,0,0,0-.053.734,2.035,2.035,0,0,0,.263,1.19.92.92,0,0,0,.787.35,2.647,2.647,0,0,0,1.785-.944,8.662,8.662,0,0,0,1.715-2.766l.49.21a11.384,11.384,0,0,1-2.432,4.218A3.946,3.946,0,0,1,49.174,112.033Z"/>
          <path class="cls-1" d="M59.674,112.033a1.5,1.5,0,0,1-1.452-.857,4.451,4.451,0,0,1-.088-2.712l1.925-10.955-2.59-.7v-.28l4.725-.944h.28l-2.135,11.934a5.789,5.789,0,0,0-.122,1.943.612.612,0,0,0,.647.543q1.4,0,2.66-2.766l.455.176a10.664,10.664,0,0,1-2.065,3.534A3.181,3.181,0,0,1,59.674,112.033ZM62.3,90.509a1.482,1.482,0,0,1-1.085-.455,1.52,1.52,0,0,1-.455-1.121,1.554,1.554,0,0,1,1.54-1.54,1.529,1.529,0,0,1,1.12.455,1.485,1.485,0,0,1,.455,1.085A1.554,1.554,0,0,1,62.3,90.509Z"/>
          <path class="cls-1" d="M68.669,112.033a1.472,1.472,0,0,1-1.436-.857,4.718,4.718,0,0,1-.1-2.712l3.744-21.106-2.59-.7v-.279l4.691-.946h.314l-3.955,22.085a5.789,5.789,0,0,0-.122,1.943.613.613,0,0,0,.647.543,2,2,0,0,0,1.366-.7,6.749,6.749,0,0,0,1.3-2.066l.49.176a10.472,10.472,0,0,1-2.083,3.534A3.237,3.237,0,0,1,68.669,112.033Z"/>
          <path class="cls-1" d="M77.629,112.033a1.472,1.472,0,0,1-1.436-.857,4.718,4.718,0,0,1-.1-2.712l3.744-21.106-2.59-.7v-.279l4.691-.946h.314l-3.955,22.085a5.789,5.789,0,0,0-.122,1.943.613.613,0,0,0,.647.543,2,2,0,0,0,1.366-.7,6.749,6.749,0,0,0,1.3-2.066l.49.176a10.472,10.472,0,0,1-2.083,3.534A3.237,3.237,0,0,1,77.629,112.033Z"/>
          <path class="cls-1" d="M95.233,112.033a1.505,1.505,0,0,1-1.452-.857,4.458,4.458,0,0,1-.088-2.712l1.925-10.955-2.59-.7v-.28l4.726-.944h.279L95.9,107.518a5.789,5.789,0,0,0-.122,1.943.613.613,0,0,0,.648.543q1.4,0,2.66-2.766l.455.176a10.681,10.681,0,0,1-2.065,3.534A3.181,3.181,0,0,1,95.233,112.033Zm2.625-21.524a1.482,1.482,0,0,1-1.085-.455,1.524,1.524,0,0,1-.455-1.121,1.554,1.554,0,0,1,1.54-1.54,1.53,1.53,0,0,1,1.121.455,1.489,1.489,0,0,1,.455,1.085,1.554,1.554,0,0,1-1.576,1.576Z"/>
          <path class="cls-1" d="M102.2,111.683l2.485-14.139-2.415-.736v-.28l4.2-.944h.175l-.245,3.779h.105a29.2,29.2,0,0,1,2.2-2.187,7.163,7.163,0,0,1,1.838-1.207,4.844,4.844,0,0,1,1.942-.385,2.85,2.85,0,0,1,2.573,1.347,5.318,5.318,0,0,1,.4,3.833l-1.225,6.754a5.77,5.77,0,0,0-.123,1.943.614.614,0,0,0,.648.543q1.4,0,2.66-2.766l.455.176a10.086,10.086,0,0,1-2.048,3.534,3.234,3.234,0,0,1-2.257,1.085,1.47,1.47,0,0,1-1.435-.857,4.716,4.716,0,0,1-.105-2.712l1.365-7.84a4.032,4.032,0,0,0-.21-2.4,1.892,1.892,0,0,0-1.925-1,3.466,3.466,0,0,0-1.75.508,9.917,9.917,0,0,0-1.715,1.278q-.84.77-1.61,1.575l-1.925,11.094Z"/>
          <path class="cls-1" d="M127.643,111.683l.14-.525,2.66-.979,3.535-20.09-2.416-.981.141-.524h14.945l-1.015,5.845h-.56l-.84-4.481h-7.805l-1.61,9.1h5.53l1.68-2.906h.595l-1.26,7.175h-.595l-.665-2.87h-5.53l-1.715,9.731,2.94.979-.1.525Z"/>
          <path class="cls-1" d="M148.259,111.683l2.519-14.139-2.485-.736v-.28l4.306-.944h.139l-.28,4.059h.141a16.918,16.918,0,0,1,2-2.677,4.872,4.872,0,0,1,1.469-1.12,3.029,3.029,0,0,1,1.156-.262,1.859,1.859,0,0,1,1.085.314.9.9,0,0,1,.455.736.924.924,0,0,1-.106.42l-.665,1.259h-.139l-.455-.28a1.859,1.859,0,0,0-1.085-.314,2.9,2.9,0,0,0-1.891.769,13.751,13.751,0,0,0-2.274,2.905l-1.821,10.29Z"/>
          <path class="cls-1" d="M164.428,112.033a4.576,4.576,0,0,1-3.867-1.609,6.622,6.622,0,0,1-1.243-4.165,11.413,11.413,0,0,1,.7-3.973,11.738,11.738,0,0,1,1.924-3.412,10.094,10.094,0,0,1,2.765-2.4,6.331,6.331,0,0,1,3.22-.892,3.762,3.762,0,0,1,2.695.84,2.562,2.562,0,0,1,.875,1.889,2.911,2.911,0,0,1-.962,2.083,8.3,8.3,0,0,1-3.168,1.715,33.473,33.473,0,0,1-5.915,1.278,14.98,14.98,0,0,0-.14,2.064,5.7,5.7,0,0,0,1.05,3.676,3.652,3.652,0,0,0,3.01,1.3q2.8,0,4.9-3.255h.07l.28.21a9.591,9.591,0,0,1-2.537,3.29A5.551,5.551,0,0,1,164.428,112.033Zm2.765-15.47a4.634,4.634,0,0,0-3.5,1.628,9.124,9.124,0,0,0-2.1,4.358,22.518,22.518,0,0,0,6.02-1.558,2.769,2.769,0,0,0,1.785-2.538,1.829,1.829,0,0,0-.543-1.347A2.262,2.262,0,0,0,167.193,96.563Z"/>
          <path class="cls-1" d="M179.232,112.033a4.576,4.576,0,0,1-3.867-1.609,6.628,6.628,0,0,1-1.242-4.165,11.412,11.412,0,0,1,.7-3.973,11.764,11.764,0,0,1,1.925-3.412,10.065,10.065,0,0,1,2.765-2.4,6.328,6.328,0,0,1,3.219-.892,3.765,3.765,0,0,1,2.7.84,2.562,2.562,0,0,1,.875,1.889,2.915,2.915,0,0,1-.962,2.083,8.312,8.312,0,0,1-3.168,1.715,33.493,33.493,0,0,1-5.915,1.278,14.98,14.98,0,0,0-.14,2.064,5.7,5.7,0,0,0,1.05,3.676,3.652,3.652,0,0,0,3.01,1.3q2.8,0,4.9-3.255h.069l.281.21a9.6,9.6,0,0,1-2.537,3.29A5.551,5.551,0,0,1,179.232,112.033ZM182,96.563a4.634,4.634,0,0,0-3.5,1.628,9.134,9.134,0,0,0-2.1,4.358,22.516,22.516,0,0,0,6.021-1.558,2.771,2.771,0,0,0,1.785-2.538,1.833,1.833,0,0,0-.543-1.347A2.262,2.262,0,0,0,182,96.563Z"/>
          <path class="cls-1" d="M191.973,112.033a1.977,1.977,0,0,1-1.628-.665,2.905,2.905,0,0,1-.542-1.89,3.539,3.539,0,0,1,.051-.559q.054-.315.088-.665l1.925-11.061h-2.66v-.245l3.08-1.085,2.311-3.779h.245l-.665,3.849h4.234v1.26h-4.479l-1.681,9.7c-.047.327-.087.629-.122.91a6,6,0,0,0-.053.734,2.035,2.035,0,0,0,.263,1.19.919.919,0,0,0,.787.35,2.647,2.647,0,0,0,1.785-.944,8.662,8.662,0,0,0,1.715-2.766l.49.21a11.384,11.384,0,0,1-2.432,4.218A3.946,3.946,0,0,1,191.973,112.033Z"/>
          <path class="cls-1" d="M205.378,112.033a4.911,4.911,0,0,1-4.131-1.8,7.337,7.337,0,0,1-1.4-4.637,11.058,11.058,0,0,1,.63-3.71,11.262,11.262,0,0,1,1.732-3.2,8.558,8.558,0,0,1,2.607-2.257,6.493,6.493,0,0,1,3.22-.84,4.907,4.907,0,0,1,4.13,1.8,7.4,7.4,0,0,1,1.4,4.672,11.167,11.167,0,0,1-.577,3.483,11.334,11.334,0,0,1-1.663,3.237,8.717,8.717,0,0,1-2.59,2.362A6.451,6.451,0,0,1,205.378,112.033Zm.454-1.05a3.918,3.918,0,0,0,2.835-1.207,8.234,8.234,0,0,0,1.926-3.237,13.693,13.693,0,0,0,.7-4.481,7.916,7.916,0,0,0-.857-3.99,3.009,3.009,0,0,0-2.818-1.47,4.064,4.064,0,0,0-2.852,1.156,7.671,7.671,0,0,0-1.943,3.149,13.58,13.58,0,0,0-.7,4.516,8.066,8.066,0,0,0,.875,4.059A3.027,3.027,0,0,0,205.832,110.983Z"/>
          <path class="cls-1" d="M220.778,111.789l-2.765-14.316-2.555-.665v-.28l4.235-.944h.14l2.24,12.7h.14l5.565-12.356h.385l2.625,12.706h.14l2.45-4.585q.98-1.856,1.47-3.045a5.456,5.456,0,0,0,.49-2,1.627,1.627,0,0,0-.245-.946,2.217,2.217,0,0,0-.63-.595l-.525-.28v-.139l.56-.911a1.336,1.336,0,0,1,.385-.455.8.8,0,0,1,.42-.1,1.442,1.442,0,0,1,1.208.8,3.164,3.164,0,0,1,.508,1.714,5.333,5.333,0,0,1-.473,1.925,29.327,29.327,0,0,1-1.663,3.221l-4.9,8.54h-.49l-2.52-11.586-5.67,11.586Z"/>
          <path class="cls-1" d="M238.942,111.683l2.485-14.139-2.415-.736v-.28l4.2-.944h.175l-.244,3.779h.1a29.2,29.2,0,0,1,2.2-2.187,7.163,7.163,0,0,1,1.838-1.207,4.844,4.844,0,0,1,1.942-.385,2.85,2.85,0,0,1,2.573,1.347,5.318,5.318,0,0,1,.4,3.833l-1.225,6.754a5.77,5.77,0,0,0-.123,1.943.614.614,0,0,0,.648.543q1.4,0,2.66-2.766l.455.176a10.07,10.07,0,0,1-2.048,3.534,3.234,3.234,0,0,1-2.257,1.085,1.471,1.471,0,0,1-1.435-.857,4.725,4.725,0,0,1-.105-2.712l1.366-7.84a4.048,4.048,0,0,0-.21-2.4,1.894,1.894,0,0,0-1.926-1,3.466,3.466,0,0,0-1.75.508,9.955,9.955,0,0,0-1.715,1.278q-.84.77-1.609,1.575l-1.926,11.094Z"/>
          <path class="cls-1" d="M255.252,118.158v-.56a8.114,8.114,0,0,0,2.59-1.977,3.416,3.416,0,0,0,.77-2.117,2.717,2.717,0,0,0-.28-1.3,2.4,2.4,0,0,0-.805-.875l-.91-.6v-.279l.595-.841q.454-.7.91-.7a1.529,1.529,0,0,1,.734.279,3.611,3.611,0,0,1,1.611,3.08,4.751,4.751,0,0,1-1.278,3.133A11.809,11.809,0,0,1,255.252,118.158Z"/>
          <path class="cls-1" d="M10.465,151.789,7.7,137.473l-2.554-.665v-.28l4.235-.944h.14l2.24,12.7H11.9l5.566-12.356h.385l2.625,12.706h.139l2.45-4.585q.981-1.855,1.47-3.045a5.456,5.456,0,0,0,.49-1.995,1.627,1.627,0,0,0-.245-.946,2.217,2.217,0,0,0-.63-.595l-.524-.28v-.139l.56-.911a1.324,1.324,0,0,1,.384-.455.805.805,0,0,1,.42-.1,1.442,1.442,0,0,1,1.208.805,3.164,3.164,0,0,1,.508,1.714,5.312,5.312,0,0,1-.473,1.925,29.149,29.149,0,0,1-1.663,3.221l-4.9,8.54h-.49L16.659,140.2l-5.67,11.586Z"/>
          <path class="cls-1" d="M33.738,152.033a4.576,4.576,0,0,1-3.867-1.609,6.628,6.628,0,0,1-1.242-4.165,11.412,11.412,0,0,1,.7-3.973,11.764,11.764,0,0,1,1.925-3.412,10.065,10.065,0,0,1,2.765-2.4,6.328,6.328,0,0,1,3.219-.892,3.765,3.765,0,0,1,2.7.84,2.562,2.562,0,0,1,.875,1.889,2.915,2.915,0,0,1-.962,2.083,8.32,8.32,0,0,1-3.168,1.715,33.493,33.493,0,0,1-5.915,1.278,14.98,14.98,0,0,0-.14,2.064,5.7,5.7,0,0,0,1.05,3.676,3.652,3.652,0,0,0,3.01,1.3q2.8,0,4.9-3.255h.069l.281.21a9.606,9.606,0,0,1-2.538,3.29A5.547,5.547,0,0,1,33.738,152.033Zm2.766-15.47a4.634,4.634,0,0,0-3.5,1.628,9.134,9.134,0,0,0-2.1,4.358,22.527,22.527,0,0,0,6.021-1.558,2.771,2.771,0,0,0,1.785-2.538,1.833,1.833,0,0,0-.543-1.347A2.262,2.262,0,0,0,36.5,136.563Z"/>
          <path class="cls-1" d="M46.618,152.033a2.85,2.85,0,0,1-2.327-1.172,5.536,5.536,0,0,1-.928-3.482,12.372,12.372,0,0,1,.736-4.148,15.152,15.152,0,0,1,1.977-3.815,10.622,10.622,0,0,1,2.87-2.782,6.19,6.19,0,0,1,3.412-1.05,5.439,5.439,0,0,1,1.663.262,5.8,5.8,0,0,1,1.453.682l.944-.769h.525l-2.065,11.759a5.789,5.789,0,0,0-.122,1.943.594.594,0,0,0,.612.543q1.435,0,2.7-2.766l.456.176a10.456,10.456,0,0,1-2.083,3.534,3.208,3.208,0,0,1-2.222,1.085,1.506,1.506,0,0,1-1.453-.857,4.445,4.445,0,0,1-.087-2.712l.139-.736h-.105a18.143,18.143,0,0,1-3.08,3.2A4.871,4.871,0,0,1,46.618,152.033Zm-1.154-5.425q0,3.675,2.274,3.675a3.6,3.6,0,0,0,1.89-.577,9.076,9.076,0,0,0,1.8-1.47,21.728,21.728,0,0,0,1.628-1.908l1.4-8.189a5.037,5.037,0,0,0-1.277-1.05,3.412,3.412,0,0,0-1.7-.386,3.965,3.965,0,0,0-2.467.841,7.281,7.281,0,0,0-1.908,2.274A12.335,12.335,0,0,0,45.884,143,15.391,15.391,0,0,0,45.464,146.608Z"/>
          <path class="cls-1" d="M63.839,152.033a1.977,1.977,0,0,1-1.628-.665,2.911,2.911,0,0,1-.542-1.89,3.551,3.551,0,0,1,.052-.559q.053-.315.088-.665l1.924-11.061h-2.66v-.245l3.08-1.085,2.311-3.779h.245l-.665,3.849h4.234v1.26H65.8l-1.681,9.7c-.047.327-.087.629-.122.91a6,6,0,0,0-.053.734,2.035,2.035,0,0,0,.263,1.19.92.92,0,0,0,.787.35,2.647,2.647,0,0,0,1.785-.944,8.662,8.662,0,0,0,1.715-2.766l.49.21a11.384,11.384,0,0,1-2.432,4.218A3.946,3.946,0,0,1,63.839,152.033Z"/>
          <path class="cls-1" d="M73.919,151.683H71.854l4.27-24.29-2.45-.735v-.279l4.655-.946h.21l-2.45,13.93h.069a29.387,29.387,0,0,1,2.2-2.187,7.2,7.2,0,0,1,1.838-1.207,4.845,4.845,0,0,1,1.943-.385,2.846,2.846,0,0,1,2.572,1.347,5.312,5.312,0,0,1,.4,3.833l-1.225,6.754a5.77,5.77,0,0,0-.123,1.943.613.613,0,0,0,.648.543q1.4,0,2.66-2.766l.454.176a10.664,10.664,0,0,1-2.064,3.534,3.181,3.181,0,0,1-2.24,1.085,1.469,1.469,0,0,1-1.435-.857,4.723,4.723,0,0,1-.106-2.712l1.366-7.84a4.04,4.04,0,0,0-.21-2.4,1.894,1.894,0,0,0-1.925-1,4.182,4.182,0,0,0-2.607,1.05,21.349,21.349,0,0,0-2.433,2.276Z"/>
          <path class="cls-1" d="M94.884,152.033a4.576,4.576,0,0,1-3.867-1.609,6.622,6.622,0,0,1-1.243-4.165,11.413,11.413,0,0,1,.7-3.973,11.738,11.738,0,0,1,1.924-3.412,10.094,10.094,0,0,1,2.765-2.4,6.331,6.331,0,0,1,3.22-.892,3.762,3.762,0,0,1,2.695.84,2.562,2.562,0,0,1,.875,1.889,2.911,2.911,0,0,1-.962,2.083,8.3,8.3,0,0,1-3.168,1.715,33.473,33.473,0,0,1-5.915,1.278,14.98,14.98,0,0,0-.139,2.064,5.7,5.7,0,0,0,1.049,3.676,3.653,3.653,0,0,0,3.01,1.3q2.8,0,4.9-3.255h.07l.28.21a9.591,9.591,0,0,1-2.537,3.29A5.551,5.551,0,0,1,94.884,152.033Zm2.765-15.47a4.634,4.634,0,0,0-3.5,1.628,9.134,9.134,0,0,0-2.1,4.358,22.518,22.518,0,0,0,6.02-1.558,2.769,2.769,0,0,0,1.785-2.538,1.832,1.832,0,0,0-.542-1.347A2.265,2.265,0,0,0,97.649,136.563Z"/>
          <path class="cls-1" d="M105.244,151.683l2.52-14.139-2.486-.736v-.28l4.306-.944h.14l-.281,4.059h.141a17.042,17.042,0,0,1,1.995-2.677,4.874,4.874,0,0,1,1.47-1.12,3.029,3.029,0,0,1,1.155-.262,1.859,1.859,0,0,1,1.085.314.9.9,0,0,1,.455.736.935.935,0,0,1-.105.42l-.665,1.259h-.14l-.455-.28a1.859,1.859,0,0,0-1.085-.314,2.9,2.9,0,0,0-1.891.769,13.751,13.751,0,0,0-2.274,2.905l-1.82,10.29Z"/>
          <path class="cls-1" d="M129.4,151.789l-2.766-14.316-2.555-.665v-.28l4.236-.944h.139l2.24,12.7h.14l5.566-12.356h.384l2.625,12.706h.14l2.45-4.585q.98-1.855,1.47-3.045a5.456,5.456,0,0,0,.49-1.995,1.627,1.627,0,0,0-.245-.946,2.217,2.217,0,0,0-.63-.595l-.524-.28v-.139l.559-.911a1.336,1.336,0,0,1,.385-.455.8.8,0,0,1,.42-.1,1.442,1.442,0,0,1,1.208.805,3.164,3.164,0,0,1,.508,1.714,5.312,5.312,0,0,1-.473,1.925,29.149,29.149,0,0,1-1.663,3.221l-4.9,8.54h-.491l-2.52-11.586-5.67,11.586Z"/>
          <path class="cls-1" d="M150.743,152.033a2.85,2.85,0,0,1-2.327-1.172,5.536,5.536,0,0,1-.928-3.482,12.372,12.372,0,0,1,.736-4.148,15.152,15.152,0,0,1,1.977-3.815,10.622,10.622,0,0,1,2.87-2.782,6.19,6.19,0,0,1,3.412-1.05,5.439,5.439,0,0,1,1.663.262,5.8,5.8,0,0,1,1.453.682l.944-.769h.525L159,147.518a5.789,5.789,0,0,0-.122,1.943.594.594,0,0,0,.612.543q1.435,0,2.695-2.766l.456.176a10.456,10.456,0,0,1-2.083,3.534,3.208,3.208,0,0,1-2.222,1.085,1.506,1.506,0,0,1-1.453-.857,4.445,4.445,0,0,1-.087-2.712l.139-.736h-.1a18.143,18.143,0,0,1-3.08,3.2A4.871,4.871,0,0,1,150.743,152.033Zm-1.154-5.425q0,3.675,2.274,3.675a3.6,3.6,0,0,0,1.89-.577,9.076,9.076,0,0,0,1.8-1.47,21.728,21.728,0,0,0,1.628-1.908l1.4-8.189a5.037,5.037,0,0,0-1.277-1.05,3.412,3.412,0,0,0-1.7-.386,3.965,3.965,0,0,0-2.467.841,7.281,7.281,0,0,0-1.908,2.274A12.335,12.335,0,0,0,150.009,143,15.391,15.391,0,0,0,149.589,146.608Z"/>
          <path class="cls-1" d="M165.584,151.683l2.52-14.139-2.486-.736v-.28l4.306-.944h.139l-.28,4.059h.141a16.918,16.918,0,0,1,2-2.677,4.874,4.874,0,0,1,1.47-1.12,3.025,3.025,0,0,1,1.155-.262,1.859,1.859,0,0,1,1.085.314.9.9,0,0,1,.455.736.935.935,0,0,1-.1.42l-.666,1.259h-.139l-.455-.28a1.859,1.859,0,0,0-1.085-.314,2.9,2.9,0,0,0-1.891.769,13.751,13.751,0,0,0-2.274,2.905l-1.821,10.29Z"/>
          <path class="cls-1" d="M177.169,151.683l2.484-14.139-2.415-.736v-.28l4.2-.944h.175l-.244,3.779h.1a30.079,30.079,0,0,1,2.134-2.187,7.072,7.072,0,0,1,1.75-1.207,4.488,4.488,0,0,1,1.891-.385,2.692,2.692,0,0,1,2.223.979,4.179,4.179,0,0,1,.716,2.835h.141q1.225-1.365,2.135-2.2a6.837,6.837,0,0,1,1.75-1.224,4.474,4.474,0,0,1,1.89-.385,2.654,2.654,0,0,1,2.467,1.347,5.6,5.6,0,0,1,.332,3.833l-1.224,6.754a5.789,5.789,0,0,0-.122,1.943.612.612,0,0,0,.647.543q1.4,0,2.659-2.766l.455.176a10.647,10.647,0,0,1-2.064,3.534,3.181,3.181,0,0,1-2.24,1.085,1.469,1.469,0,0,1-1.435-.857,4.716,4.716,0,0,1-.105-2.712l1.365-7.84a4.488,4.488,0,0,0-.14-2.4,1.722,1.722,0,0,0-1.82-1,3.827,3.827,0,0,0-2.521,1.068,25.106,25.106,0,0,0-2.309,2.293l-.035.175-1.96,10.919h-2.031l1.926-11.059a4.5,4.5,0,0,0-.14-2.4,1.691,1.691,0,0,0-1.786-1A3.82,3.82,0,0,0,183.5,138.3q-1.225,1.068-2.345,2.258l-1.926,11.129Z"/>
          <path class="cls-1" d="M215.493,152.033a2.85,2.85,0,0,1-2.327-1.172,5.536,5.536,0,0,1-.928-3.482,12.372,12.372,0,0,1,.736-4.148,15.152,15.152,0,0,1,1.977-3.815,10.622,10.622,0,0,1,2.87-2.782,6.19,6.19,0,0,1,3.412-1.05,5.439,5.439,0,0,1,1.663.262,5.8,5.8,0,0,1,1.453.682l.944-.769h.525l-2.065,11.759a5.789,5.789,0,0,0-.122,1.943.594.594,0,0,0,.612.543q1.435,0,2.695-2.766l.456.176a10.456,10.456,0,0,1-2.083,3.534,3.208,3.208,0,0,1-2.222,1.085,1.506,1.506,0,0,1-1.453-.857,4.445,4.445,0,0,1-.087-2.712l.139-.736h-.1a18.143,18.143,0,0,1-3.08,3.2A4.871,4.871,0,0,1,215.493,152.033Zm-1.154-5.425q0,3.675,2.274,3.675a3.6,3.6,0,0,0,1.89-.577,9.076,9.076,0,0,0,1.8-1.47,21.728,21.728,0,0,0,1.628-1.908l1.4-8.189a5.037,5.037,0,0,0-1.277-1.05,3.412,3.412,0,0,0-1.7-.386,3.965,3.965,0,0,0-2.467.841,7.281,7.281,0,0,0-1.908,2.274A12.335,12.335,0,0,0,214.759,143,15.391,15.391,0,0,0,214.339,146.608Z"/>
          <path class="cls-1" d="M229.844,151.683l2.484-14.139-2.415-.736v-.28l4.2-.944h.175l-.244,3.779h.1a29.188,29.188,0,0,1,2.206-2.187,7.159,7.159,0,0,1,1.837-1.207,4.848,4.848,0,0,1,1.943-.385,2.848,2.848,0,0,1,2.572,1.347,5.318,5.318,0,0,1,.4,3.833l-1.224,6.754a5.77,5.77,0,0,0-.123,1.943.614.614,0,0,0,.647.543q1.4,0,2.66-2.766l.455.176a10.071,10.071,0,0,1-2.047,3.534,3.237,3.237,0,0,1-2.257,1.085,1.472,1.472,0,0,1-1.436-.857,4.727,4.727,0,0,1-.1-2.712l1.365-7.84a4.04,4.04,0,0,0-.21-2.4,1.893,1.893,0,0,0-1.926-1,3.466,3.466,0,0,0-1.75.508,9.955,9.955,0,0,0-1.715,1.278q-.839.769-1.609,1.575l-1.926,11.094Z"/>
          <path class="cls-1" d="M250.983,152.033a2.8,2.8,0,0,1-2.309-1.172,5.6,5.6,0,0,1-.91-3.482,12.675,12.675,0,0,1,.717-4.148,14.438,14.438,0,0,1,1.977-3.815,10.992,10.992,0,0,1,2.87-2.782,6.108,6.108,0,0,1,3.4-1.05,5.388,5.388,0,0,1,1.277.157,5.67,5.67,0,0,1,1.207.438l1.54-8.821-2.8-.7v-.279l5-.946h.176l-3.886,22.085a5.789,5.789,0,0,0-.122,1.943.613.613,0,0,0,.648.543q1.4,0,2.66-2.766l.455.176a10.086,10.086,0,0,1-2.048,3.534,3.236,3.236,0,0,1-2.258,1.085,1.469,1.469,0,0,1-1.434-.857,4.706,4.706,0,0,1-.106-2.712l.141-.736h-.106a16.909,16.909,0,0,1-3.149,3.255A4.935,4.935,0,0,1,250.983,152.033Zm-1.155-5.425a5.082,5.082,0,0,0,.6,2.8,1.945,1.945,0,0,0,1.715.875,4.241,4.241,0,0,0,2.625-1.1,15.51,15.51,0,0,0,2.625-2.783l1.434-8.259a5.6,5.6,0,0,0-1.33-1.068,3.362,3.362,0,0,0-1.644-.368,3.979,3.979,0,0,0-2.433.823,7.125,7.125,0,0,0-1.907,2.239,12.522,12.522,0,0,0-1.243,3.186A15.15,15.15,0,0,0,249.828,146.608Z"/>
          <path class="cls-1" d="M31.465,192.033a2.849,2.849,0,0,1-2.327-1.172,5.536,5.536,0,0,1-.928-3.482,12.4,12.4,0,0,1,.735-4.148,15.188,15.188,0,0,1,1.978-3.815,10.622,10.622,0,0,1,2.87-2.782,6.19,6.19,0,0,1,3.412-1.05,5.433,5.433,0,0,1,1.662.262,5.787,5.787,0,0,1,1.453.682l.945-.769h.525l-2.065,11.759a5.789,5.789,0,0,0-.122,1.943.594.594,0,0,0,.612.543q1.435,0,2.695-2.766l.455.176a10.423,10.423,0,0,1-2.083,3.534,3.2,3.2,0,0,1-2.221,1.085,1.507,1.507,0,0,1-1.454-.857,4.446,4.446,0,0,1-.086-2.712l.139-.736h-.1a18.143,18.143,0,0,1-3.08,3.2A4.871,4.871,0,0,1,31.465,192.033Zm-1.154-5.425q0,3.675,2.274,3.675a3.6,3.6,0,0,0,1.89-.577,9.071,9.071,0,0,0,1.8-1.47,21.391,21.391,0,0,0,1.628-1.908l1.4-8.189a5.058,5.058,0,0,0-1.278-1.05,3.408,3.408,0,0,0-1.7-.386,3.97,3.97,0,0,0-2.468.841,7.279,7.279,0,0,0-1.907,2.274A12.373,12.373,0,0,0,30.73,183,15.391,15.391,0,0,0,30.311,186.608Z"/>
          <path class="cls-1" d="M47.846,192.033a1.471,1.471,0,0,1-1.436-.857,4.718,4.718,0,0,1-.1-2.712l3.744-21.106-2.59-.7v-.279l4.69-.946h.315L48.51,187.518a5.789,5.789,0,0,0-.122,1.943.613.613,0,0,0,.647.543,1.991,1.991,0,0,0,1.365-.7,6.711,6.711,0,0,0,1.3-2.066l.491.176a10.472,10.472,0,0,1-2.083,3.534A3.237,3.237,0,0,1,47.846,192.033Z"/>
          <path class="cls-1" d="M56.806,192.033a1.471,1.471,0,0,1-1.436-.857,4.718,4.718,0,0,1-.1-2.712l3.744-21.106-2.59-.7v-.279l4.69-.946h.315L57.47,187.518a5.789,5.789,0,0,0-.122,1.943A.613.613,0,0,0,58,190a1.993,1.993,0,0,0,1.365-.7,6.711,6.711,0,0,0,1.3-2.066l.491.176a10.455,10.455,0,0,1-2.084,3.534A3.233,3.233,0,0,1,56.806,192.033Z"/>
          <path class="cls-1" d="M76.686,191.789,73.92,177.473l-2.555-.665v-.28l4.236-.944h.139l2.24,12.7h.14l5.566-12.356h.384L86.7,188.639h.14l2.45-4.585q.98-1.855,1.47-3.045a5.456,5.456,0,0,0,.49-1.995,1.627,1.627,0,0,0-.245-.946,2.217,2.217,0,0,0-.63-.595l-.524-.28v-.139l.559-.911a1.336,1.336,0,0,1,.385-.455.8.8,0,0,1,.42-.1,1.442,1.442,0,0,1,1.208.805,3.164,3.164,0,0,1,.508,1.714,5.312,5.312,0,0,1-.473,1.925,29.149,29.149,0,0,1-1.663,3.221l-4.9,8.54H85.4L82.88,180.2l-5.67,11.586Z"/>
          <path class="cls-1" d="M99.959,192.033a4.576,4.576,0,0,1-3.867-1.609,6.628,6.628,0,0,1-1.242-4.165,11.412,11.412,0,0,1,.7-3.973,11.741,11.741,0,0,1,1.925-3.412,10.076,10.076,0,0,1,2.764-2.4,6.334,6.334,0,0,1,3.22-.892,3.762,3.762,0,0,1,2.695.84,2.562,2.562,0,0,1,.875,1.889,2.911,2.911,0,0,1-.962,2.083,8.3,8.3,0,0,1-3.168,1.715,33.452,33.452,0,0,1-5.915,1.278,15.138,15.138,0,0,0-.139,2.064,5.694,5.694,0,0,0,1.05,3.676,3.651,3.651,0,0,0,3.009,1.3q2.8,0,4.9-3.255h.069l.28.21a9.591,9.591,0,0,1-2.537,3.29A5.551,5.551,0,0,1,99.959,192.033Zm2.766-15.47a4.634,4.634,0,0,0-3.5,1.628,9.134,9.134,0,0,0-2.1,4.358,22.538,22.538,0,0,0,6.021-1.558,2.771,2.771,0,0,0,1.785-2.538,1.833,1.833,0,0,0-.543-1.347A2.264,2.264,0,0,0,102.725,176.563Z"/>
          <path class="cls-1" d="M111.859,192.033a1.47,1.47,0,0,1-1.435-.857,4.716,4.716,0,0,1-.105-2.712l3.744-21.106-2.589-.7v-.279l4.69-.946h.315l-3.956,22.085a5.789,5.789,0,0,0-.122,1.943.613.613,0,0,0,.648.543,2,2,0,0,0,1.365-.7,6.711,6.711,0,0,0,1.3-2.066l.49.176a10.439,10.439,0,0,1-2.083,3.534A3.234,3.234,0,0,1,111.859,192.033Z"/>
          <path class="cls-1" d="M120.819,192.033a1.47,1.47,0,0,1-1.435-.857,4.716,4.716,0,0,1-.105-2.712l3.744-21.106-2.589-.7v-.279l4.69-.946h.314l-3.955,22.085a5.789,5.789,0,0,0-.122,1.943.613.613,0,0,0,.648.543,2,2,0,0,0,1.365-.7,6.73,6.73,0,0,0,1.3-2.066l.49.176a10.439,10.439,0,0,1-2.083,3.534A3.234,3.234,0,0,1,120.819,192.033Z"/>
          <path class="cls-1" d="M129.079,191.858a1.4,1.4,0,0,1-1.138-.437,1.707,1.707,0,0,1-.368-1.138,2.133,2.133,0,0,1,.526-1.4,1.728,1.728,0,0,1,1.4-.63,1.372,1.372,0,0,1,1.137.455,1.725,1.725,0,0,1,.368,1.119,2.113,2.113,0,0,1-.525,1.418A1.754,1.754,0,0,1,129.079,191.858Z"/>
          <path class="cls-1" d="M143.674,191.683l.1-.525,2.765-.979,3.535-20.09-2.625-.981.106-.524h4.689L161.8,187.1l3.009-17.044-3.115-.946.141-.524h7.314l-.1.524-2.625.946-3.816,21.8h-.98l-10.255-19.564-3.149,17.849,2.939,1.015-.1.525Z"/>
          <path class="cls-1" d="M175.313,192.033a4.907,4.907,0,0,1-4.13-1.8,7.338,7.338,0,0,1-1.4-4.637,11.058,11.058,0,0,1,.63-3.71,11.264,11.264,0,0,1,1.733-3.2,8.558,8.558,0,0,1,2.607-2.257,6.49,6.49,0,0,1,3.22-.84,4.907,4.907,0,0,1,4.13,1.8,7.4,7.4,0,0,1,1.4,4.672,11.167,11.167,0,0,1-.577,3.483,11.359,11.359,0,0,1-1.663,3.237,8.729,8.729,0,0,1-2.59,2.362A6.452,6.452,0,0,1,175.313,192.033Zm.455-1.05a3.92,3.92,0,0,0,2.835-1.207,8.221,8.221,0,0,0,1.925-3.237,13.693,13.693,0,0,0,.7-4.481,7.916,7.916,0,0,0-.858-3.99,3.007,3.007,0,0,0-2.817-1.47,4.065,4.065,0,0,0-2.853,1.156,7.67,7.67,0,0,0-1.942,3.149,13.58,13.58,0,0,0-.7,4.516,8.066,8.066,0,0,0,.875,4.059A3.027,3.027,0,0,0,175.768,190.983Z"/>
          <path class="cls-1" d="M197.259,192.033a1.472,1.472,0,0,1-1.436-.857,4.718,4.718,0,0,1-.1-2.712l3.744-21.106-2.59-.7v-.279l4.69-.946h.315l-3.955,22.085a5.789,5.789,0,0,0-.122,1.943.613.613,0,0,0,.647.543,1.991,1.991,0,0,0,1.365-.7,6.711,6.711,0,0,0,1.3-2.066l.491.176a10.472,10.472,0,0,1-2.083,3.534A3.237,3.237,0,0,1,197.259,192.033Z"/>
          <path class="cls-1" d="M209.3,192.033a4.576,4.576,0,0,1-3.867-1.609,6.628,6.628,0,0,1-1.243-4.165,11.413,11.413,0,0,1,.7-3.973,11.738,11.738,0,0,1,1.924-3.412,10.094,10.094,0,0,1,2.765-2.4,6.331,6.331,0,0,1,3.22-.892,3.762,3.762,0,0,1,2.695.84,2.562,2.562,0,0,1,.875,1.889,2.911,2.911,0,0,1-.962,2.083,8.3,8.3,0,0,1-3.168,1.715,33.452,33.452,0,0,1-5.915,1.278,14.98,14.98,0,0,0-.139,2.064,5.7,5.7,0,0,0,1.049,3.676,3.655,3.655,0,0,0,3.01,1.3q2.8,0,4.9-3.255h.069l.28.21a9.591,9.591,0,0,1-2.537,3.29A5.551,5.551,0,0,1,209.3,192.033Zm2.765-15.47a4.634,4.634,0,0,0-3.5,1.628,9.134,9.134,0,0,0-2.1,4.358,22.518,22.518,0,0,0,6.02-1.558,2.77,2.77,0,0,0,1.786-2.538,1.833,1.833,0,0,0-.543-1.347A2.265,2.265,0,0,0,212.063,176.563Z"/>
          <path class="cls-1" d="M222.178,192.033a2.849,2.849,0,0,1-2.327-1.172,5.53,5.53,0,0,1-.928-3.482,12.4,12.4,0,0,1,.735-4.148,15.155,15.155,0,0,1,1.978-3.815,10.622,10.622,0,0,1,2.87-2.782,6.19,6.19,0,0,1,3.412-1.05,5.433,5.433,0,0,1,1.662.262,5.787,5.787,0,0,1,1.453.682l.945-.769h.525l-2.065,11.759a5.77,5.77,0,0,0-.123,1.943.6.6,0,0,0,.613.543q1.435,0,2.695-2.766l.455.176A10.439,10.439,0,0,1,232,190.948a3.2,3.2,0,0,1-2.222,1.085,1.507,1.507,0,0,1-1.453-.857,4.452,4.452,0,0,1-.087-2.712l.14-.736h-.1a18.143,18.143,0,0,1-3.08,3.2A4.873,4.873,0,0,1,222.178,192.033Zm-1.155-5.425q0,3.675,2.275,3.675a3.6,3.6,0,0,0,1.89-.577,9.071,9.071,0,0,0,1.8-1.47,21.558,21.558,0,0,0,1.628-1.908l1.4-8.189a5.058,5.058,0,0,0-1.278-1.05,3.408,3.408,0,0,0-1.7-.386,3.97,3.97,0,0,0-2.468.841,7.279,7.279,0,0,0-1.907,2.274A12.373,12.373,0,0,0,221.443,183,15.391,15.391,0,0,0,221.023,186.608Z"/>
          <path class="cls-1" d="M240.659,191.789l-3.011-14.351-2.554-.63v-.28l4.235-.944h.14l2.554,13.09h.141l2.835-4.62a21.77,21.77,0,0,0,1.558-3.028,5.785,5.785,0,0,0,.472-2.012,1.627,1.627,0,0,0-.245-.946,2.243,2.243,0,0,0-.63-.595l-.525-.28v-.139l.559-.911a1.488,1.488,0,0,1,.369-.455.778.778,0,0,1,.437-.1,1.481,1.481,0,0,1,1.225.805,3.084,3.084,0,0,1,.525,1.714,5.151,5.151,0,0,1-.508,1.943,26.865,26.865,0,0,1-1.767,3.2l-5.321,8.54Z"/>
          <path class="cls-1" d="M255.6,192.033a4.578,4.578,0,0,1-3.868-1.609,6.628,6.628,0,0,1-1.242-4.165,11.435,11.435,0,0,1,.7-3.973,11.764,11.764,0,0,1,1.925-3.412,10.08,10.08,0,0,1,2.765-2.4,6.329,6.329,0,0,1,3.22-.892,3.764,3.764,0,0,1,2.695.84,2.562,2.562,0,0,1,.875,1.889,2.911,2.911,0,0,1-.962,2.083,8.312,8.312,0,0,1-3.168,1.715,33.473,33.473,0,0,1-5.915,1.278,14.98,14.98,0,0,0-.14,2.064,5.7,5.7,0,0,0,1.05,3.676,3.652,3.652,0,0,0,3.01,1.3q2.8,0,4.9-3.255h.07l.28.21a9.6,9.6,0,0,1-2.537,3.29A5.551,5.551,0,0,1,255.6,192.033Zm2.765-15.47a4.634,4.634,0,0,0-3.5,1.628,9.124,9.124,0,0,0-2.1,4.358,22.518,22.518,0,0,0,6.02-1.558,2.769,2.769,0,0,0,1.785-2.538,1.829,1.829,0,0,0-.543-1.347A2.262,2.262,0,0,0,258.368,176.563Z"/>
          <path class="cls-1" d="M54.738,232.033a2.85,2.85,0,0,1-2.327-1.172,5.536,5.536,0,0,1-.928-3.482,12.4,12.4,0,0,1,.736-4.148,15.152,15.152,0,0,1,1.977-3.815,10.622,10.622,0,0,1,2.87-2.782,6.19,6.19,0,0,1,3.413-1.05,5.438,5.438,0,0,1,1.662.262,5.8,5.8,0,0,1,1.453.682l.944-.769h.525L63,227.518a5.789,5.789,0,0,0-.122,1.943.594.594,0,0,0,.612.543q1.435,0,2.7-2.766l.455.176a10.456,10.456,0,0,1-2.083,3.534,3.208,3.208,0,0,1-2.222,1.085,1.506,1.506,0,0,1-1.453-.857,4.452,4.452,0,0,1-.087-2.712l.14-.736h-.106a18.143,18.143,0,0,1-3.08,3.2A4.871,4.871,0,0,1,54.738,232.033Zm-1.154-5.425q0,3.675,2.274,3.675a3.6,3.6,0,0,0,1.89-.577,9.048,9.048,0,0,0,1.8-1.47,21.728,21.728,0,0,0,1.628-1.908l1.4-8.189a5.037,5.037,0,0,0-1.277-1.05,3.411,3.411,0,0,0-1.7-.386,3.965,3.965,0,0,0-2.468.841,7.266,7.266,0,0,0-1.907,2.274A12.3,12.3,0,0,0,54,223,15.391,15.391,0,0,0,53.584,226.608Z"/>
          <path class="cls-1" d="M71.119,232.033a1.469,1.469,0,0,1-1.435-.857,4.708,4.708,0,0,1-.105-2.712l3.744-21.106-2.59-.7v-.279l4.691-.946h.314l-3.955,22.085a5.789,5.789,0,0,0-.122,1.943.613.613,0,0,0,.648.543,2,2,0,0,0,1.365-.7,6.73,6.73,0,0,0,1.295-2.066l.49.176a10.456,10.456,0,0,1-2.083,3.534A3.234,3.234,0,0,1,71.119,232.033Z"/>
          <path class="cls-1" d="M80.079,232.033a1.469,1.469,0,0,1-1.435-.857,4.708,4.708,0,0,1-.105-2.712l3.744-21.106-2.59-.7v-.279l4.691-.946H84.7l-3.955,22.085a5.789,5.789,0,0,0-.122,1.943.613.613,0,0,0,.648.543,2,2,0,0,0,1.365-.7,6.73,6.73,0,0,0,1.3-2.066l.49.176a10.456,10.456,0,0,1-2.083,3.534A3.234,3.234,0,0,1,80.079,232.033Z"/>
          <path class="cls-1" d="M92.539,232.033a4.911,4.911,0,0,1-4.131-1.8,7.343,7.343,0,0,1-1.4-4.637,11.058,11.058,0,0,1,.63-3.71,11.287,11.287,0,0,1,1.732-3.2,8.561,8.561,0,0,1,2.608-2.257,6.486,6.486,0,0,1,3.219-.84,4.9,4.9,0,0,1,4.13,1.8,7.4,7.4,0,0,1,1.4,4.672,11.168,11.168,0,0,1-.578,3.483,11.308,11.308,0,0,1-1.663,3.237,8.717,8.717,0,0,1-2.59,2.362A6.448,6.448,0,0,1,92.539,232.033Zm.454-1.05a3.918,3.918,0,0,0,2.835-1.207,8.222,8.222,0,0,0,1.926-3.237,13.693,13.693,0,0,0,.7-4.481,7.916,7.916,0,0,0-.857-3.99,3.009,3.009,0,0,0-2.818-1.47,4.064,4.064,0,0,0-2.852,1.156,7.671,7.671,0,0,0-1.943,3.149,13.606,13.606,0,0,0-.7,4.516,8.066,8.066,0,0,0,.875,4.059A3.028,3.028,0,0,0,92.993,230.983Z"/>
          <path class="cls-1" d="M107.939,231.789l-2.765-14.316-2.555-.665v-.28l4.235-.944h.14l2.24,12.7h.14l5.565-12.356h.385l2.625,12.706h.14l2.45-4.585q.979-1.855,1.47-3.045a5.456,5.456,0,0,0,.49-1.995,1.627,1.627,0,0,0-.245-.946,2.217,2.217,0,0,0-.63-.595l-.524-.28v-.139l.559-.911a1.336,1.336,0,0,1,.385-.455.8.8,0,0,1,.42-.1,1.442,1.442,0,0,1,1.208.805,3.164,3.164,0,0,1,.508,1.714,5.333,5.333,0,0,1-.473,1.925,29.149,29.149,0,0,1-1.663,3.221l-4.9,8.54h-.491l-2.52-11.586-5.67,11.586Z"/>
          <path class="cls-1" d="M131.213,232.033a4.576,4.576,0,0,1-3.867-1.609,6.628,6.628,0,0,1-1.242-4.165,11.412,11.412,0,0,1,.7-3.973,11.741,11.741,0,0,1,1.925-3.412,10.076,10.076,0,0,1,2.764-2.4,6.334,6.334,0,0,1,3.22-.892,3.762,3.762,0,0,1,2.695.84,2.562,2.562,0,0,1,.875,1.889,2.911,2.911,0,0,1-.962,2.083,8.3,8.3,0,0,1-3.168,1.715,33.452,33.452,0,0,1-5.915,1.278,15.138,15.138,0,0,0-.139,2.064,5.7,5.7,0,0,0,1.049,3.676,3.655,3.655,0,0,0,3.01,1.3q2.8,0,4.9-3.255h.069l.28.21a9.591,9.591,0,0,1-2.537,3.29A5.551,5.551,0,0,1,131.213,232.033Zm2.766-15.47a4.631,4.631,0,0,0-3.5,1.628,9.125,9.125,0,0,0-2.1,4.358,22.518,22.518,0,0,0,6.02-1.558,2.77,2.77,0,0,0,1.786-2.538,1.833,1.833,0,0,0-.543-1.347A2.264,2.264,0,0,0,133.979,216.563Z"/>
          <path class="cls-1" d="M144.128,232.033a2.8,2.8,0,0,1-2.31-1.172,5.61,5.61,0,0,1-.91-3.482,12.65,12.65,0,0,1,.718-4.148,14.438,14.438,0,0,1,1.977-3.815,10.961,10.961,0,0,1,2.87-2.782,6.107,6.107,0,0,1,3.395-1.05,5.4,5.4,0,0,1,1.278.157,5.71,5.71,0,0,1,1.207.438l1.54-8.821-2.8-.7v-.279l5.005-.946h.175l-3.885,22.085a5.789,5.789,0,0,0-.122,1.943.612.612,0,0,0,.647.543q1.4,0,2.66-2.766l.455.176a10.07,10.07,0,0,1-2.048,3.534,3.235,3.235,0,0,1-2.257,1.085,1.47,1.47,0,0,1-1.435-.857,4.716,4.716,0,0,1-.105-2.712l.14-.736h-.105a16.94,16.94,0,0,1-3.15,3.255A4.932,4.932,0,0,1,144.128,232.033Zm-1.155-5.425a5.092,5.092,0,0,0,.595,2.8,1.946,1.946,0,0,0,1.715.875,4.241,4.241,0,0,0,2.625-1.1,15.51,15.51,0,0,0,2.625-2.783l1.435-8.259a5.635,5.635,0,0,0-1.33-1.068,3.366,3.366,0,0,0-1.645-.368,3.976,3.976,0,0,0-2.432.823,7.115,7.115,0,0,0-1.908,2.239,12.522,12.522,0,0,0-1.243,3.186A15.149,15.149,0,0,0,142.973,226.608Z"/>
          <path class="cls-1" d="M169.4,231.683h-2.065l4.271-24.29-2.451-.735v-.279l4.656-.946h.21l-2.451,13.93h.07a29.387,29.387,0,0,1,2.2-2.187,7.2,7.2,0,0,1,1.838-1.207,4.84,4.84,0,0,1,1.942-.385,2.845,2.845,0,0,1,2.572,1.347,5.312,5.312,0,0,1,.4,3.833l-1.226,6.754a5.789,5.789,0,0,0-.122,1.943.612.612,0,0,0,.647.543q1.4,0,2.661-2.766l.454.176a10.664,10.664,0,0,1-2.065,3.534,3.178,3.178,0,0,1-2.24,1.085,1.47,1.47,0,0,1-1.435-.857,4.716,4.716,0,0,1-.1-2.712l1.365-7.84a4.032,4.032,0,0,0-.21-2.4,1.892,1.892,0,0,0-1.925-1,4.182,4.182,0,0,0-2.607,1.05,21.349,21.349,0,0,0-2.433,2.276Z"/>
          <path class="cls-1" d="M190.362,232.033a4.576,4.576,0,0,1-3.867-1.609,6.628,6.628,0,0,1-1.242-4.165,11.412,11.412,0,0,1,.7-3.973,11.764,11.764,0,0,1,1.925-3.412,10.065,10.065,0,0,1,2.765-2.4,6.328,6.328,0,0,1,3.219-.892,3.765,3.765,0,0,1,2.7.84,2.562,2.562,0,0,1,.875,1.889,2.915,2.915,0,0,1-.962,2.083,8.32,8.32,0,0,1-3.168,1.715,33.493,33.493,0,0,1-5.915,1.278,14.98,14.98,0,0,0-.14,2.064,5.7,5.7,0,0,0,1.05,3.676,3.652,3.652,0,0,0,3.01,1.3q2.8,0,4.9-3.255h.069l.281.21a9.615,9.615,0,0,1-2.537,3.29A5.551,5.551,0,0,1,190.362,232.033Zm2.766-15.47a4.634,4.634,0,0,0-3.5,1.628,9.134,9.134,0,0,0-2.1,4.358,22.527,22.527,0,0,0,6.021-1.558,2.771,2.771,0,0,0,1.785-2.538,1.833,1.833,0,0,0-.543-1.347A2.262,2.262,0,0,0,193.128,216.563Z"/>
          <path class="cls-1" d="M200.723,231.683l2.519-14.139-2.485-.736v-.28l4.305-.944h.14l-.28,4.059h.14a16.974,16.974,0,0,1,2-2.677,4.86,4.86,0,0,1,1.469-1.12,3.029,3.029,0,0,1,1.156-.262,1.859,1.859,0,0,1,1.085.314.9.9,0,0,1,.455.736.924.924,0,0,1-.106.42l-.665,1.259h-.14l-.455-.28a1.857,1.857,0,0,0-1.085-.314,2.9,2.9,0,0,0-1.89.769,13.748,13.748,0,0,0-2.275,2.905l-1.82,10.29Z"/>
          <path class="cls-1" d="M216.893,232.033a4.58,4.58,0,0,1-3.868-1.609,6.628,6.628,0,0,1-1.242-4.165,11.435,11.435,0,0,1,.7-3.973,11.764,11.764,0,0,1,1.925-3.412,10.094,10.094,0,0,1,2.765-2.4,6.329,6.329,0,0,1,3.22-.892,3.764,3.764,0,0,1,2.695.84,2.562,2.562,0,0,1,.875,1.889A2.911,2.911,0,0,1,223,220.4a8.312,8.312,0,0,1-3.168,1.715,33.473,33.473,0,0,1-5.915,1.278,14.98,14.98,0,0,0-.14,2.064,5.7,5.7,0,0,0,1.05,3.676,3.652,3.652,0,0,0,3.01,1.3q2.8,0,4.9-3.255h.07l.28.21a9.6,9.6,0,0,1-2.537,3.29A5.551,5.551,0,0,1,216.893,232.033Zm2.765-15.47a4.634,4.634,0,0,0-3.5,1.628,9.124,9.124,0,0,0-2.1,4.358,22.518,22.518,0,0,0,6.02-1.558,2.769,2.769,0,0,0,1.785-2.538,1.829,1.829,0,0,0-.543-1.347A2.262,2.262,0,0,0,219.658,216.563Z"/>
          <path class="cls-1" d="M238.522,232.033a2.85,2.85,0,0,1-2.327-1.172,5.536,5.536,0,0,1-.927-3.482,12.4,12.4,0,0,1,.735-4.148,15.152,15.152,0,0,1,1.977-3.815,10.639,10.639,0,0,1,2.871-2.782,6.187,6.187,0,0,1,3.412-1.05,5.438,5.438,0,0,1,1.662.262,5.787,5.787,0,0,1,1.453.682l.944-.769h.526l-2.066,11.759a5.789,5.789,0,0,0-.122,1.943.594.594,0,0,0,.612.543q1.436,0,2.7-2.766l.455.176a10.439,10.439,0,0,1-2.083,3.534,3.208,3.208,0,0,1-2.222,1.085,1.506,1.506,0,0,1-1.453-.857,4.452,4.452,0,0,1-.087-2.712l.14-.736h-.106a18.107,18.107,0,0,1-3.08,3.2A4.871,4.871,0,0,1,238.522,232.033Zm-1.154-5.425q0,3.675,2.275,3.675a3.6,3.6,0,0,0,1.889-.577,9.048,9.048,0,0,0,1.8-1.47,21.728,21.728,0,0,0,1.628-1.908l1.4-8.189a5.037,5.037,0,0,0-1.277-1.05,3.411,3.411,0,0,0-1.7-.386,3.968,3.968,0,0,0-2.468.841,7.279,7.279,0,0,0-1.907,2.274A12.336,12.336,0,0,0,237.788,223,15.391,15.391,0,0,0,237.368,226.608Z"/>
          <path class="cls-1" d="M256.163,232.033a6.1,6.1,0,0,1-2.625-.472,4.065,4.065,0,0,1-1.471-1.1,1.49,1.49,0,0,1-.384-.875.78.78,0,0,1,.384-.665l.6-.42h.21l.455.805a3.264,3.264,0,0,0,1.364,1.33,3.871,3.871,0,0,0,1.75.42,3.337,3.337,0,0,0,2.415-.875,3.014,3.014,0,0,0,.911-2.276,2.817,2.817,0,0,0-.683-2,8.78,8.78,0,0,0-2.012-1.5,9.279,9.279,0,0,1-2.432-1.96,3.666,3.666,0,0,1-.718-2.345,3.616,3.616,0,0,1,.735-2.117,6.021,6.021,0,0,1,1.907-1.716,4.841,4.841,0,0,1,2.468-.681,5.267,5.267,0,0,1,2.153.385,4.124,4.124,0,0,1,1.417,1.014,1.489,1.489,0,0,1,.315.806.878.878,0,0,1-.088.367.892.892,0,0,1-.263.332l-.524.386h-.21l-.63-.841a3.894,3.894,0,0,0-1.138-1.1,2.839,2.839,0,0,0-1.487-.368,2.692,2.692,0,0,0-2.065.823,2.622,2.622,0,0,0-.77,1.837,2.925,2.925,0,0,0,.612,1.908,6.467,6.467,0,0,0,1.733,1.418,12.162,12.162,0,0,1,2.625,1.924,3.7,3.7,0,0,1,.875,2.661,4.361,4.361,0,0,1-.7,2.344,5.5,5.5,0,0,1-1.925,1.838A5.44,5.44,0,0,1,256.163,232.033Z"/>
          <path class="cls-1" d="M71.12,280.084a.9.9,0,0,1-1.015-1.016v-1.154l.175-.141h1.75a6.871,6.871,0,0,0,1.208-.087,1.949,1.949,0,0,0,.893-.437,5.59,5.59,0,0,0,.927-1.085q.507-.735,1.278-2.03l1.784-2.941-3.08-13.72-2.555-.665v-.28l4.236-.944h.139l2.765,12.984h.141l2.764-4.514a21.7,21.7,0,0,0,1.611-3.028,5.607,5.607,0,0,0,.49-2.012,1.627,1.627,0,0,0-.245-.946,2.243,2.243,0,0,0-.63-.595l-.526-.28v-.139l.56-.911a1.5,1.5,0,0,1,.368-.455.782.782,0,0,1,.438-.1,1.466,1.466,0,0,1,1.242.787,3.135,3.135,0,0,1,.508,1.732,5.288,5.288,0,0,1-.491,1.943,24.678,24.678,0,0,1-1.75,3.2l-7,11.2q-.49.806-.8,1.33c-.21.351-.427.7-.648,1.05a11.467,11.467,0,0,1-.963,1.261,5.975,5.975,0,0,1-1.767,1.5A3.856,3.856,0,0,1,71.12,280.084Z"/>
          <path class="cls-1" d="M93.625,272.033a4.576,4.576,0,0,1-3.867-1.609,6.628,6.628,0,0,1-1.242-4.165,11.412,11.412,0,0,1,.7-3.973,11.741,11.741,0,0,1,1.925-3.412,10.076,10.076,0,0,1,2.764-2.4,6.334,6.334,0,0,1,3.22-.892,3.762,3.762,0,0,1,2.695.84,2.562,2.562,0,0,1,.875,1.889,2.911,2.911,0,0,1-.962,2.083,8.3,8.3,0,0,1-3.168,1.715,33.452,33.452,0,0,1-5.915,1.278,15.138,15.138,0,0,0-.139,2.064,5.694,5.694,0,0,0,1.05,3.676,3.651,3.651,0,0,0,3.009,1.295q2.8,0,4.9-3.255h.069l.28.21a9.591,9.591,0,0,1-2.537,3.29A5.549,5.549,0,0,1,93.625,272.033Zm2.766-15.47a4.634,4.634,0,0,0-3.5,1.628,9.134,9.134,0,0,0-2.1,4.358,22.538,22.538,0,0,0,6.021-1.558,2.771,2.771,0,0,0,1.785-2.538,1.833,1.833,0,0,0-.543-1.347A2.264,2.264,0,0,0,96.391,256.563Z"/>
          <path class="cls-1" d="M105.525,272.033a1.47,1.47,0,0,1-1.435-.857,4.716,4.716,0,0,1-.105-2.712l3.744-21.106-2.589-.7v-.279l4.69-.946h.315l-3.956,22.085a5.789,5.789,0,0,0-.122,1.943.613.613,0,0,0,.648.543,2,2,0,0,0,1.365-.7,6.711,6.711,0,0,0,1.3-2.066l.49.176a10.439,10.439,0,0,1-2.083,3.534A3.234,3.234,0,0,1,105.525,272.033Z"/>
          <path class="cls-1" d="M114.485,272.033a1.47,1.47,0,0,1-1.435-.857,4.716,4.716,0,0,1-.105-2.712l3.744-21.106-2.589-.7v-.279l4.69-.946h.314l-3.955,22.085a5.789,5.789,0,0,0-.122,1.943.613.613,0,0,0,.648.543,2,2,0,0,0,1.365-.7,6.711,6.711,0,0,0,1.295-2.066l.49.176a10.439,10.439,0,0,1-2.083,3.534A3.234,3.234,0,0,1,114.485,272.033Z"/>
          <path class="cls-1" d="M126.945,272.033a4.911,4.911,0,0,1-4.131-1.8,7.343,7.343,0,0,1-1.4-4.637,11.058,11.058,0,0,1,.63-3.71,11.287,11.287,0,0,1,1.732-3.2,8.573,8.573,0,0,1,2.608-2.257,6.489,6.489,0,0,1,3.219-.84,4.9,4.9,0,0,1,4.13,1.8,7.4,7.4,0,0,1,1.4,4.672,11.2,11.2,0,0,1-.577,3.483,11.359,11.359,0,0,1-1.663,3.237,8.729,8.729,0,0,1-2.59,2.362A6.452,6.452,0,0,1,126.945,272.033Zm.454-1.05a3.916,3.916,0,0,0,2.835-1.207,8.222,8.222,0,0,0,1.926-3.237,13.693,13.693,0,0,0,.7-4.481,7.916,7.916,0,0,0-.857-3.99,3.007,3.007,0,0,0-2.817-1.47,4.065,4.065,0,0,0-2.853,1.156,7.659,7.659,0,0,0-1.942,3.149,13.579,13.579,0,0,0-.7,4.516,8.066,8.066,0,0,0,.875,4.059A3.028,3.028,0,0,0,127.4,270.983Z"/>
          <path class="cls-1" d="M142.346,271.789l-2.766-14.316-2.555-.665v-.28l4.236-.944h.139l2.241,12.7h.139l5.566-12.356h.384l2.625,12.706h.14l2.45-4.585q.981-1.855,1.47-3.045a5.456,5.456,0,0,0,.49-2,1.627,1.627,0,0,0-.245-.946,2.217,2.217,0,0,0-.63-.595l-.524-.28v-.139l.559-.911a1.336,1.336,0,0,1,.385-.455.8.8,0,0,1,.42-.1,1.442,1.442,0,0,1,1.208.805,3.164,3.164,0,0,1,.508,1.714,5.312,5.312,0,0,1-.473,1.925,29.149,29.149,0,0,1-1.663,3.221l-4.9,8.54h-.49L148.54,260.2l-5.67,11.586Z"/>
          <path class="cls-1" d="M164.57,280.084a1.719,1.719,0,0,1-1.12-.3.826.826,0,0,1-.35-.612,1.883,1.883,0,0,1,.245-.736l.384-.8h.141l.56.314a2.7,2.7,0,0,0,.753.245,4.75,4.75,0,0,0,.822.071,2.773,2.773,0,0,0,2.415-1.75,16.079,16.079,0,0,0,1.434-5.18l2.136-14.141h-2.835v-1.26h3.01l.21-1.4a9.867,9.867,0,0,1,.91-2.694,15.618,15.618,0,0,1,1.907-3.011,10.993,10.993,0,0,1,2.678-2.432,5.875,5.875,0,0,1,3.22-.963,1.616,1.616,0,0,1,.945.246q.6.315.595.665a1.052,1.052,0,0,1-.175.559l-.56,1.016h-.14l-.665-.28a5.065,5.065,0,0,0-2-.385,3.4,3.4,0,0,0-2.835,1.5,9.938,9.938,0,0,0-1.575,4.375l-.42,2.8h3.885v1.26h-4.095l-2.03,13.545a12.362,12.362,0,0,1-.823,2.783,16.874,16.874,0,0,1-1.662,3.1,10.688,10.688,0,0,1-2.275,2.485A4.308,4.308,0,0,1,164.57,280.084Z"/>
          <path class="cls-1" d="M184.239,272.033a4.576,4.576,0,0,1-3.867-1.609,6.628,6.628,0,0,1-1.242-4.165,11.412,11.412,0,0,1,.7-3.973,11.764,11.764,0,0,1,1.925-3.412,10.065,10.065,0,0,1,2.765-2.4,6.328,6.328,0,0,1,3.219-.892,3.765,3.765,0,0,1,2.7.84,2.562,2.562,0,0,1,.875,1.889,2.915,2.915,0,0,1-.962,2.083,8.32,8.32,0,0,1-3.168,1.715,33.493,33.493,0,0,1-5.915,1.278,14.98,14.98,0,0,0-.14,2.064,5.7,5.7,0,0,0,1.05,3.676,3.652,3.652,0,0,0,3.01,1.295q2.8,0,4.9-3.255h.069l.281.21a9.606,9.606,0,0,1-2.538,3.29A5.549,5.549,0,0,1,184.239,272.033Zm2.766-15.47a4.634,4.634,0,0,0-3.5,1.628,9.134,9.134,0,0,0-2.1,4.358,22.527,22.527,0,0,0,6.021-1.558,2.771,2.771,0,0,0,1.785-2.538,1.833,1.833,0,0,0-.543-1.347A2.262,2.262,0,0,0,187.005,256.563Z"/>
          <path class="cls-1" d="M198.729,271.789l-3.01-14.351-2.555-.63v-.28l4.235-.944h.14l2.555,13.09h.14l2.835-4.62a21.659,21.659,0,0,0,1.558-3.028,5.79,5.79,0,0,0,.473-2.012,1.62,1.62,0,0,0-.246-.946,2.253,2.253,0,0,0-.629-.595l-.526-.28v-.139l.56-.911a1.474,1.474,0,0,1,.368-.455.778.778,0,0,1,.437-.1,1.481,1.481,0,0,1,1.225.805,3.076,3.076,0,0,1,.525,1.714,5.146,5.146,0,0,1-.507,1.943,26.9,26.9,0,0,1-1.768,3.2l-5.32,8.54Z"/>
          <path class="cls-1" d="M213.674,272.033a4.576,4.576,0,0,1-3.867-1.609,6.628,6.628,0,0,1-1.243-4.165,11.413,11.413,0,0,1,.7-3.973,11.738,11.738,0,0,1,1.924-3.412,10.094,10.094,0,0,1,2.765-2.4,6.331,6.331,0,0,1,3.22-.892,3.762,3.762,0,0,1,2.695.84,2.562,2.562,0,0,1,.875,1.889,2.911,2.911,0,0,1-.962,2.083,8.3,8.3,0,0,1-3.168,1.715,33.452,33.452,0,0,1-5.915,1.278,14.98,14.98,0,0,0-.139,2.064,5.7,5.7,0,0,0,1.049,3.676,3.653,3.653,0,0,0,3.01,1.295q2.8,0,4.9-3.255h.069l.28.21a9.591,9.591,0,0,1-2.537,3.29A5.551,5.551,0,0,1,213.674,272.033Zm2.765-15.47a4.634,4.634,0,0,0-3.5,1.628,9.134,9.134,0,0,0-2.1,4.358,22.518,22.518,0,0,0,6.02-1.558,2.77,2.77,0,0,0,1.786-2.538,1.833,1.833,0,0,0-.543-1.347A2.265,2.265,0,0,0,216.439,256.563Z"/>
          <path class="cls-1" d="M224.034,271.683l2.52-14.139-2.486-.736v-.28l4.306-.944h.14l-.281,4.059h.141a17.042,17.042,0,0,1,2-2.677,4.874,4.874,0,0,1,1.47-1.12,3.029,3.029,0,0,1,1.155-.262,1.859,1.859,0,0,1,1.085.314.9.9,0,0,1,.455.736.935.935,0,0,1-.1.42l-.665,1.259h-.14l-.455-.28a1.859,1.859,0,0,0-1.085-.314,2.9,2.9,0,0,0-1.891.769,13.751,13.751,0,0,0-2.274,2.9l-1.82,10.29Z"/>
          <path class="cls-1" d="M245.909,272.033a1.5,1.5,0,0,1-1.452-.857,4.458,4.458,0,0,1-.088-2.712l1.925-10.955-2.59-.7v-.28l4.726-.944h.279l-2.135,11.934a5.789,5.789,0,0,0-.122,1.943.613.613,0,0,0,.648.543q1.4,0,2.66-2.766l.455.176a10.663,10.663,0,0,1-2.066,3.534A3.178,3.178,0,0,1,245.909,272.033Zm2.625-21.524a1.482,1.482,0,0,1-1.085-.455,1.524,1.524,0,0,1-.455-1.121,1.554,1.554,0,0,1,1.54-1.54,1.526,1.526,0,0,1,1.12.455,1.485,1.485,0,0,1,.455,1.085,1.554,1.554,0,0,1-1.575,1.576Z"/>
          <path class="cls-1" d="M256.164,272.033a6.1,6.1,0,0,1-2.625-.472,4.065,4.065,0,0,1-1.471-1.1,1.49,1.49,0,0,1-.384-.875.78.78,0,0,1,.384-.665l.6-.42h.21l.455.8a3.264,3.264,0,0,0,1.364,1.33,3.871,3.871,0,0,0,1.75.42,3.337,3.337,0,0,0,2.415-.875,3.014,3.014,0,0,0,.911-2.276,2.817,2.817,0,0,0-.683-2,8.78,8.78,0,0,0-2.012-1.5,9.279,9.279,0,0,1-2.432-1.96,3.666,3.666,0,0,1-.718-2.345,3.616,3.616,0,0,1,.735-2.117,6.021,6.021,0,0,1,1.907-1.716,4.841,4.841,0,0,1,2.468-.681,5.27,5.27,0,0,1,2.153.385,4.124,4.124,0,0,1,1.417,1.014,1.489,1.489,0,0,1,.315.806.878.878,0,0,1-.088.367.892.892,0,0,1-.263.332l-.524.386h-.21l-.63-.841a3.894,3.894,0,0,0-1.138-1.1,2.839,2.839,0,0,0-1.487-.368,2.692,2.692,0,0,0-2.065.823,2.622,2.622,0,0,0-.77,1.837,2.925,2.925,0,0,0,.612,1.908,6.467,6.467,0,0,0,1.733,1.418,12.162,12.162,0,0,1,2.625,1.924,3.7,3.7,0,0,1,.875,2.661,4.361,4.361,0,0,1-.7,2.344,5.5,5.5,0,0,1-1.925,1.838A5.443,5.443,0,0,1,256.164,272.033Z"/>
          <path class="cls-1" d="M0,319.733v-.455l1.89-.84,3.675-20.894-2.415-.736v-.28l4.2-.944h.175l-.28,4.234h.14a17.594,17.594,0,0,1,3.027-3.149,4.844,4.844,0,0,1,2.993-1.085,2.732,2.732,0,0,1,2.327,1.26,6.4,6.4,0,0,1,.893,3.71,12.936,12.936,0,0,1-.7,4.217,13.709,13.709,0,0,1-1.907,3.693,9.986,9.986,0,0,1-2.748,2.607,5.984,5.984,0,0,1-3.22.962,5.963,5.963,0,0,1-2.835-.734L3.99,318.4l2.695.875v.455Zm12.25-22.4a3.538,3.538,0,0,0-1.838.559,8.805,8.805,0,0,0-1.784,1.453A24.679,24.679,0,0,0,7,301.219L5.565,309.3a5.171,5.171,0,0,0,1.61,1.242,4.165,4.165,0,0,0,1.75.368,4,4,0,0,0,2.87-1.226,8.547,8.547,0,0,0,2.013-3.412,15.432,15.432,0,0,0,.752-5.022Q14.56,297.333,12.25,297.334Z"/>
          <path class="cls-1" d="M20.23,311.683l2.52-14.139-2.485-.736v-.28l4.305-.944h.14l-.28,4.059h.14a17.042,17.042,0,0,1,2-2.677,4.874,4.874,0,0,1,1.47-1.12,3.029,3.029,0,0,1,1.155-.262,1.857,1.857,0,0,1,1.085.314.9.9,0,0,1,.455.736.935.935,0,0,1-.105.42l-.665,1.259h-.14l-.455-.28a1.857,1.857,0,0,0-1.085-.314,2.9,2.9,0,0,0-1.89.769,13.715,13.715,0,0,0-2.275,2.9l-1.82,10.29Z"/>
          <path class="cls-1" d="M36.4,312.033a4.576,4.576,0,0,1-3.867-1.609,6.628,6.628,0,0,1-1.242-4.165,11.412,11.412,0,0,1,.7-3.973,11.764,11.764,0,0,1,1.925-3.412,10.065,10.065,0,0,1,2.765-2.4,6.328,6.328,0,0,1,3.219-.892,3.765,3.765,0,0,1,2.7.84,2.562,2.562,0,0,1,.875,1.889,2.915,2.915,0,0,1-.962,2.083,8.312,8.312,0,0,1-3.168,1.715,33.493,33.493,0,0,1-5.915,1.278,14.98,14.98,0,0,0-.14,2.064,5.7,5.7,0,0,0,1.05,3.676,3.652,3.652,0,0,0,3.01,1.295q2.8,0,4.9-3.255h.069l.281.21a9.6,9.6,0,0,1-2.537,3.29A5.551,5.551,0,0,1,36.4,312.033Zm2.766-15.47a4.634,4.634,0,0,0-3.5,1.628,9.134,9.134,0,0,0-2.1,4.358,22.516,22.516,0,0,0,6.021-1.558,2.771,2.771,0,0,0,1.785-2.538,1.833,1.833,0,0,0-.543-1.347A2.262,2.262,0,0,0,39.166,296.563Z"/>
          <path class="cls-1" d="M50.891,311.789,47.88,297.438l-2.555-.63v-.28l4.236-.944H49.7l2.555,13.09H52.4l2.834-4.62a21.659,21.659,0,0,0,1.558-3.028,5.767,5.767,0,0,0,.473-2.012,1.627,1.627,0,0,0-.245-.946,2.243,2.243,0,0,0-.63-.595l-.526-.28v-.139l.56-.911a1.5,1.5,0,0,1,.368-.455.782.782,0,0,1,.438-.1,1.48,1.48,0,0,1,1.224.805,3.078,3.078,0,0,1,.526,1.714,5.151,5.151,0,0,1-.508,1.943,26.9,26.9,0,0,1-1.768,3.2l-5.32,8.54Z"/>
          <path class="cls-1" d="M63.909,312.033a2.85,2.85,0,0,1-2.327-1.172,5.536,5.536,0,0,1-.928-3.482,12.372,12.372,0,0,1,.736-4.148,15.152,15.152,0,0,1,1.977-3.815,10.622,10.622,0,0,1,2.87-2.782,6.19,6.19,0,0,1,3.412-1.05,5.439,5.439,0,0,1,1.663.262,5.8,5.8,0,0,1,1.453.682l.944-.769h.525l-2.065,11.759a5.789,5.789,0,0,0-.122,1.943.594.594,0,0,0,.612.543q1.435,0,2.695-2.766l.456.176a10.456,10.456,0,0,1-2.083,3.534,3.208,3.208,0,0,1-2.222,1.085,1.506,1.506,0,0,1-1.453-.857,4.445,4.445,0,0,1-.087-2.712l.139-.736H70a18.143,18.143,0,0,1-3.08,3.2A4.871,4.871,0,0,1,63.909,312.033Zm-1.154-5.425q0,3.675,2.274,3.675a3.6,3.6,0,0,0,1.89-.577,9.076,9.076,0,0,0,1.8-1.47,21.728,21.728,0,0,0,1.628-1.908l1.4-8.189a5.037,5.037,0,0,0-1.277-1.05,3.412,3.412,0,0,0-1.7-.386,3.965,3.965,0,0,0-2.467.841,7.281,7.281,0,0,0-1.908,2.274A12.335,12.335,0,0,0,63.175,303,15.391,15.391,0,0,0,62.755,306.608Z"/>
          <path class="cls-1" d="M80.29,312.033a1.472,1.472,0,0,1-1.436-.857,4.718,4.718,0,0,1-.1-2.712l3.744-21.106-2.59-.7v-.279l4.691-.946h.314l-3.955,22.085a5.789,5.789,0,0,0-.122,1.943.613.613,0,0,0,.647.543,2,2,0,0,0,1.366-.7,6.73,6.73,0,0,0,1.3-2.066l.49.176a10.456,10.456,0,0,1-2.083,3.534A3.235,3.235,0,0,1,80.29,312.033Z"/>
          <path class="cls-1" d="M92.329,312.033a4.576,4.576,0,0,1-3.867-1.609,6.628,6.628,0,0,1-1.242-4.165,11.412,11.412,0,0,1,.7-3.973,11.741,11.741,0,0,1,1.925-3.412,10.076,10.076,0,0,1,2.764-2.4,6.334,6.334,0,0,1,3.22-.892,3.762,3.762,0,0,1,2.7.84,2.562,2.562,0,0,1,.875,1.889,2.913,2.913,0,0,1-.961,2.083,8.32,8.32,0,0,1-3.168,1.715,33.487,33.487,0,0,1-5.916,1.278,15.138,15.138,0,0,0-.139,2.064,5.694,5.694,0,0,0,1.05,3.676,3.651,3.651,0,0,0,3.009,1.295q2.8,0,4.9-3.255h.069l.28.21a9.591,9.591,0,0,1-2.537,3.29A5.549,5.549,0,0,1,92.329,312.033Zm2.766-15.47a4.634,4.634,0,0,0-3.5,1.628,9.134,9.134,0,0,0-2.1,4.358,22.538,22.538,0,0,0,6.021-1.558,2.771,2.771,0,0,0,1.785-2.538,1.833,1.833,0,0,0-.543-1.347A2.262,2.262,0,0,0,95.1,296.563Z"/>
          <path class="cls-1" d="M102.2,311.683l2.485-14.139-2.415-.736v-.28l4.2-.944h.175l-.245,3.779h.105a29.2,29.2,0,0,1,2.2-2.187,7.163,7.163,0,0,1,1.838-1.207,4.844,4.844,0,0,1,1.942-.385,2.85,2.85,0,0,1,2.573,1.347,5.318,5.318,0,0,1,.4,3.833l-1.225,6.754a5.77,5.77,0,0,0-.123,1.943.614.614,0,0,0,.648.543q1.4,0,2.66-2.766l.455.176a10.086,10.086,0,0,1-2.048,3.534,3.234,3.234,0,0,1-2.257,1.085,1.47,1.47,0,0,1-1.435-.857,4.716,4.716,0,0,1-.1-2.712l1.365-7.84a4.032,4.032,0,0,0-.21-2.4,1.892,1.892,0,0,0-1.925-1,3.466,3.466,0,0,0-1.75.508,9.917,9.917,0,0,0-1.715,1.278q-.84.769-1.61,1.575l-1.925,11.094Z"/>
          <path class="cls-1" d="M123.164,312.033a1.977,1.977,0,0,1-1.628-.665,2.911,2.911,0,0,1-.542-1.89,3.551,3.551,0,0,1,.052-.559q.052-.315.088-.665l1.925-11.061H120.4v-.245l3.081-1.085,2.31-3.779h.245l-.665,3.849H129.6v1.26h-4.48l-1.681,9.7c-.047.327-.087.629-.122.91a5.983,5.983,0,0,0-.052.734,2.036,2.036,0,0,0,.262,1.19.92.92,0,0,0,.787.35,2.649,2.649,0,0,0,1.786-.944,8.661,8.661,0,0,0,1.714-2.766l.491.21a11.384,11.384,0,0,1-2.433,4.218A3.944,3.944,0,0,1,123.164,312.033Z"/>
          <path class="cls-1" d="M145.145,312.033a4.908,4.908,0,0,1-4.131-1.8,7.338,7.338,0,0,1-1.4-4.637,11.058,11.058,0,0,1,.63-3.71,11.264,11.264,0,0,1,1.733-3.2,8.558,8.558,0,0,1,2.607-2.257,6.49,6.49,0,0,1,3.22-.84,4.907,4.907,0,0,1,4.13,1.8,7.4,7.4,0,0,1,1.4,4.672,11.167,11.167,0,0,1-.577,3.483,11.359,11.359,0,0,1-1.663,3.237,8.729,8.729,0,0,1-2.59,2.362A6.451,6.451,0,0,1,145.145,312.033Zm.454-1.05a3.92,3.92,0,0,0,2.835-1.207,8.221,8.221,0,0,0,1.925-3.237,13.693,13.693,0,0,0,.7-4.481,7.916,7.916,0,0,0-.858-3.99,3.007,3.007,0,0,0-2.817-1.47,4.067,4.067,0,0,0-2.853,1.156,7.67,7.67,0,0,0-1.942,3.149,13.58,13.58,0,0,0-.7,4.516,8.066,8.066,0,0,0,.875,4.059A3.027,3.027,0,0,0,145.6,310.983Z"/>
          <path class="cls-1" d="M156.484,311.683l2.485-14.139-2.415-.736v-.28l4.2-.944h.175l-.244,3.779h.1a29.2,29.2,0,0,1,2.205-2.187,7.163,7.163,0,0,1,1.838-1.207,4.844,4.844,0,0,1,1.942-.385,2.85,2.85,0,0,1,2.573,1.347,5.318,5.318,0,0,1,.4,3.833l-1.225,6.754a5.77,5.77,0,0,0-.123,1.943.614.614,0,0,0,.648.543q1.4,0,2.66-2.766l.455.176a10.07,10.07,0,0,1-2.048,3.534,3.234,3.234,0,0,1-2.257,1.085,1.471,1.471,0,0,1-1.435-.857,4.725,4.725,0,0,1-.105-2.712l1.366-7.84a4.048,4.048,0,0,0-.21-2.4,1.894,1.894,0,0,0-1.926-1,3.466,3.466,0,0,0-1.75.508,9.955,9.955,0,0,0-1.715,1.278q-.84.769-1.609,1.575l-1.926,11.094Z"/>
          <path class="cls-1" d="M186.444,312.033a6.106,6.106,0,0,1-2.625-.472,4.051,4.051,0,0,1-1.47-1.1,1.486,1.486,0,0,1-.385-.875.778.778,0,0,1,.385-.665l.595-.42h.21l.455.8a3.26,3.26,0,0,0,1.365,1.33,3.865,3.865,0,0,0,1.75.42,3.339,3.339,0,0,0,2.415-.875,3.017,3.017,0,0,0,.91-2.276,2.817,2.817,0,0,0-.683-2,8.78,8.78,0,0,0-2.012-1.5,9.279,9.279,0,0,1-2.432-1.96,3.666,3.666,0,0,1-.718-2.345,3.616,3.616,0,0,1,.735-2.117,6.025,6.025,0,0,1,1.908-1.716,4.835,4.835,0,0,1,2.467-.681,5.264,5.264,0,0,1,2.153.385,4.114,4.114,0,0,1,1.417,1.014,1.481,1.481,0,0,1,.315.806.878.878,0,0,1-.088.367.889.889,0,0,1-.262.332l-.525.386h-.21l-.63-.841a3.9,3.9,0,0,0-1.137-1.1,2.846,2.846,0,0,0-1.488-.368,2.693,2.693,0,0,0-2.065.823,2.622,2.622,0,0,0-.77,1.837,2.926,2.926,0,0,0,.613,1.908,6.445,6.445,0,0,0,1.732,1.418,12.162,12.162,0,0,1,2.625,1.924,3.7,3.7,0,0,1,.875,2.661,4.353,4.353,0,0,1-.7,2.344,5.486,5.486,0,0,1-4.725,2.555Z"/>
          <path class="cls-1" d="M197.959,311.683h-2.065l4.27-24.29-2.45-.735v-.279l4.655-.946h.21l-2.45,13.93h.069a29.387,29.387,0,0,1,2.2-2.187,7.2,7.2,0,0,1,1.838-1.207,4.845,4.845,0,0,1,1.943-.385,2.846,2.846,0,0,1,2.572,1.347,5.312,5.312,0,0,1,.4,3.833l-1.225,6.754a5.762,5.762,0,0,0-.122,1.943.612.612,0,0,0,.647.543q1.4,0,2.66-2.766l.454.176a10.664,10.664,0,0,1-2.064,3.534,3.181,3.181,0,0,1-2.24,1.085,1.469,1.469,0,0,1-1.435-.857,4.716,4.716,0,0,1-.1-2.712l1.365-7.84a4.032,4.032,0,0,0-.21-2.4,1.894,1.894,0,0,0-1.925-1,4.182,4.182,0,0,0-2.607,1.05,21.349,21.349,0,0,0-2.433,2.276Z"/>
          <path class="cls-1" d="M219.344,312.033a4.908,4.908,0,0,1-4.131-1.8,7.338,7.338,0,0,1-1.4-4.637,11.058,11.058,0,0,1,.63-3.71,11.264,11.264,0,0,1,1.733-3.2,8.558,8.558,0,0,1,2.607-2.257,6.49,6.49,0,0,1,3.22-.84,4.907,4.907,0,0,1,4.13,1.8,7.4,7.4,0,0,1,1.4,4.672,11.167,11.167,0,0,1-.577,3.483,11.334,11.334,0,0,1-1.663,3.237,8.729,8.729,0,0,1-2.59,2.362A6.451,6.451,0,0,1,219.344,312.033Zm.454-1.05a3.92,3.92,0,0,0,2.835-1.207,8.234,8.234,0,0,0,1.926-3.237,13.72,13.72,0,0,0,.7-4.481,7.905,7.905,0,0,0-.858-3.99,3.006,3.006,0,0,0-2.817-1.47,4.068,4.068,0,0,0-2.853,1.156,7.67,7.67,0,0,0-1.942,3.149,13.58,13.58,0,0,0-.7,4.516,8.066,8.066,0,0,0,.875,4.059A3.027,3.027,0,0,0,219.8,310.983Z"/>
          <path class="cls-1" d="M231.174,311.683l2.519-14.139-2.485-.736v-.28l4.306-.944h.139l-.28,4.059h.141a16.918,16.918,0,0,1,1.995-2.677,4.862,4.862,0,0,1,1.47-1.12,3.021,3.021,0,0,1,1.155-.262,1.859,1.859,0,0,1,1.085.314.9.9,0,0,1,.455.736.924.924,0,0,1-.106.42l-.665,1.259h-.139l-.455-.28a1.859,1.859,0,0,0-1.085-.314,2.9,2.9,0,0,0-1.891.769,13.751,13.751,0,0,0-2.274,2.9l-1.821,10.29Z"/>
          <path class="cls-1" d="M247.344,312.033a4.576,4.576,0,0,1-3.867-1.609,6.622,6.622,0,0,1-1.243-4.165,11.413,11.413,0,0,1,.7-3.973,11.738,11.738,0,0,1,1.924-3.412,10.094,10.094,0,0,1,2.765-2.4,6.331,6.331,0,0,1,3.22-.892,3.762,3.762,0,0,1,2.695.84,2.562,2.562,0,0,1,.875,1.889,2.911,2.911,0,0,1-.962,2.083,8.3,8.3,0,0,1-3.168,1.715,33.473,33.473,0,0,1-5.915,1.278,14.98,14.98,0,0,0-.14,2.064,5.7,5.7,0,0,0,1.05,3.676,3.652,3.652,0,0,0,3.01,1.295q2.8,0,4.9-3.255h.07l.28.21a9.591,9.591,0,0,1-2.537,3.29A5.551,5.551,0,0,1,247.344,312.033Zm2.765-15.47a4.634,4.634,0,0,0-3.5,1.628,9.124,9.124,0,0,0-2.1,4.358,22.518,22.518,0,0,0,6.02-1.558,2.769,2.769,0,0,0,1.785-2.538,1.829,1.829,0,0,0-.543-1.347A2.262,2.262,0,0,0,250.109,296.563Z"/>
          <path class="cls-1" d="M258.194,311.858a1.4,1.4,0,0,1-1.137-.437,1.707,1.707,0,0,1-.369-1.138,2.133,2.133,0,0,1,.526-1.4,1.728,1.728,0,0,1,1.4-.63,1.372,1.372,0,0,1,1.137.455,1.725,1.725,0,0,1,.368,1.119,2.113,2.113,0,0,1-.525,1.418A1.754,1.754,0,0,1,258.194,311.858Z"/>
        </g>
        <g class="cls-2">
          <path class="cls-1" d="M210.309,25.78v1.75h11.878V52.021H197.7V27.714Q197.7,0,222.187,0V10.312q-6.263,1.014-9.069,4.741T210.309,25.78Zm41.71,0v1.75H263.9V52.021H239.5V27.714Q239.5,0,263.9,0V10.312Q252.019,11.878,252.019,25.78Z"/>
        </g>
      </g>
    </g>
  </g>
</svg>
