<svg xmlns="http://www.w3.org/2000/svg" viewBox="0 0 269.99 312.033">
  <defs>
    <style>
      .cls-1 {
        fill: #97adc4;
      }

      .cls-2 {
        opacity: 0.4;
      }
    </style>
  </defs>
  <g id="Layer_2" data-name="Layer 2">
    <g id="Layer_8" data-name="Layer 8">
      <g>
        <g>
          <path class="cls-1" d="M1.506,111.858a1.4,1.4,0,0,1-1.138-.437A1.707,1.707,0,0,1,0,110.283a2.14,2.14,0,0,1,.525-1.4,1.733,1.733,0,0,1,1.4-.629,1.371,1.371,0,0,1,1.136.455,1.716,1.716,0,0,1,.369,1.119,2.109,2.109,0,0,1-.526,1.418A1.75,1.75,0,0,1,1.506,111.858Zm7,0a1.4,1.4,0,0,1-1.138-.437A1.707,1.707,0,0,1,7,110.283a2.14,2.14,0,0,1,.525-1.4,1.733,1.733,0,0,1,1.4-.629,1.371,1.371,0,0,1,1.136.455,1.716,1.716,0,0,1,.369,1.119,2.109,2.109,0,0,1-.526,1.418A1.75,1.75,0,0,1,8.506,111.858Zm7,0a1.4,1.4,0,0,1-1.138-.437A1.707,1.707,0,0,1,14,110.283a2.14,2.14,0,0,1,.525-1.4,1.733,1.733,0,0,1,1.4-.629,1.371,1.371,0,0,1,1.136.455,1.716,1.716,0,0,1,.369,1.119,2.109,2.109,0,0,1-.526,1.418A1.75,1.75,0,0,1,15.506,111.858Z"/>
          <path class="cls-1" d="M34.545,112.033a2.849,2.849,0,0,1-2.327-1.172,5.536,5.536,0,0,1-.928-3.482,12.4,12.4,0,0,1,.735-4.148A15.171,15.171,0,0,1,34,99.416a10.626,10.626,0,0,1,2.87-2.783,6.2,6.2,0,0,1,3.412-1.049,5.462,5.462,0,0,1,1.662.261,5.823,5.823,0,0,1,1.453.683l.945-.77h.525l-2.065,11.76a5.789,5.789,0,0,0-.122,1.943A.594.594,0,0,0,43.3,110q1.436,0,2.7-2.766l.455.176a10.423,10.423,0,0,1-2.083,3.534,3.2,3.2,0,0,1-2.221,1.085,1.5,1.5,0,0,1-1.453-.858,4.44,4.44,0,0,1-.087-2.711l.139-.736h-.105a18.1,18.1,0,0,1-3.08,3.2A4.866,4.866,0,0,1,34.545,112.033Zm-1.154-5.425q0,3.675,2.274,3.675a3.607,3.607,0,0,0,1.89-.577,9.043,9.043,0,0,0,1.8-1.47,21.391,21.391,0,0,0,1.628-1.908l1.4-8.19a5.053,5.053,0,0,0-1.278-1.049,3.408,3.408,0,0,0-1.7-.386,3.97,3.97,0,0,0-2.468.841,7.279,7.279,0,0,0-1.907,2.274A12.335,12.335,0,0,0,33.811,103,15.338,15.338,0,0,0,33.391,106.608Z"/>
          <path class="cls-1" d="M44.206,120.084a1.715,1.715,0,0,1-1.12-.3.829.829,0,0,1-.351-.613,1.371,1.371,0,0,1,.176-.49l.454-1.05h.141l.559.315a2.726,2.726,0,0,0,.753.245,4.761,4.761,0,0,0,.823.07,2.773,2.773,0,0,0,2.415-1.75,16.072,16.072,0,0,0,1.434-5.179l2.136-14.141H48.791v-1.26H51.8l.21-1.4a9.856,9.856,0,0,1,.91-2.694,15.618,15.618,0,0,1,1.907-3.011A10.975,10.975,0,0,1,57.506,86.4a5.875,5.875,0,0,1,3.22-.963,1.844,1.844,0,0,1,.945.245q.594.315.559.736a.978.978,0,0,1-.139.489l-.561,1.016h-.139l-.665-.281a5.066,5.066,0,0,0-2-.384,3.4,3.4,0,0,0-2.834,1.5,9.938,9.938,0,0,0-1.576,4.375l-.42,2.8h8.54l2.346-3.849h.244l-.665,3.849H68.6v1.26h-4.48l-1.681,9.7a5.615,5.615,0,0,0-.069,2.486.932.932,0,0,0,.944.7,2.6,2.6,0,0,0,1.768-.944,9.349,9.349,0,0,0,1.732-2.766l.491.21a11.384,11.384,0,0,1-2.433,4.218,3.944,3.944,0,0,1-2.712,1.242,1.868,1.868,0,0,1-1.838-1.015,4.446,4.446,0,0,1-.192-2.764l1.925-11.061H53.69l-2.029,13.545a12.362,12.362,0,0,1-.823,2.783,16.935,16.935,0,0,1-1.662,3.1A10.67,10.67,0,0,1,46.9,119.1,4.309,4.309,0,0,1,44.206,120.084Z"/>
          <path class="cls-1" d="M75.146,112.033a4.576,4.576,0,0,1-3.868-1.61,6.624,6.624,0,0,1-1.242-4.165,11.43,11.43,0,0,1,.7-3.972,11.764,11.764,0,0,1,1.925-3.412,10.08,10.08,0,0,1,2.765-2.4,6.329,6.329,0,0,1,3.22-.892,3.768,3.768,0,0,1,2.695.839,2.566,2.566,0,0,1,.875,1.89,2.911,2.911,0,0,1-.962,2.083,8.312,8.312,0,0,1-3.168,1.715,33.394,33.394,0,0,1-5.915,1.277,15.005,15.005,0,0,0-.14,2.065,5.7,5.7,0,0,0,1.05,3.676,3.651,3.651,0,0,0,3.01,1.294q2.8,0,4.9-3.254h.07l.28.21a9.613,9.613,0,0,1-2.537,3.29A5.551,5.551,0,0,1,75.146,112.033Zm2.765-15.47a4.634,4.634,0,0,0-3.5,1.628,9.125,9.125,0,0,0-2.1,4.357,22.487,22.487,0,0,0,6.02-1.557,2.77,2.77,0,0,0,1.785-2.538,1.827,1.827,0,0,0-.543-1.347A2.262,2.262,0,0,0,77.911,96.563Z"/>
          <path class="cls-1" d="M85.506,111.683l2.519-14.139-2.485-.736v-.28l4.306-.944h.139l-.28,4.059h.141a16.935,16.935,0,0,1,1.995-2.678,4.9,4.9,0,0,1,1.47-1.12,3.037,3.037,0,0,1,1.155-.261,1.859,1.859,0,0,1,1.085.314.9.9,0,0,1,.455.735.918.918,0,0,1-.106.42l-.665,1.26H95.1l-.455-.28a1.86,1.86,0,0,0-1.085-.315,2.9,2.9,0,0,0-1.891.77,13.724,13.724,0,0,0-2.274,2.905l-1.821,10.29Z"/>
          <path class="cls-1" d="M108.151,112.033a1.98,1.98,0,0,1-1.628-.665,2.913,2.913,0,0,1-.542-1.89,3.551,3.551,0,0,1,.052-.559c.035-.21.065-.432.088-.665l1.925-11.061h-2.66v-.245l3.08-1.085,2.31-3.779h.245l-.665,3.849h4.235v1.26h-4.48l-1.68,9.7c-.047.327-.087.63-.122.91a5.837,5.837,0,0,0-.053.735,2.037,2.037,0,0,0,.263,1.19.918.918,0,0,0,.787.35,2.653,2.653,0,0,0,1.785-.944,8.662,8.662,0,0,0,1.715-2.766l.49.21a11.384,11.384,0,0,1-2.433,4.218A3.944,3.944,0,0,1,108.151,112.033Z"/>
          <path class="cls-1" d="M118.231,111.683h-2.065l4.271-24.29-2.451-.735v-.279l4.656-.946h.21L120.4,99.363h.07a29.62,29.62,0,0,1,2.2-2.188,7.251,7.251,0,0,1,1.838-1.207,4.857,4.857,0,0,1,1.942-.384,2.846,2.846,0,0,1,2.572,1.346,5.313,5.313,0,0,1,.4,3.833l-1.226,6.755a5.789,5.789,0,0,0-.122,1.943.612.612,0,0,0,.647.543q1.4,0,2.661-2.766l.454.176a10.664,10.664,0,0,1-2.065,3.534,3.178,3.178,0,0,1-2.24,1.085,1.47,1.47,0,0,1-1.435-.858,4.712,4.712,0,0,1-.1-2.711l1.365-7.84a4.032,4.032,0,0,0-.21-2.4,1.892,1.892,0,0,0-1.925-1,4.182,4.182,0,0,0-2.607,1.05,21.515,21.515,0,0,0-2.433,2.275Z"/>
          <path class="cls-1" d="M139.2,112.033a4.574,4.574,0,0,1-3.867-1.61,6.624,6.624,0,0,1-1.242-4.165,11.407,11.407,0,0,1,.7-3.972,11.764,11.764,0,0,1,1.925-3.412,10.065,10.065,0,0,1,2.765-2.4,6.328,6.328,0,0,1,3.219-.892,3.769,3.769,0,0,1,2.7.839,2.566,2.566,0,0,1,.875,1.89,2.915,2.915,0,0,1-.962,2.083,8.32,8.32,0,0,1-3.168,1.715,33.415,33.415,0,0,1-5.915,1.277,15.005,15.005,0,0,0-.14,2.065,5.7,5.7,0,0,0,1.05,3.676,3.651,3.651,0,0,0,3.01,1.294q2.8,0,4.9-3.254h.069l.281.21a9.625,9.625,0,0,1-2.537,3.29A5.551,5.551,0,0,1,139.2,112.033Zm2.766-15.47a4.634,4.634,0,0,0-3.5,1.628,9.135,9.135,0,0,0-2.1,4.357,22.5,22.5,0,0,0,6.021-1.557,2.772,2.772,0,0,0,1.785-2.538,1.831,1.831,0,0,0-.543-1.347A2.262,2.262,0,0,0,141.961,96.563Z"/>
          <path class="cls-1" d="M153.3,120.084a1.715,1.715,0,0,1-1.12-.3.826.826,0,0,1-.351-.613,1.371,1.371,0,0,1,.176-.49l.454-1.05h.141l.559.315a2.726,2.726,0,0,0,.753.245,4.758,4.758,0,0,0,.822.07,2.77,2.77,0,0,0,2.415-1.75,16.069,16.069,0,0,0,1.435-5.179l2.136-14.141h-2.835v-1.26h3.01l.209-1.4a10.276,10.276,0,0,1,.98-2.853,13.849,13.849,0,0,1,2.013-2.974,11.188,11.188,0,0,1,2.852-2.345,6.894,6.894,0,0,1,3.5-.928,6.607,6.607,0,0,1,1.7.193,5.549,5.549,0,0,1,1.279.507,2.168,2.168,0,0,1,.595.35.7.7,0,0,1,.245.561.9.9,0,0,1-.106.437c-.069.128-.163.286-.279.472l-.386.525h-.21l-.7-.349a6.893,6.893,0,0,0-1.539-.718,6.086,6.086,0,0,0-1.785-.228,5.04,5.04,0,0,0-3.99,1.628,8.3,8.3,0,0,0-1.856,4.322l-.42,2.8h10.221l-2.066,11.585a5.789,5.789,0,0,0-.122,1.943.613.613,0,0,0,.648.543q1.4,0,2.659-2.766l.455.176a10.664,10.664,0,0,1-2.064,3.534,3.181,3.181,0,0,1-2.241,1.085,1.5,1.5,0,0,1-1.452-.858,4.454,4.454,0,0,1-.088-2.711l2-11.271h-8.155l-2.029,13.545a12.415,12.415,0,0,1-.823,2.783,17,17,0,0,1-1.662,3.1A10.67,10.67,0,0,1,156,119.1,4.311,4.311,0,0,1,153.3,120.084Z"/>
          <path class="cls-1" d="M177.94,111.683l2.52-14.139-2.485-.736v-.28l4.305-.944h.14l-.28,4.059h.14a17.06,17.06,0,0,1,2-2.678,4.908,4.908,0,0,1,1.47-1.12,3.045,3.045,0,0,1,1.155-.261,1.857,1.857,0,0,1,1.085.314.9.9,0,0,1,.455.735.929.929,0,0,1-.1.42l-.665,1.26h-.14l-.455-.28a1.86,1.86,0,0,0-1.085-.315,2.9,2.9,0,0,0-1.89.77,13.688,13.688,0,0,0-2.275,2.905l-1.82,10.29Z"/>
          <path class="cls-1" d="M192.431,112.033a6.1,6.1,0,0,1-2.625-.472,4.047,4.047,0,0,1-1.471-1.1,1.491,1.491,0,0,1-.385-.875.86.86,0,0,1,.071-.316.848.848,0,0,1,.314-.349l.6-.42h.21l.455.8a3.24,3.24,0,0,0,1.364,1.33,3.858,3.858,0,0,0,1.75.42,3.337,3.337,0,0,0,2.415-.875,3.015,3.015,0,0,0,.91-2.275,2.816,2.816,0,0,0-.682-2,8.8,8.8,0,0,0-2.012-1.5,9.307,9.307,0,0,1-2.433-1.96,3.674,3.674,0,0,1-.718-2.345,3.618,3.618,0,0,1,.736-2.117,6.009,6.009,0,0,1,1.907-1.716,4.838,4.838,0,0,1,2.468-.681,5.279,5.279,0,0,1,2.152.384,4.13,4.13,0,0,1,1.417,1.015,1.481,1.481,0,0,1,.316.806.929.929,0,0,1-.351.7l-.524.386h-.21l-.63-.841a3.922,3.922,0,0,0-1.138-1.1,2.849,2.849,0,0,0-1.487-.367,2.7,2.7,0,0,0-2.066.822,2.629,2.629,0,0,0-.769,1.838,2.925,2.925,0,0,0,.612,1.908,6.444,6.444,0,0,0,1.732,1.417,12.2,12.2,0,0,1,2.625,1.925,3.7,3.7,0,0,1,.875,2.66,4.354,4.354,0,0,1-.7,2.345,5.486,5.486,0,0,1-4.724,2.555Z"/>
          <path class="cls-1" d="M204.61,112.033a1.98,1.98,0,0,1-1.628-.665,2.913,2.913,0,0,1-.542-1.89,3.551,3.551,0,0,1,.052-.559c.035-.21.065-.432.088-.665l1.925-11.061h-2.66v-.245l3.08-1.085,2.31-3.779h.245l-.665,3.849h4.235v1.26h-4.48l-1.68,9.7c-.047.327-.087.63-.122.91a5.837,5.837,0,0,0-.053.735,2.037,2.037,0,0,0,.263,1.19.918.918,0,0,0,.787.35,2.653,2.653,0,0,0,1.785-.944,8.662,8.662,0,0,0,1.715-2.766l.49.21a11.384,11.384,0,0,1-2.433,4.218A3.944,3.944,0,0,1,204.61,112.033Z"/>
          <path class="cls-1" d="M224.28,112.033a2.8,2.8,0,0,1-2.309-1.172,5.6,5.6,0,0,1-.91-3.482,12.675,12.675,0,0,1,.717-4.148,14.423,14.423,0,0,1,1.977-3.815,11,11,0,0,1,2.87-2.783,6.114,6.114,0,0,1,3.4-1.049,5.343,5.343,0,0,1,1.277.157,5.688,5.688,0,0,1,1.207.437l1.54-8.82-2.8-.7v-.279l5-.946h.176l-3.886,22.085a5.789,5.789,0,0,0-.122,1.943.613.613,0,0,0,.647.543q1.4,0,2.661-2.766l.455.176a10.086,10.086,0,0,1-2.048,3.534,3.237,3.237,0,0,1-2.258,1.085,1.471,1.471,0,0,1-1.435-.858,4.712,4.712,0,0,1-.1-2.711l.141-.736h-.106a16.909,16.909,0,0,1-3.149,3.255A4.935,4.935,0,0,1,224.28,112.033Zm-1.155-5.425a5.082,5.082,0,0,0,.6,2.8,1.944,1.944,0,0,0,1.715.875,4.242,4.242,0,0,0,2.625-1.1,15.469,15.469,0,0,0,2.625-2.782l1.434-8.26a5.634,5.634,0,0,0-1.33-1.067,3.362,3.362,0,0,0-1.644-.368,3.979,3.979,0,0,0-2.433.823,7.125,7.125,0,0,0-1.907,2.239,12.523,12.523,0,0,0-1.244,3.186A15.2,15.2,0,0,0,223.125,106.608Z"/>
          <path class="cls-1" d="M241.955,112.033a2.849,2.849,0,0,1-2.327-1.172,5.536,5.536,0,0,1-.928-3.482,12.372,12.372,0,0,1,.736-4.148,15.135,15.135,0,0,1,1.977-3.815,10.626,10.626,0,0,1,2.87-2.783,6.2,6.2,0,0,1,3.412-1.049,5.457,5.457,0,0,1,1.662.261,5.83,5.83,0,0,1,1.454.683l.944-.77h.525l-2.065,11.76a5.789,5.789,0,0,0-.122,1.943.594.594,0,0,0,.612.543q1.435,0,2.695-2.766l.455.176a10.423,10.423,0,0,1-2.083,3.534,3.2,3.2,0,0,1-2.221,1.085,1.505,1.505,0,0,1-1.453-.858,4.44,4.44,0,0,1-.087-2.711l.139-.736h-.105a18.1,18.1,0,0,1-3.08,3.2A4.866,4.866,0,0,1,241.955,112.033Zm-1.154-5.425q0,3.675,2.274,3.675a3.607,3.607,0,0,0,1.89-.577,9.076,9.076,0,0,0,1.8-1.47,21.728,21.728,0,0,0,1.628-1.908l1.4-8.19a5.049,5.049,0,0,0-1.277-1.049,3.415,3.415,0,0,0-1.7-.386,3.965,3.965,0,0,0-2.467.841,7.268,7.268,0,0,0-1.908,2.274A12.335,12.335,0,0,0,241.221,103,15.338,15.338,0,0,0,240.8,106.608Z"/>
          <path class="cls-1" d="M253.681,120.084a.9.9,0,0,1-1.015-1.016v-1.154l.175-.141h1.75a6.887,6.887,0,0,0,1.208-.087,1.951,1.951,0,0,0,.892-.437,5.556,5.556,0,0,0,.927-1.085q.507-.736,1.278-2.031l1.785-2.94-3.08-13.72-2.555-.665v-.28l4.235-.944h.14l2.765,12.984h.14l2.765-4.515a21.573,21.573,0,0,0,1.61-3.027,5.616,5.616,0,0,0,.49-2.013,1.624,1.624,0,0,0-.245-.945,2.229,2.229,0,0,0-.63-.595l-.525-.28v-.14l.56-.91a1.462,1.462,0,0,1,.368-.455.778.778,0,0,1,.437-.1,1.462,1.462,0,0,1,1.242.787,3.135,3.135,0,0,1,.508,1.732,5.3,5.3,0,0,1-.49,1.943,24.678,24.678,0,0,1-1.75,3.2l-7,11.2q-.49.806-.805,1.33c-.21.351-.426.7-.647,1.05a11.693,11.693,0,0,1-.963,1.261,5.959,5.959,0,0,1-1.768,1.5A3.842,3.842,0,0,1,253.681,120.084Z"/>
          <path class="cls-1" d="M45.814,156.933l5.215-31.15h5.425l-.1.631H52.465L47.494,156.3h3.885l-.14.63Z"/>
          <path class="cls-1" d="M58.2,152.033a1.469,1.469,0,0,1-1.435-.858,4.7,4.7,0,0,1-.1-2.711l3.744-21.106-2.59-.7v-.279l4.691-.946h.314l-3.955,22.085a5.789,5.789,0,0,0-.122,1.943.613.613,0,0,0,.648.543,1.993,1.993,0,0,0,1.365-.7,6.711,6.711,0,0,0,1.3-2.065l.49.176a10.456,10.456,0,0,1-2.083,3.534A3.234,3.234,0,0,1,58.2,152.033Z"/>
          <path class="cls-1" d="M70.664,152.033a4.911,4.911,0,0,1-4.131-1.8,7.344,7.344,0,0,1-1.4-4.638,11.067,11.067,0,0,1,.63-3.71,11.314,11.314,0,0,1,1.732-3.2,8.588,8.588,0,0,1,2.608-2.257,6.5,6.5,0,0,1,3.219-.839,4.907,4.907,0,0,1,4.13,1.8,7.4,7.4,0,0,1,1.4,4.673,11.168,11.168,0,0,1-.578,3.483,11.335,11.335,0,0,1-1.663,3.237,8.731,8.731,0,0,1-2.59,2.362A6.448,6.448,0,0,1,70.664,152.033Zm.454-1.05a3.918,3.918,0,0,0,2.835-1.207,8.229,8.229,0,0,0,1.926-3.237,13.693,13.693,0,0,0,.7-4.481,7.914,7.914,0,0,0-.857-3.99A3.009,3.009,0,0,0,72.9,136.6a4.064,4.064,0,0,0-2.852,1.156,7.671,7.671,0,0,0-1.943,3.149,13.606,13.606,0,0,0-.7,4.516,8.066,8.066,0,0,0,.875,4.059A3.028,3.028,0,0,0,71.118,150.983Z"/>
          <path class="cls-1" d="M87.114,152.033a4.543,4.543,0,0,1-3.815-1.61,6.856,6.856,0,0,1-1.26-4.339,10.485,10.485,0,0,1,.718-3.816A12.59,12.59,0,0,1,84.7,138.89a10.2,10.2,0,0,1,2.73-2.414,5.968,5.968,0,0,1,3.08-.892,4.753,4.753,0,0,1,2.135.42,4.431,4.431,0,0,1,1.365,1.014,1.786,1.786,0,0,1,.595,1.155.825.825,0,0,1-.42.7l-.945.594h-.21l-.455-.77a6.166,6.166,0,0,0-1.19-1.452A2.652,2.652,0,0,0,89.6,136.7a4.1,4.1,0,0,0-2.747,1.12,7.808,7.808,0,0,0-2.048,3.045,11.592,11.592,0,0,0-.77,4.341,6.261,6.261,0,0,0,1.032,3.867,3.5,3.5,0,0,0,2.957,1.347,4.419,4.419,0,0,0,2.574-.875,9.6,9.6,0,0,0,2.466-2.87h.071l.28.21a11.863,11.863,0,0,1-2.643,3.675A5.232,5.232,0,0,1,87.114,152.033Z"/>
          <path class="cls-1" d="M99.818,152.033a2.85,2.85,0,0,1-2.327-1.172,5.536,5.536,0,0,1-.928-3.482,12.4,12.4,0,0,1,.736-4.148,15.135,15.135,0,0,1,1.977-3.815,10.64,10.64,0,0,1,2.87-2.783,6.2,6.2,0,0,1,3.413-1.049,5.467,5.467,0,0,1,1.662.261,5.823,5.823,0,0,1,1.453.683l.944-.77h.526l-2.066,11.76a5.789,5.789,0,0,0-.122,1.943.594.594,0,0,0,.612.543q1.436,0,2.7-2.766l.455.176a10.456,10.456,0,0,1-2.083,3.534,3.208,3.208,0,0,1-2.222,1.085,1.505,1.505,0,0,1-1.453-.858,4.448,4.448,0,0,1-.087-2.711l.14-.736h-.106a18.062,18.062,0,0,1-3.08,3.2A4.866,4.866,0,0,1,99.818,152.033Zm-1.154-5.425q0,3.675,2.274,3.675a3.607,3.607,0,0,0,1.89-.577,9.048,9.048,0,0,0,1.8-1.47,21.728,21.728,0,0,0,1.628-1.908l1.4-8.19a5.032,5.032,0,0,0-1.277-1.049,3.411,3.411,0,0,0-1.7-.386,3.965,3.965,0,0,0-2.468.841,7.266,7.266,0,0,0-1.907,2.274A12.3,12.3,0,0,0,99.084,143,15.391,15.391,0,0,0,98.664,146.608Z"/>
          <path class="cls-1" d="M116.2,152.033a1.469,1.469,0,0,1-1.435-.858,4.7,4.7,0,0,1-.1-2.711l3.744-21.106-2.59-.7v-.279l4.691-.946h.314l-3.955,22.085a5.789,5.789,0,0,0-.122,1.943.613.613,0,0,0,.648.543,1.993,1.993,0,0,0,1.365-.7,6.711,6.711,0,0,0,1.3-2.065l.49.176a10.456,10.456,0,0,1-2.083,3.534A3.234,3.234,0,0,1,116.2,152.033Z"/>
          <path class="cls-1" d="M126.419,152.033a6.1,6.1,0,0,1-2.625-.472,4.056,4.056,0,0,1-1.471-1.1,1.491,1.491,0,0,1-.385-.875.785.785,0,0,1,.385-.665l.6-.42h.21l.455.8a3.252,3.252,0,0,0,1.364,1.33,3.858,3.858,0,0,0,1.75.42,3.337,3.337,0,0,0,2.415-.875,3.011,3.011,0,0,0,.91-2.275,2.816,2.816,0,0,0-.682-2,8.78,8.78,0,0,0-2.012-1.5,9.324,9.324,0,0,1-2.433-1.96,3.674,3.674,0,0,1-.717-2.345,3.616,3.616,0,0,1,.735-2.117,6.009,6.009,0,0,1,1.907-1.716,4.841,4.841,0,0,1,2.468-.681,5.279,5.279,0,0,1,2.152.384,4.12,4.12,0,0,1,1.417,1.015,1.481,1.481,0,0,1,.316.806.878.878,0,0,1-.088.367.9.9,0,0,1-.263.332l-.524.386h-.21l-.63-.841a3.922,3.922,0,0,0-1.138-1.1,2.849,2.849,0,0,0-1.487-.367,2.7,2.7,0,0,0-2.065.822,2.626,2.626,0,0,0-.77,1.838,2.925,2.925,0,0,0,.612,1.908,6.465,6.465,0,0,0,1.733,1.417,12.2,12.2,0,0,1,2.625,1.925,3.7,3.7,0,0,1,.875,2.66,4.362,4.362,0,0,1-.7,2.345,5.5,5.5,0,0,1-1.925,1.838A5.443,5.443,0,0,1,126.419,152.033Z"/>
          <path class="cls-1" d="M131.528,156.933l.106-.63h3.885l4.969-29.889h-3.849l.1-.631h5.46l-5.216,31.15Z"/>
          <path class="cls-1" d="M157.079,151.789l-2.766-14.316-2.554-.665v-.28l4.235-.944h.14l2.24,12.7h.14l5.565-12.356h.385l2.625,12.705h.14l2.45-4.585q.98-1.854,1.469-3.045a5.44,5.44,0,0,0,.491-2,1.624,1.624,0,0,0-.245-.945,2.216,2.216,0,0,0-.63-.595l-.525-.28v-.14l.56-.91a1.3,1.3,0,0,1,.385-.455.8.8,0,0,1,.42-.1,1.444,1.444,0,0,1,1.208.8,3.174,3.174,0,0,1,.507,1.715,5.333,5.333,0,0,1-.472,1.925,29.417,29.417,0,0,1-1.663,3.221l-4.9,8.54h-.49L163.273,140.2,157.6,151.789Z"/>
          <path class="cls-1" d="M180.353,152.033a4.576,4.576,0,0,1-3.868-1.61,6.624,6.624,0,0,1-1.242-4.165,11.43,11.43,0,0,1,.7-3.972,11.764,11.764,0,0,1,1.925-3.412,10.08,10.08,0,0,1,2.765-2.4,6.329,6.329,0,0,1,3.22-.892,3.768,3.768,0,0,1,2.695.839,2.566,2.566,0,0,1,.875,1.89,2.911,2.911,0,0,1-.962,2.083,8.312,8.312,0,0,1-3.168,1.715,33.394,33.394,0,0,1-5.915,1.277,15.005,15.005,0,0,0-.14,2.065,5.7,5.7,0,0,0,1.05,3.676,3.651,3.651,0,0,0,3.01,1.294q2.8,0,4.9-3.254h.07l.28.21a9.613,9.613,0,0,1-2.537,3.29A5.551,5.551,0,0,1,180.353,152.033Zm2.765-15.47a4.634,4.634,0,0,0-3.5,1.628,9.125,9.125,0,0,0-2.1,4.357,22.487,22.487,0,0,0,6.02-1.557,2.77,2.77,0,0,0,1.785-2.538,1.827,1.827,0,0,0-.543-1.347A2.262,2.262,0,0,0,183.118,136.563Z"/>
          <path class="cls-1" d="M190.713,151.683l2.519-14.139-2.485-.736v-.28l4.306-.944h.139l-.28,4.059h.141a16.935,16.935,0,0,1,2-2.678,4.9,4.9,0,0,1,1.47-1.12,3.041,3.041,0,0,1,1.155-.261,1.859,1.859,0,0,1,1.085.314.9.9,0,0,1,.455.735.918.918,0,0,1-.106.42l-.665,1.26H200.3l-.455-.28a1.86,1.86,0,0,0-1.085-.315,2.9,2.9,0,0,0-1.891.77,13.724,13.724,0,0,0-2.274,2.905l-1.821,10.29Z"/>
          <path class="cls-1" d="M206.883,152.033a4.574,4.574,0,0,1-3.867-1.61,6.624,6.624,0,0,1-1.243-4.165,11.408,11.408,0,0,1,.7-3.972,11.738,11.738,0,0,1,1.924-3.412,10.094,10.094,0,0,1,2.765-2.4,6.331,6.331,0,0,1,3.22-.892,3.767,3.767,0,0,1,2.695.839,2.566,2.566,0,0,1,.875,1.89,2.911,2.911,0,0,1-.962,2.083,8.3,8.3,0,0,1-3.168,1.715,33.374,33.374,0,0,1-5.915,1.277,15.006,15.006,0,0,0-.139,2.065,5.7,5.7,0,0,0,1.049,3.676,3.653,3.653,0,0,0,3.01,1.294q2.8,0,4.9-3.254h.069l.28.21a9.6,9.6,0,0,1-2.537,3.29A5.551,5.551,0,0,1,206.883,152.033Zm2.765-15.47a4.634,4.634,0,0,0-3.5,1.628,9.134,9.134,0,0,0-2.1,4.357,22.487,22.487,0,0,0,6.02-1.557,2.771,2.771,0,0,0,1.786-2.538,1.831,1.831,0,0,0-.543-1.347A2.265,2.265,0,0,0,209.648,136.563Z"/>
          <path class="cls-1" d="M225.328,151.683l2.484-14.139-2.415-.736v-.28l4.2-.944h.174l-.244,3.779h.105a29.429,29.429,0,0,1,2.2-2.188,7.216,7.216,0,0,1,1.838-1.207,4.86,4.86,0,0,1,1.942-.384,2.849,2.849,0,0,1,2.572,1.346,5.314,5.314,0,0,1,.4,3.833l-1.225,6.755a5.77,5.77,0,0,0-.123,1.943.614.614,0,0,0,.648.543q1.4,0,2.66-2.766l.455.176a10.086,10.086,0,0,1-2.048,3.534,3.234,3.234,0,0,1-2.257,1.085,1.47,1.47,0,0,1-1.435-.858,4.712,4.712,0,0,1-.1-2.711l1.365-7.84a4.04,4.04,0,0,0-.21-2.4,1.892,1.892,0,0,0-1.925-1,3.466,3.466,0,0,0-1.75.508,9.961,9.961,0,0,0-1.715,1.277q-.84.771-1.61,1.576l-1.925,11.094Z"/>
          <path class="cls-1" d="M248.778,152.033a4.911,4.911,0,0,1-4.131-1.8,7.344,7.344,0,0,1-1.4-4.638,11.067,11.067,0,0,1,.63-3.71,11.314,11.314,0,0,1,1.732-3.2,8.6,8.6,0,0,1,2.608-2.257,6.5,6.5,0,0,1,3.22-.839,4.906,4.906,0,0,1,4.129,1.8,7.4,7.4,0,0,1,1.4,4.673,11.2,11.2,0,0,1-.577,3.483,11.386,11.386,0,0,1-1.663,3.237,8.743,8.743,0,0,1-2.59,2.362A6.452,6.452,0,0,1,248.778,152.033Zm.454-1.05a3.916,3.916,0,0,0,2.835-1.207,8.229,8.229,0,0,0,1.926-3.237,13.693,13.693,0,0,0,.7-4.481,7.914,7.914,0,0,0-.857-3.99,3.007,3.007,0,0,0-2.817-1.47,4.065,4.065,0,0,0-2.853,1.156,7.659,7.659,0,0,0-1.942,3.149,13.579,13.579,0,0,0-.7,4.516,8.066,8.066,0,0,0,.875,4.059A3.028,3.028,0,0,0,249.232,150.983Z"/>
          <path class="cls-1" d="M262.813,152.033a1.976,1.976,0,0,1-1.627-.665,2.907,2.907,0,0,1-.542-1.89,3.539,3.539,0,0,1,.051-.559c.035-.21.065-.432.088-.665l1.925-11.061h-2.66v-.245l3.08-1.085,2.31-3.779h.246l-.665,3.849h4.234v1.26h-4.48l-1.68,9.695c-.047.327-.087.63-.122.91a6.032,6.032,0,0,0-.053.735,2.037,2.037,0,0,0,.263,1.19.918.918,0,0,0,.787.35,2.653,2.653,0,0,0,1.785-.944,8.662,8.662,0,0,0,1.715-2.766l.49.21a11.384,11.384,0,0,1-2.433,4.218A3.944,3.944,0,0,1,262.813,152.033Z"/>
          <path class="cls-1" d="M43.923,192.033a2.849,2.849,0,0,1-2.327-1.172,5.536,5.536,0,0,1-.928-3.482,12.4,12.4,0,0,1,.735-4.148,15.171,15.171,0,0,1,1.978-3.815,10.626,10.626,0,0,1,2.87-2.783,6.2,6.2,0,0,1,3.412-1.049,5.462,5.462,0,0,1,1.662.261,5.823,5.823,0,0,1,1.453.683l.945-.77h.525l-2.065,11.76a5.789,5.789,0,0,0-.122,1.943.594.594,0,0,0,.612.543q1.436,0,2.7-2.766l.455.176a10.423,10.423,0,0,1-2.083,3.534,3.2,3.2,0,0,1-2.221,1.085,1.507,1.507,0,0,1-1.454-.858,4.442,4.442,0,0,1-.086-2.711l.139-.736h-.105a18.1,18.1,0,0,1-3.08,3.2A4.866,4.866,0,0,1,43.923,192.033Zm-1.154-5.425q0,3.675,2.274,3.675a3.607,3.607,0,0,0,1.89-.577,9.071,9.071,0,0,0,1.8-1.47,21.391,21.391,0,0,0,1.628-1.908l1.4-8.19a5.053,5.053,0,0,0-1.278-1.049,3.408,3.408,0,0,0-1.7-.386,3.97,3.97,0,0,0-2.468.841,7.279,7.279,0,0,0-1.907,2.274A12.373,12.373,0,0,0,43.188,183,15.391,15.391,0,0,0,42.769,186.608Z"/>
          <path class="cls-1" d="M60.3,192.033a1.47,1.47,0,0,1-1.436-.858,4.714,4.714,0,0,1-.1-2.711l3.744-21.106-2.59-.7v-.279l4.69-.946h.315l-3.955,22.085a5.789,5.789,0,0,0-.122,1.943.613.613,0,0,0,.647.543,1.989,1.989,0,0,0,1.365-.7,6.692,6.692,0,0,0,1.3-2.065l.491.176a10.472,10.472,0,0,1-2.083,3.534A3.237,3.237,0,0,1,60.3,192.033Z"/>
          <path class="cls-1" d="M69.264,192.033a1.47,1.47,0,0,1-1.436-.858,4.714,4.714,0,0,1-.1-2.711l3.744-21.106-2.59-.7v-.279l4.69-.946h.315l-3.955,22.085a5.789,5.789,0,0,0-.122,1.943.613.613,0,0,0,.647.543,1.991,1.991,0,0,0,1.365-.7,6.692,6.692,0,0,0,1.3-2.065l.491.176a10.472,10.472,0,0,1-2.083,3.534A3.237,3.237,0,0,1,69.264,192.033Z"/>
          <path class="cls-1" d="M81.724,192.033a4.908,4.908,0,0,1-4.131-1.8,7.339,7.339,0,0,1-1.4-4.638,11.067,11.067,0,0,1,.63-3.71,11.291,11.291,0,0,1,1.733-3.2,8.585,8.585,0,0,1,2.607-2.257,6.5,6.5,0,0,1,3.22-.839,4.91,4.91,0,0,1,4.13,1.8,7.406,7.406,0,0,1,1.4,4.673,11.167,11.167,0,0,1-.577,3.483,11.386,11.386,0,0,1-1.663,3.237,8.743,8.743,0,0,1-2.59,2.362A6.451,6.451,0,0,1,81.724,192.033Zm.454-1.05a3.92,3.92,0,0,0,2.835-1.207,8.228,8.228,0,0,0,1.925-3.237,13.693,13.693,0,0,0,.7-4.481,7.9,7.9,0,0,0-.858-3.99,3.006,3.006,0,0,0-2.817-1.47,4.067,4.067,0,0,0-2.853,1.156,7.67,7.67,0,0,0-1.942,3.149,13.58,13.58,0,0,0-.7,4.516,8.066,8.066,0,0,0,.875,4.059A3.027,3.027,0,0,0,82.178,190.983Z"/>
          <path class="cls-1" d="M97.124,191.789l-2.766-14.316-2.554-.665v-.28l4.235-.944h.14l2.24,12.7h.14l5.565-12.356h.385l2.625,12.705h.139l2.451-4.585q.979-1.854,1.469-3.045a5.44,5.44,0,0,0,.491-2,1.616,1.616,0,0,0-.246-.945,2.212,2.212,0,0,0-.629-.595l-.525-.28v-.14l.56-.91a1.3,1.3,0,0,1,.385-.455.8.8,0,0,1,.419-.1,1.442,1.442,0,0,1,1.208.8,3.167,3.167,0,0,1,.508,1.715,5.333,5.333,0,0,1-.472,1.925,29.6,29.6,0,0,1-1.663,3.221l-4.9,8.54h-.49L103.318,180.2l-5.67,11.586Z"/>
          <path class="cls-1" d="M120.4,192.033a4.574,4.574,0,0,1-3.867-1.61,6.624,6.624,0,0,1-1.242-4.165,11.43,11.43,0,0,1,.7-3.972,11.764,11.764,0,0,1,1.925-3.412,10.065,10.065,0,0,1,2.765-2.4,6.328,6.328,0,0,1,3.219-.892,3.769,3.769,0,0,1,2.7.839,2.566,2.566,0,0,1,.875,1.89,2.915,2.915,0,0,1-.962,2.083,8.312,8.312,0,0,1-3.168,1.715,33.394,33.394,0,0,1-5.915,1.277,15.005,15.005,0,0,0-.14,2.065,5.7,5.7,0,0,0,1.05,3.676,3.651,3.651,0,0,0,3.01,1.294q2.8,0,4.9-3.254h.069l.281.21a9.613,9.613,0,0,1-2.537,3.29A5.551,5.551,0,0,1,120.4,192.033Zm2.766-15.47a4.634,4.634,0,0,0-3.5,1.628,9.135,9.135,0,0,0-2.1,4.357,22.485,22.485,0,0,0,6.021-1.557,2.772,2.772,0,0,0,1.785-2.538,1.827,1.827,0,0,0-.543-1.347A2.262,2.262,0,0,0,123.163,176.563Z"/>
          <path class="cls-1" d="M133.312,192.033A2.8,2.8,0,0,1,131,190.861a5.61,5.61,0,0,1-.91-3.482,12.65,12.65,0,0,1,.718-4.148,14.391,14.391,0,0,1,1.976-3.815,11,11,0,0,1,2.87-2.783,6.114,6.114,0,0,1,3.4-1.049,5.337,5.337,0,0,1,1.277.157,5.668,5.668,0,0,1,1.207.437l1.54-8.82-2.8-.7v-.279l5.005-.946h.176l-3.886,22.085a5.789,5.789,0,0,0-.122,1.943.613.613,0,0,0,.648.543q1.4,0,2.66-2.766l.455.176a10.086,10.086,0,0,1-2.048,3.534,3.236,3.236,0,0,1-2.258,1.085,1.468,1.468,0,0,1-1.434-.858,4.7,4.7,0,0,1-.106-2.711l.141-.736H139.4a16.909,16.909,0,0,1-3.149,3.255A4.935,4.935,0,0,1,133.312,192.033Zm-1.155-5.425a5.082,5.082,0,0,0,.6,2.8,1.945,1.945,0,0,0,1.715.875,4.237,4.237,0,0,0,2.625-1.1,15.469,15.469,0,0,0,2.625-2.782l1.434-8.26a5.614,5.614,0,0,0-1.33-1.067,3.362,3.362,0,0,0-1.644-.368,3.979,3.979,0,0,0-2.433.823,7.125,7.125,0,0,0-1.907,2.239,12.522,12.522,0,0,0-1.243,3.186A15.15,15.15,0,0,0,132.157,186.608Z"/>
          <path class="cls-1" d="M156.378,191.683l2.484-14.139-2.415-.736v-.28l4.2-.944h.175l-.244,3.779h.1a29.24,29.24,0,0,1,2.205-2.188,7.216,7.216,0,0,1,1.838-1.207,4.857,4.857,0,0,1,1.942-.384,2.849,2.849,0,0,1,2.572,1.346,5.319,5.319,0,0,1,.4,3.833l-1.225,6.755a5.77,5.77,0,0,0-.123,1.943.614.614,0,0,0,.647.543q1.4,0,2.661-2.766l.455.176a10.086,10.086,0,0,1-2.048,3.534,3.237,3.237,0,0,1-2.257,1.085,1.472,1.472,0,0,1-1.436-.858,4.723,4.723,0,0,1-.1-2.711l1.365-7.84a4.04,4.04,0,0,0-.21-2.4,1.893,1.893,0,0,0-1.926-1,3.466,3.466,0,0,0-1.75.508,9.955,9.955,0,0,0-1.714,1.277q-.84.771-1.61,1.576l-1.926,11.094Z"/>
          <path class="cls-1" d="M179.407,192.033a4.574,4.574,0,0,1-3.867-1.61,6.624,6.624,0,0,1-1.242-4.165,11.407,11.407,0,0,1,.7-3.972,11.741,11.741,0,0,1,1.925-3.412,10.065,10.065,0,0,1,2.765-2.4,6.328,6.328,0,0,1,3.219-.892,3.769,3.769,0,0,1,2.7.839,2.566,2.566,0,0,1,.875,1.89,2.915,2.915,0,0,1-.962,2.083,8.32,8.32,0,0,1-3.168,1.715,33.415,33.415,0,0,1-5.915,1.277,15.005,15.005,0,0,0-.14,2.065,5.7,5.7,0,0,0,1.05,3.676,3.651,3.651,0,0,0,3.01,1.294q2.8,0,4.9-3.254h.069l.281.21a9.615,9.615,0,0,1-2.538,3.29A5.549,5.549,0,0,1,179.407,192.033Zm2.766-15.47a4.634,4.634,0,0,0-3.5,1.628,9.135,9.135,0,0,0-2.1,4.357,22.5,22.5,0,0,0,6.021-1.557,2.772,2.772,0,0,0,1.785-2.538,1.831,1.831,0,0,0-.543-1.347A2.262,2.262,0,0,0,182.173,176.563Z"/>
          <path class="cls-1" d="M192.287,192.033a2.85,2.85,0,0,1-2.327-1.172,5.536,5.536,0,0,1-.928-3.482,12.372,12.372,0,0,1,.736-4.148,15.135,15.135,0,0,1,1.977-3.815,10.626,10.626,0,0,1,2.87-2.783,6.2,6.2,0,0,1,3.412-1.049,5.457,5.457,0,0,1,1.662.261,5.83,5.83,0,0,1,1.454.683l.944-.77h.525l-2.065,11.76a5.789,5.789,0,0,0-.122,1.943.594.594,0,0,0,.612.543q1.435,0,2.695-2.766l.456.176a10.439,10.439,0,0,1-2.084,3.534,3.2,3.2,0,0,1-2.221,1.085,1.505,1.505,0,0,1-1.453-.858,4.44,4.44,0,0,1-.087-2.711l.139-.736h-.1a18.1,18.1,0,0,1-3.08,3.2A4.866,4.866,0,0,1,192.287,192.033Zm-1.154-5.425q0,3.675,2.274,3.675a3.607,3.607,0,0,0,1.89-.577,9.076,9.076,0,0,0,1.8-1.47,21.728,21.728,0,0,0,1.628-1.908l1.4-8.19a5.049,5.049,0,0,0-1.277-1.049,3.412,3.412,0,0,0-1.7-.386,3.965,3.965,0,0,0-2.467.841,7.268,7.268,0,0,0-1.908,2.274A12.335,12.335,0,0,0,191.553,183,15.338,15.338,0,0,0,191.133,186.608Z"/>
          <path class="cls-1" d="M207.128,191.683l2.519-14.139-2.485-.736v-.28l4.306-.944h.139l-.28,4.059h.141a16.935,16.935,0,0,1,2-2.678,4.9,4.9,0,0,1,1.47-1.12,3.041,3.041,0,0,1,1.155-.261,1.859,1.859,0,0,1,1.085.314.9.9,0,0,1,.455.735.918.918,0,0,1-.106.42l-.665,1.26h-.139l-.455-.28a1.86,1.86,0,0,0-1.085-.315,2.9,2.9,0,0,0-1.891.77,13.724,13.724,0,0,0-2.274,2.905l-1.821,10.29Z"/>
          <path class="cls-1" d="M229.773,192.033a1.976,1.976,0,0,1-1.627-.665,2.907,2.907,0,0,1-.542-1.89,3.539,3.539,0,0,1,.051-.559c.035-.21.065-.432.088-.665l1.925-11.061h-2.66v-.245l3.08-1.085,2.31-3.779h.246l-.665,3.849h4.234v1.26h-4.48l-1.68,9.695c-.047.327-.087.63-.122.91a6.032,6.032,0,0,0-.053.735,2.037,2.037,0,0,0,.263,1.19.918.918,0,0,0,.787.35,2.653,2.653,0,0,0,1.785-.944,8.662,8.662,0,0,0,1.715-2.766l.49.21a11.384,11.384,0,0,1-2.433,4.218A3.944,3.944,0,0,1,229.773,192.033Z"/>
          <path class="cls-1" d="M239.854,191.683h-2.066l4.271-24.29-2.451-.735v-.279l4.656-.946h.21l-2.451,13.93h.07a29.62,29.62,0,0,1,2.205-2.188,7.251,7.251,0,0,1,1.838-1.207,4.857,4.857,0,0,1,1.942-.384,2.846,2.846,0,0,1,2.572,1.346,5.313,5.313,0,0,1,.4,3.833l-1.226,6.755a5.789,5.789,0,0,0-.122,1.943.613.613,0,0,0,.648.543q1.4,0,2.66-2.766l.454.176a10.664,10.664,0,0,1-2.065,3.534,3.178,3.178,0,0,1-2.24,1.085,1.467,1.467,0,0,1-1.434-.858,4.7,4.7,0,0,1-.106-2.711l1.365-7.84a4.032,4.032,0,0,0-.21-2.4,1.891,1.891,0,0,0-1.924-1,4.182,4.182,0,0,0-2.608,1.05,21.515,21.515,0,0,0-2.433,2.275Z"/>
          <path class="cls-1" d="M260.818,192.033a4.574,4.574,0,0,1-3.867-1.61,6.624,6.624,0,0,1-1.242-4.165,11.407,11.407,0,0,1,.7-3.972,11.764,11.764,0,0,1,1.925-3.412,10.065,10.065,0,0,1,2.765-2.4,6.328,6.328,0,0,1,3.219-.892,3.769,3.769,0,0,1,2.7.839,2.566,2.566,0,0,1,.875,1.89,2.915,2.915,0,0,1-.962,2.083,8.312,8.312,0,0,1-3.168,1.715,33.415,33.415,0,0,1-5.915,1.277,15.005,15.005,0,0,0-.14,2.065,5.7,5.7,0,0,0,1.05,3.676,3.651,3.651,0,0,0,3.01,1.294q2.8,0,4.9-3.254h.069l.281.21a9.613,9.613,0,0,1-2.537,3.29A5.551,5.551,0,0,1,260.818,192.033Zm2.766-15.47a4.634,4.634,0,0,0-3.5,1.628,9.135,9.135,0,0,0-2.1,4.357A22.5,22.5,0,0,0,264,180.991a2.772,2.772,0,0,0,1.785-2.538,1.831,1.831,0,0,0-.543-1.347A2.262,2.262,0,0,0,263.584,176.563Z"/>
          <path class="cls-1" d="M8.437,232.033a5.866,5.866,0,0,1-1.82-.3,6.065,6.065,0,0,1-1.61-.788l-1.33.91H3.432l4.305-24.5-2.415-.7v-.279l4.619-.946h.21L7.632,219.818h.139a21.239,21.239,0,0,1,2.906-3.062,4.728,4.728,0,0,1,3.115-1.172,2.734,2.734,0,0,1,2.327,1.259,6.4,6.4,0,0,1,.893,3.71,12.964,12.964,0,0,1-.7,4.218,13.7,13.7,0,0,1-1.908,3.693,9.984,9.984,0,0,1-2.747,2.607A5.984,5.984,0,0,1,8.437,232.033Zm4.2-14.7a4.239,4.239,0,0,0-2.59,1.085,15.886,15.886,0,0,0-2.66,2.764l-1.4,8.12a4.656,4.656,0,0,0,1.662,1.278,4.417,4.417,0,0,0,1.663.333,4.073,4.073,0,0,0,2.8-1.191,8.184,8.184,0,0,0,2.065-3.36,15.316,15.316,0,0,0,.77-5.109,6.052,6.052,0,0,0-.56-2.976A1.888,1.888,0,0,0,12.637,217.334Z"/>
          <path class="cls-1" d="M25.728,232.033a4.908,4.908,0,0,1-4.131-1.8,7.339,7.339,0,0,1-1.4-4.638,11.067,11.067,0,0,1,.63-3.71,11.291,11.291,0,0,1,1.733-3.2,8.585,8.585,0,0,1,2.607-2.257,6.5,6.5,0,0,1,3.22-.839,4.91,4.91,0,0,1,4.13,1.8,7.406,7.406,0,0,1,1.4,4.673,11.167,11.167,0,0,1-.577,3.483,11.386,11.386,0,0,1-1.663,3.237,8.743,8.743,0,0,1-2.59,2.362A6.451,6.451,0,0,1,25.728,232.033Zm.454-1.05a3.92,3.92,0,0,0,2.835-1.207,8.228,8.228,0,0,0,1.925-3.237,13.693,13.693,0,0,0,.7-4.481,7.913,7.913,0,0,0-.858-3.99,3.007,3.007,0,0,0-2.817-1.47,4.067,4.067,0,0,0-2.853,1.156,7.67,7.67,0,0,0-1.942,3.149,13.58,13.58,0,0,0-.7,4.516,8.066,8.066,0,0,0,.875,4.059A3.027,3.027,0,0,0,26.182,230.983Z"/>
          <path class="cls-1" d="M40.286,232.033a2.85,2.85,0,0,1-2.327-1.172,5.536,5.536,0,0,1-.928-3.482,12.372,12.372,0,0,1,.736-4.148,15.135,15.135,0,0,1,1.977-3.815,10.626,10.626,0,0,1,2.87-2.783,6.2,6.2,0,0,1,3.412-1.049,5.457,5.457,0,0,1,1.662.261,5.83,5.83,0,0,1,1.454.683l.944-.77h.525l-2.065,11.76a5.789,5.789,0,0,0-.122,1.943.594.594,0,0,0,.612.543q1.436,0,2.7-2.766l.456.176a10.456,10.456,0,0,1-2.083,3.534,3.208,3.208,0,0,1-2.222,1.085,1.505,1.505,0,0,1-1.453-.858,4.44,4.44,0,0,1-.087-2.711l.139-.736h-.105a18.1,18.1,0,0,1-3.08,3.2A4.866,4.866,0,0,1,40.286,232.033Zm-1.154-5.425q0,3.675,2.274,3.675a3.607,3.607,0,0,0,1.89-.577,9.076,9.076,0,0,0,1.8-1.47,21.728,21.728,0,0,0,1.628-1.908l1.4-8.19a5.049,5.049,0,0,0-1.277-1.049,3.412,3.412,0,0,0-1.7-.386,3.965,3.965,0,0,0-2.467.841,7.268,7.268,0,0,0-1.908,2.274A12.335,12.335,0,0,0,39.552,223,15.338,15.338,0,0,0,39.132,226.608Z"/>
          <path class="cls-1" d="M57.507,232.033a1.977,1.977,0,0,1-1.628-.665,2.913,2.913,0,0,1-.542-1.89,3.435,3.435,0,0,1,.052-.559q.052-.315.088-.665L57.4,217.193h-2.66v-.245l3.08-1.085,2.311-3.779h.245l-.665,3.849h4.234v1.26H59.467l-1.681,9.695c-.047.327-.087.63-.122.91a6.032,6.032,0,0,0-.053.735,2.037,2.037,0,0,0,.263,1.19.92.92,0,0,0,.787.35,2.651,2.651,0,0,0,1.785-.944,8.662,8.662,0,0,0,1.715-2.766l.49.21a11.384,11.384,0,0,1-2.432,4.218A3.946,3.946,0,0,1,57.507,232.033Z"/>
          <path class="cls-1" d="M75.112,231.858a1.4,1.4,0,0,1-1.137-.437,1.7,1.7,0,0,1-.369-1.138,2.136,2.136,0,0,1,.526-1.4,1.73,1.73,0,0,1,1.4-.629,1.372,1.372,0,0,1,1.137.455,1.721,1.721,0,0,1,.368,1.119,2.113,2.113,0,0,1-.525,1.418A1.754,1.754,0,0,1,75.112,231.858Zm7,0a1.4,1.4,0,0,1-1.137-.437,1.7,1.7,0,0,1-.369-1.138,2.136,2.136,0,0,1,.526-1.4,1.73,1.73,0,0,1,1.4-.629,1.372,1.372,0,0,1,1.137.455,1.721,1.721,0,0,1,.368,1.119,2.113,2.113,0,0,1-.525,1.418A1.754,1.754,0,0,1,82.112,231.858Zm7,0a1.4,1.4,0,0,1-1.137-.437,1.7,1.7,0,0,1-.369-1.138,2.136,2.136,0,0,1,.526-1.4,1.73,1.73,0,0,1,1.4-.629,1.372,1.372,0,0,1,1.137.455,1.721,1.721,0,0,1,.368,1.119,2.113,2.113,0,0,1-.525,1.418A1.754,1.754,0,0,1,89.112,231.858Z"/>
          <path class="cls-1" d="M110.007,232.033a5.287,5.287,0,0,1-3.885-1.382,4.733,4.733,0,0,1-1.4-3.518,6.52,6.52,0,0,1,1.452-4.305,17.244,17.244,0,0,1,4.567-3.57,13.635,13.635,0,0,1-1.382-2.344,6.427,6.427,0,0,1-.543-2.7,5.985,5.985,0,0,1,.806-3.132,5.641,5.641,0,0,1,2.188-2.1,6.43,6.43,0,0,1,3.131-.753,5.3,5.3,0,0,1,3.553,1.12,3.5,3.5,0,0,1,1.313,2.765,4.544,4.544,0,0,1-1.646,3.5,23.665,23.665,0,0,1-4.97,3.15c.163.234.351.479.561.736l4.935,6.4a30.333,30.333,0,0,0,3.815-6.335l-3.011-.98.071-.525h7.49l-.071.525-2.835.946q-1.226,2.1-2.415,3.9a36.633,36.633,0,0,1-2.415,3.273l.42.524a14.213,14.213,0,0,0,2.311,2.485,3.837,3.837,0,0,0,2.484.91,3.033,3.033,0,0,0,2.066-.805h.07l.279.35a4.171,4.171,0,0,1-1.609,1.4,4.546,4.546,0,0,1-2,.455,4.852,4.852,0,0,1-3.22-1,16.068,16.068,0,0,1-2.415-2.608,14.5,14.5,0,0,1-3.641,2.661A8.96,8.96,0,0,1,110.007,232.033Zm-2.976-5.739a4.354,4.354,0,0,0,1.068,2.992,3.875,3.875,0,0,0,3.062,1.207,6.867,6.867,0,0,0,3.046-.735,11.28,11.28,0,0,0,2.9-2.1l-4.585-6.055-.7-.91q-.349-.455-.665-.875a10.209,10.209,0,0,0-3.184,3.01A6.5,6.5,0,0,0,107.031,226.294Zm3.816-12.88a5.743,5.743,0,0,0,.49,2.362,14.241,14.241,0,0,0,1.47,2.467,12.814,12.814,0,0,0,3.727-2.992,4.938,4.938,0,0,0,1.1-3.028,2.959,2.959,0,0,0-.736-2.048,2.856,2.856,0,0,0-2.24-.822,3.785,3.785,0,0,0-2.712,1.05A3.962,3.962,0,0,0,110.847,213.414Z"/>
          <path class="cls-1" d="M143.257,231.789l-2.766-14.316-2.554-.665v-.28l4.235-.944h.14l2.24,12.7h.139l5.566-12.356h.385l2.625,12.705h.139l2.45-4.585q.981-1.854,1.47-3.045a5.456,5.456,0,0,0,.49-2,1.624,1.624,0,0,0-.245-.945,2.2,2.2,0,0,0-.63-.595l-.524-.28v-.14l.56-.91a1.315,1.315,0,0,1,.384-.455.805.805,0,0,1,.42-.1,1.443,1.443,0,0,1,1.208.8,3.167,3.167,0,0,1,.508,1.715,5.317,5.317,0,0,1-.473,1.925,29.238,29.238,0,0,1-1.663,3.221l-4.9,8.54h-.49L149.451,220.2l-5.67,11.586Z"/>
          <path class="cls-1" d="M166.53,232.033a4.574,4.574,0,0,1-3.867-1.61,6.624,6.624,0,0,1-1.242-4.165,11.407,11.407,0,0,1,.7-3.972,11.764,11.764,0,0,1,1.925-3.412,10.065,10.065,0,0,1,2.765-2.4,6.328,6.328,0,0,1,3.219-.892,3.769,3.769,0,0,1,2.7.839,2.566,2.566,0,0,1,.875,1.89,2.915,2.915,0,0,1-.962,2.083,8.32,8.32,0,0,1-3.168,1.715,33.415,33.415,0,0,1-5.915,1.277,15.005,15.005,0,0,0-.14,2.065,5.7,5.7,0,0,0,1.05,3.676,3.651,3.651,0,0,0,3.01,1.294q2.8,0,4.9-3.254h.069l.281.21a9.615,9.615,0,0,1-2.538,3.29A5.547,5.547,0,0,1,166.53,232.033Zm2.766-15.47a4.634,4.634,0,0,0-3.5,1.628,9.135,9.135,0,0,0-2.1,4.357,22.5,22.5,0,0,0,6.021-1.557,2.772,2.772,0,0,0,1.785-2.538,1.831,1.831,0,0,0-.543-1.347A2.262,2.262,0,0,0,169.3,216.563Z"/>
          <path class="cls-1" d="M176.891,231.683l2.519-14.139-2.485-.736v-.28l4.3-.944h.14l-.28,4.059h.14a16.991,16.991,0,0,1,2-2.678,4.894,4.894,0,0,1,1.469-1.12,3.045,3.045,0,0,1,1.156-.261,1.859,1.859,0,0,1,1.085.314.9.9,0,0,1,.455.735.93.93,0,0,1-.106.42l-.665,1.26h-.14l-.455-.28a1.858,1.858,0,0,0-1.085-.315,2.9,2.9,0,0,0-1.89.77,13.721,13.721,0,0,0-2.275,2.905l-1.82,10.29Z"/>
          <path class="cls-1" d="M193.061,232.033a4.576,4.576,0,0,1-3.868-1.61,6.624,6.624,0,0,1-1.242-4.165,11.43,11.43,0,0,1,.7-3.972,11.764,11.764,0,0,1,1.925-3.412,10.08,10.08,0,0,1,2.765-2.4,6.329,6.329,0,0,1,3.22-.892,3.768,3.768,0,0,1,2.695.839,2.566,2.566,0,0,1,.875,1.89,2.911,2.911,0,0,1-.962,2.083A8.312,8.312,0,0,1,196,222.111a33.394,33.394,0,0,1-5.915,1.277,15.005,15.005,0,0,0-.14,2.065,5.7,5.7,0,0,0,1.05,3.676,3.651,3.651,0,0,0,3.01,1.294q2.8,0,4.9-3.254h.07l.28.21a9.613,9.613,0,0,1-2.537,3.29A5.551,5.551,0,0,1,193.061,232.033Zm2.765-15.47a4.634,4.634,0,0,0-3.5,1.628,9.125,9.125,0,0,0-2.1,4.357,22.487,22.487,0,0,0,6.02-1.557,2.77,2.77,0,0,0,1.785-2.538,1.827,1.827,0,0,0-.543-1.347A2.262,2.262,0,0,0,195.826,216.563Z"/>
          <path class="cls-1" d="M211.646,231.683l4.235-24.29-2.45-.735v-.279l4.655-.946h.21l-4.62,26.25Zm10.009.35a1.728,1.728,0,0,1-1.452-.717,20.459,20.459,0,0,1-1.452-2.4l-3.325-6.056v-.175q2.555-2.694,4.112-4.235a21.482,21.482,0,0,1,2.5-2.2,3.067,3.067,0,0,1,1.715-.665,2.758,2.758,0,0,1,.682.069,1.191,1.191,0,0,1,.438.21.671.671,0,0,1,.245.98L224.6,218l-.14.069-.455-.21a2.254,2.254,0,0,0-1.19-.28,2.279,2.279,0,0,0-1.173.4,7.377,7.377,0,0,0-1.137.858l-3.29,3.149,3.359,5.88a9.846,9.846,0,0,0,1.1,1.7,1.193,1.193,0,0,0,.892.438q1.19,0,2.415-2.766l.491.176a15.337,15.337,0,0,1-1.838,3.465A2.516,2.516,0,0,1,221.655,232.033Z"/>
          <path class="cls-1" d="M232.96,232.033a4.574,4.574,0,0,1-3.867-1.61,6.624,6.624,0,0,1-1.242-4.165,11.407,11.407,0,0,1,.7-3.972,11.741,11.741,0,0,1,1.925-3.412,10.076,10.076,0,0,1,2.764-2.4,6.334,6.334,0,0,1,3.22-.892,3.767,3.767,0,0,1,2.695.839,2.566,2.566,0,0,1,.875,1.89,2.911,2.911,0,0,1-.962,2.083,8.3,8.3,0,0,1-3.168,1.715,33.374,33.374,0,0,1-5.915,1.277,15.164,15.164,0,0,0-.139,2.065,5.694,5.694,0,0,0,1.05,3.676,3.651,3.651,0,0,0,3.009,1.294q2.8,0,4.9-3.254h.069l.28.21a9.6,9.6,0,0,1-2.537,3.29A5.551,5.551,0,0,1,232.96,232.033Zm2.766-15.47a4.634,4.634,0,0,0-3.5,1.628,9.126,9.126,0,0,0-2.1,4.357,22.508,22.508,0,0,0,6.021-1.557,2.772,2.772,0,0,0,1.785-2.538,1.831,1.831,0,0,0-.543-1.347A2.264,2.264,0,0,0,235.726,216.563Z"/>
          <path class="cls-1" d="M240.38,239.733v-.455l1.89-.84,3.675-20.894-2.415-.736v-.28l4.2-.944h.176l-.28,4.234h.14a17.594,17.594,0,0,1,3.027-3.149,4.844,4.844,0,0,1,2.993-1.085,2.733,2.733,0,0,1,2.327,1.259,6.4,6.4,0,0,1,.893,3.71,12.964,12.964,0,0,1-.7,4.218,13.7,13.7,0,0,1-1.908,3.693,9.973,9.973,0,0,1-2.748,2.607,5.978,5.978,0,0,1-3.219.962,5.979,5.979,0,0,1-2.835-.735l-1.225,7.1,2.694.875v.455Zm12.25-22.4a3.535,3.535,0,0,0-1.838.559,8.833,8.833,0,0,0-1.784,1.452q-.858.894-1.628,1.873l-1.435,8.085a5.179,5.179,0,0,0,1.61,1.243,4.165,4.165,0,0,0,1.75.368,4,4,0,0,0,2.87-1.226,8.547,8.547,0,0,0,2.013-3.412,15.46,15.46,0,0,0,.751-5.022Q254.939,217.333,252.63,217.334Z"/>
          <path class="cls-1" d="M262.815,232.033a1.976,1.976,0,0,1-1.627-.665,2.907,2.907,0,0,1-.542-1.89,3.539,3.539,0,0,1,.051-.559c.035-.21.065-.432.088-.665l1.925-11.061h-2.66v-.245l3.08-1.085,2.31-3.779h.246l-.665,3.849h4.234v1.26h-4.48l-1.68,9.695c-.047.327-.087.63-.122.91a6.032,6.032,0,0,0-.053.735,2.037,2.037,0,0,0,.263,1.19.918.918,0,0,0,.787.35,2.653,2.653,0,0,0,1.785-.944,8.662,8.662,0,0,0,1.715-2.766l.49.21a11.384,11.384,0,0,1-2.433,4.218A3.944,3.944,0,0,1,262.815,232.033Z"/>
          <path class="cls-1" d="M25.867,272.033a4.911,4.911,0,0,1-4.131-1.8,7.344,7.344,0,0,1-1.4-4.638,11.067,11.067,0,0,1,.63-3.71,11.314,11.314,0,0,1,1.732-3.2,8.6,8.6,0,0,1,2.608-2.257,6.5,6.5,0,0,1,3.219-.839,4.907,4.907,0,0,1,4.13,1.8,7.4,7.4,0,0,1,1.4,4.673,11.168,11.168,0,0,1-.578,3.483,11.335,11.335,0,0,1-1.663,3.237,8.739,8.739,0,0,1-2.589,2.362A6.452,6.452,0,0,1,25.867,272.033Zm.454-1.05a3.916,3.916,0,0,0,2.835-1.207,8.229,8.229,0,0,0,1.926-3.237,13.693,13.693,0,0,0,.7-4.481,7.914,7.914,0,0,0-.857-3.99,3.008,3.008,0,0,0-2.818-1.47,4.064,4.064,0,0,0-2.852,1.156,7.659,7.659,0,0,0-1.942,3.149,13.579,13.579,0,0,0-.7,4.516,8.066,8.066,0,0,0,.875,4.059A3.028,3.028,0,0,0,26.321,270.983Z"/>
          <path class="cls-1" d="M32.692,280.084a1.719,1.719,0,0,1-1.12-.3.827.827,0,0,1-.35-.613,1.363,1.363,0,0,1,.175-.49l.455-1.05h.14l.56.315a2.7,2.7,0,0,0,.753.245,4.75,4.75,0,0,0,.822.07,2.773,2.773,0,0,0,2.415-1.75,16.1,16.1,0,0,0,1.435-5.179l2.135-14.141H37.277v-1.26h3.01l.21-1.4a9.856,9.856,0,0,1,.91-2.694,16.111,16.111,0,0,1,1.89-3.011,11.3,11.3,0,0,1,2.59-2.432,5.328,5.328,0,0,1,3.01-.963,1.867,1.867,0,0,1,.84.175.5.5,0,0,1,.315.42.627.627,0,0,1-.07.28c-.047.094-.093.2-.14.316l-.525,1.049h-.14l-.489-.174a2.1,2.1,0,0,0-.631-.194,4.626,4.626,0,0,0-.665-.051,3.619,3.619,0,0,0-2.94,1.5,9.377,9.377,0,0,0-1.645,4.375l-.42,2.8h8.645l.21-1.4a9.856,9.856,0,0,1,.91-2.694,15.576,15.576,0,0,1,1.908-3.011,10.971,10.971,0,0,1,2.677-2.432,5.875,5.875,0,0,1,3.22-.963,1.844,1.844,0,0,1,.945.245q.6.315.56.736a.98.98,0,0,1-.14.489l-.56,1.016h-.14l-.665-.281a5.064,5.064,0,0,0-1.995-.384,3.4,3.4,0,0,0-2.835,1.5,9.938,9.938,0,0,0-1.575,4.375l-.42,2.8h3.885v1.26h-4.1l-2.03,13.545a12.362,12.362,0,0,1-.823,2.783,16.874,16.874,0,0,1-1.662,3.1,10.667,10.667,0,0,1-2.275,2.485,4.313,4.313,0,0,1-2.694.981,1.718,1.718,0,0,1-1.121-.3.827.827,0,0,1-.35-.613,1.363,1.363,0,0,1,.175-.49l.455-1.05h.14l.56.315a2.7,2.7,0,0,0,.753.245,4.742,4.742,0,0,0,.822.07,2.773,2.773,0,0,0,2.415-1.75,16.1,16.1,0,0,0,1.435-5.179l2.135-14.141h-8.68l-2.03,13.545a12.362,12.362,0,0,1-.823,2.783,16.874,16.874,0,0,1-1.662,3.1,10.667,10.667,0,0,1-2.275,2.485A4.314,4.314,0,0,1,32.692,280.084Z"/>
          <path class="cls-1" d="M71.473,271.789l-2.766-14.316-2.555-.665v-.28l4.236-.944h.139l2.241,12.7h.139l5.566-12.356h.384l2.625,12.7h.14l2.45-4.585q.981-1.854,1.47-3.045a5.456,5.456,0,0,0,.49-2,1.624,1.624,0,0,0-.245-.945,2.2,2.2,0,0,0-.63-.595l-.524-.28v-.14l.559-.91a1.326,1.326,0,0,1,.385-.455.8.8,0,0,1,.42-.1,1.443,1.443,0,0,1,1.208.8,3.167,3.167,0,0,1,.508,1.715,5.317,5.317,0,0,1-.473,1.925,29.238,29.238,0,0,1-1.663,3.221l-4.9,8.54h-.49L77.667,260.2,72,271.789Z"/>
          <path class="cls-1" d="M92.121,272.033a1.5,1.5,0,0,1-1.452-.858,4.454,4.454,0,0,1-.088-2.711l1.925-10.956-2.59-.7v-.28l4.726-.944h.279l-2.135,11.934a5.789,5.789,0,0,0-.122,1.943.613.613,0,0,0,.648.543q1.4,0,2.66-2.766l.455.176a10.681,10.681,0,0,1-2.066,3.534A3.178,3.178,0,0,1,92.121,272.033Zm2.625-21.525a1.478,1.478,0,0,1-1.085-.455,1.516,1.516,0,0,1-.455-1.12,1.554,1.554,0,0,1,1.54-1.54,1.529,1.529,0,0,1,1.12.455,1.484,1.484,0,0,1,.455,1.085,1.554,1.554,0,0,1-1.575,1.575Z"/>
          <path class="cls-1" d="M101.956,272.033a1.977,1.977,0,0,1-1.628-.665,2.913,2.913,0,0,1-.542-1.89,3.551,3.551,0,0,1,.052-.559q.053-.315.088-.665l1.925-11.061H99.19v-.245l3.081-1.085,2.31-3.779h.245l-.665,3.849H108.4v1.26h-4.48l-1.681,9.695c-.047.327-.087.63-.122.91a6.011,6.011,0,0,0-.052.735,2.038,2.038,0,0,0,.262,1.19.92.92,0,0,0,.787.35,2.653,2.653,0,0,0,1.786-.944,8.661,8.661,0,0,0,1.714-2.766l.491.21a11.384,11.384,0,0,1-2.433,4.218A3.944,3.944,0,0,1,101.956,272.033Z"/>
          <path class="cls-1" d="M112.036,271.683h-2.065l4.27-24.29-2.45-.735v-.279l4.655-.946h.21l-2.45,13.93h.069a29.814,29.814,0,0,1,2.2-2.188,7.268,7.268,0,0,1,1.838-1.207,4.865,4.865,0,0,1,1.943-.384,2.848,2.848,0,0,1,2.572,1.346,5.314,5.314,0,0,1,.4,3.833l-1.225,6.755a5.789,5.789,0,0,0-.122,1.943.612.612,0,0,0,.647.543q1.4,0,2.66-2.766l.454.176a10.647,10.647,0,0,1-2.064,3.534,3.181,3.181,0,0,1-2.24,1.085,1.469,1.469,0,0,1-1.435-.858,4.712,4.712,0,0,1-.105-2.711l1.365-7.84a4.032,4.032,0,0,0-.21-2.4,1.893,1.893,0,0,0-1.925-1,4.182,4.182,0,0,0-2.607,1.05A21.43,21.43,0,0,0,114,260.553Z"/>
          <path class="cls-1" d="M139.825,272.033a2.85,2.85,0,0,1-2.327-1.172,5.536,5.536,0,0,1-.928-3.482,12.372,12.372,0,0,1,.736-4.148,15.135,15.135,0,0,1,1.977-3.815,10.626,10.626,0,0,1,2.87-2.783,6.2,6.2,0,0,1,3.412-1.049,5.468,5.468,0,0,1,1.663.261,5.84,5.84,0,0,1,1.453.683l.944-.77h.525l-2.065,11.76a5.789,5.789,0,0,0-.122,1.943.594.594,0,0,0,.612.543q1.436,0,2.7-2.766l.455.176a10.456,10.456,0,0,1-2.083,3.534,3.208,3.208,0,0,1-2.222,1.085,1.505,1.505,0,0,1-1.453-.858,4.44,4.44,0,0,1-.087-2.711l.14-.736h-.106a18.1,18.1,0,0,1-3.08,3.2A4.866,4.866,0,0,1,139.825,272.033Zm-1.154-5.425q0,3.675,2.274,3.675a3.607,3.607,0,0,0,1.89-.577,9.076,9.076,0,0,0,1.8-1.47,21.728,21.728,0,0,0,1.628-1.908l1.4-8.19a5.032,5.032,0,0,0-1.277-1.049,3.412,3.412,0,0,0-1.7-.386,3.965,3.965,0,0,0-2.467.841,7.281,7.281,0,0,0-1.908,2.274A12.335,12.335,0,0,0,139.091,263,15.391,15.391,0,0,0,138.671,266.608Z"/>
          <path class="cls-1" d="M163.241,271.683l2.52-14.139-2.486-.736v-.28l4.306-.944h.14l-.281,4.059h.141a17.06,17.06,0,0,1,2-2.678,4.908,4.908,0,0,1,1.47-1.12,3.045,3.045,0,0,1,1.155-.261,1.859,1.859,0,0,1,1.085.314.9.9,0,0,1,.455.735.929.929,0,0,1-.105.42l-.665,1.26h-.14l-.455-.28a1.86,1.86,0,0,0-1.085-.315,2.906,2.906,0,0,0-1.891.77,13.724,13.724,0,0,0-2.274,2.9l-1.82,10.29Z"/>
          <path class="cls-1" d="M179.411,272.033a4.574,4.574,0,0,1-3.867-1.61,6.624,6.624,0,0,1-1.242-4.165,11.407,11.407,0,0,1,.7-3.972,11.741,11.741,0,0,1,1.925-3.412,10.076,10.076,0,0,1,2.764-2.4,6.334,6.334,0,0,1,3.22-.892,3.767,3.767,0,0,1,2.695.839,2.566,2.566,0,0,1,.875,1.89,2.913,2.913,0,0,1-.961,2.083,8.32,8.32,0,0,1-3.168,1.715,33.415,33.415,0,0,1-5.915,1.277,15.005,15.005,0,0,0-.14,2.065,5.694,5.694,0,0,0,1.05,3.676,3.651,3.651,0,0,0,3.009,1.294q2.8,0,4.9-3.254h.069l.28.21a9.6,9.6,0,0,1-2.537,3.29A5.549,5.549,0,0,1,179.411,272.033Zm2.766-15.47a4.634,4.634,0,0,0-3.5,1.628,9.135,9.135,0,0,0-2.1,4.357,22.508,22.508,0,0,0,6.021-1.557,2.772,2.772,0,0,0,1.785-2.538,1.831,1.831,0,0,0-.543-1.347A2.262,2.262,0,0,0,182.177,256.563Z"/>
          <path class="cls-1" d="M193.9,271.789l-3.01-14.351-2.555-.63v-.28l4.235-.944h.14l2.555,13.089h.14l2.835-4.62a21.767,21.767,0,0,0,1.558-3.027,5.8,5.8,0,0,0,.472-2.013,1.624,1.624,0,0,0-.245-.945,2.229,2.229,0,0,0-.63-.595l-.525-.28v-.14l.56-.91a1.462,1.462,0,0,1,.368-.455.778.778,0,0,1,.437-.1,1.482,1.482,0,0,1,1.225.8,3.08,3.08,0,0,1,.525,1.715,5.165,5.165,0,0,1-.507,1.943,26.9,26.9,0,0,1-1.768,3.2l-5.32,8.54Z"/>
          <path class="cls-1" d="M209.267,272.033a4.908,4.908,0,0,1-4.131-1.8,7.339,7.339,0,0,1-1.4-4.638,11.067,11.067,0,0,1,.63-3.71,11.291,11.291,0,0,1,1.733-3.2,8.585,8.585,0,0,1,2.607-2.257,6.5,6.5,0,0,1,3.22-.839,4.91,4.91,0,0,1,4.13,1.8,7.406,7.406,0,0,1,1.4,4.673,11.167,11.167,0,0,1-.577,3.483,11.386,11.386,0,0,1-1.663,3.237,8.743,8.743,0,0,1-2.59,2.362A6.451,6.451,0,0,1,209.267,272.033Zm.454-1.05a3.92,3.92,0,0,0,2.835-1.207,8.228,8.228,0,0,0,1.925-3.237,13.693,13.693,0,0,0,.7-4.481,7.9,7.9,0,0,0-.858-3.99,3.007,3.007,0,0,0-2.817-1.47,4.067,4.067,0,0,0-2.853,1.156,7.67,7.67,0,0,0-1.942,3.149,13.58,13.58,0,0,0-.7,4.516,8.066,8.066,0,0,0,.875,4.059A3.027,3.027,0,0,0,209.721,270.983Z"/>
          <path class="cls-1" d="M222.637,272.033a1.47,1.47,0,0,1-1.436-.858,4.714,4.714,0,0,1-.1-2.711l3.744-21.106-2.59-.7v-.279l4.69-.946h.315L223.3,267.518a5.789,5.789,0,0,0-.122,1.943.613.613,0,0,0,.647.543,1.989,1.989,0,0,0,1.365-.7,6.692,6.692,0,0,0,1.295-2.065l.491.176a10.472,10.472,0,0,1-2.083,3.534A3.237,3.237,0,0,1,222.637,272.033Z"/>
          <path class="cls-1" d="M234.187,271.789l-3.011-14.351-2.555-.63v-.28l4.235-.944H233l2.555,13.089h.14l2.835-4.62a21.657,21.657,0,0,0,1.558-3.027,5.8,5.8,0,0,0,.473-2.013,1.624,1.624,0,0,0-.245-.945,2.243,2.243,0,0,0-.63-.595l-.526-.28v-.14l.56-.91a1.476,1.476,0,0,1,.368-.455.778.778,0,0,1,.437-.1,1.482,1.482,0,0,1,1.225.8,3.08,3.08,0,0,1,.525,1.715,5.146,5.146,0,0,1-.507,1.943,26.9,26.9,0,0,1-1.768,3.2l-5.32,8.54Z"/>
          <path class="cls-1" d="M249.13,272.033a4.574,4.574,0,0,1-3.867-1.61,6.624,6.624,0,0,1-1.242-4.165,11.407,11.407,0,0,1,.7-3.972,11.741,11.741,0,0,1,1.925-3.412,10.076,10.076,0,0,1,2.764-2.4,6.334,6.334,0,0,1,3.22-.892,3.767,3.767,0,0,1,2.695.839,2.566,2.566,0,0,1,.875,1.89,2.911,2.911,0,0,1-.962,2.083,8.3,8.3,0,0,1-3.168,1.715,33.374,33.374,0,0,1-5.915,1.277,15.164,15.164,0,0,0-.139,2.065,5.7,5.7,0,0,0,1.049,3.676,3.654,3.654,0,0,0,3.01,1.294q2.8,0,4.9-3.254h.069l.28.21a9.6,9.6,0,0,1-2.537,3.29A5.551,5.551,0,0,1,249.13,272.033Zm2.766-15.47a4.631,4.631,0,0,0-3.5,1.628,9.126,9.126,0,0,0-2.1,4.357,22.487,22.487,0,0,0,6.02-1.557,2.771,2.771,0,0,0,1.786-2.538,1.831,1.831,0,0,0-.543-1.347A2.264,2.264,0,0,0,251.9,256.563Z"/>
          <path class="cls-1" d="M259.49,271.683l2.52-14.139-2.486-.736v-.28l4.306-.944h.14l-.281,4.059h.141a17.06,17.06,0,0,1,2-2.678,4.908,4.908,0,0,1,1.47-1.12,3.045,3.045,0,0,1,1.155-.261,1.859,1.859,0,0,1,1.085.314.9.9,0,0,1,.455.735.929.929,0,0,1-.105.42l-.665,1.26h-.14l-.455-.28a1.86,1.86,0,0,0-1.085-.315,2.906,2.906,0,0,0-1.891.77,13.724,13.724,0,0,0-2.274,2.9l-1.82,10.29Z"/>
          <path class="cls-1" d="M79.064,312.033a6.106,6.106,0,0,1-2.625-.472,4.051,4.051,0,0,1-1.47-1.1,1.491,1.491,0,0,1-.385-.875.778.778,0,0,1,.385-.665l.595-.42h.21l.455.8a3.248,3.248,0,0,0,1.365,1.33,3.852,3.852,0,0,0,1.75.42,3.339,3.339,0,0,0,2.415-.875,3.015,3.015,0,0,0,.91-2.275,2.817,2.817,0,0,0-.683-2,8.794,8.794,0,0,0-2.011-1.5,9.307,9.307,0,0,1-2.433-1.96,3.668,3.668,0,0,1-.718-2.345,3.611,3.611,0,0,1,.736-2.117,6.009,6.009,0,0,1,1.907-1.716,4.836,4.836,0,0,1,2.468-.681,5.279,5.279,0,0,1,2.152.384,4.13,4.13,0,0,1,1.417,1.015,1.478,1.478,0,0,1,.315.806.878.878,0,0,1-.088.367.889.889,0,0,1-.262.332l-.525.386h-.21l-.63-.841a3.908,3.908,0,0,0-1.137-1.1,2.852,2.852,0,0,0-1.488-.367,2.7,2.7,0,0,0-2.065.822,2.625,2.625,0,0,0-.769,1.838,2.925,2.925,0,0,0,.612,1.908,6.444,6.444,0,0,0,1.732,1.417,12.2,12.2,0,0,1,2.625,1.925,3.7,3.7,0,0,1,.875,2.66,4.354,4.354,0,0,1-.7,2.345,5.486,5.486,0,0,1-4.725,2.555Z"/>
          <path class="cls-1" d="M90.579,311.683H88.514l4.27-24.29-2.45-.735v-.279l4.655-.946h.21l-2.45,13.93h.069a29.814,29.814,0,0,1,2.2-2.188,7.268,7.268,0,0,1,1.838-1.207,4.865,4.865,0,0,1,1.943-.384,2.848,2.848,0,0,1,2.572,1.346,5.314,5.314,0,0,1,.4,3.833l-1.225,6.755a5.789,5.789,0,0,0-.122,1.943.612.612,0,0,0,.647.543q1.4,0,2.66-2.766l.454.176a10.647,10.647,0,0,1-2.064,3.534,3.181,3.181,0,0,1-2.24,1.085,1.469,1.469,0,0,1-1.435-.858,4.712,4.712,0,0,1-.1-2.711l1.365-7.84a4.032,4.032,0,0,0-.21-2.4,1.893,1.893,0,0,0-1.925-1,4.182,4.182,0,0,0-2.607,1.05,21.43,21.43,0,0,0-2.433,2.275Z"/>
          <path class="cls-1" d="M111.964,312.033a4.911,4.911,0,0,1-4.131-1.8,7.338,7.338,0,0,1-1.4-4.638,11.091,11.091,0,0,1,.629-3.71,11.316,11.316,0,0,1,1.733-3.2,8.585,8.585,0,0,1,2.607-2.257,6.5,6.5,0,0,1,3.22-.839,4.91,4.91,0,0,1,4.13,1.8,7.4,7.4,0,0,1,1.4,4.673,11.167,11.167,0,0,1-.577,3.483,11.36,11.36,0,0,1-1.663,3.237,8.743,8.743,0,0,1-2.59,2.362A6.451,6.451,0,0,1,111.964,312.033Zm.454-1.05a3.918,3.918,0,0,0,2.835-1.207,8.241,8.241,0,0,0,1.926-3.237,13.693,13.693,0,0,0,.7-4.481,7.914,7.914,0,0,0-.857-3.99,3.009,3.009,0,0,0-2.818-1.47,4.064,4.064,0,0,0-2.852,1.156,7.661,7.661,0,0,0-1.943,3.149,13.58,13.58,0,0,0-.7,4.516,8.066,8.066,0,0,0,.875,4.059A3.027,3.027,0,0,0,112.418,310.983Z"/>
          <path class="cls-1" d="M126,312.033a1.977,1.977,0,0,1-1.628-.665,2.913,2.913,0,0,1-.542-1.89,3.551,3.551,0,0,1,.052-.559q.052-.315.088-.665l1.925-11.061h-2.661v-.245l3.08-1.085,2.311-3.779h.245l-.665,3.849h4.234v1.26h-4.479l-1.681,9.695c-.047.327-.087.63-.122.91a6.011,6.011,0,0,0-.052.735,2.038,2.038,0,0,0,.262,1.19.92.92,0,0,0,.787.35,2.649,2.649,0,0,0,1.785-.944,8.644,8.644,0,0,0,1.715-2.766l.491.21a11.4,11.4,0,0,1-2.433,4.218A3.944,3.944,0,0,1,126,312.033Z"/>
          <path class="cls-1" d="M147.979,312.033a4.907,4.907,0,0,1-4.13-1.8,7.339,7.339,0,0,1-1.4-4.638,11.067,11.067,0,0,1,.63-3.71,11.291,11.291,0,0,1,1.733-3.2,8.585,8.585,0,0,1,2.607-2.257,6.5,6.5,0,0,1,3.22-.839,4.91,4.91,0,0,1,4.13,1.8,7.406,7.406,0,0,1,1.4,4.673,11.167,11.167,0,0,1-.577,3.483,11.386,11.386,0,0,1-1.663,3.237,8.743,8.743,0,0,1-2.59,2.362A6.452,6.452,0,0,1,147.979,312.033Zm.455-1.05a3.92,3.92,0,0,0,2.835-1.207,8.228,8.228,0,0,0,1.925-3.237,13.693,13.693,0,0,0,.7-4.481,7.913,7.913,0,0,0-.858-3.99,3.007,3.007,0,0,0-2.817-1.47,4.067,4.067,0,0,0-2.853,1.156,7.67,7.67,0,0,0-1.942,3.149,13.58,13.58,0,0,0-.7,4.516,8.066,8.066,0,0,0,.875,4.059A3.027,3.027,0,0,0,148.434,310.983Z"/>
          <path class="cls-1" d="M159.81,311.683l2.519-14.139-2.485-.736v-.28l4.305-.944h.14l-.28,4.059h.14a16.991,16.991,0,0,1,2-2.678,4.894,4.894,0,0,1,1.469-1.12,3.045,3.045,0,0,1,1.156-.261,1.856,1.856,0,0,1,1.084.314.9.9,0,0,1,.456.735.93.93,0,0,1-.106.42l-.665,1.26h-.14l-.455-.28a1.858,1.858,0,0,0-1.085-.315,2.9,2.9,0,0,0-1.89.77,13.688,13.688,0,0,0-2.275,2.9l-1.82,10.29Z"/>
          <path class="cls-1" d="M182.455,312.033a1.977,1.977,0,0,1-1.628-.665,2.913,2.913,0,0,1-.542-1.89,3.551,3.551,0,0,1,.052-.559q.053-.315.088-.665l1.925-11.061h-2.661v-.245l3.081-1.085,2.31-3.779h.245l-.665,3.849H188.9v1.26h-4.48l-1.681,9.695q-.069.49-.122.91a6.011,6.011,0,0,0-.052.735,2.038,2.038,0,0,0,.262,1.19.92.92,0,0,0,.787.35,2.653,2.653,0,0,0,1.786-.944,8.661,8.661,0,0,0,1.714-2.766l.491.21a11.384,11.384,0,0,1-2.433,4.218A3.944,3.944,0,0,1,182.455,312.033Z"/>
          <path class="cls-1" d="M194.705,311.789l-2.766-14.316-2.554-.665v-.28l4.235-.944h.14l2.24,12.7h.14l5.565-12.356h.385l2.625,12.7h.139l2.451-4.585q.979-1.854,1.469-3.045a5.44,5.44,0,0,0,.491-2,1.624,1.624,0,0,0-.245-.945,2.229,2.229,0,0,0-.63-.595l-.525-.28v-.14l.56-.91a1.3,1.3,0,0,1,.385-.455.8.8,0,0,1,.419-.1,1.444,1.444,0,0,1,1.209.8,3.174,3.174,0,0,1,.507,1.715,5.333,5.333,0,0,1-.472,1.925,29.417,29.417,0,0,1-1.663,3.221l-4.9,8.54h-.49L200.9,300.2l-5.67,11.586Z"/>
          <path class="cls-1" d="M218.4,312.033a4.907,4.907,0,0,1-4.13-1.8,7.339,7.339,0,0,1-1.4-4.638,11.067,11.067,0,0,1,.63-3.71,11.314,11.314,0,0,1,1.732-3.2,8.6,8.6,0,0,1,2.608-2.257,6.5,6.5,0,0,1,3.22-.839,4.906,4.906,0,0,1,4.129,1.8,7.4,7.4,0,0,1,1.4,4.673,11.2,11.2,0,0,1-.577,3.483,11.386,11.386,0,0,1-1.663,3.237,8.743,8.743,0,0,1-2.59,2.362A6.452,6.452,0,0,1,218.4,312.033Zm.455-1.05a3.916,3.916,0,0,0,2.834-1.207,8.229,8.229,0,0,0,1.926-3.237,13.693,13.693,0,0,0,.7-4.481,7.914,7.914,0,0,0-.857-3.99,3.007,3.007,0,0,0-2.817-1.47,4.065,4.065,0,0,0-2.853,1.156,7.67,7.67,0,0,0-1.942,3.149,13.58,13.58,0,0,0-.7,4.516,8.066,8.066,0,0,0,.875,4.059A3.027,3.027,0,0,0,218.854,310.983Z"/>
          <path class="cls-1" d="M239.47,311.858a1.4,1.4,0,0,1-1.138-.437,1.707,1.707,0,0,1-.368-1.138,2.14,2.14,0,0,1,.525-1.4,1.733,1.733,0,0,1,1.4-.629,1.371,1.371,0,0,1,1.136.455,1.721,1.721,0,0,1,.369,1.119,2.109,2.109,0,0,1-.526,1.418A1.75,1.75,0,0,1,239.47,311.858Zm7,0a1.4,1.4,0,0,1-1.138-.437,1.707,1.707,0,0,1-.368-1.138,2.14,2.14,0,0,1,.525-1.4,1.733,1.733,0,0,1,1.4-.629,1.371,1.371,0,0,1,1.136.455,1.721,1.721,0,0,1,.369,1.119,2.109,2.109,0,0,1-.526,1.418A1.75,1.75,0,0,1,246.47,311.858Zm7,0a1.4,1.4,0,0,1-1.138-.437,1.707,1.707,0,0,1-.368-1.138,2.14,2.14,0,0,1,.525-1.4,1.733,1.733,0,0,1,1.4-.629,1.371,1.371,0,0,1,1.136.455,1.721,1.721,0,0,1,.369,1.119,2.109,2.109,0,0,1-.526,1.418A1.75,1.75,0,0,1,253.47,311.858Z"/>
          <path class="cls-1" d="M257.949,293.938v-.63a5.746,5.746,0,0,0,2.66-1.4,3.021,3.021,0,0,0,.946-2.205,2.041,2.041,0,0,0-.245-.98,2.422,2.422,0,0,0-.84-.84l-.946-.629V286.9l.42-.77a1.493,1.493,0,0,1,.491-.56.981.981,0,0,1,.49-.14,1.8,1.8,0,0,1,.349.035,1.49,1.49,0,0,1,.42.175,3.964,3.964,0,0,1,1.191,1.225,3.483,3.483,0,0,1,.385,1.75,4.258,4.258,0,0,1-.595,2.03,6.458,6.458,0,0,1-1.785,1.995A7.373,7.373,0,0,1,257.949,293.938Zm6.125,0v-.63a5.746,5.746,0,0,0,2.66-1.4,3.021,3.021,0,0,0,.946-2.205,2.041,2.041,0,0,0-.245-.98,2.422,2.422,0,0,0-.84-.84l-.946-.629V286.9l.42-.77a1.493,1.493,0,0,1,.491-.56.981.981,0,0,1,.49-.14,1.8,1.8,0,0,1,.349.035,1.49,1.49,0,0,1,.42.175,3.964,3.964,0,0,1,1.191,1.225,3.483,3.483,0,0,1,.385,1.75,4.258,4.258,0,0,1-.595,2.03,6.458,6.458,0,0,1-1.785,1.995A7.373,7.373,0,0,1,264.074,293.938Z"/>
        </g>
        <g class="cls-2">
          <path class="cls-1" d="M215.525,25.78v1.75H227.4V52.021H202.911V27.714Q202.911,0,227.4,0V10.312q-6.262,1.014-9.069,4.741T215.525,25.78Zm41.71,0v1.75h11.877V52.021h-24.4V27.714Q244.712,0,269.112,0V10.312Q257.235,11.878,257.235,25.78Z"/>
        </g>
      </g>
    </g>
  </g>
</svg>
