<svg xmlns="http://www.w3.org/2000/svg" viewBox="0 0 275.626 360.084">
  <defs>
    <style>
      .cls-1 {
        fill: #ee5d6c;
      }

      .cls-2 {
        opacity: 0.4;
      }
    </style>
  </defs>
  <g id="Layer_2" data-name="Layer 2">
    <g id="Layer_8" data-name="Layer 8">
      <g>
        <g>
          <path class="cls-1" d="M75.6,111.683l.1-.525,2.625-.98L81.9,90.053l-2.45-.945.105-.524h7.49l-.1.524-2.661.945-3.57,20.125,2.521.98-.106.525Z"/>
          <path class="cls-1" d="M100.832,112.033a6.1,6.1,0,0,1-2.625-.472,4.056,4.056,0,0,1-1.471-1.1,1.484,1.484,0,0,1-.384-.875.78.78,0,0,1,.384-.665l.6-.42h.21l.455.8a3.252,3.252,0,0,0,1.364,1.33,3.858,3.858,0,0,0,1.75.42,3.337,3.337,0,0,0,2.415-.875,3.012,3.012,0,0,0,.911-2.275,2.817,2.817,0,0,0-.683-2,8.78,8.78,0,0,0-2.012-1.5,9.3,9.3,0,0,1-2.432-1.96,3.668,3.668,0,0,1-.718-2.345,3.616,3.616,0,0,1,.735-2.117,6.009,6.009,0,0,1,1.907-1.716,4.841,4.841,0,0,1,2.468-.681,5.279,5.279,0,0,1,2.152.384,4.12,4.12,0,0,1,1.417,1.015,1.481,1.481,0,0,1,.316.806.878.878,0,0,1-.088.367.892.892,0,0,1-.263.332l-.524.386h-.21l-.63-.841a3.91,3.91,0,0,0-1.138-1.1,2.849,2.849,0,0,0-1.487-.367,2.7,2.7,0,0,0-2.065.822,2.626,2.626,0,0,0-.77,1.838,2.925,2.925,0,0,0,.612,1.908,6.467,6.467,0,0,0,1.733,1.418,12.162,12.162,0,0,1,2.625,1.924,3.7,3.7,0,0,1,.875,2.66,4.362,4.362,0,0,1-.7,2.345,5.5,5.5,0,0,1-1.925,1.838A5.443,5.443,0,0,1,100.832,112.033Z"/>
          <path class="cls-1" d="M113.151,112.033a2.85,2.85,0,0,1-2.327-1.172,5.536,5.536,0,0,1-.928-3.482,12.4,12.4,0,0,1,.736-4.148,15.135,15.135,0,0,1,1.977-3.815,10.655,10.655,0,0,1,2.87-2.783,6.2,6.2,0,0,1,3.413-1.049,5.467,5.467,0,0,1,1.662.261,5.823,5.823,0,0,1,1.453.683l.944-.77h.526l-2.066,11.76a5.789,5.789,0,0,0-.122,1.943.594.594,0,0,0,.612.543q1.436,0,2.7-2.766l.455.176a10.456,10.456,0,0,1-2.083,3.534,3.208,3.208,0,0,1-2.222,1.085,1.505,1.505,0,0,1-1.453-.858,4.448,4.448,0,0,1-.087-2.711l.14-.736h-.106a18.062,18.062,0,0,1-3.08,3.2A4.866,4.866,0,0,1,113.151,112.033ZM112,106.608q0,3.675,2.274,3.675a3.6,3.6,0,0,0,1.89-.577,9.048,9.048,0,0,0,1.8-1.47,21.728,21.728,0,0,0,1.628-1.908l1.4-8.19a5.032,5.032,0,0,0-1.277-1.049,3.411,3.411,0,0,0-1.7-.386,3.965,3.965,0,0,0-2.468.841,7.266,7.266,0,0,0-1.907,2.274A12.3,12.3,0,0,0,112.417,103,15.391,15.391,0,0,0,112,106.608Z"/>
          <path class="cls-1" d="M131.388,111.789l-2.766-14.316-2.555-.665v-.28l4.236-.944h.139l2.241,12.7h.139l5.566-12.356h.384l2.625,12.7h.14l2.45-4.585q.981-1.854,1.47-3.045a5.451,5.451,0,0,0,.49-1.995,1.624,1.624,0,0,0-.245-.945,2.2,2.2,0,0,0-.63-.595l-.524-.28v-.14l.559-.91a1.326,1.326,0,0,1,.385-.455.8.8,0,0,1,.42-.1,1.443,1.443,0,0,1,1.208.8,3.167,3.167,0,0,1,.508,1.715,5.317,5.317,0,0,1-.473,1.925,29.149,29.149,0,0,1-1.663,3.221l-4.9,8.54h-.49L137.582,100.2l-5.67,11.586Z"/>
          <path class="cls-1" d="M160.822,112.033a1.98,1.98,0,0,1-1.628-.665,2.913,2.913,0,0,1-.542-1.89,3.551,3.551,0,0,1,.052-.559c.035-.21.065-.432.088-.665l1.925-11.061h-2.66v-.245l3.08-1.085,2.31-3.779h.245l-.665,3.849h4.235v1.26h-4.48l-1.68,9.7c-.047.328-.087.63-.123.911a5.983,5.983,0,0,0-.052.734,2.046,2.046,0,0,0,.262,1.19.921.921,0,0,0,.788.35,2.653,2.653,0,0,0,1.785-.944,8.662,8.662,0,0,0,1.715-2.766l.49.21a11.384,11.384,0,0,1-2.433,4.218A3.944,3.944,0,0,1,160.822,112.033Z"/>
          <path class="cls-1" d="M170.9,111.683h-2.065l4.27-24.29-2.45-.735v-.279l4.655-.946h.21l-2.45,13.93h.07a29.429,29.429,0,0,1,2.205-2.188,7.251,7.251,0,0,1,1.838-1.207,4.857,4.857,0,0,1,1.942-.384A2.846,2.846,0,0,1,181.7,96.93a5.318,5.318,0,0,1,.4,3.833l-1.226,6.755a5.789,5.789,0,0,0-.122,1.943.612.612,0,0,0,.647.543q1.4,0,2.66-2.766l.455.176a10.664,10.664,0,0,1-2.065,3.534,3.179,3.179,0,0,1-2.24,1.085,1.47,1.47,0,0,1-1.435-.858,4.712,4.712,0,0,1-.1-2.711l1.365-7.84a4.032,4.032,0,0,0-.21-2.4,1.893,1.893,0,0,0-1.925-1,4.182,4.182,0,0,0-2.607,1.05,21.43,21.43,0,0,0-2.433,2.275Z"/>
          <path class="cls-1" d="M191.866,112.033A4.576,4.576,0,0,1,188,110.424a6.629,6.629,0,0,1-1.242-4.166,11.411,11.411,0,0,1,.7-3.972,11.741,11.741,0,0,1,1.925-3.412,10.076,10.076,0,0,1,2.764-2.4,6.334,6.334,0,0,1,3.22-.892,3.765,3.765,0,0,1,2.7.84,2.562,2.562,0,0,1,.875,1.889,2.915,2.915,0,0,1-.962,2.083,8.32,8.32,0,0,1-3.168,1.715,33.415,33.415,0,0,1-5.915,1.277,15.005,15.005,0,0,0-.14,2.065,5.7,5.7,0,0,0,1.05,3.676,3.652,3.652,0,0,0,3.01,1.3q2.8,0,4.9-3.255h.069l.281.21a9.615,9.615,0,0,1-2.538,3.29A5.549,5.549,0,0,1,191.866,112.033Zm2.766-15.47a4.634,4.634,0,0,0-3.5,1.628,9.134,9.134,0,0,0-2.1,4.358,22.538,22.538,0,0,0,6.021-1.558,2.772,2.772,0,0,0,1.785-2.538,1.831,1.831,0,0,0-.543-1.347A2.262,2.262,0,0,0,194.632,96.563Z"/>
          <path class="cls-1" d="M210.312,111.683,212.8,97.544l-2.415-.736v-.28l4.2-.944h.175l-.244,3.779h.1a30.527,30.527,0,0,1,2.135-2.188,7.09,7.09,0,0,1,1.75-1.207,4.5,4.5,0,0,1,1.891-.384,2.689,2.689,0,0,1,2.222.979,4.172,4.172,0,0,1,.717,2.835h.141q1.224-1.365,2.134-2.2a6.878,6.878,0,0,1,1.75-1.225,4.5,4.5,0,0,1,1.89-.384,2.657,2.657,0,0,1,2.468,1.346,5.612,5.612,0,0,1,.332,3.833l-1.225,6.755a5.789,5.789,0,0,0-.122,1.943.613.613,0,0,0,.648.543q1.4,0,2.659-2.766l.455.176a10.647,10.647,0,0,1-2.065,3.534,3.178,3.178,0,0,1-2.24,1.085,1.467,1.467,0,0,1-1.434-.858,4.7,4.7,0,0,1-.106-2.711l1.365-7.84a4.479,4.479,0,0,0-.139-2.4,1.722,1.722,0,0,0-1.821-1A3.822,3.822,0,0,0,225.5,98.3a25.243,25.243,0,0,0-2.31,2.293l-.035.174-1.96,10.92h-2.03l1.926-11.059a4.487,4.487,0,0,0-.141-2.4,1.69,1.69,0,0,0-1.785-1,3.824,3.824,0,0,0-2.52,1.068q-1.225,1.068-2.344,2.257l-1.926,11.13Z"/>
          <path class="cls-1" d="M242.231,112.033a4.907,4.907,0,0,1-4.13-1.8,7.339,7.339,0,0,1-1.4-4.638,11.067,11.067,0,0,1,.63-3.71,11.314,11.314,0,0,1,1.732-3.2,8.583,8.583,0,0,1,2.608-2.256,6.49,6.49,0,0,1,3.22-.84,4.91,4.91,0,0,1,4.13,1.8,7.406,7.406,0,0,1,1.4,4.673,11.167,11.167,0,0,1-.577,3.483,11.372,11.372,0,0,1-1.663,3.237,8.743,8.743,0,0,1-2.59,2.362A6.452,6.452,0,0,1,242.231,112.033Zm.455-1.05a3.92,3.92,0,0,0,2.835-1.207,8.228,8.228,0,0,0,1.925-3.237,13.693,13.693,0,0,0,.7-4.481,7.916,7.916,0,0,0-.858-3.99,3.007,3.007,0,0,0-2.817-1.47,4.065,4.065,0,0,0-2.853,1.156,7.67,7.67,0,0,0-1.942,3.149,13.58,13.58,0,0,0-.7,4.516,8.066,8.066,0,0,0,.875,4.059A3.027,3.027,0,0,0,242.686,110.983Z"/>
          <path class="cls-1" d="M256.861,112.033a6.106,6.106,0,0,1-2.625-.472,4.051,4.051,0,0,1-1.47-1.1,1.486,1.486,0,0,1-.385-.875.778.778,0,0,1,.385-.665l.595-.42h.21l.455.8a3.248,3.248,0,0,0,1.365,1.33,3.852,3.852,0,0,0,1.75.42,3.339,3.339,0,0,0,2.415-.875,3.015,3.015,0,0,0,.91-2.275,2.817,2.817,0,0,0-.683-2,8.78,8.78,0,0,0-2.012-1.5,9.3,9.3,0,0,1-2.432-1.96,3.668,3.668,0,0,1-.718-2.345,3.616,3.616,0,0,1,.735-2.117,6.013,6.013,0,0,1,1.908-1.716,4.835,4.835,0,0,1,2.467-.681,5.281,5.281,0,0,1,2.153.384,4.13,4.13,0,0,1,1.417,1.015,1.478,1.478,0,0,1,.315.806.878.878,0,0,1-.088.367.889.889,0,0,1-.262.332l-.525.386h-.21l-.63-.841a3.908,3.908,0,0,0-1.137-1.1,2.855,2.855,0,0,0-1.488-.367,2.7,2.7,0,0,0-2.065.822,2.626,2.626,0,0,0-.77,1.838,2.926,2.926,0,0,0,.613,1.908,6.445,6.445,0,0,0,1.732,1.418,12.162,12.162,0,0,1,2.625,1.924,3.7,3.7,0,0,1,.875,2.66,4.354,4.354,0,0,1-.7,2.345,5.486,5.486,0,0,1-4.725,2.555Z"/>
          <path class="cls-1" d="M269.041,112.033a1.977,1.977,0,0,1-1.628-.665,2.913,2.913,0,0,1-.542-1.89,3.551,3.551,0,0,1,.052-.559q.053-.315.088-.665l1.925-11.061h-2.661v-.245l3.08-1.085,2.311-3.779h.245l-.665,3.849h4.234v1.26H271l-1.681,9.7c-.047.328-.087.63-.122.911a5.983,5.983,0,0,0-.052.734,2.038,2.038,0,0,0,.262,1.19.92.92,0,0,0,.787.35,2.649,2.649,0,0,0,1.785-.944,8.644,8.644,0,0,0,1.715-2.766l.491.21a11.4,11.4,0,0,1-2.433,4.218A3.944,3.944,0,0,1,269.041,112.033Z"/>
          <path class="cls-1" d="M62.822,152.033a5.859,5.859,0,0,1-1.819-.3,6.05,6.05,0,0,1-1.61-.788l-1.331.91h-.245l4.306-24.5-2.415-.7v-.279l4.619-.946h.21l-2.519,14.385h.139a21.292,21.292,0,0,1,2.905-3.062,4.732,4.732,0,0,1,3.116-1.172,2.734,2.734,0,0,1,2.327,1.259,6.405,6.405,0,0,1,.892,3.71,12.937,12.937,0,0,1-.7,4.218,13.7,13.7,0,0,1-1.907,3.693,10.012,10.012,0,0,1-2.747,2.607A5.987,5.987,0,0,1,62.822,152.033Zm4.2-14.7a4.239,4.239,0,0,0-2.589,1.085,15.889,15.889,0,0,0-2.661,2.764l-1.4,8.12a4.647,4.647,0,0,0,1.662,1.278,4.416,4.416,0,0,0,1.662.333,4.073,4.073,0,0,0,2.8-1.191,8.183,8.183,0,0,0,2.064-3.36,15.289,15.289,0,0,0,.771-5.109,6.039,6.039,0,0,0-.561-2.976A1.888,1.888,0,0,0,67.022,137.334Z"/>
          <path class="cls-1" d="M79.692,152.033a4.576,4.576,0,0,1-3.867-1.609,6.629,6.629,0,0,1-1.242-4.166,11.411,11.411,0,0,1,.7-3.972,11.764,11.764,0,0,1,1.925-3.412,10.065,10.065,0,0,1,2.765-2.4,6.328,6.328,0,0,1,3.219-.892,3.765,3.765,0,0,1,2.7.84,2.562,2.562,0,0,1,.875,1.889A2.915,2.915,0,0,1,85.8,140.4a8.312,8.312,0,0,1-3.168,1.715,33.415,33.415,0,0,1-5.915,1.277,15.005,15.005,0,0,0-.14,2.065,5.7,5.7,0,0,0,1.05,3.676,3.652,3.652,0,0,0,3.01,1.3q2.8,0,4.9-3.255h.069l.281.21a9.613,9.613,0,0,1-2.537,3.29A5.551,5.551,0,0,1,79.692,152.033Zm2.766-15.47a4.634,4.634,0,0,0-3.5,1.628,9.134,9.134,0,0,0-2.1,4.358,22.516,22.516,0,0,0,6.021-1.558,2.772,2.772,0,0,0,1.785-2.538,1.831,1.831,0,0,0-.543-1.347A2.262,2.262,0,0,0,82.458,136.563Z"/>
          <path class="cls-1" d="M92.572,152.033a2.85,2.85,0,0,1-2.327-1.172,5.536,5.536,0,0,1-.928-3.482,12.372,12.372,0,0,1,.736-4.148,15.135,15.135,0,0,1,1.977-3.815,10.626,10.626,0,0,1,2.87-2.783,6.2,6.2,0,0,1,3.412-1.049,5.468,5.468,0,0,1,1.663.261,5.84,5.84,0,0,1,1.453.683l.944-.77h.525l-2.065,11.76a5.789,5.789,0,0,0-.122,1.943.594.594,0,0,0,.612.543q1.435,0,2.7-2.766l.455.176a10.456,10.456,0,0,1-2.083,3.534,3.208,3.208,0,0,1-2.222,1.085,1.505,1.505,0,0,1-1.453-.858,4.448,4.448,0,0,1-.087-2.711l.14-.736h-.106a18.1,18.1,0,0,1-3.08,3.2A4.866,4.866,0,0,1,92.572,152.033Zm-1.154-5.425q0,3.675,2.274,3.675a3.6,3.6,0,0,0,1.89-.577,9.076,9.076,0,0,0,1.8-1.47,21.728,21.728,0,0,0,1.628-1.908l1.4-8.19a5.032,5.032,0,0,0-1.277-1.049,3.411,3.411,0,0,0-1.7-.386,3.965,3.965,0,0,0-2.468.841,7.281,7.281,0,0,0-1.908,2.274A12.335,12.335,0,0,0,91.838,143,15.391,15.391,0,0,0,91.418,146.608Z"/>
          <path class="cls-1" d="M110.423,152.033a2.647,2.647,0,0,1-2.135-.909,3.956,3.956,0,0,1-.77-2.625,6.084,6.084,0,0,1,.052-.788q.053-.4.122-.858l1.681-9.309-2.45-.736v-.28l4.585-.944h.21l-1.925,11.2-.123.735a3.733,3.733,0,0,0-.052.595,2.683,2.683,0,0,0,.473,1.628,1.8,1.8,0,0,0,1.556.647,3.784,3.784,0,0,0,2.486-1.067,25.106,25.106,0,0,0,2.309-2.293l1.681-9.484-2.45-.736v-.28l4.62-.944h.21l-2.1,11.934a5.644,5.644,0,0,0-.123,1.925.62.62,0,0,0,.648.561,1.993,1.993,0,0,0,1.365-.7,6.711,6.711,0,0,0,1.295-2.065l.49.176A10.439,10.439,0,0,1,120,150.948a3.2,3.2,0,0,1-2.223,1.085,1.5,1.5,0,0,1-1.452-.875,4.55,4.55,0,0,1-.122-2.694l.034-.175h-.139a19.706,19.706,0,0,1-2.975,2.886A4.49,4.49,0,0,1,110.423,152.033Z"/>
          <path class="cls-1" d="M127.188,152.033a1.976,1.976,0,0,1-1.627-.665,2.907,2.907,0,0,1-.542-1.89,3.539,3.539,0,0,1,.051-.559c.035-.21.065-.432.088-.665l1.925-11.061h-2.66v-.245l3.08-1.085,2.31-3.779h.246l-.665,3.849h4.234v1.26h-4.48l-1.68,9.695c-.047.328-.087.63-.122.911a6,6,0,0,0-.053.734,2.037,2.037,0,0,0,.263,1.19.918.918,0,0,0,.787.35,2.653,2.653,0,0,0,1.785-.944,8.662,8.662,0,0,0,1.715-2.766l.49.21a11.384,11.384,0,0,1-2.433,4.218A3.944,3.944,0,0,1,127.188,152.033Z"/>
          <path class="cls-1" d="M137.688,152.033a1.505,1.505,0,0,1-1.453-.858,4.454,4.454,0,0,1-.088-2.711l1.925-10.956-2.59-.7v-.28l4.726-.944h.279l-2.134,11.934a5.77,5.77,0,0,0-.123,1.943.613.613,0,0,0,.648.543q1.4,0,2.66-2.766l.455.176a10.681,10.681,0,0,1-2.065,3.534A3.181,3.181,0,0,1,137.688,152.033Zm2.624-21.525a1.476,1.476,0,0,1-1.084-.455,1.517,1.517,0,0,1-.456-1.12,1.555,1.555,0,0,1,1.54-1.54,1.53,1.53,0,0,1,1.121.455,1.488,1.488,0,0,1,.455,1.085,1.554,1.554,0,0,1-1.576,1.575Z"/>
          <path class="cls-1" d="M140.312,160.084a1.719,1.719,0,0,1-1.12-.3.827.827,0,0,1-.35-.612,1.878,1.878,0,0,1,.245-.736l.385-.8h.14l.56.315a2.7,2.7,0,0,0,.753.245,4.75,4.75,0,0,0,.822.07,2.772,2.772,0,0,0,2.415-1.75,16.069,16.069,0,0,0,1.435-5.179l2.135-14.141H144.9v-1.26h3.01l.21-1.4a9.856,9.856,0,0,1,.91-2.694,15.625,15.625,0,0,1,1.908-3.011,10.971,10.971,0,0,1,2.677-2.432,5.875,5.875,0,0,1,3.22-.963,1.622,1.622,0,0,1,.945.245q.6.315.6.665a1.055,1.055,0,0,1-.175.56l-.56,1.016h-.14l-.665-.281a5.075,5.075,0,0,0-2-.384,3.4,3.4,0,0,0-2.835,1.5,9.938,9.938,0,0,0-1.575,4.375l-.42,2.8h3.886v1.26h-4.1l-2.029,13.545a12.423,12.423,0,0,1-.824,2.783,16.874,16.874,0,0,1-1.662,3.1,10.667,10.667,0,0,1-2.275,2.485A4.306,4.306,0,0,1,140.312,160.084Z"/>
          <path class="cls-1" d="M159.072,152.033a2.643,2.643,0,0,1-2.134-.909,3.956,3.956,0,0,1-.771-2.625,6.088,6.088,0,0,1,.053-.788c.035-.268.075-.554.122-.858l1.68-9.309-2.45-.736v-.28l4.585-.944h.21l-1.925,11.2-.123.735a3.727,3.727,0,0,0-.051.595,2.689,2.689,0,0,0,.472,1.628,1.8,1.8,0,0,0,1.557.647,3.78,3.78,0,0,0,2.485-1.067,25.117,25.117,0,0,0,2.31-2.293l1.68-9.484-2.45-.736v-.28l4.62-.944h.21l-2.1,11.934a5.644,5.644,0,0,0-.123,1.925.62.62,0,0,0,.647.561,1.989,1.989,0,0,0,1.365-.7,6.692,6.692,0,0,0,1.295-2.065l.491.176a10.456,10.456,0,0,1-2.083,3.534,3.208,3.208,0,0,1-2.223,1.085,1.5,1.5,0,0,1-1.452-.875,4.55,4.55,0,0,1-.122-2.694l.034-.175h-.14a19.661,19.661,0,0,1-2.974,2.886A4.492,4.492,0,0,1,159.072,152.033Z"/>
          <path class="cls-1" d="M175,152.033a1.471,1.471,0,0,1-1.436-.858,4.714,4.714,0,0,1-.1-2.711l3.744-21.106-2.59-.7v-.279l4.691-.946h.314l-3.955,22.085a5.789,5.789,0,0,0-.122,1.943.613.613,0,0,0,.648.543,1.993,1.993,0,0,0,1.365-.7,6.711,6.711,0,0,0,1.3-2.065l.49.176a10.456,10.456,0,0,1-2.083,3.534A3.234,3.234,0,0,1,175,152.033Z"/>
          <path class="cls-1" d="M193.793,152.033a6.1,6.1,0,0,1-2.625-.472,4.056,4.056,0,0,1-1.471-1.1,1.486,1.486,0,0,1-.385-.875.785.785,0,0,1,.385-.665l.6-.42h.21l.455.8a3.252,3.252,0,0,0,1.364,1.33,3.858,3.858,0,0,0,1.75.42,3.337,3.337,0,0,0,2.415-.875,3.011,3.011,0,0,0,.91-2.275,2.816,2.816,0,0,0-.682-2,8.78,8.78,0,0,0-2.012-1.5,9.3,9.3,0,0,1-2.432-1.96,3.668,3.668,0,0,1-.718-2.345,3.616,3.616,0,0,1,.735-2.117,6.009,6.009,0,0,1,1.907-1.716,4.841,4.841,0,0,1,2.468-.681,5.279,5.279,0,0,1,2.152.384,4.12,4.12,0,0,1,1.417,1.015,1.481,1.481,0,0,1,.316.806.878.878,0,0,1-.088.367.9.9,0,0,1-.263.332l-.524.386h-.21l-.63-.841a3.91,3.91,0,0,0-1.138-1.1,2.849,2.849,0,0,0-1.487-.367,2.7,2.7,0,0,0-2.065.822,2.626,2.626,0,0,0-.77,1.838,2.925,2.925,0,0,0,.612,1.908,6.467,6.467,0,0,0,1.733,1.418,12.162,12.162,0,0,1,2.625,1.924,3.7,3.7,0,0,1,.875,2.66,4.362,4.362,0,0,1-.7,2.345,5.5,5.5,0,0,1-1.925,1.838A5.443,5.443,0,0,1,193.793,152.033Z"/>
          <path class="cls-1" d="M206.777,152.033a2.643,2.643,0,0,1-2.134-.909,3.956,3.956,0,0,1-.771-2.625,6.088,6.088,0,0,1,.053-.788c.035-.268.075-.554.122-.858l1.681-9.309-2.451-.736v-.28l4.585-.944h.21l-1.925,11.2-.123.735a3.727,3.727,0,0,0-.051.595,2.689,2.689,0,0,0,.472,1.628,1.8,1.8,0,0,0,1.557.647,3.78,3.78,0,0,0,2.485-1.067,25.117,25.117,0,0,0,2.31-2.293l1.681-9.484-2.451-.736v-.28l4.62-.944h.21l-2.1,11.934a5.644,5.644,0,0,0-.123,1.925.62.62,0,0,0,.647.561,1.989,1.989,0,0,0,1.365-.7,6.692,6.692,0,0,0,1.3-2.065l.491.176a10.456,10.456,0,0,1-2.083,3.534,3.208,3.208,0,0,1-2.223,1.085,1.5,1.5,0,0,1-1.452-.875,4.55,4.55,0,0,1-.122-2.694l.034-.175h-.14a19.661,19.661,0,0,1-2.974,2.886A4.492,4.492,0,0,1,206.777,152.033Z"/>
          <path class="cls-1" d="M220.673,151.683l2.484-14.139-2.415-.736v-.28l4.2-.944h.175l-.244,3.779h.105a29.24,29.24,0,0,1,2.2-2.188,7.2,7.2,0,0,1,1.838-1.207,4.857,4.857,0,0,1,1.942-.384,2.85,2.85,0,0,1,2.572,1.346,5.324,5.324,0,0,1,.4,3.833l-1.225,6.755a5.77,5.77,0,0,0-.123,1.943.614.614,0,0,0,.647.543q1.4,0,2.66-2.766l.456.176a10.086,10.086,0,0,1-2.048,3.534,3.237,3.237,0,0,1-2.257,1.085,1.472,1.472,0,0,1-1.436-.858,4.723,4.723,0,0,1-.1-2.711l1.365-7.84a4.04,4.04,0,0,0-.21-2.4,1.893,1.893,0,0,0-1.926-1,3.466,3.466,0,0,0-1.75.508,10,10,0,0,0-1.715,1.277q-.839.771-1.609,1.576l-1.926,11.094Z"/>
          <path class="cls-1" d="M242.058,152.033a6.1,6.1,0,0,1-2.625-.472,4.047,4.047,0,0,1-1.471-1.1,1.486,1.486,0,0,1-.385-.875.877.877,0,0,1,.07-.316.859.859,0,0,1,.315-.349l.6-.42h.21l.455.8a3.24,3.24,0,0,0,1.364,1.33,3.852,3.852,0,0,0,1.75.42,3.337,3.337,0,0,0,2.415-.875,3.015,3.015,0,0,0,.91-2.275,2.812,2.812,0,0,0-.683-2,8.772,8.772,0,0,0-2.011-1.5,9.307,9.307,0,0,1-2.433-1.96,3.674,3.674,0,0,1-.718-2.345,3.611,3.611,0,0,1,.736-2.117,6.009,6.009,0,0,1,1.907-1.716,4.836,4.836,0,0,1,2.468-.681,5.279,5.279,0,0,1,2.152.384,4.13,4.13,0,0,1,1.417,1.015,1.478,1.478,0,0,1,.315.806.891.891,0,0,1-.087.367.9.9,0,0,1-.263.332l-.524.386h-.21l-.63-.841a3.922,3.922,0,0,0-1.138-1.1,2.849,2.849,0,0,0-1.487-.367,2.7,2.7,0,0,0-2.066.822,2.629,2.629,0,0,0-.769,1.838,2.925,2.925,0,0,0,.612,1.908,6.445,6.445,0,0,0,1.732,1.418,12.162,12.162,0,0,1,2.625,1.924,3.7,3.7,0,0,1,.875,2.66,4.354,4.354,0,0,1-.7,2.345,5.486,5.486,0,0,1-4.724,2.555Z"/>
          <path class="cls-1" d="M256.3,152.033a4.576,4.576,0,0,1-3.867-1.609,6.623,6.623,0,0,1-1.243-4.166,11.412,11.412,0,0,1,.7-3.972,11.738,11.738,0,0,1,1.924-3.412,10.094,10.094,0,0,1,2.765-2.4,6.331,6.331,0,0,1,3.22-.892,3.762,3.762,0,0,1,2.695.84,2.562,2.562,0,0,1,.875,1.889,2.911,2.911,0,0,1-.962,2.083,8.3,8.3,0,0,1-3.168,1.715,33.394,33.394,0,0,1-5.915,1.277,15.005,15.005,0,0,0-.14,2.065,5.7,5.7,0,0,0,1.05,3.676,3.652,3.652,0,0,0,3.01,1.3q2.8,0,4.9-3.255h.07l.28.21a9.6,9.6,0,0,1-2.537,3.29A5.551,5.551,0,0,1,256.3,152.033Zm2.765-15.47a4.634,4.634,0,0,0-3.5,1.628,9.124,9.124,0,0,0-2.1,4.358,22.518,22.518,0,0,0,6.02-1.558,2.77,2.77,0,0,0,1.785-2.538,1.827,1.827,0,0,0-.543-1.347A2.262,2.262,0,0,0,259.068,136.563Z"/>
          <path class="cls-1" d="M269.043,152.033a1.977,1.977,0,0,1-1.628-.665,2.913,2.913,0,0,1-.542-1.89,3.551,3.551,0,0,1,.052-.559q.052-.315.088-.665l1.925-11.061h-2.661v-.245l3.08-1.085,2.311-3.779h.245l-.665,3.849h4.234v1.26H271l-1.681,9.695c-.047.328-.087.63-.122.911a6,6,0,0,0-.053.734,2.037,2.037,0,0,0,.263,1.19.92.92,0,0,0,.787.35,2.649,2.649,0,0,0,1.785-.944,8.644,8.644,0,0,0,1.715-2.766l.491.21a11.4,11.4,0,0,1-2.433,4.218A3.944,3.944,0,0,1,269.043,152.033Z"/>
          <path class="cls-1" d="M21.034,192.033a1.98,1.98,0,0,1-1.628-.665,2.913,2.913,0,0,1-.542-1.89,3.551,3.551,0,0,1,.052-.559q.052-.315.088-.665l1.925-11.061h-2.66v-.245l3.08-1.085,2.31-3.779H23.9l-.665,3.849h4.235v1.26h-4.48l-1.681,9.695c-.046.328-.086.63-.122.911a5.983,5.983,0,0,0-.052.734,2.046,2.046,0,0,0,.262,1.19.92.92,0,0,0,.787.35,2.653,2.653,0,0,0,1.786-.944,8.644,8.644,0,0,0,1.714-2.766l.491.21a11.384,11.384,0,0,1-2.433,4.218A3.944,3.944,0,0,1,21.034,192.033Z"/>
          <path class="cls-1" d="M34.439,192.033a4.907,4.907,0,0,1-4.13-1.8,7.339,7.339,0,0,1-1.4-4.638,11.067,11.067,0,0,1,.63-3.71,11.314,11.314,0,0,1,1.732-3.2,8.583,8.583,0,0,1,2.608-2.256,6.49,6.49,0,0,1,3.22-.84,4.91,4.91,0,0,1,4.13,1.8,7.406,7.406,0,0,1,1.4,4.673,11.167,11.167,0,0,1-.577,3.483,11.372,11.372,0,0,1-1.663,3.237,8.743,8.743,0,0,1-2.59,2.362A6.452,6.452,0,0,1,34.439,192.033Zm.455-1.05a3.92,3.92,0,0,0,2.835-1.207,8.228,8.228,0,0,0,1.925-3.237,13.693,13.693,0,0,0,.7-4.481,7.916,7.916,0,0,0-.858-3.99,3.007,3.007,0,0,0-2.817-1.47,4.065,4.065,0,0,0-2.853,1.156,7.67,7.67,0,0,0-1.942,3.149,13.58,13.58,0,0,0-.7,4.516,8.066,8.066,0,0,0,.875,4.059A3.027,3.027,0,0,0,34.894,190.983Z"/>
          <path class="cls-1" d="M45.779,191.683l2.485-14.139-2.415-.736v-.28l4.2-.944h.175l-.245,3.779h.105a29.429,29.429,0,0,1,2.2-2.188,7.216,7.216,0,0,1,1.838-1.207,4.86,4.86,0,0,1,1.942-.384,2.851,2.851,0,0,1,2.573,1.346,5.319,5.319,0,0,1,.4,3.833l-1.225,6.755a5.77,5.77,0,0,0-.123,1.943.614.614,0,0,0,.648.543q1.4,0,2.66-2.766l.455.176a10.086,10.086,0,0,1-2.048,3.534,3.234,3.234,0,0,1-2.257,1.085,1.471,1.471,0,0,1-1.435-.858,4.712,4.712,0,0,1-.105-2.711l1.365-7.84a4.04,4.04,0,0,0-.209-2.4,1.894,1.894,0,0,0-1.926-1,3.466,3.466,0,0,0-1.75.508,9.961,9.961,0,0,0-1.715,1.277q-.84.771-1.609,1.576l-1.926,11.094Z"/>
          <path class="cls-1" d="M65.974,192.033a1.505,1.505,0,0,1-1.453-.858,4.448,4.448,0,0,1-.087-2.711l1.924-10.956-2.589-.7v-.28l4.725-.944h.279l-2.134,11.934a5.789,5.789,0,0,0-.122,1.943.612.612,0,0,0,.647.543q1.4,0,2.66-2.766l.455.176a10.664,10.664,0,0,1-2.065,3.534A3.181,3.181,0,0,1,65.974,192.033ZM68.6,170.508a1.477,1.477,0,0,1-1.085-.455,1.516,1.516,0,0,1-.455-1.12,1.554,1.554,0,0,1,1.54-1.54,1.529,1.529,0,0,1,1.12.455,1.488,1.488,0,0,1,.455,1.085,1.554,1.554,0,0,1-1.575,1.575Z"/>
          <path class="cls-1" d="M78.469,186.328a4.852,4.852,0,0,1-1.785-.315q-2.031.912-2.031,2.415a1.486,1.486,0,0,0,.7,1.33,5.445,5.445,0,0,0,1.819.7q1.12.245,2.381.471a14.99,14.99,0,0,1,2.38.631,4.729,4.729,0,0,1,1.819,1.119,2.712,2.712,0,0,1,.7,1.978,4.552,4.552,0,0,1-.892,2.713,6.066,6.066,0,0,1-2.573,1.977,10.079,10.079,0,0,1-4.059.736,8.615,8.615,0,0,1-4.324-.91,2.8,2.8,0,0,1-1.557-2.521,4.538,4.538,0,0,1,.3-1.715,5.178,5.178,0,0,1,.857-1.4l2.521-1.681v-.1a4.017,4.017,0,0,1-1.453-.963,2.325,2.325,0,0,1-.578-1.662,2.278,2.278,0,0,1,.281-1.156,5.332,5.332,0,0,1,.734-.98l2.24-1.19v-.139a3.514,3.514,0,0,1-1.365-1.524,4.792,4.792,0,0,1-.455-2.082,6.237,6.237,0,0,1,.841-3.15,6.948,6.948,0,0,1,2.257-2.4,5.728,5.728,0,0,1,3.2-.926,5.228,5.228,0,0,1,1.889.349h5.076v1.225H84.173L84,177.3a4.28,4.28,0,0,1,.771,2.66,6.165,6.165,0,0,1-.789,2.939,6.84,6.84,0,0,1-2.222,2.45A5.688,5.688,0,0,1,78.469,186.328Zm-5.426,9.8a2.739,2.739,0,0,0,1.19,2.379,5.225,5.225,0,0,0,3.08.84,5.8,5.8,0,0,0,3.868-1.173,3.446,3.446,0,0,0,1.382-2.676,2.055,2.055,0,0,0-.682-1.663,4.4,4.4,0,0,0-1.785-.858c-.736-.186-1.511-.345-2.327-.472A20.194,20.194,0,0,1,75.423,192a4.905,4.905,0,0,0-1.872,1.942A5.033,5.033,0,0,0,73.043,196.129Zm5.95-10.781a2.812,2.812,0,0,0,1.907-.717,4.828,4.828,0,0,0,1.295-1.908,6.837,6.837,0,0,0,.473-2.554,4.487,4.487,0,0,0-.7-2.678,2.357,2.357,0,0,0-2.031-.963,2.93,2.93,0,0,0-2,.735,4.779,4.779,0,0,0-1.3,1.908,6.965,6.965,0,0,0-.455,2.538,4.866,4.866,0,0,0,.648,2.572A2.316,2.316,0,0,0,78.993,185.348Z"/>
          <path class="cls-1" d="M90.683,191.683H88.617l4.271-24.29-2.45-.735v-.279l4.655-.946h.21l-2.45,13.93h.069a29.62,29.62,0,0,1,2.2-2.188,7.251,7.251,0,0,1,1.838-1.207,4.86,4.86,0,0,1,1.942-.384,2.846,2.846,0,0,1,2.572,1.346,5.308,5.308,0,0,1,.4,3.833l-1.226,6.755a5.789,5.789,0,0,0-.122,1.943.613.613,0,0,0,.648.543q1.4,0,2.66-2.766l.454.176a10.647,10.647,0,0,1-2.065,3.534,3.178,3.178,0,0,1-2.24,1.085,1.467,1.467,0,0,1-1.434-.858,4.7,4.7,0,0,1-.106-2.711l1.365-7.84a4.032,4.032,0,0,0-.21-2.4,1.891,1.891,0,0,0-1.924-1,4.182,4.182,0,0,0-2.608,1.05,21.421,21.421,0,0,0-2.432,2.275Z"/>
          <path class="cls-1" d="M109.583,192.033a1.977,1.977,0,0,1-1.628-.665,2.913,2.913,0,0,1-.542-1.89,3.551,3.551,0,0,1,.052-.559q.052-.315.088-.665l1.925-11.061h-2.661v-.245l3.08-1.085,2.311-3.779h.245l-.665,3.849h4.234v1.26h-4.479l-1.681,9.695c-.047.328-.087.63-.122.911a5.983,5.983,0,0,0-.052.734,2.038,2.038,0,0,0,.262,1.19.92.92,0,0,0,.787.35,2.649,2.649,0,0,0,1.785-.944,8.644,8.644,0,0,0,1.715-2.766l.491.21a11.4,11.4,0,0,1-2.433,4.218A3.944,3.944,0,0,1,109.583,192.033Z"/>
          <path class="cls-1" d="M128.9,192.033a1.98,1.98,0,0,1-1.628-.665,2.913,2.913,0,0,1-.542-1.89,3.551,3.551,0,0,1,.052-.559c.035-.21.065-.432.088-.665l1.925-11.061h-2.66v-.245l3.08-1.085,2.31-3.779h.245l-.665,3.849h4.235v1.26h-4.48l-1.68,9.695c-.047.328-.087.63-.122.911a5.81,5.81,0,0,0-.053.734,2.037,2.037,0,0,0,.263,1.19.918.918,0,0,0,.787.35,2.653,2.653,0,0,0,1.785-.944,8.662,8.662,0,0,0,1.715-2.766l.49.21a11.384,11.384,0,0,1-2.433,4.218A3.944,3.944,0,0,1,128.9,192.033Z"/>
          <path class="cls-1" d="M138.983,191.683h-2.065l4.27-24.29-2.45-.735v-.279l4.656-.946h.21l-2.451,13.93h.07a29.429,29.429,0,0,1,2.2-2.188,7.251,7.251,0,0,1,1.838-1.207,4.857,4.857,0,0,1,1.942-.384,2.846,2.846,0,0,1,2.572,1.346,5.313,5.313,0,0,1,.4,3.833l-1.226,6.755a5.789,5.789,0,0,0-.122,1.943.612.612,0,0,0,.647.543q1.4,0,2.661-2.766l.454.176a10.664,10.664,0,0,1-2.065,3.534,3.179,3.179,0,0,1-2.24,1.085,1.47,1.47,0,0,1-1.435-.858,4.712,4.712,0,0,1-.105-2.711l1.365-7.84a4.032,4.032,0,0,0-.21-2.4,1.893,1.893,0,0,0-1.925-1,4.182,4.182,0,0,0-2.607,1.05,21.43,21.43,0,0,0-2.433,2.275Z"/>
          <path class="cls-1" d="M158.023,192.033a2.85,2.85,0,0,1-2.327-1.172,5.536,5.536,0,0,1-.927-3.482,12.4,12.4,0,0,1,.735-4.148,15.135,15.135,0,0,1,1.977-3.815,10.644,10.644,0,0,1,2.871-2.783,6.194,6.194,0,0,1,3.412-1.049,5.467,5.467,0,0,1,1.662.261,5.823,5.823,0,0,1,1.453.683l.944-.77h.526l-2.066,11.76a5.789,5.789,0,0,0-.122,1.943.594.594,0,0,0,.612.543q1.435,0,2.7-2.766l.455.176a10.439,10.439,0,0,1-2.083,3.534,3.208,3.208,0,0,1-2.222,1.085,1.505,1.505,0,0,1-1.453-.858,4.448,4.448,0,0,1-.087-2.711l.14-.736h-.106a18.062,18.062,0,0,1-3.08,3.2A4.866,4.866,0,0,1,158.023,192.033Zm-1.154-5.425q0,3.675,2.275,3.675a3.6,3.6,0,0,0,1.889-.577,9.048,9.048,0,0,0,1.8-1.47,21.728,21.728,0,0,0,1.628-1.908l1.4-8.19a5.032,5.032,0,0,0-1.277-1.049,3.411,3.411,0,0,0-1.7-.386,3.968,3.968,0,0,0-2.468.841,7.279,7.279,0,0,0-1.907,2.274A12.336,12.336,0,0,0,157.289,183,15.391,15.391,0,0,0,156.869,186.608Z"/>
          <path class="cls-1" d="M175.244,192.033a1.98,1.98,0,0,1-1.628-.665,2.913,2.913,0,0,1-.542-1.89,3.551,3.551,0,0,1,.052-.559q.052-.315.088-.665l1.925-11.061h-2.66v-.245l3.08-1.085,2.31-3.779h.245l-.665,3.849h4.235v1.26H177.2l-1.681,9.695c-.046.328-.086.63-.122.911a5.983,5.983,0,0,0-.052.734,2.046,2.046,0,0,0,.262,1.19.92.92,0,0,0,.787.35,2.653,2.653,0,0,0,1.786-.944,8.661,8.661,0,0,0,1.714-2.766l.491.21a11.384,11.384,0,0,1-2.433,4.218A3.944,3.944,0,0,1,175.244,192.033Z"/>
          <path class="cls-1" d="M190.435,191.683l.1-.525,2.625-.98,3.57-20.125-2.45-.945.105-.524h7.49l-.1.524-2.66.945-3.57,20.125,2.52.98-.1.525Z"/>
          <path class="cls-1" d="M214.584,191.683h-2.065l4.27-24.29-2.45-.735v-.279l4.655-.946h.21l-2.45,13.93h.069a29.62,29.62,0,0,1,2.2-2.188,7.251,7.251,0,0,1,1.838-1.207,4.862,4.862,0,0,1,1.943-.384,2.848,2.848,0,0,1,2.572,1.346,5.314,5.314,0,0,1,.4,3.833l-1.225,6.755a5.762,5.762,0,0,0-.122,1.943.612.612,0,0,0,.647.543q1.4,0,2.66-2.766l.454.176a10.664,10.664,0,0,1-2.064,3.534,3.181,3.181,0,0,1-2.24,1.085,1.469,1.469,0,0,1-1.435-.858,4.712,4.712,0,0,1-.1-2.711l1.365-7.84a4.032,4.032,0,0,0-.21-2.4,1.894,1.894,0,0,0-1.925-1,4.182,4.182,0,0,0-2.607,1.05,21.43,21.43,0,0,0-2.433,2.275Z"/>
          <path class="cls-1" d="M233.624,192.033a2.849,2.849,0,0,1-2.327-1.172,5.536,5.536,0,0,1-.928-3.482,12.4,12.4,0,0,1,.735-4.148,15.171,15.171,0,0,1,1.978-3.815,10.626,10.626,0,0,1,2.87-2.783,6.2,6.2,0,0,1,3.412-1.049,5.457,5.457,0,0,1,1.662.261,5.806,5.806,0,0,1,1.453.683l.945-.77h.525l-2.065,11.76a5.789,5.789,0,0,0-.122,1.943.594.594,0,0,0,.612.543q1.435,0,2.695-2.766l.455.176a10.423,10.423,0,0,1-2.083,3.534,3.2,3.2,0,0,1-2.221,1.085,1.505,1.505,0,0,1-1.453-.858,4.44,4.44,0,0,1-.087-2.711l.139-.736h-.1a18.1,18.1,0,0,1-3.08,3.2A4.866,4.866,0,0,1,233.624,192.033Zm-1.154-5.425q0,3.675,2.274,3.675a3.6,3.6,0,0,0,1.89-.577,9.076,9.076,0,0,0,1.8-1.47,21.549,21.549,0,0,0,1.627-1.908l1.4-8.19a5.049,5.049,0,0,0-1.277-1.049,3.415,3.415,0,0,0-1.7-.386,3.97,3.97,0,0,0-2.468.841,7.279,7.279,0,0,0-1.907,2.274A12.335,12.335,0,0,0,232.89,183,15.338,15.338,0,0,0,232.47,186.608Z"/>
          <path class="cls-1" d="M252.105,191.789l-3.01-14.351-2.555-.63v-.28l4.235-.944h.14l2.555,13.09h.14l2.835-4.621A21.6,21.6,0,0,0,258,181.026a5.8,5.8,0,0,0,.473-2.013,1.616,1.616,0,0,0-.246-.945,2.239,2.239,0,0,0-.629-.595l-.526-.28v-.14l.56-.91a1.462,1.462,0,0,1,.368-.455.778.778,0,0,1,.437-.1,1.482,1.482,0,0,1,1.225.8,3.08,3.08,0,0,1,.525,1.715,5.146,5.146,0,0,1-.507,1.943,26.9,26.9,0,0,1-1.768,3.2l-5.32,8.54Z"/>
          <path class="cls-1" d="M267.049,192.033a4.576,4.576,0,0,1-3.867-1.609,6.629,6.629,0,0,1-1.243-4.166,11.412,11.412,0,0,1,.7-3.972,11.738,11.738,0,0,1,1.924-3.412,10.094,10.094,0,0,1,2.765-2.4,6.331,6.331,0,0,1,3.22-.892,3.762,3.762,0,0,1,2.7.84,2.562,2.562,0,0,1,.875,1.889,2.911,2.911,0,0,1-.962,2.083,8.3,8.3,0,0,1-3.168,1.715,33.374,33.374,0,0,1-5.915,1.277,15.006,15.006,0,0,0-.139,2.065,5.7,5.7,0,0,0,1.049,3.676,3.655,3.655,0,0,0,3.01,1.3q2.8,0,4.9-3.255h.069l.28.21a9.6,9.6,0,0,1-2.537,3.29A5.551,5.551,0,0,1,267.049,192.033Zm2.765-15.47a4.634,4.634,0,0,0-3.5,1.628,9.134,9.134,0,0,0-2.1,4.358,22.518,22.518,0,0,0,6.02-1.558,2.771,2.771,0,0,0,1.786-2.538,1.831,1.831,0,0,0-.543-1.347A2.265,2.265,0,0,0,269.814,176.563Z"/>
          <path class="cls-1" d="M11.723,232.033a4.58,4.58,0,0,1-3.868-1.609,6.629,6.629,0,0,1-1.242-4.166,11.434,11.434,0,0,1,.7-3.972,11.764,11.764,0,0,1,1.925-3.412,10.094,10.094,0,0,1,2.765-2.4,6.331,6.331,0,0,1,3.22-.892,3.762,3.762,0,0,1,2.695.84,2.562,2.562,0,0,1,.875,1.889,2.911,2.911,0,0,1-.962,2.083,8.312,8.312,0,0,1-3.168,1.715,33.394,33.394,0,0,1-5.915,1.277,15.005,15.005,0,0,0-.14,2.065,5.7,5.7,0,0,0,1.05,3.676,3.652,3.652,0,0,0,3.01,1.3q2.8,0,4.9-3.255h.07l.28.21a9.6,9.6,0,0,1-2.537,3.29A5.551,5.551,0,0,1,11.723,232.033Zm2.765-15.47a4.634,4.634,0,0,0-3.5,1.628,9.124,9.124,0,0,0-2.1,4.358,22.518,22.518,0,0,0,6.02-1.558,2.77,2.77,0,0,0,1.785-2.538,1.827,1.827,0,0,0-.543-1.347A2.262,2.262,0,0,0,14.488,216.563Z"/>
          <path class="cls-1" d="M26.213,231.789,23.2,217.438l-2.555-.63v-.28l4.236-.944h.139l2.555,13.09h.141l2.835-4.621a21.688,21.688,0,0,0,1.557-3.027,5.777,5.777,0,0,0,.473-2.013,1.624,1.624,0,0,0-.245-.945,2.229,2.229,0,0,0-.63-.595l-.525-.28v-.14l.559-.91a1.491,1.491,0,0,1,.368-.455.782.782,0,0,1,.438-.1,1.479,1.479,0,0,1,1.224.8A3.081,3.081,0,0,1,34.3,218.1a5.151,5.151,0,0,1-.508,1.943,26.9,26.9,0,0,1-1.768,3.2l-5.32,8.54Z"/>
          <path class="cls-1" d="M41.157,232.033a4.576,4.576,0,0,1-3.867-1.609,6.629,6.629,0,0,1-1.242-4.166,11.411,11.411,0,0,1,.7-3.972,11.741,11.741,0,0,1,1.925-3.412,10.065,10.065,0,0,1,2.765-2.4,6.328,6.328,0,0,1,3.219-.892,3.765,3.765,0,0,1,2.7.84,2.562,2.562,0,0,1,.875,1.889,2.915,2.915,0,0,1-.962,2.083,8.32,8.32,0,0,1-3.168,1.715,33.415,33.415,0,0,1-5.915,1.277,15.005,15.005,0,0,0-.14,2.065,5.7,5.7,0,0,0,1.05,3.676,3.652,3.652,0,0,0,3.01,1.3q2.8,0,4.9-3.255h.069l.281.21a9.615,9.615,0,0,1-2.538,3.29A5.549,5.549,0,0,1,41.157,232.033Zm2.766-15.47a4.634,4.634,0,0,0-3.5,1.628,9.134,9.134,0,0,0-2.1,4.358,22.527,22.527,0,0,0,6.021-1.558,2.772,2.772,0,0,0,1.785-2.538,1.831,1.831,0,0,0-.543-1.347A2.262,2.262,0,0,0,43.923,216.563Z"/>
          <path class="cls-1" d="M51.518,231.683l2.519-14.139-2.485-.736v-.28l4.305-.944H56l-.28,4.059h.14a16.926,16.926,0,0,1,2-2.677,4.883,4.883,0,0,1,1.469-1.121,3.045,3.045,0,0,1,1.156-.261,1.856,1.856,0,0,1,1.084.314.9.9,0,0,1,.456.735.93.93,0,0,1-.106.42l-.665,1.26h-.14l-.455-.28a1.858,1.858,0,0,0-1.085-.315,2.9,2.9,0,0,0-1.89.77,13.688,13.688,0,0,0-2.275,2.905l-1.82,10.29Z"/>
          <path class="cls-1" d="M74.583,232.033a6.1,6.1,0,0,1-2.625-.472,4.056,4.056,0,0,1-1.471-1.1,1.484,1.484,0,0,1-.384-.875.78.78,0,0,1,.384-.665l.6-.42h.21l.455.8a3.252,3.252,0,0,0,1.364,1.33,3.858,3.858,0,0,0,1.75.42,3.337,3.337,0,0,0,2.415-.875,3.012,3.012,0,0,0,.911-2.275,2.817,2.817,0,0,0-.683-2,8.78,8.78,0,0,0-2.012-1.5,9.3,9.3,0,0,1-2.432-1.96,3.668,3.668,0,0,1-.718-2.345,3.616,3.616,0,0,1,.735-2.117,6.009,6.009,0,0,1,1.907-1.716,4.841,4.841,0,0,1,2.468-.681,5.279,5.279,0,0,1,2.152.384,4.12,4.12,0,0,1,1.417,1.015,1.481,1.481,0,0,1,.316.806.878.878,0,0,1-.088.367.9.9,0,0,1-.263.332l-.524.386h-.21l-.63-.841a3.91,3.91,0,0,0-1.138-1.1A2.849,2.849,0,0,0,77,216.563a2.7,2.7,0,0,0-2.065.822,2.626,2.626,0,0,0-.77,1.838,2.925,2.925,0,0,0,.612,1.908,6.467,6.467,0,0,0,1.733,1.418,12.162,12.162,0,0,1,2.625,1.924,3.7,3.7,0,0,1,.875,2.66,4.362,4.362,0,0,1-.7,2.345,5.5,5.5,0,0,1-1.925,1.838A5.443,5.443,0,0,1,74.583,232.033Z"/>
          <path class="cls-1" d="M88.827,232.033a4.576,4.576,0,0,1-3.867-1.609,6.629,6.629,0,0,1-1.242-4.166,11.411,11.411,0,0,1,.7-3.972,11.741,11.741,0,0,1,1.925-3.412,10.076,10.076,0,0,1,2.764-2.4,6.334,6.334,0,0,1,3.22-.892,3.762,3.762,0,0,1,2.7.84,2.562,2.562,0,0,1,.875,1.889,2.913,2.913,0,0,1-.961,2.083,8.32,8.32,0,0,1-3.168,1.715,33.415,33.415,0,0,1-5.915,1.277,15.005,15.005,0,0,0-.14,2.065,5.694,5.694,0,0,0,1.05,3.676,3.651,3.651,0,0,0,3.009,1.3q2.8,0,4.9-3.255h.069l.28.21a9.6,9.6,0,0,1-2.537,3.29A5.549,5.549,0,0,1,88.827,232.033Zm2.766-15.47a4.634,4.634,0,0,0-3.5,1.628,9.134,9.134,0,0,0-2.1,4.358,22.538,22.538,0,0,0,6.021-1.558,2.772,2.772,0,0,0,1.785-2.538,1.831,1.831,0,0,0-.543-1.347A2.262,2.262,0,0,0,91.593,216.563Z"/>
          <path class="cls-1" d="M103.632,232.033a4.576,4.576,0,0,1-3.867-1.609,6.629,6.629,0,0,1-1.243-4.166,11.412,11.412,0,0,1,.7-3.972,11.738,11.738,0,0,1,1.924-3.412,10.094,10.094,0,0,1,2.765-2.4,6.331,6.331,0,0,1,3.22-.892,3.762,3.762,0,0,1,2.695.84,2.562,2.562,0,0,1,.875,1.889,2.911,2.911,0,0,1-.962,2.083,8.3,8.3,0,0,1-3.168,1.715,33.374,33.374,0,0,1-5.915,1.277,15.006,15.006,0,0,0-.139,2.065,5.7,5.7,0,0,0,1.049,3.676,3.655,3.655,0,0,0,3.01,1.3q2.8,0,4.9-3.255h.069l.28.21a9.6,9.6,0,0,1-2.537,3.29A5.551,5.551,0,0,1,103.632,232.033Zm2.765-15.47a4.634,4.634,0,0,0-3.5,1.628,9.134,9.134,0,0,0-2.1,4.358,22.518,22.518,0,0,0,6.02-1.558,2.771,2.771,0,0,0,1.786-2.538,1.831,1.831,0,0,0-.543-1.347A2.265,2.265,0,0,0,106.4,216.563Z"/>
          <path class="cls-1" d="M113.5,231.683l2.484-14.139-2.415-.736v-.28l4.2-.944h.175l-.244,3.779h.105a29.24,29.24,0,0,1,2.2-2.188,7.216,7.216,0,0,1,1.838-1.207,4.857,4.857,0,0,1,1.942-.384,2.849,2.849,0,0,1,2.572,1.346,5.319,5.319,0,0,1,.4,3.833l-1.225,6.755a5.77,5.77,0,0,0-.123,1.943.614.614,0,0,0,.647.543q1.4,0,2.661-2.766l.455.176a10.086,10.086,0,0,1-2.048,3.534,3.237,3.237,0,0,1-2.257,1.085,1.472,1.472,0,0,1-1.436-.858,4.723,4.723,0,0,1-.1-2.711l1.365-7.84a4.04,4.04,0,0,0-.21-2.4,1.893,1.893,0,0,0-1.926-1,3.466,3.466,0,0,0-1.75.508,9.955,9.955,0,0,0-1.714,1.277q-.84.771-1.61,1.576l-1.926,11.094Z"/>
          <path class="cls-1" d="M142.271,232.033a1.5,1.5,0,0,1-1.452-.858,4.454,4.454,0,0,1-.088-2.711l1.925-10.956-2.59-.7v-.28l4.726-.944h.279l-2.134,11.934a5.77,5.77,0,0,0-.123,1.943.613.613,0,0,0,.648.543q1.4,0,2.66-2.766l.455.176a10.681,10.681,0,0,1-2.065,3.534A3.181,3.181,0,0,1,142.271,232.033Zm2.625-21.525a1.476,1.476,0,0,1-1.084-.455,1.517,1.517,0,0,1-.456-1.12,1.555,1.555,0,0,1,1.54-1.54,1.53,1.53,0,0,1,1.121.455,1.488,1.488,0,0,1,.455,1.085,1.554,1.554,0,0,1-1.576,1.575Z"/>
          <path class="cls-1" d="M149.236,231.683l2.485-14.139-2.415-.736v-.28l4.2-.944h.175l-.244,3.779h.1a29.429,29.429,0,0,1,2.205-2.188,7.216,7.216,0,0,1,1.838-1.207,4.86,4.86,0,0,1,1.942-.384,2.851,2.851,0,0,1,2.573,1.346,5.319,5.319,0,0,1,.4,3.833l-1.225,6.755a5.77,5.77,0,0,0-.123,1.943.614.614,0,0,0,.648.543q1.4,0,2.66-2.766l.455.176a10.07,10.07,0,0,1-2.048,3.534,3.234,3.234,0,0,1-2.257,1.085,1.471,1.471,0,0,1-1.435-.858,4.712,4.712,0,0,1-.1-2.711l1.366-7.84a4.048,4.048,0,0,0-.21-2.4,1.894,1.894,0,0,0-1.926-1,3.466,3.466,0,0,0-1.75.508,9.961,9.961,0,0,0-1.715,1.277q-.84.771-1.609,1.576L151.3,231.683Z"/>
          <path class="cls-1" d="M175.906,231.683l2.485-14.139-2.415-.736v-.28l4.2-.944h.175l-.245,3.779h.105a30.1,30.1,0,0,1,2.135-2.188,7.09,7.09,0,0,1,1.75-1.207,4.5,4.5,0,0,1,1.89-.384,2.691,2.691,0,0,1,2.223.979,4.177,4.177,0,0,1,.717,2.835h.14q1.226-1.365,2.135-2.2a6.878,6.878,0,0,1,1.75-1.225,4.5,4.5,0,0,1,1.89-.384,2.657,2.657,0,0,1,2.468,1.346,5.618,5.618,0,0,1,.332,3.833l-1.225,6.755a5.789,5.789,0,0,0-.122,1.943.612.612,0,0,0,.647.543q1.4,0,2.66-2.766l.455.176a10.664,10.664,0,0,1-2.065,3.534,3.179,3.179,0,0,1-2.24,1.085,1.47,1.47,0,0,1-1.435-.858,4.712,4.712,0,0,1-.1-2.711l1.365-7.84a4.5,4.5,0,0,0-.139-2.4,1.723,1.723,0,0,0-1.821-1,3.822,3.822,0,0,0-2.52,1.068,25.117,25.117,0,0,0-2.31,2.293l-.035.174-1.96,10.92h-2.03l1.926-11.059a4.487,4.487,0,0,0-.141-2.4,1.69,1.69,0,0,0-1.785-1,3.822,3.822,0,0,0-2.52,1.068q-1.226,1.068-2.345,2.257l-1.925,11.13Z"/>
          <path class="cls-1" d="M199.846,240.084a.9.9,0,0,1-1.015-1.016v-1.154l.175-.141h1.75a6.887,6.887,0,0,0,1.208-.087,1.951,1.951,0,0,0,.892-.437,5.556,5.556,0,0,0,.927-1.085q.507-.735,1.279-2.031l1.784-2.94-3.08-13.72-2.555-.665v-.28l4.235-.944h.14l2.765,12.984h.14l2.765-4.515a21.517,21.517,0,0,0,1.61-3.027,5.616,5.616,0,0,0,.49-2.013,1.624,1.624,0,0,0-.245-.945,2.229,2.229,0,0,0-.63-.595l-.525-.28v-.14l.56-.91a1.462,1.462,0,0,1,.368-.455.778.778,0,0,1,.437-.1,1.461,1.461,0,0,1,1.242.787,3.135,3.135,0,0,1,.508,1.732,5.3,5.3,0,0,1-.49,1.943,24.678,24.678,0,0,1-1.75,3.2l-7,11.2q-.49.806-.8,1.33c-.21.351-.426.7-.647,1.05a11.693,11.693,0,0,1-.963,1.261,5.959,5.959,0,0,1-1.768,1.5A3.842,3.842,0,0,1,199.846,240.084Z"/>
          <path class="cls-1" d="M227.462,232.033a1.471,1.471,0,0,1-1.436-.858,4.714,4.714,0,0,1-.1-2.711l3.744-21.106-2.59-.7v-.279l4.691-.946h.314l-3.955,22.085a5.789,5.789,0,0,0-.122,1.943.613.613,0,0,0,.647.543,1.993,1.993,0,0,0,1.366-.7,6.73,6.73,0,0,0,1.3-2.065l.49.176a10.472,10.472,0,0,1-2.083,3.534A3.237,3.237,0,0,1,227.462,232.033Z"/>
          <path class="cls-1" d="M236.491,232.033a1.5,1.5,0,0,1-1.452-.858,4.454,4.454,0,0,1-.088-2.711l1.925-10.956-2.59-.7v-.28l4.726-.944h.279l-2.135,11.934a5.789,5.789,0,0,0-.122,1.943.613.613,0,0,0,.648.543q1.4,0,2.66-2.766l.455.176a10.663,10.663,0,0,1-2.066,3.534A3.178,3.178,0,0,1,236.491,232.033Zm2.625-21.525a1.478,1.478,0,0,1-1.085-.455,1.52,1.52,0,0,1-.455-1.12,1.554,1.554,0,0,1,1.54-1.54,1.526,1.526,0,0,1,1.12.455,1.484,1.484,0,0,1,.455,1.085,1.554,1.554,0,0,1-1.575,1.575Z"/>
          <path class="cls-1" d="M239.116,240.084a1.717,1.717,0,0,1-1.12-.3.827.827,0,0,1-.35-.612,1.878,1.878,0,0,1,.245-.736l.384-.8h.141l.56.315a2.7,2.7,0,0,0,.753.245,4.75,4.75,0,0,0,.822.07,2.773,2.773,0,0,0,2.415-1.75,16.072,16.072,0,0,0,1.434-5.179l2.136-14.141H243.7v-1.26h3.01l.21-1.4a9.856,9.856,0,0,1,.91-2.694,15.618,15.618,0,0,1,1.907-3.011,10.993,10.993,0,0,1,2.678-2.432,5.875,5.875,0,0,1,3.22-.963,1.624,1.624,0,0,1,.945.245q.6.315.595.665a1.055,1.055,0,0,1-.175.56l-.561,1.016H256.3l-.665-.281a5.082,5.082,0,0,0-2-.384,3.4,3.4,0,0,0-2.835,1.5,9.95,9.95,0,0,0-1.576,4.375l-.419,2.8H252.7v1.26H248.6l-2.03,13.545a12.362,12.362,0,0,1-.823,2.783,16.935,16.935,0,0,1-1.662,3.1,10.688,10.688,0,0,1-2.275,2.485A4.308,4.308,0,0,1,239.116,240.084Z"/>
          <path class="cls-1" d="M258.785,232.033a4.576,4.576,0,0,1-3.867-1.609,6.629,6.629,0,0,1-1.242-4.166,11.411,11.411,0,0,1,.7-3.972,11.741,11.741,0,0,1,1.925-3.412,10.076,10.076,0,0,1,2.764-2.4,6.334,6.334,0,0,1,3.22-.892,3.762,3.762,0,0,1,2.695.84,2.562,2.562,0,0,1,.875,1.889,2.913,2.913,0,0,1-.961,2.083,8.32,8.32,0,0,1-3.168,1.715,33.415,33.415,0,0,1-5.915,1.277,15.005,15.005,0,0,0-.14,2.065,5.7,5.7,0,0,0,1.05,3.676,3.651,3.651,0,0,0,3.009,1.3q2.8,0,4.9-3.255h.069l.28.21a9.6,9.6,0,0,1-2.537,3.29A5.549,5.549,0,0,1,258.785,232.033Zm2.766-15.47a4.634,4.634,0,0,0-3.5,1.628,9.134,9.134,0,0,0-2.1,4.358,22.538,22.538,0,0,0,6.021-1.558,2.772,2.772,0,0,0,1.785-2.538,1.831,1.831,0,0,0-.543-1.347A2.262,2.262,0,0,0,261.551,216.563Z"/>
          <path class="cls-1" d="M269.636,231.858a1.4,1.4,0,0,1-1.138-.437,1.707,1.707,0,0,1-.368-1.138,2.14,2.14,0,0,1,.525-1.4,1.733,1.733,0,0,1,1.4-.629,1.371,1.371,0,0,1,1.136.455,1.716,1.716,0,0,1,.369,1.119,2.109,2.109,0,0,1-.526,1.418A1.75,1.75,0,0,1,269.636,231.858Z"/>
          <path class="cls-1" d="M0,271.683l.1-.525,2.625-.98L6.3,250.053l-2.45-.945.1-.524h7.49l-.1.524-2.66.945L5.109,270.178l2.521.98-.106.525Z"/>
          <path class="cls-1" d="M15.54,272.033a1.977,1.977,0,0,1-1.628-.665,2.913,2.913,0,0,1-.542-1.89,3.551,3.551,0,0,1,.052-.559q.053-.315.088-.665l1.925-11.061H12.774v-.245l3.08-1.085,2.311-3.779h.245l-.665,3.849h4.234v1.26H17.5l-1.681,9.695c-.047.328-.087.63-.122.911a5.983,5.983,0,0,0-.052.734,2.038,2.038,0,0,0,.262,1.19.92.92,0,0,0,.787.35,2.649,2.649,0,0,0,1.785-.944,8.644,8.644,0,0,0,1.715-2.766l.491.21a11.384,11.384,0,0,1-2.433,4.218A3.944,3.944,0,0,1,15.54,272.033Z"/>
          <path class="cls-1" d="M36.365,271.789,33.6,257.473l-2.555-.665v-.28l4.235-.944h.14l2.24,12.7h.14l5.565-12.356h.385l2.625,12.7h.14l2.45-4.585q.98-1.854,1.47-3.045a5.451,5.451,0,0,0,.49-2,1.624,1.624,0,0,0-.245-.945,2.2,2.2,0,0,0-.63-.595l-.525-.28v-.14l.56-.91a1.326,1.326,0,0,1,.385-.455.8.8,0,0,1,.42-.1,1.444,1.444,0,0,1,1.208.8,3.166,3.166,0,0,1,.507,1.715,5.333,5.333,0,0,1-.472,1.925,29.327,29.327,0,0,1-1.663,3.221l-4.9,8.54h-.49L42.56,260.2l-5.67,11.586Z"/>
          <path class="cls-1" d="M57.713,272.033a2.849,2.849,0,0,1-2.327-1.172,5.536,5.536,0,0,1-.928-3.482,12.4,12.4,0,0,1,.735-4.148,15.171,15.171,0,0,1,1.978-3.815,10.626,10.626,0,0,1,2.87-2.783,6.2,6.2,0,0,1,3.412-1.049,5.462,5.462,0,0,1,1.662.261,5.823,5.823,0,0,1,1.453.683l.945-.77h.525l-2.065,11.76a5.789,5.789,0,0,0-.122,1.943.594.594,0,0,0,.612.543q1.436,0,2.7-2.766l.455.176a10.423,10.423,0,0,1-2.083,3.534,3.2,3.2,0,0,1-2.221,1.085,1.507,1.507,0,0,1-1.454-.858,4.442,4.442,0,0,1-.086-2.711l.139-.736H63.8a18.1,18.1,0,0,1-3.08,3.2A4.866,4.866,0,0,1,57.713,272.033Zm-1.154-5.425q0,3.675,2.274,3.675a3.6,3.6,0,0,0,1.89-.577,9.043,9.043,0,0,0,1.8-1.47,21.391,21.391,0,0,0,1.628-1.908l1.4-8.19a5.053,5.053,0,0,0-1.278-1.049,3.408,3.408,0,0,0-1.7-.386,3.97,3.97,0,0,0-2.468.841,7.279,7.279,0,0,0-1.907,2.274A12.335,12.335,0,0,0,56.979,263,15.338,15.338,0,0,0,56.559,266.608Z"/>
          <path class="cls-1" d="M75.354,272.033a6.1,6.1,0,0,1-2.625-.472,4.047,4.047,0,0,1-1.471-1.1,1.486,1.486,0,0,1-.385-.875.778.778,0,0,1,.385-.665l.6-.42h.209l.456.8a3.24,3.24,0,0,0,1.364,1.33,3.852,3.852,0,0,0,1.75.42,3.339,3.339,0,0,0,2.415-.875,3.015,3.015,0,0,0,.91-2.275,2.817,2.817,0,0,0-.683-2,8.794,8.794,0,0,0-2.011-1.5,9.307,9.307,0,0,1-2.433-1.96,3.674,3.674,0,0,1-.718-2.345,3.611,3.611,0,0,1,.736-2.117,6.009,6.009,0,0,1,1.907-1.716,4.836,4.836,0,0,1,2.468-.681,5.279,5.279,0,0,1,2.152.384,4.13,4.13,0,0,1,1.417,1.015,1.478,1.478,0,0,1,.315.806.891.891,0,0,1-.087.367.9.9,0,0,1-.263.332l-.525.386h-.21l-.629-.841a3.922,3.922,0,0,0-1.138-1.1,2.849,2.849,0,0,0-1.487-.367,2.7,2.7,0,0,0-2.066.822,2.625,2.625,0,0,0-.769,1.838,2.925,2.925,0,0,0,.612,1.908,6.445,6.445,0,0,0,1.732,1.418,12.162,12.162,0,0,1,2.625,1.924,3.7,3.7,0,0,1,.875,2.66,4.354,4.354,0,0,1-.7,2.345,5.486,5.486,0,0,1-4.724,2.555Z"/>
          <path class="cls-1" d="M96.423,272.033a2.849,2.849,0,0,1-2.327-1.172,5.536,5.536,0,0,1-.928-3.482,12.4,12.4,0,0,1,.735-4.148,15.171,15.171,0,0,1,1.978-3.815,10.626,10.626,0,0,1,2.87-2.783,6.2,6.2,0,0,1,3.412-1.049,5.462,5.462,0,0,1,1.662.261,5.823,5.823,0,0,1,1.453.683l.945-.77h.525l-2.065,11.76a5.789,5.789,0,0,0-.122,1.943.594.594,0,0,0,.612.543q1.435,0,2.695-2.766l.455.176a10.423,10.423,0,0,1-2.083,3.534,3.2,3.2,0,0,1-2.221,1.085,1.507,1.507,0,0,1-1.454-.858,4.442,4.442,0,0,1-.086-2.711l.139-.736h-.1a18.1,18.1,0,0,1-3.08,3.2A4.866,4.866,0,0,1,96.423,272.033Zm-1.154-5.425q0,3.675,2.274,3.675a3.6,3.6,0,0,0,1.89-.577,9.071,9.071,0,0,0,1.8-1.47,21.391,21.391,0,0,0,1.628-1.908l1.4-8.19a5.053,5.053,0,0,0-1.278-1.049,3.408,3.408,0,0,0-1.7-.386,3.97,3.97,0,0,0-2.468.841,7.279,7.279,0,0,0-1.907,2.274A12.373,12.373,0,0,0,95.688,263,15.391,15.391,0,0,0,95.269,266.608Z"/>
          <path class="cls-1" d="M119.839,271.683l2.519-14.139-2.485-.736v-.28l4.306-.944h.139l-.28,4.059h.141a16.87,16.87,0,0,1,2-2.677,4.885,4.885,0,0,1,1.47-1.121,3.037,3.037,0,0,1,1.155-.261,1.859,1.859,0,0,1,1.085.314.9.9,0,0,1,.455.735.918.918,0,0,1-.106.42l-.665,1.26h-.139l-.455-.28a1.86,1.86,0,0,0-1.085-.315,2.9,2.9,0,0,0-1.891.77,13.724,13.724,0,0,0-2.274,2.9l-1.821,10.29Z"/>
          <path class="cls-1" d="M136.009,272.033a4.576,4.576,0,0,1-3.867-1.609,6.623,6.623,0,0,1-1.243-4.166,11.412,11.412,0,0,1,.7-3.972,11.738,11.738,0,0,1,1.924-3.412,10.094,10.094,0,0,1,2.765-2.4,6.331,6.331,0,0,1,3.22-.892,3.762,3.762,0,0,1,2.7.84,2.562,2.562,0,0,1,.875,1.889,2.911,2.911,0,0,1-.962,2.083,8.3,8.3,0,0,1-3.168,1.715,33.394,33.394,0,0,1-5.915,1.277,15.006,15.006,0,0,0-.139,2.065,5.7,5.7,0,0,0,1.049,3.676,3.653,3.653,0,0,0,3.01,1.295q2.8,0,4.9-3.255h.07l.28.21a9.6,9.6,0,0,1-2.537,3.29A5.551,5.551,0,0,1,136.009,272.033Zm2.765-15.47a4.634,4.634,0,0,0-3.5,1.628,9.134,9.134,0,0,0-2.1,4.358,22.518,22.518,0,0,0,6.02-1.558,2.77,2.77,0,0,0,1.785-2.538,1.831,1.831,0,0,0-.542-1.347A2.265,2.265,0,0,0,138.774,256.563Z"/>
          <path class="cls-1" d="M148.889,272.033a2.849,2.849,0,0,1-2.327-1.172,5.53,5.53,0,0,1-.928-3.482,12.4,12.4,0,0,1,.735-4.148,15.138,15.138,0,0,1,1.978-3.815,10.626,10.626,0,0,1,2.87-2.783,6.194,6.194,0,0,1,3.412-1.049,5.467,5.467,0,0,1,1.662.261,5.823,5.823,0,0,1,1.453.683l.944-.77h.526l-2.066,11.76a5.789,5.789,0,0,0-.122,1.943.6.6,0,0,0,.613.543q1.435,0,2.695-2.766l.455.176a10.439,10.439,0,0,1-2.083,3.534,3.206,3.206,0,0,1-2.222,1.085,1.506,1.506,0,0,1-1.453-.858,4.448,4.448,0,0,1-.087-2.711l.14-.736h-.1a18.1,18.1,0,0,1-3.081,3.2A4.866,4.866,0,0,1,148.889,272.033Zm-1.155-5.425q0,3.675,2.275,3.675a3.592,3.592,0,0,0,1.889-.577,9.048,9.048,0,0,0,1.8-1.47,21.728,21.728,0,0,0,1.628-1.908l1.4-8.19a5.053,5.053,0,0,0-1.278-1.049,3.408,3.408,0,0,0-1.7-.386,3.968,3.968,0,0,0-2.468.841,7.279,7.279,0,0,0-1.907,2.274A12.373,12.373,0,0,0,148.154,263,15.391,15.391,0,0,0,147.734,266.608Z"/>
          <path class="cls-1" d="M165.27,272.033a1.47,1.47,0,0,1-1.436-.858,4.721,4.721,0,0,1-.1-2.711l3.745-21.106-2.59-.7v-.279l4.69-.946h.315l-3.955,22.085a5.762,5.762,0,0,0-.122,1.943.612.612,0,0,0,.647.543,1.993,1.993,0,0,0,1.365-.7,6.692,6.692,0,0,0,1.295-2.065l.49.176a10.439,10.439,0,0,1-2.083,3.534A3.233,3.233,0,0,1,165.27,272.033Z"/>
          <path class="cls-1" d="M178.324,279.733v-.455l1.89-.84,3.676-20.894-2.415-.736v-.28l4.2-.944h.176l-.281,4.234h.14a17.594,17.594,0,0,1,3.027-3.149,4.849,4.849,0,0,1,2.993-1.085,2.735,2.735,0,0,1,2.328,1.259,6.413,6.413,0,0,1,.892,3.71,12.937,12.937,0,0,1-.7,4.218,13.723,13.723,0,0,1-1.907,3.693,10,10,0,0,1-2.748,2.607,5.984,5.984,0,0,1-3.22.962,5.963,5.963,0,0,1-2.835-.734l-1.225,7.1,2.695.875v.455Zm12.25-22.4a3.538,3.538,0,0,0-1.838.559,8.833,8.833,0,0,0-1.784,1.452q-.858.894-1.628,1.873L183.89,269.3a5.176,5.176,0,0,0,1.609,1.243,4.165,4.165,0,0,0,1.75.368,4,4,0,0,0,2.87-1.226,8.547,8.547,0,0,0,2.013-3.412,15.432,15.432,0,0,0,.752-5.022Q192.884,257.333,190.574,257.334Z"/>
          <path class="cls-1" d="M200.339,272.033a1.5,1.5,0,0,1-1.452-.858,4.447,4.447,0,0,1-.088-2.711l1.925-10.956-2.59-.7v-.28l4.725-.944h.28L201,267.518a5.789,5.789,0,0,0-.122,1.943.612.612,0,0,0,.647.543q1.4,0,2.66-2.766l.456.176a10.681,10.681,0,0,1-2.066,3.534A3.181,3.181,0,0,1,200.339,272.033Zm2.625-21.525a1.478,1.478,0,0,1-1.085-.455,1.516,1.516,0,0,1-.455-1.12,1.554,1.554,0,0,1,1.54-1.54,1.529,1.529,0,0,1,1.12.455,1.484,1.484,0,0,1,.455,1.085,1.554,1.554,0,0,1-1.575,1.575Z"/>
          <path class="cls-1" d="M212.379,272.033a4.547,4.547,0,0,1-3.816-1.609,6.867,6.867,0,0,1-1.259-4.34,10.505,10.505,0,0,1,.717-3.816,12.593,12.593,0,0,1,1.943-3.378,10.183,10.183,0,0,1,2.729-2.414,5.971,5.971,0,0,1,3.08-.892,4.747,4.747,0,0,1,2.135.42,4.407,4.407,0,0,1,1.365,1.014,1.781,1.781,0,0,1,.595,1.156.822.822,0,0,1-.42.7l-.944.594h-.21l-.455-.77a6.168,6.168,0,0,0-1.191-1.452,2.649,2.649,0,0,0-1.785-.543,4.1,4.1,0,0,0-2.747,1.12,7.829,7.829,0,0,0-2.048,3.045,11.612,11.612,0,0,0-.769,4.341,6.261,6.261,0,0,0,1.032,3.867,3.5,3.5,0,0,0,2.957,1.348,4.416,4.416,0,0,0,2.573-.875,9.608,9.608,0,0,0,2.467-2.871h.07l.281.21a11.863,11.863,0,0,1-2.643,3.675A5.232,5.232,0,0,1,212.379,272.033Z"/>
          <path class="cls-1" d="M224.943,272.033a1.98,1.98,0,0,1-1.628-.665,2.913,2.913,0,0,1-.542-1.89,3.551,3.551,0,0,1,.052-.559c.035-.21.065-.432.088-.665l1.925-11.061h-2.66v-.245l3.08-1.085,2.31-3.779h.245l-.665,3.849h4.235v1.26H226.9l-1.68,9.695c-.047.328-.087.63-.122.911a5.81,5.81,0,0,0-.053.734,2.037,2.037,0,0,0,.263,1.19.918.918,0,0,0,.787.35,2.653,2.653,0,0,0,1.785-.944,8.662,8.662,0,0,0,1.715-2.766l.49.21a11.384,11.384,0,0,1-2.433,4.218A3.944,3.944,0,0,1,224.943,272.033Z"/>
          <path class="cls-1" d="M236.493,272.033a2.647,2.647,0,0,1-2.135-.909,3.962,3.962,0,0,1-.77-2.625,5.916,5.916,0,0,1,.053-.788c.035-.268.075-.554.122-.858l1.68-9.309-2.45-.736v-.28l4.585-.944h.21l-1.925,11.2-.123.735a3.733,3.733,0,0,0-.052.6,2.69,2.69,0,0,0,.473,1.628,1.8,1.8,0,0,0,1.557.647,3.78,3.78,0,0,0,2.485-1.067,25.117,25.117,0,0,0,2.31-2.293l1.68-9.484-2.45-.736v-.28l4.62-.944h.21l-2.1,11.934a5.644,5.644,0,0,0-.123,1.925A.619.619,0,0,0,245,270a1.993,1.993,0,0,0,1.365-.7,6.692,6.692,0,0,0,1.295-2.065l.49.176a10.423,10.423,0,0,1-2.083,3.534,3.2,3.2,0,0,1-2.222,1.085,1.5,1.5,0,0,1-1.452-.875,4.55,4.55,0,0,1-.122-2.694l.034-.175h-.14a19.659,19.659,0,0,1-2.975,2.886A4.487,4.487,0,0,1,236.493,272.033Z"/>
          <path class="cls-1" d="M250.879,271.683l2.519-14.139-2.485-.736v-.28l4.306-.944h.139l-.28,4.059h.141a16.87,16.87,0,0,1,2-2.677,4.885,4.885,0,0,1,1.47-1.121,3.041,3.041,0,0,1,1.155-.261,1.859,1.859,0,0,1,1.085.314.9.9,0,0,1,.455.735.918.918,0,0,1-.106.42l-.665,1.26h-.139l-.455-.28a1.86,1.86,0,0,0-1.085-.315,2.9,2.9,0,0,0-1.891.77,13.724,13.724,0,0,0-2.274,2.9l-1.821,10.29Z"/>
          <path class="cls-1" d="M267.049,272.033a4.576,4.576,0,0,1-3.867-1.609,6.629,6.629,0,0,1-1.243-4.166,11.412,11.412,0,0,1,.7-3.972,11.738,11.738,0,0,1,1.924-3.412,10.094,10.094,0,0,1,2.765-2.4,6.331,6.331,0,0,1,3.22-.892,3.762,3.762,0,0,1,2.7.84,2.562,2.562,0,0,1,.875,1.889,2.911,2.911,0,0,1-.962,2.083,8.3,8.3,0,0,1-3.168,1.715,33.374,33.374,0,0,1-5.915,1.277,15.006,15.006,0,0,0-.139,2.065,5.7,5.7,0,0,0,1.049,3.676,3.655,3.655,0,0,0,3.01,1.295q2.8,0,4.9-3.255h.069l.28.21a9.6,9.6,0,0,1-2.537,3.29A5.551,5.551,0,0,1,267.049,272.033Zm2.765-15.47a4.634,4.634,0,0,0-3.5,1.628,9.134,9.134,0,0,0-2.1,4.358,22.518,22.518,0,0,0,6.02-1.558,2.771,2.771,0,0,0,1.786-2.538,1.831,1.831,0,0,0-.543-1.347A2.265,2.265,0,0,0,269.814,256.563Z"/>
          <path class="cls-1" d="M32.058,316.933l5.214-31.15H42.7l-.1.631H38.708L33.737,316.3h3.885l-.14.63Z"/>
          <path class="cls-1" d="M44.378,312.033a2.849,2.849,0,0,1-2.327-1.172,5.536,5.536,0,0,1-.928-3.482,12.4,12.4,0,0,1,.735-4.148,15.171,15.171,0,0,1,1.978-3.815,10.626,10.626,0,0,1,2.87-2.783,6.2,6.2,0,0,1,3.412-1.049,5.462,5.462,0,0,1,1.662.261,5.823,5.823,0,0,1,1.453.683l.945-.77H54.7l-2.065,11.76a5.789,5.789,0,0,0-.122,1.943.594.594,0,0,0,.612.543q1.436,0,2.7-2.766l.455.176a10.423,10.423,0,0,1-2.083,3.534,3.2,3.2,0,0,1-2.221,1.085,1.5,1.5,0,0,1-1.453-.858,4.44,4.44,0,0,1-.087-2.711l.139-.736h-.1a18.1,18.1,0,0,1-3.08,3.2A4.866,4.866,0,0,1,44.378,312.033Zm-1.154-5.425q0,3.675,2.274,3.675a3.6,3.6,0,0,0,1.89-.577,9.043,9.043,0,0,0,1.8-1.47,21.391,21.391,0,0,0,1.628-1.908l1.4-8.19a5.036,5.036,0,0,0-1.278-1.049,3.408,3.408,0,0,0-1.7-.386,3.97,3.97,0,0,0-2.468.841,7.279,7.279,0,0,0-1.907,2.274A12.335,12.335,0,0,0,43.644,303,15.338,15.338,0,0,0,43.224,306.608Z"/>
          <path class="cls-1" d="M58.729,311.683l2.484-14.139-2.415-.736v-.28l4.2-.944h.175l-.244,3.779h.1a29.429,29.429,0,0,1,2.2-2.188,7.216,7.216,0,0,1,1.838-1.207,4.862,4.862,0,0,1,1.943-.384,2.85,2.85,0,0,1,2.572,1.346,5.319,5.319,0,0,1,.4,3.833l-1.224,6.755a5.716,5.716,0,0,0-.123,1.943.613.613,0,0,0,.647.543q1.4,0,2.66-2.766l.455.176a10.07,10.07,0,0,1-2.048,3.534,3.233,3.233,0,0,1-2.256,1.085,1.471,1.471,0,0,1-1.436-.858,4.729,4.729,0,0,1-.105-2.711l1.366-7.84a4.048,4.048,0,0,0-.21-2.4,1.894,1.894,0,0,0-1.926-1,3.466,3.466,0,0,0-1.75.508,10,10,0,0,0-1.715,1.277q-.839.771-1.609,1.576l-1.926,11.094Z"/>
          <path class="cls-1" d="M79.868,312.033a2.8,2.8,0,0,1-2.309-1.172,5.6,5.6,0,0,1-.911-3.482,12.677,12.677,0,0,1,.718-4.148,14.423,14.423,0,0,1,1.977-3.815,11,11,0,0,1,2.87-2.783,6.114,6.114,0,0,1,3.4-1.049,5.345,5.345,0,0,1,1.278.157,5.688,5.688,0,0,1,1.207.437l1.54-8.82-2.8-.7v-.279l5-.946h.176l-3.886,22.085a5.789,5.789,0,0,0-.122,1.943.613.613,0,0,0,.647.543q1.4,0,2.66-2.766l.456.176a10.086,10.086,0,0,1-2.048,3.534,3.239,3.239,0,0,1-2.258,1.085,1.471,1.471,0,0,1-1.435-.858,4.712,4.712,0,0,1-.105-2.711l.14-.736h-.105a16.939,16.939,0,0,1-3.149,3.255A4.935,4.935,0,0,1,79.868,312.033Zm-1.155-5.425a5.082,5.082,0,0,0,.6,2.8,1.943,1.943,0,0,0,1.714.875,4.237,4.237,0,0,0,2.625-1.1,15.4,15.4,0,0,0,2.625-2.782l1.435-8.26a5.634,5.634,0,0,0-1.33-1.067,3.363,3.363,0,0,0-1.645-.368,3.978,3.978,0,0,0-2.432.823,7.112,7.112,0,0,0-1.907,2.239,12.486,12.486,0,0,0-1.244,3.186A15.149,15.149,0,0,0,78.713,306.608Z"/>
          <path class="cls-1" d="M90.508,316.933l.105-.63H94.5l4.97-29.889h-3.85l.106-.631h5.46l-5.216,31.15Z"/>
          <path class="cls-1" d="M110.424,311.683l.1-.525,2.625-.98,3.571-20.125-2.451-.945.105-.524h7.49l-.1.524-2.66.945-3.571,20.125,2.521.98-.106.525Z"/>
          <path class="cls-1" d="M136.743,311.789l-2.765-14.316-2.555-.665v-.28l4.235-.944h.14l2.24,12.7h.14l5.565-12.356h.385l2.625,12.7h.14l2.45-4.585q.98-1.854,1.469-3.045a5.435,5.435,0,0,0,.491-2,1.624,1.624,0,0,0-.245-.945,2.2,2.2,0,0,0-.63-.595l-.525-.28v-.14l.56-.91a1.315,1.315,0,0,1,.385-.455.8.8,0,0,1,.42-.1,1.444,1.444,0,0,1,1.208.8,3.174,3.174,0,0,1,.507,1.715,5.333,5.333,0,0,1-.472,1.925,29.327,29.327,0,0,1-1.663,3.221l-4.9,8.54h-.49l-2.52-11.586-5.67,11.586Z"/>
          <path class="cls-1" d="M158.091,312.033a2.849,2.849,0,0,1-2.327-1.172,5.536,5.536,0,0,1-.928-3.482,12.4,12.4,0,0,1,.735-4.148,15.171,15.171,0,0,1,1.978-3.815,10.626,10.626,0,0,1,2.87-2.783,6.2,6.2,0,0,1,3.412-1.049,5.462,5.462,0,0,1,1.662.261,5.823,5.823,0,0,1,1.453.683l.945-.77h.525l-2.065,11.76a5.762,5.762,0,0,0-.122,1.943.594.594,0,0,0,.612.543q1.435,0,2.695-2.766l.455.176a10.423,10.423,0,0,1-2.083,3.534,3.2,3.2,0,0,1-2.221,1.085,1.507,1.507,0,0,1-1.454-.858,4.448,4.448,0,0,1-.087-2.711l.14-.736h-.1a18.1,18.1,0,0,1-3.08,3.2A4.866,4.866,0,0,1,158.091,312.033Zm-1.154-5.425q0,3.675,2.274,3.675a3.6,3.6,0,0,0,1.89-.577,9.071,9.071,0,0,0,1.8-1.47,21.391,21.391,0,0,0,1.628-1.908l1.4-8.19a5.053,5.053,0,0,0-1.278-1.049,3.408,3.408,0,0,0-1.7-.386,3.97,3.97,0,0,0-2.468.841,7.279,7.279,0,0,0-1.907,2.274A12.373,12.373,0,0,0,157.356,303,15.391,15.391,0,0,0,156.937,306.608Z"/>
          <path class="cls-1" d="M175.312,312.033a1.977,1.977,0,0,1-1.628-.665,2.907,2.907,0,0,1-.542-1.89,3.539,3.539,0,0,1,.051-.559q.054-.315.088-.665l1.925-11.061h-2.66v-.245l3.08-1.085,2.311-3.779h.245l-.665,3.849h4.234v1.26h-4.48l-1.68,9.695c-.047.328-.087.63-.122.911a6,6,0,0,0-.053.734,2.037,2.037,0,0,0,.263,1.19.919.919,0,0,0,.787.35,2.653,2.653,0,0,0,1.785-.944,8.662,8.662,0,0,0,1.715-2.766l.49.21a11.384,11.384,0,0,1-2.433,4.218A3.944,3.944,0,0,1,175.312,312.033Z"/>
          <path class="cls-1" d="M188.263,312.033a4.547,4.547,0,0,1-3.816-1.609,6.861,6.861,0,0,1-1.259-4.34,10.505,10.505,0,0,1,.717-3.816,12.593,12.593,0,0,1,1.943-3.378,10.183,10.183,0,0,1,2.729-2.414,5.968,5.968,0,0,1,3.08-.892,4.75,4.75,0,0,1,2.135.42,4.407,4.407,0,0,1,1.365,1.014,1.781,1.781,0,0,1,.595,1.156.824.824,0,0,1-.42.7l-.944.594h-.21l-.455-.77a6.168,6.168,0,0,0-1.191-1.452,2.651,2.651,0,0,0-1.785-.543,4.1,4.1,0,0,0-2.747,1.12,7.818,7.818,0,0,0-2.048,3.045,11.592,11.592,0,0,0-.769,4.341,6.254,6.254,0,0,0,1.032,3.867,3.5,3.5,0,0,0,2.957,1.348,4.416,4.416,0,0,0,2.573-.875,9.608,9.608,0,0,0,2.467-2.871h.07l.28.21a11.877,11.877,0,0,1-2.642,3.675A5.234,5.234,0,0,1,188.263,312.033Z"/>
          <path class="cls-1" d="M200.162,311.683H198.1l4.27-24.29-2.45-.735v-.279l4.655-.946h.21l-2.45,13.93h.069a29.814,29.814,0,0,1,2.2-2.188,7.268,7.268,0,0,1,1.838-1.207,4.865,4.865,0,0,1,1.943-.384,2.848,2.848,0,0,1,2.572,1.346,5.314,5.314,0,0,1,.4,3.833l-1.225,6.755a5.789,5.789,0,0,0-.122,1.943.612.612,0,0,0,.647.543q1.4,0,2.66-2.766l.454.176a10.647,10.647,0,0,1-2.064,3.534,3.181,3.181,0,0,1-2.24,1.085,1.469,1.469,0,0,1-1.435-.858,4.712,4.712,0,0,1-.105-2.711l1.365-7.84a4.032,4.032,0,0,0-.21-2.4,1.893,1.893,0,0,0-1.925-1,4.182,4.182,0,0,0-2.607,1.05,21.43,21.43,0,0,0-2.433,2.275Z"/>
          <path class="cls-1" d="M221.126,312.033a4.576,4.576,0,0,1-3.867-1.609,6.629,6.629,0,0,1-1.242-4.166,11.411,11.411,0,0,1,.7-3.972,11.741,11.741,0,0,1,1.925-3.412,10.076,10.076,0,0,1,2.764-2.4,6.334,6.334,0,0,1,3.22-.892,3.762,3.762,0,0,1,2.695.84,2.562,2.562,0,0,1,.875,1.889,2.911,2.911,0,0,1-.962,2.083,8.3,8.3,0,0,1-3.168,1.715,33.374,33.374,0,0,1-5.915,1.277,15.164,15.164,0,0,0-.139,2.065,5.694,5.694,0,0,0,1.05,3.676,3.651,3.651,0,0,0,3.009,1.295q2.8,0,4.9-3.255h.069l.28.21a9.6,9.6,0,0,1-2.537,3.29A5.551,5.551,0,0,1,221.126,312.033Zm2.766-15.47a4.634,4.634,0,0,0-3.5,1.628,9.134,9.134,0,0,0-2.1,4.358,22.538,22.538,0,0,0,6.021-1.558,2.772,2.772,0,0,0,1.785-2.538,1.831,1.831,0,0,0-.543-1.347A2.264,2.264,0,0,0,223.892,296.563Z"/>
          <path class="cls-1" d="M234.041,312.033a2.8,2.8,0,0,1-2.31-1.172,5.61,5.61,0,0,1-.91-3.482,12.677,12.677,0,0,1,.718-4.148,14.423,14.423,0,0,1,1.977-3.815,10.966,10.966,0,0,1,2.87-2.783,6.114,6.114,0,0,1,3.4-1.049,5.345,5.345,0,0,1,1.278.157,5.688,5.688,0,0,1,1.207.437l1.54-8.82-2.8-.7v-.279l5-.946h.176L242.3,307.518a5.789,5.789,0,0,0-.122,1.943.613.613,0,0,0,.647.543q1.4,0,2.66-2.766l.455.176a10.071,10.071,0,0,1-2.047,3.534,3.239,3.239,0,0,1-2.258,1.085,1.47,1.47,0,0,1-1.435-.858,4.712,4.712,0,0,1-.1-2.711l.14-.736h-.1a16.91,16.91,0,0,1-3.15,3.255A4.932,4.932,0,0,1,234.041,312.033Zm-1.155-5.425a5.092,5.092,0,0,0,.595,2.8,1.946,1.946,0,0,0,1.715.875,4.237,4.237,0,0,0,2.625-1.1,15.469,15.469,0,0,0,2.625-2.782l1.435-8.26a5.634,5.634,0,0,0-1.33-1.067,3.366,3.366,0,0,0-1.645-.368,3.978,3.978,0,0,0-2.432.823,7.128,7.128,0,0,0-1.908,2.239,12.522,12.522,0,0,0-1.243,3.186A15.149,15.149,0,0,0,232.886,306.608Z"/>
          <path class="cls-1" d="M259.206,312.033a1.5,1.5,0,0,1-1.452-.858,4.454,4.454,0,0,1-.088-2.711l1.925-10.956-2.59-.7v-.28l4.726-.944h.279l-2.135,11.934a5.789,5.789,0,0,0-.122,1.943.612.612,0,0,0,.647.543q1.4,0,2.661-2.766l.455.176a10.681,10.681,0,0,1-2.066,3.534A3.178,3.178,0,0,1,259.206,312.033Zm2.625-21.525a1.478,1.478,0,0,1-1.085-.455,1.516,1.516,0,0,1-.455-1.12,1.554,1.554,0,0,1,1.54-1.54,1.529,1.529,0,0,1,1.12.455,1.484,1.484,0,0,1,.455,1.085,1.554,1.554,0,0,1-1.575,1.575Z"/>
          <path class="cls-1" d="M269.041,312.033a1.977,1.977,0,0,1-1.628-.665,2.913,2.913,0,0,1-.542-1.89,3.551,3.551,0,0,1,.052-.559q.053-.315.088-.665l1.925-11.061h-2.661v-.245l3.08-1.085,2.311-3.779h.245l-.665,3.849h4.234v1.26H271l-1.681,9.695c-.047.328-.087.63-.122.911a5.983,5.983,0,0,0-.052.734,2.038,2.038,0,0,0,.262,1.19.92.92,0,0,0,.787.35,2.649,2.649,0,0,0,1.785-.944,8.644,8.644,0,0,0,1.715-2.766l.491.21a11.4,11.4,0,0,1-2.433,4.218A3.944,3.944,0,0,1,269.041,312.033Z"/>
          <path class="cls-1" d="M11.441,360.084a1.719,1.719,0,0,1-1.12-.3.827.827,0,0,1-.35-.612,1.878,1.878,0,0,1,.245-.736l.385-.805h.14l.56.315a2.7,2.7,0,0,0,.753.245,4.75,4.75,0,0,0,.822.07,2.773,2.773,0,0,0,2.415-1.75,16.1,16.1,0,0,0,1.435-5.179l2.135-14.141H16.026v-1.26h3.01l.21-1.4a9.856,9.856,0,0,1,.91-2.694,15.618,15.618,0,0,1,1.907-3.011,10.993,10.993,0,0,1,2.678-2.432,5.875,5.875,0,0,1,3.22-.963,1.624,1.624,0,0,1,.945.245q.6.315.6.665a1.055,1.055,0,0,1-.175.56l-.56,1.016h-.14l-.665-.281a5.082,5.082,0,0,0-1.995-.384,3.4,3.4,0,0,0-2.835,1.5,9.938,9.938,0,0,0-1.575,4.375l-.42,2.8h3.885v1.26h-4.1L18.9,350.738a12.362,12.362,0,0,1-.823,2.783,16.874,16.874,0,0,1-1.662,3.1,10.667,10.667,0,0,1-2.275,2.485A4.308,4.308,0,0,1,11.441,360.084Z"/>
          <path class="cls-1" d="M31.531,352.033a4.911,4.911,0,0,1-4.131-1.8,7.344,7.344,0,0,1-1.4-4.638,11.067,11.067,0,0,1,.63-3.71,11.314,11.314,0,0,1,1.732-3.2,8.583,8.583,0,0,1,2.608-2.256,6.489,6.489,0,0,1,3.219-.84,4.907,4.907,0,0,1,4.13,1.8,7.4,7.4,0,0,1,1.4,4.673,11.2,11.2,0,0,1-.577,3.483,11.35,11.35,0,0,1-1.664,3.237,8.727,8.727,0,0,1-2.589,2.362A6.452,6.452,0,0,1,31.531,352.033Zm.454-1.05a3.916,3.916,0,0,0,2.835-1.207,8.229,8.229,0,0,0,1.926-3.237,13.693,13.693,0,0,0,.7-4.481,7.916,7.916,0,0,0-.857-3.99,3.007,3.007,0,0,0-2.817-1.47,4.065,4.065,0,0,0-2.853,1.156,7.659,7.659,0,0,0-1.942,3.149,13.579,13.579,0,0,0-.7,4.516,8.066,8.066,0,0,0,.875,4.059A3.028,3.028,0,0,0,31.985,350.983Z"/>
          <path class="cls-1" d="M43.361,351.683l2.52-14.139-2.485-.736v-.28l4.305-.944h.14l-.28,4.059h.14a16.994,16.994,0,0,1,1.995-2.677,4.9,4.9,0,0,1,1.47-1.121,3.045,3.045,0,0,1,1.155-.261,1.857,1.857,0,0,1,1.085.314.9.9,0,0,1,.455.735.929.929,0,0,1-.1.42l-.665,1.26h-.14l-.455-.28a1.86,1.86,0,0,0-1.085-.315,2.9,2.9,0,0,0-1.89.77,13.688,13.688,0,0,0-2.275,2.9l-1.82,10.29Z"/>
          <path class="cls-1" d="M66.321,352.033a2.85,2.85,0,0,1-2.327-1.172,5.536,5.536,0,0,1-.928-3.482,12.4,12.4,0,0,1,.736-4.148,15.135,15.135,0,0,1,1.977-3.815,10.626,10.626,0,0,1,2.87-2.783,6.2,6.2,0,0,1,3.413-1.049,5.467,5.467,0,0,1,1.662.261,5.84,5.84,0,0,1,1.453.683l.944-.77h.525l-2.065,11.76a5.789,5.789,0,0,0-.122,1.943.594.594,0,0,0,.612.543q1.436,0,2.7-2.766l.455.176a10.456,10.456,0,0,1-2.083,3.534,3.208,3.208,0,0,1-2.222,1.085,1.505,1.505,0,0,1-1.453-.858,4.448,4.448,0,0,1-.087-2.711l.14-.736h-.106a18.1,18.1,0,0,1-3.08,3.2A4.866,4.866,0,0,1,66.321,352.033Zm-1.154-5.425q0,3.675,2.274,3.675a3.6,3.6,0,0,0,1.89-.577,9.048,9.048,0,0,0,1.8-1.47,21.728,21.728,0,0,0,1.628-1.908l1.4-8.19a5.032,5.032,0,0,0-1.277-1.049,3.411,3.411,0,0,0-1.7-.386,3.965,3.965,0,0,0-2.468.841,7.266,7.266,0,0,0-1.907,2.274A12.3,12.3,0,0,0,65.587,343,15.391,15.391,0,0,0,65.167,346.608Z"/>
          <path class="cls-1" d="M85.853,352.033a5.866,5.866,0,0,1-1.82-.3,6.065,6.065,0,0,1-1.61-.788l-1.33.91h-.245l4.305-24.5-2.415-.7v-.279l4.619-.946h.21l-2.519,14.385h.14a21.183,21.183,0,0,1,2.905-3.062,4.728,4.728,0,0,1,3.115-1.172,2.734,2.734,0,0,1,2.327,1.259,6.4,6.4,0,0,1,.893,3.71,12.964,12.964,0,0,1-.7,4.218,13.7,13.7,0,0,1-1.908,3.693,9.984,9.984,0,0,1-2.747,2.607A5.984,5.984,0,0,1,85.853,352.033Zm4.2-14.7a4.239,4.239,0,0,0-2.59,1.085,15.886,15.886,0,0,0-2.66,2.764l-1.4,8.12a4.656,4.656,0,0,0,1.662,1.278,4.417,4.417,0,0,0,1.663.333,4.073,4.073,0,0,0,2.8-1.191,8.184,8.184,0,0,0,2.065-3.36,15.316,15.316,0,0,0,.77-5.109,6.052,6.052,0,0,0-.56-2.976A1.888,1.888,0,0,0,90.053,337.334Z"/>
          <path class="cls-1" d="M103.143,352.033a4.908,4.908,0,0,1-4.131-1.8,7.339,7.339,0,0,1-1.4-4.638,11.067,11.067,0,0,1,.63-3.71,11.291,11.291,0,0,1,1.733-3.2,8.568,8.568,0,0,1,2.607-2.256,6.49,6.49,0,0,1,3.22-.84,4.91,4.91,0,0,1,4.13,1.8,7.406,7.406,0,0,1,1.4,4.673,11.167,11.167,0,0,1-.577,3.483,11.372,11.372,0,0,1-1.663,3.237,8.743,8.743,0,0,1-2.59,2.362A6.451,6.451,0,0,1,103.143,352.033Zm.454-1.05a3.92,3.92,0,0,0,2.835-1.207,8.228,8.228,0,0,0,1.925-3.237,13.693,13.693,0,0,0,.7-4.481,7.916,7.916,0,0,0-.858-3.99,3.007,3.007,0,0,0-2.817-1.47,4.067,4.067,0,0,0-2.853,1.156,7.67,7.67,0,0,0-1.942,3.149,13.58,13.58,0,0,0-.7,4.516,8.066,8.066,0,0,0,.875,4.059A3.027,3.027,0,0,0,103.6,350.983Z"/>
          <path class="cls-1" d="M117.982,352.033a2.643,2.643,0,0,1-2.134-.909,3.956,3.956,0,0,1-.771-2.625,6.088,6.088,0,0,1,.053-.788c.035-.268.075-.554.122-.858l1.681-9.309-2.451-.736v-.28l4.585-.944h.21l-1.924,11.2-.124.735a3.727,3.727,0,0,0-.051.6,2.689,2.689,0,0,0,.472,1.628,1.8,1.8,0,0,0,1.557.647,3.78,3.78,0,0,0,2.485-1.067,25.117,25.117,0,0,0,2.31-2.293l1.681-9.484-2.451-.736v-.28l4.621-.944h.209l-2.1,11.934a5.644,5.644,0,0,0-.123,1.925.62.62,0,0,0,.647.561,1.993,1.993,0,0,0,1.366-.7,6.711,6.711,0,0,0,1.294-2.065l.491.176a10.456,10.456,0,0,1-2.083,3.534,3.208,3.208,0,0,1-2.223,1.085,1.5,1.5,0,0,1-1.452-.875,4.55,4.55,0,0,1-.122-2.694l.034-.175h-.14a19.661,19.661,0,0,1-2.974,2.886A4.492,4.492,0,0,1,117.982,352.033Z"/>
          <path class="cls-1" d="M134.748,352.033a1.977,1.977,0,0,1-1.628-.665,2.913,2.913,0,0,1-.542-1.89,3.551,3.551,0,0,1,.052-.559q.053-.315.088-.665l1.925-11.061h-2.661v-.245l3.08-1.085,2.311-3.779h.245l-.665,3.849h4.235v1.26h-4.48l-1.681,9.695c-.047.328-.087.63-.122.911a5.983,5.983,0,0,0-.052.734,2.038,2.038,0,0,0,.262,1.19.92.92,0,0,0,.787.35,2.653,2.653,0,0,0,1.786-.944,8.661,8.661,0,0,0,1.714-2.766l.491.21a11.384,11.384,0,0,1-2.433,4.218A3.944,3.944,0,0,1,134.748,352.033Z"/>
          <path class="cls-1" d="M154.383,352.033a2.849,2.849,0,0,1-2.327-1.172,5.536,5.536,0,0,1-.928-3.482,12.4,12.4,0,0,1,.735-4.148,15.171,15.171,0,0,1,1.978-3.815,10.626,10.626,0,0,1,2.87-2.783,6.2,6.2,0,0,1,3.412-1.049,5.462,5.462,0,0,1,1.662.261,5.823,5.823,0,0,1,1.453.683l.945-.77h.525l-2.065,11.76a5.735,5.735,0,0,0-.122,1.943.594.594,0,0,0,.612.543q1.435,0,2.695-2.766l.455.176a10.423,10.423,0,0,1-2.083,3.534,3.2,3.2,0,0,1-2.221,1.085,1.507,1.507,0,0,1-1.454-.858,4.448,4.448,0,0,1-.087-2.711l.14-.736h-.1a18.1,18.1,0,0,1-3.08,3.2A4.866,4.866,0,0,1,154.383,352.033Zm-1.154-5.425q0,3.675,2.274,3.675a3.6,3.6,0,0,0,1.89-.577,9.071,9.071,0,0,0,1.8-1.47,21.391,21.391,0,0,0,1.628-1.908l1.4-8.19a5.053,5.053,0,0,0-1.278-1.049,3.408,3.408,0,0,0-1.7-.386,3.97,3.97,0,0,0-2.468.841,7.279,7.279,0,0,0-1.907,2.274A12.373,12.373,0,0,0,153.648,343,15.391,15.391,0,0,0,153.229,346.608Z"/>
          <path class="cls-1" d="M168.733,351.683l2.485-14.139-2.415-.736v-.28l4.2-.944h.175l-.244,3.779h.1a29.429,29.429,0,0,1,2.2-2.188,7.216,7.216,0,0,1,1.838-1.207,4.86,4.86,0,0,1,1.942-.384,2.851,2.851,0,0,1,2.573,1.346,5.319,5.319,0,0,1,.4,3.833l-1.225,6.755a5.77,5.77,0,0,0-.123,1.943.614.614,0,0,0,.648.543q1.4,0,2.66-2.766l.455.176a10.07,10.07,0,0,1-2.048,3.534,3.234,3.234,0,0,1-2.257,1.085,1.471,1.471,0,0,1-1.435-.858,4.721,4.721,0,0,1-.1-2.711l1.366-7.84a4.048,4.048,0,0,0-.21-2.4,1.894,1.894,0,0,0-1.926-1,3.466,3.466,0,0,0-1.75.508,10,10,0,0,0-1.715,1.277q-.84.771-1.609,1.576L170.8,351.683Z"/>
          <path class="cls-1" d="M197.608,351.683h-2.065l4.27-24.29-2.45-.735v-.279l4.656-.946h.21l-2.451,13.93h.07a29.429,29.429,0,0,1,2.2-2.188,7.251,7.251,0,0,1,1.838-1.207,4.857,4.857,0,0,1,1.942-.384,2.846,2.846,0,0,1,2.572,1.346,5.313,5.313,0,0,1,.4,3.833l-1.226,6.755a5.789,5.789,0,0,0-.122,1.943.612.612,0,0,0,.647.543q1.4,0,2.661-2.766l.454.176a10.664,10.664,0,0,1-2.065,3.534,3.179,3.179,0,0,1-2.24,1.085,1.47,1.47,0,0,1-1.435-.858,4.712,4.712,0,0,1-.105-2.711l1.365-7.84a4.032,4.032,0,0,0-.21-2.4,1.893,1.893,0,0,0-1.925-1,4.182,4.182,0,0,0-2.607,1.05,21.43,21.43,0,0,0-2.433,2.275Z"/>
          <path class="cls-1" d="M218.994,352.033a4.911,4.911,0,0,1-4.131-1.8,7.344,7.344,0,0,1-1.4-4.638,11.067,11.067,0,0,1,.63-3.71,11.314,11.314,0,0,1,1.732-3.2,8.583,8.583,0,0,1,2.608-2.256,6.489,6.489,0,0,1,3.219-.84,4.907,4.907,0,0,1,4.13,1.8,7.4,7.4,0,0,1,1.4,4.673,11.168,11.168,0,0,1-.578,3.483,11.322,11.322,0,0,1-1.663,3.237,8.739,8.739,0,0,1-2.589,2.362A6.454,6.454,0,0,1,218.994,352.033Zm.454-1.05a3.918,3.918,0,0,0,2.835-1.207,8.229,8.229,0,0,0,1.926-3.237,13.693,13.693,0,0,0,.7-4.481,7.916,7.916,0,0,0-.857-3.99,3.009,3.009,0,0,0-2.818-1.47,4.064,4.064,0,0,0-2.852,1.156,7.671,7.671,0,0,0-1.943,3.149,13.606,13.606,0,0,0-.7,4.516,8.066,8.066,0,0,0,.875,4.059A3.028,3.028,0,0,0,219.448,350.983Z"/>
          <path class="cls-1" d="M233.835,352.033a2.647,2.647,0,0,1-2.135-.909,3.962,3.962,0,0,1-.77-2.625,6.084,6.084,0,0,1,.052-.788c.036-.268.076-.554.122-.858l1.681-9.309-2.45-.736v-.28l4.585-.944h.21l-1.925,11.2-.123.735a3.733,3.733,0,0,0-.052.6,2.69,2.69,0,0,0,.473,1.628,1.8,1.8,0,0,0,1.557.647,3.782,3.782,0,0,0,2.485-1.067,25.106,25.106,0,0,0,2.309-2.293l1.681-9.484-2.45-.736v-.28l4.62-.944h.21l-2.1,11.934a5.644,5.644,0,0,0-.123,1.925.62.62,0,0,0,.648.561,1.993,1.993,0,0,0,1.365-.7A6.692,6.692,0,0,0,245,347.238l.49.176a10.423,10.423,0,0,1-2.083,3.534,3.2,3.2,0,0,1-2.222,1.085,1.5,1.5,0,0,1-1.453-.875,4.55,4.55,0,0,1-.122-2.694l.035-.175h-.14a19.706,19.706,0,0,1-2.975,2.886A4.49,4.49,0,0,1,233.835,352.033Z"/>
          <path class="cls-1" d="M248.221,351.683l2.519-14.139-2.485-.736v-.28l4.306-.944h.139l-.28,4.059h.141a16.87,16.87,0,0,1,2-2.677,4.883,4.883,0,0,1,1.469-1.121,3.045,3.045,0,0,1,1.156-.261,1.859,1.859,0,0,1,1.085.314.9.9,0,0,1,.455.735.918.918,0,0,1-.106.42l-.665,1.26h-.139l-.456-.28a1.857,1.857,0,0,0-1.084-.315,2.9,2.9,0,0,0-1.891.77,13.721,13.721,0,0,0-2.275,2.9l-1.82,10.29Z"/>
          <path class="cls-1" d="M259.7,351.858a1.4,1.4,0,0,1-1.138-.437,1.707,1.707,0,0,1-.368-1.138,2.136,2.136,0,0,1,.526-1.4,1.73,1.73,0,0,1,1.4-.629,1.372,1.372,0,0,1,1.137.455,1.721,1.721,0,0,1,.368,1.119,2.113,2.113,0,0,1-.525,1.418A1.754,1.754,0,0,1,259.7,351.858Z"/>
          <path class="cls-1" d="M264.181,333.938v-.63a5.751,5.751,0,0,0,2.66-1.4,3.02,3.02,0,0,0,.945-2.205,2.041,2.041,0,0,0-.245-.98,2.413,2.413,0,0,0-.84-.84l-.945-.629V326.9l.42-.77a1.492,1.492,0,0,1,.49-.56.981.981,0,0,1,.49-.14,1.814,1.814,0,0,1,.35.035,1.5,1.5,0,0,1,.42.175,3.96,3.96,0,0,1,1.19,1.225,3.483,3.483,0,0,1,.385,1.75,4.247,4.247,0,0,1-.595,2.03,6.445,6.445,0,0,1-1.785,1.995A7.368,7.368,0,0,1,264.181,333.938Zm6.125,0v-.63a5.751,5.751,0,0,0,2.66-1.4,3.02,3.02,0,0,0,.945-2.205,2.041,2.041,0,0,0-.245-.98,2.413,2.413,0,0,0-.84-.84l-.945-.629V326.9l.42-.77a1.492,1.492,0,0,1,.49-.56.981.981,0,0,1,.49-.14,1.814,1.814,0,0,1,.35.035,1.5,1.5,0,0,1,.42.175,3.96,3.96,0,0,1,1.19,1.225,3.483,3.483,0,0,1,.385,1.75,4.247,4.247,0,0,1-.595,2.03,6.445,6.445,0,0,1-1.785,1.995A7.368,7.368,0,0,1,270.306,333.938Z"/>
        </g>
        <g class="cls-2">
          <path class="cls-1" d="M221.752,25.78v1.75H233.63V52.021H209.139V27.714Q209.139,0,233.63,0V10.312q-6.262,1.014-9.069,4.741T221.752,25.78Zm41.71,0v1.75H275.34V52.021h-24.4V27.714Q250.94,0,275.34,0V10.312Q263.462,11.878,263.462,25.78Z"/>
        </g>
      </g>
    </g>
  </g>
</svg>
