<svg xmlns="http://www.w3.org/2000/svg" viewBox="0 0 152.546 32.779">
  <defs>
    <style>
      .cls-1 {
        fill: #f2f2f2;
      }
    </style>
  </defs>
  <g id="Layer_2" data-name="Layer 2">
    <g id="Layer_1-2" data-name="Layer 1">
      <g>
        <g>
          <path class="cls-1" d="M6.38,8.133a1.571,1.571,0,0,0-.549-1.22,4.645,4.645,0,0,0-1.948-.826A6.462,6.462,0,0,1,1.242,4.9,2.457,2.457,0,0,1,.294,2.923,2.592,2.592,0,0,1,1.316.838,4.036,4.036,0,0,1,3.963,0,3.939,3.939,0,0,1,6.75.96a2.834,2.834,0,0,1,1,2.227l-.015.043H6.358a1.976,1.976,0,0,0-.619-1.515,2.5,2.5,0,0,0-1.776-.579,2.485,2.485,0,0,0-1.651.487,1.583,1.583,0,0,0-.575,1.271,1.4,1.4,0,0,0,.622,1.161,5.923,5.923,0,0,0,2.022.816A5.763,5.763,0,0,1,6.944,6.1a2.632,2.632,0,0,1,.879,2.013,2.457,2.457,0,0,1-1.054,2.073,4.5,4.5,0,0,1-2.754.785A4.765,4.765,0,0,1,1.191,10.1,2.617,2.617,0,0,1,0,7.786l.015-.044H1.393A1.793,1.793,0,0,0,2.147,9.3a3.153,3.153,0,0,0,1.868.534,2.9,2.9,0,0,0,1.728-.459A1.454,1.454,0,0,0,6.38,8.133Z"/>
          <path class="cls-1" d="M17.406,7.4l.015.043a3.214,3.214,0,0,1-1.055,2.517A4.021,4.021,0,0,1,13.5,10.973,3.762,3.762,0,0,1,10.554,9.69,4.713,4.713,0,0,1,9.416,6.438v-1.9a4.729,4.729,0,0,1,1.138-3.255A3.758,3.758,0,0,1,13.5,0a4.135,4.135,0,0,1,2.878.964,3.18,3.18,0,0,1,1.04,2.552l-.015.045H16.022a2.385,2.385,0,0,0-.659-1.774,2.54,2.54,0,0,0-1.86-.651,2.274,2.274,0,0,0-1.927.973,3.959,3.959,0,0,0-.718,2.415v1.91a3.982,3.982,0,0,0,.718,2.429,2.272,2.272,0,0,0,1.927.974,2.539,2.539,0,0,0,1.86-.649,2.4,2.4,0,0,0,.659-1.79Z"/>
          <path class="cls-1" d="M20.7,6.2v4.621H19.254V.162h3.86a4.052,4.052,0,0,1,2.673.776,2.783,2.783,0,0,1,.923,2.255,2.413,2.413,0,0,1-.429,1.429,2.9,2.9,0,0,1-1.248.967,2.179,2.179,0,0,1,1.263.927A3.023,3.023,0,0,1,26.681,8.1v1a3.311,3.311,0,0,0,.11.894,1.342,1.342,0,0,0,.38.645v.175H25.685a1.192,1.192,0,0,1-.367-.732,6.124,6.124,0,0,1-.08-1V8.115a1.928,1.928,0,0,0-.5-1.39A1.789,1.789,0,0,0,23.378,6.2Zm0-1.135h2.27A2.687,2.687,0,0,0,24.729,4.6a1.769,1.769,0,0,0,.538-1.415,1.822,1.822,0,0,0-.524-1.393A2.314,2.314,0,0,0,23.114,1.3H20.7Z"/>
          <path class="cls-1" d="M37.057,6.438a4.554,4.554,0,0,1-1.212,3.246A4.123,4.123,0,0,1,32.7,10.973a3.9,3.9,0,0,1-3.035-1.289A4.648,4.648,0,0,1,28.5,6.438v-1.9A4.66,4.66,0,0,1,29.664,1.3,3.9,3.9,0,0,1,32.7,0a4.119,4.119,0,0,1,3.146,1.293,4.564,4.564,0,0,1,1.212,3.248ZM35.614,4.527a3.594,3.594,0,0,0-.791-2.4A2.635,2.635,0,0,0,32.7,1.188a2.441,2.441,0,0,0-2.01.937,3.721,3.721,0,0,0-.751,2.4V6.438a3.743,3.743,0,0,0,.751,2.417,2.442,2.442,0,0,0,2.01.938,2.641,2.641,0,0,0,2.128-.934,3.627,3.627,0,0,0,.787-2.421Z"/>
          <path class="cls-1" d="M40.547,9.684h5.046v1.134H39.1V.154h1.443Z"/>
          <path class="cls-1" d="M48.662,9.684h5.047v1.134h-6.49V.154h1.443Z"/>
          <path class="cls-1" d="M66.27,1.289H62.842v9.529H61.4V1.289h-3.42V.154H66.27Z"/>
          <path class="cls-1" d="M75.7,6.438a4.554,4.554,0,0,1-1.212,3.246,4.123,4.123,0,0,1-3.146,1.289,3.9,3.9,0,0,1-3.035-1.289,4.648,4.648,0,0,1-1.169-3.246v-1.9A4.66,4.66,0,0,1,68.305,1.3,3.9,3.9,0,0,1,71.34,0a4.119,4.119,0,0,1,3.146,1.293A4.564,4.564,0,0,1,75.7,4.541ZM74.255,4.527a3.594,3.594,0,0,0-.791-2.4,2.635,2.635,0,0,0-2.124-.937,2.443,2.443,0,0,0-2.01.937,3.721,3.721,0,0,0-.751,2.4V6.438a3.743,3.743,0,0,0,.751,2.417,2.443,2.443,0,0,0,2.01.938,2.641,2.641,0,0,0,2.128-.934,3.627,3.627,0,0,0,.787-2.421Z"/>
          <path class="cls-1" d="M89.116,7.4l.015.043a3.217,3.217,0,0,1-1.055,2.517,4.022,4.022,0,0,1-2.864,1.015A3.761,3.761,0,0,1,82.264,9.69a4.713,4.713,0,0,1-1.138-3.252v-1.9a4.729,4.729,0,0,1,1.138-3.255A3.757,3.757,0,0,1,85.212,0a4.136,4.136,0,0,1,2.879.964,3.184,3.184,0,0,1,1.04,2.552l-.015.045H87.732a2.385,2.385,0,0,0-.659-1.774,2.541,2.541,0,0,0-1.861-.651,2.273,2.273,0,0,0-1.926.973,3.959,3.959,0,0,0-.718,2.415v1.91a3.982,3.982,0,0,0,.718,2.429,2.272,2.272,0,0,0,1.926.974,2.54,2.54,0,0,0,1.861-.649,2.4,2.4,0,0,0,.659-1.79Z"/>
          <path class="cls-1" d="M99.217,6.438a4.554,4.554,0,0,1-1.212,3.246,4.125,4.125,0,0,1-3.146,1.289,3.909,3.909,0,0,1-3.036-1.289,4.652,4.652,0,0,1-1.168-3.246v-1.9A4.664,4.664,0,0,1,91.823,1.3,3.9,3.9,0,0,1,94.859,0a4.121,4.121,0,0,1,3.146,1.293,4.564,4.564,0,0,1,1.212,3.248ZM97.774,4.527a3.6,3.6,0,0,0-.791-2.4,2.635,2.635,0,0,0-2.124-.937,2.441,2.441,0,0,0-2.01.937,3.721,3.721,0,0,0-.751,2.4V6.438a3.743,3.743,0,0,0,.751,2.417,2.442,2.442,0,0,0,2.01.938,2.637,2.637,0,0,0,2.127-.934,3.627,3.627,0,0,0,.788-2.421Z"/>
          <path class="cls-1" d="M109.327,10.818h-1.443L102.75,2.571l-.044.015v8.232h-1.443V.154h1.443l5.134,8.233.044-.015V.154h1.443Z"/>
          <path class="cls-1" d="M119.222,1.289h-3.428v9.529h-1.443V1.289h-3.42V.154h8.291Z"/>
          <path class="cls-1" d="M122.313,10.818h-1.451V.154h1.451Z"/>
          <path class="cls-1" d="M132.856,10.818h-1.443l-5.135-8.247-.044.015v8.232h-1.442V.154h1.442l5.135,8.233.044-.015V.154h1.443Z"/>
          <path class="cls-1" d="M143.189.154V7.383a3.238,3.238,0,0,1-1.132,2.666,4.528,4.528,0,0,1-2.955.924,4.265,4.265,0,0,1-2.852-.927,3.292,3.292,0,0,1-1.1-2.663V.154H136.6V7.378a2.352,2.352,0,0,0,.689,1.833,2.6,2.6,0,0,0,1.816.626,2.838,2.838,0,0,0,1.915-.626,2.282,2.282,0,0,0,.729-1.833V.154Z"/>
          <path class="cls-1" d="M151.8,5.875h-4.885V9.684h5.632v1.134h-7.075V.154h6.994V1.289h-5.551v3.45H151.8Z"/>
        </g>
        <polygon class="cls-1" points="68.518 25.264 76.033 32.779 83.656 25.157 68.518 25.264"/>
      </g>
    </g>
  </g>
</svg>
