<svg xmlns="http://www.w3.org/2000/svg" viewBox="0 0 58.265 47.191">
  <defs>
    <style>
      .cls-1 {
        fill: #191919;
        stroke: #e4e4e4;
        stroke-miterlimit: 10;
        stroke-width: 0.25px;
      }

      .cls-2 {
        fill: #e4e4e4;
      }
    </style>
  </defs>
  <g id="Layer_2" data-name="Layer 2">
    <g id="Interface">
      <g>
        <rect class="cls-1" x="0.125" y="0.125" width="58.015" height="46.941"/>
        <g>
          <path class="cls-2" d="M15.3,36.135v-.64l3.6-1.6V13.615l-7,3.52v-1.4l9.6-6h.8V33.9l3.2,1.6v.64Z"/>
          <path class="cls-2" d="M38.539,36.535a7.147,7.147,0,0,1-6.42-3.64q-2.261-3.641-2.26-9.96a20.547,20.547,0,0,1,1.1-6.98,11.767,11.767,0,0,1,3.059-4.84,6.529,6.529,0,0,1,4.521-1.78,7.151,7.151,0,0,1,6.42,3.64q2.259,3.64,2.26,9.96a20.216,20.216,0,0,1-1.121,6.98,12.031,12.031,0,0,1-3.059,4.84A6.453,6.453,0,0,1,38.539,36.535Zm.84-1.88a2.667,2.667,0,0,0,2.24-1.36,10.6,10.6,0,0,0,1.42-3.74,26.313,26.313,0,0,0,.5-5.38,25.861,25.861,0,0,0-1.42-9.52q-1.421-3.48-4.26-3.48a2.792,2.792,0,0,0-2.32,1.36,10.31,10.31,0,0,0-1.481,3.72,25.07,25.07,0,0,0-.519,5.36A25.345,25.345,0,0,0,35,31.155Q36.459,34.656,39.379,34.655Z"/>
        </g>
      </g>
    </g>
  </g>
</svg>
