<svg xmlns="http://www.w3.org/2000/svg" viewBox="0 0 58.265 47.191">
  <defs>
    <style>
      .cls-1 {
        fill: #191919;
        stroke: #e4e4e4;
        stroke-miterlimit: 10;
        stroke-width: 0.25px;
      }

      .cls-2 {
        fill: #e4e4e4;
      }
    </style>
  </defs>
  <g id="Layer_2" data-name="Layer 2">
    <g id="Interface">
      <g>
        <rect class="cls-1" x="0.125" y="0.125" width="58.015" height="46.941"/>
        <g>
          <path class="cls-2" d="M15.583,36.135v-.64l3.6-1.6V13.615l-7,3.52v-1.4l9.6-6h.8V33.9l3.2,1.6v.64Z"/>
          <path class="cls-2" d="M38.015,36.535a9.9,9.9,0,0,1-6.2-1.84q-2.241-1.68-2.241-3.36,0-.84.361-1.06a2.113,2.113,0,0,1,1.08-.22h1.84l.279.28v1.32a2.655,2.655,0,0,0,1.2,2.18,6.293,6.293,0,0,0,3.76.9,5.062,5.062,0,0,0,3.92-1.52,5.619,5.619,0,0,0,1.4-3.96,6.143,6.143,0,0,0-1.439-4.3q-1.44-1.579-5.2-1.58H34.414v-1.76h1.08a7.251,7.251,0,0,0,4.7-1.5,5.07,5.07,0,0,0,1.86-4.18,5.131,5.131,0,0,0-1.1-3.66,4.1,4.1,0,0,0-3.1-1.14,4.064,4.064,0,0,0-2.84.98,3.32,3.32,0,0,0-1.08,2.58v1.44l-.321.32H31.935a2.261,2.261,0,0,1-1.18-.24q-.381-.24-.38-1.16a3.841,3.841,0,0,1,.7-2.08,6.466,6.466,0,0,1,2.181-1.96,13.012,13.012,0,0,1,2.58-1.26,8.929,8.929,0,0,1,2.9-.42,7.923,7.923,0,0,1,3.7.84,6.637,6.637,0,0,1,2.559,2.28,5.729,5.729,0,0,1,.941,3.2,5.422,5.422,0,0,1-1.56,3.74,8.626,8.626,0,0,1-4.241,2.42,8.937,8.937,0,0,1,5.4,2.52,6.833,6.833,0,0,1,1.8,4.8,5.892,5.892,0,0,1-1.28,3.64,9.424,9.424,0,0,1-3.38,2.72A10.361,10.361,0,0,1,38.015,36.535Z"/>
        </g>
      </g>
    </g>
  </g>
</svg>
