<svg xmlns="http://www.w3.org/2000/svg" viewBox="0 0 58.265 47.191">
  <defs>
    <style>
      .cls-1 {
        fill: #191919;
        stroke: #e4e4e4;
        stroke-miterlimit: 10;
        stroke-width: 0.25px;
      }

      .cls-2 {
        fill: #e4e4e4;
      }
    </style>
  </defs>
  <g id="Layer_2" data-name="Layer 2">
    <g id="Interface">
      <g>
        <rect class="cls-1" x="0.125" y="0.125" width="58.015" height="46.941"/>
        <g>
          <path class="cls-2" d="M15.625,36.135v-.64l3.6-1.6V13.615l-7,3.52v-1.4l9.6-6h.8V33.9l3.2,1.6v.64Z"/>
          <path class="cls-2" d="M38.412,36.535a8.238,8.238,0,0,1-4.579-1.28,8.507,8.507,0,0,1-3.06-3.48,11.184,11.184,0,0,1-1.08-5,15.929,15.929,0,0,1,1.859-7.66,17.733,17.733,0,0,1,5.3-5.96,25.374,25.374,0,0,1,8.16-3.82V10.5a16.418,16.418,0,0,0-7.819,5.08,15.731,15.731,0,0,0-3.541,8.32,8.34,8.34,0,0,1,2.681-2.38,7.373,7.373,0,0,1,3.679-.9,6.882,6.882,0,0,1,3.721,1,6.636,6.636,0,0,1,2.46,2.74,8.78,8.78,0,0,1,.859,3.94,8.618,8.618,0,0,1-.96,3.94,7.776,7.776,0,0,1-2.859,3.1A8.884,8.884,0,0,1,38.412,36.535Zm-4.92-10.12a13.689,13.689,0,0,0,.7,4.82,5.62,5.62,0,0,0,1.839,2.64,4.13,4.13,0,0,0,2.46.82,4.452,4.452,0,0,0,2.721-.8,4.947,4.947,0,0,0,1.62-2.06,6.679,6.679,0,0,0,.539-2.66q0-5.88-4.92-5.88a5.834,5.834,0,0,0-4.96,2.68Z"/>
        </g>
      </g>
    </g>
  </g>
</svg>
