<svg xmlns="http://www.w3.org/2000/svg" viewBox="0 0 58.265 47.191">
  <defs>
    <style>
      .cls-1 {
        fill: #191919;
        stroke: #e4e4e4;
        stroke-miterlimit: 10;
        stroke-width: 0.25px;
      }

      .cls-2 {
        fill: #e4e4e4;
      }
    </style>
  </defs>
  <g id="Layer_2" data-name="Layer 2">
    <g id="Interface">
      <g>
        <rect class="cls-1" x="0.125" y="0.125" width="58.015" height="46.941"/>
        <g>
          <path class="cls-2" d="M15.45,36.135v-.64l3.6-1.6V13.615l-7,3.52v-1.4l9.6-6h.8V33.9l3.2,1.6v.64Z"/>
          <path class="cls-2" d="M38.466,36.535a11.212,11.212,0,0,1-4.16-.76,7.641,7.641,0,0,1-3.1-2.16,4.934,4.934,0,0,1-1.18-3.28,6.71,6.71,0,0,1,.46-2.46,7.421,7.421,0,0,1,1.64-2.4,17.057,17.057,0,0,1,3.34-2.54,12.483,12.483,0,0,1-3.7-3.08,6.153,6.153,0,0,1-1.06-3.68,5.707,5.707,0,0,1,1.12-3.4,8.246,8.246,0,0,1,2.9-2.5,7.909,7.909,0,0,1,3.74-.94,8.349,8.349,0,0,1,3.82.88,7.28,7.28,0,0,1,2.78,2.4,5.953,5.953,0,0,1,1.04,3.44,4.306,4.306,0,0,1-1.4,3.06,15.637,15.637,0,0,1-3.8,2.7,17.725,17.725,0,0,1,4.4,3.36,6.017,6.017,0,0,1,1.44,4.12,6.378,6.378,0,0,1-.76,3.16,6.934,6.934,0,0,1-2,2.26,9.68,9.68,0,0,1-5.52,1.82Zm-4.8-7.12a5.518,5.518,0,0,0,1.36,3.98,4.751,4.751,0,0,0,3.6,1.42,5.045,5.045,0,0,0,3.52-1.16,4.15,4.15,0,0,0,1.28-3.24,4.243,4.243,0,0,0-.82-2.64,8.35,8.35,0,0,0-2.32-2q-1.5-.919-3.5-2.04a10.118,10.118,0,0,0-2.02,1.86,4.744,4.744,0,0,0-.88,1.76A8.7,8.7,0,0,0,33.666,29.415Zm.56-14.48a5.055,5.055,0,0,0,.4,2.04,5.313,5.313,0,0,0,1.52,1.86,22.2,22.2,0,0,0,3.24,2.14,8.64,8.64,0,0,0,2.38-2.02,4.127,4.127,0,0,0,.86-2.62,5.44,5.44,0,0,0-1.22-3.88,4.347,4.347,0,0,0-3.3-1.28,4,4,0,0,0-2.76,1A3.51,3.51,0,0,0,34.226,14.935Z"/>
        </g>
      </g>
    </g>
  </g>
</svg>
