<svg xmlns="http://www.w3.org/2000/svg" viewBox="0 0 58.265 47.191">
  <defs>
    <style>
      .cls-1 {
        fill: #191919;
        stroke: #e4e4e4;
        stroke-miterlimit: 10;
        stroke-width: 0.25px;
      }

      .cls-2 {
        fill: #e4e4e4;
      }
    </style>
  </defs>
  <g id="Layer_2" data-name="Layer 2">
    <g id="Interface">
      <g>
        <rect class="cls-1" x="0.125" y="0.125" width="58.015" height="46.941"/>
        <g>
          <path class="cls-2" d="M10.284,36.135v-1q3.48-4,5.721-6.68t3.5-4.46a20.58,20.58,0,0,0,1.839-3.02,7.993,7.993,0,0,0,.721-2.26A16.6,16.6,0,0,0,22.2,16.5a5.555,5.555,0,0,0-1.28-3.86,4.048,4.048,0,0,0-3.12-1.42,4.38,4.38,0,0,0-3.2,1.1,4.438,4.438,0,0,0-1.12,3.3v1.8l-.2.28h-1.84a2.1,2.1,0,0,1-1.2-.28q-.4-.279-.4-1.4a4.345,4.345,0,0,1,.62-2.14,6.058,6.058,0,0,1,1.9-1.98q1.04-.72,1.98-1.3a8.889,8.889,0,0,1,2.04-.92,9.114,9.114,0,0,1,2.661-.34,6.832,6.832,0,0,1,3.619.96,7.092,7.092,0,0,1,2.5,2.56,7.019,7.019,0,0,1,.92,3.56,8.615,8.615,0,0,1-.32,2.42A8.825,8.825,0,0,1,24.7,21.1a26,26,0,0,1-2.04,2.7q-1.3,1.54-3.28,3.72t-4.74,5.34h9.4l2-3.88h.639l-.4,7.16Z"/>
          <path class="cls-2" d="M39.512,36.535a7.149,7.149,0,0,1-6.42-3.64q-2.259-3.639-2.259-9.96a20.572,20.572,0,0,1,1.1-6.98,11.779,11.779,0,0,1,3.06-4.84,6.526,6.526,0,0,1,4.52-1.78,7.15,7.15,0,0,1,6.42,3.64q2.26,3.64,2.261,9.96a20.24,20.24,0,0,1-1.121,6.98,12.022,12.022,0,0,1-3.06,4.84A6.45,6.45,0,0,1,39.512,36.535Zm.841-1.88a2.664,2.664,0,0,0,2.239-1.36,10.573,10.573,0,0,0,1.42-3.74,26.306,26.306,0,0,0,.5-5.38,25.84,25.84,0,0,0-1.42-9.52q-1.419-3.48-4.259-3.48a2.793,2.793,0,0,0-2.321,1.36,10.328,10.328,0,0,0-1.48,3.72,25.073,25.073,0,0,0-.52,5.36,25.365,25.365,0,0,0,1.46,9.54Q37.432,34.656,40.353,34.655Z"/>
        </g>
      </g>
    </g>
  </g>
</svg>
