<svg xmlns="http://www.w3.org/2000/svg" viewBox="0 0 600.084 660">
  <defs>
    <style>
      .cls-1 {
        fill: #212121;
      }
    </style>
  </defs>
  <g id="Layer_2" data-name="Layer 2">
    <g id="Opening_interview" data-name="Opening interview">
      <path class="cls-1" d="M592.85,653.5c4.571,7.151,3.022,1.365-1.266,0-4.722,1.673-4.736-7.866-3.7,0-3.051,1.517,2.1-1.3-6,0,1.078-6-13.246,7.785-8.164,0-1.616,4.7-11.021-.419-10.185,0-2.16-.321-8.38,2.651-12.066,0-.339,7.514-11.7,9.753-13.808,0-4.421,7.13-5.271-1-15.411,0-7.127,7.449-17.155-.816-16.874,0-3.928-14.407-8.318-5.659-18.2,0-6.4,4.108-12.479-10.651-19.382,0-18.839,2.195-14.017-3.72-20.428,0-9.95-4.9-14.492,1.545-21.333,0-10.706.773-7.411-.181-22.1,0-7.126,1.658-10.259,6.11-22.727,0-12.2,3.422-11.876-1.5-23.215,0-12.11-1.979-16.827-.189-23.563,0-9.813.829-19.949-3.049-23.773,0-8.767,3.131-15.345.981-23.842,0-8.92,1.37-21.992,2.152-23.772,0-5.208,7.338-10.679,1.094-23.563,0-14.277,1.667-15.457-1.109-23.215,0,1.724-1.466-14.754,4.631-22.727,0-5.482-3.973-6.854,4.727-22.1,0-7.761-3.836-13.109-3.62-21.333,0-4.734-1.457-14.671-2.192-20.428,0-3.371,4.961-12.655.265-19.382,0-6.592-1.878-15.633.958-18.2,0-9.284.627-11.139-2.983-16.874,0-1.643-1.67-6.718-1.687-15.411,0-2.595,1.428-4.041,3.409-5.842,4.042-1.468,1.276-3.794.179-7.966-4.042-.971-2.261-4.307-3.4-5.162-3.258-2.558.846-3.779,2.6-6.9,3.258-3.337-.5-4.591.461-5.136-.5-.968.19-3.578,1.9-5.049.5-1.472-2.08-2.871-2.611-4.775-1.69-1.807-2.738-4.007-1.284-3.389,1.69-4.886-3.27-4.722,6.488-6,0-2.94,7.458-2.961-4.288-3.7,0-2.1,4.546-.335-.932-1.266,0,4.933-1.947-.775,4.7,0-1.136.293-4.9,1.027,5.715,0-3.333-.392-3.162-.363-.722,0-5.417-2.075-2.421-3.812-2.875-1.668-3.485-1.038,1.142.739-1.189,1.668-3.9-1.756-.884-3.909-5.8-1.531-5.339-.185-1.871-.478-5.082,1.531-3.908.2-1.641-3.463-.629.449-6.241-.073.15-3.655-2.432-.449-4.753-2.627-5.49-.837-2.292,0-6.117,1.094-.708-1.081-5.542,0-6.511,3.1-3.348,1.963-4.485.615-4.606.572.419,3.275-5.1-.615-7.985.344-2.623,2.977-9.009,1.667-9.432,3.605-3.439-1.382-4.16-1.667-4.3,4.645-2.688,4.364-6.231,1.3-8.8.066-6.287-4.025-6.266-1.3-5.984-2.316-1.713-1.412-3.546-1.888-6.151,3.036-2.383-.6-6.3,1.888-9.608.411,1.73-1.141-3.7,2.815-9.189,1.017-2.9.184-5.261-2.815-7.466.686-5.355,3.06-6.514.006-9.916,1.644-.9-.235-4.127-.006-7.552,1.845.309,3.158-2.028,2.35-7.541.7-2.811-2.236-8.237-2.35-10.661,2.311-2.6,2.081-6.011,1.332-9.892,1.381-3.942-1.162-6.038-1.332-8.963.8-4.3.519-9.472.962-13.06-.56-3.017-.109-6.94-.962-6.366-2.074-9.4-1.738-10.768-1.731-12.464s.591-2.557,1.731-7.454c.321-12.137-2.878-19.847,0-20.329-1-8.165-9.841-16.28,0-20.658,4.692-8.847-4.554-7.7,0-20.908-2.191-12.2,7.679-17.02,0-21.076-7.477-7.522,5.917-16.121,0-21.164.875-8.1,7.114-8.923,0-21.171,3.161-6.864-.608-17.466,0-21.1,1.484-7.422-2.074-13.926,0-20.943,3.007-10.712,2.353-14.643,0-20.708-1.913-7.713-1.486-15.549,0-20.393,3.268-11.845-3.068-13.756,0-20-.325-12.2,3.9-16.077,0-19.519-.935-8.112-4.294-14.627,0-18.962,1.461-6.082,4.166-15.934,0-18.323-.37-12.1.254-14.01,0-17.6,1.977-.357,2-17.486,0-16.8.88-6.852,2.557-13,0-15.924.352-6.039,4.815-14.971,0-14.962.347-1.332,2.543-12.63,0-13.92-4.352,2.3.176-13.853,0-12.8-5.106-1.549,3.259-8.142,0-11.594.867-12.272-4.846.132,0-10.31-4-3.741,2.889-5.862,0-8.946-1.833,4.042,1.185-21.021,0-7.5,6.11-7.7-2.425-2.232,0-5.973-4.633-1.335-4.173,3.108,0-4.367-4.981-4.48.642-5.4,0-2.679,3.569-2.787,1.654-8.2,0-.911-4.868,5.945-3.4,1.246,1.266,0-3.611.7-.892.583,3.705,0-5.559,6.246,6.97,4.75,6,0-.759-4.5,10.2-4.378,8.164,0,2.472-8.6,4.076-.1,10.185,0C33.1,15.972,41.941,8.144,46,6.43c.23-5.637,8.16-4.646,13.808,0-4.364,2.96,15.591,4.515,15.411,0,12.848-10.518,2.627,2.268,16.874,0,12.556-.035,14.7.8,18.2,0,10.4-2.966,21.757,5.69,19.382,0,4.548-3.757,5.232-6.193,20.428,0-.943-3.593,21.923,7.672,21.333,0-2.667,9.63,16.323,2.648,22.1,0-1.277,1.448,21.174-5.793,22.727,0,11.689,1.03,6.9,1.051,23.215,0,11.474-1.645,12.161,2.261,23.563,0,10.844-3.844,18.585,1.867,23.772,0,12.022,3.612,22.576-2.669,23.842,0,8.968,1.546,8.688-.123,23.773,0,1.794-7.747,14.094-9.362,23.563,0,4.947-3.238,13.952,2.917,23.215,0,5.557,4.657,19.948.169,22.727,0-.879-7.895,21.155-.222,22.1,0,4.348,3.253,19.177,2.968,21.333,0,1.009,1.025,20.647-4,20.428,0,3.286,5.12,13.726,6.485,19.382,0,9.329-.548,9.013,1.015,18.2,0,7.651-1.9,8.5,1.078,16.874,0,3.21-4.751,8.283,9.211,15.411,0,4.142-.75,12.1,4.586,13.808,0,13.089-7.481,10.722-3.553,12.066,0,11.039,3.207,9.618-3.732,10.185,0,9.1-1.67,6.78,15.114,8.164,0,3.444-.262,13.7,1,6,0,6.962,4.849,5.971-4.564,3.7,0,2.53-.843-1.352-4.016,1.266,0-3.964-2.369,3.264-3.917,0,1.136-4.751,1.015,3.162-9.979,0,3.333-1.421-6.125.605,4.789,0,5.417,2.569,1.034,12.61.943,3.463,1.091,3.828-3.535,1.764-1.834-3.463,6.3,6.977.77,3.3,7.221-.864,4.556,5.031,3.06-2.74,4.982.864,4.691,1.11,5.074,10-1.65,3.621.69-3.511,2.5-3.394,4.444-3.621,10.3-10.807,9.069-3.484,9.413-3.482,7.592-1.9,8.016,2.636,5.925,3.482,5.036-4.108-3.8.486-1.269.165,5.629,1.077-.111-.649,9.2-.165,8.519.415,6.847,1.543,5.58,1.807,8.471.617,6.844-1.837,7.5-1.807,7.086-2.394-2.139-1.257,1.308-.151,5.867,1.577,4.473,4.74,5.676.151,10.986,3.584,4.537,3.423,8.136,1.813,8.574-3.019,4.359-3.65,3.972-1.813,9.461.838,3.311-.468,7.1.925,9.591-.606,3.224-1.522,6.436-.925,9.515,5.67,6.426-5.372,8.5,0,20.063,3,6.824-1.889,17.337,0,20.909,6.218,6.483,2.513,20.654,0,21.64,2.54,9.353.278,16.349,0,22.26-2.827,10.522,4.858,17.243,0,22.768,3.3,21.323.058,11.284,0,23.161-2.786,7.854-1.571,14.907,0,23.443,5.772,8.916,1.9,23.846,0,23.613-5.787,13.522-16.465,22.481,0,23.668-1.155,6.521.124,15.393,0,23.612.6,11.509,1.57,14.044,0,23.444.166,5.431,3.7,15.462,0,23.161-3.474,11.056,3.8,12.218,0,22.768,8.806,14.336,1.749,9.415,0,22.26-1.789,16.623,2.67,17.676,0,21.64.088-.378-3.459,15.284,0,20.909,8.765,5.7,4.062,18.774,0,20.063-7.058,5.989-1.528,18.384,0,19.106-2.476,10.931.684,12.825,0,18.035-2.126,1.287,2.334,23.543,0,16.853,3.56,7.376-2.508,10.388,0,15.557-.192,2.538-1.574,9.407,0,14.148,1.028,6.11,2.5.934,0,12.628-.184,9.706,9.371,13.413,0,10.994,1.139,7.639,4.8,3.169,0,9.247,3.927-6.182,3.793,4.344,0,7.389,3.721,6.879,5.7,6.879,0,5.417,8.821-2-2.185.674,0,3.333C589.43,653.344,596.537,657.474,592.85,653.5Z"/>
    </g>
  </g>
</svg>
