<svg xmlns="http://www.w3.org/2000/svg" viewBox="0 0 58.265 47.191">
  <defs>
    <style>
      .cls-1 {
        fill: #191919;
        stroke: #e4e4e4;
        stroke-miterlimit: 10;
        stroke-width: 0.25px;
      }

      .cls-2 {
        fill: #e4e4e4;
      }
    </style>
  </defs>
  <g id="Layer_2" data-name="Layer 2">
    <g id="Interface">
      <g>
        <rect class="cls-1" x="0.125" y="0.125" width="58.015" height="46.941"/>
        <g>
          <path class="cls-2" d="M15.247,36.135v-.64l3.6-1.6V13.615l-7,3.52v-1.4l9.6-6h.8V33.9l3.2,1.6v.64Z"/>
          <path class="cls-2" d="M30.671,36.135v-1q3.48-4,5.719-6.68T39.89,24a20.512,20.512,0,0,0,1.84-3.02,8,8,0,0,0,.721-2.26,16.427,16.427,0,0,0,.14-2.22,5.55,5.55,0,0,0-1.281-3.86,4.042,4.042,0,0,0-3.119-1.42,4.376,4.376,0,0,0-3.2,1.1,4.432,4.432,0,0,0-1.12,3.3v1.8l-.2.28h-1.84a2.093,2.093,0,0,1-1.2-.28q-.4-.279-.4-1.4a4.356,4.356,0,0,1,.62-2.14,6.062,6.062,0,0,1,1.9-1.98q1.04-.72,1.979-1.3a8.889,8.889,0,0,1,2.04-.92,9.114,9.114,0,0,1,2.661-.34,6.833,6.833,0,0,1,3.62.96,7.092,7.092,0,0,1,2.5,2.56,7.019,7.019,0,0,1,.92,3.56,8.652,8.652,0,0,1-.32,2.42,8.825,8.825,0,0,1-1.06,2.26,26.139,26.139,0,0,1-2.04,2.7q-1.3,1.54-3.281,3.72t-4.739,5.34h9.4l2-3.88h.64l-.4,7.16Z"/>
        </g>
      </g>
    </g>
  </g>
</svg>
