<svg xmlns="http://www.w3.org/2000/svg" viewBox="0 0 58.265 47.191">
  <defs>
    <style>
      .cls-1 {
        fill: #191919;
        stroke: #e4e4e4;
        stroke-miterlimit: 10;
        stroke-width: 0.25px;
      }

      .cls-2 {
        fill: #e4e4e4;
      }
    </style>
  </defs>
  <g id="Layer_2" data-name="Layer 2">
    <g id="Interface">
      <g>
        <rect class="cls-1" x="0.125" y="0.125" width="58.015" height="46.941"/>
        <g>
          <path class="cls-2" d="M15.4,36.135v-.64L19,33.9V13.615l-7,3.52v-1.4l9.6-6h.8V33.9l3.2,1.6v.64Z"/>
          <path class="cls-2" d="M36.194,36.535q-3.959,0-5.239-1.84a1.165,1.165,0,0,1,.4-1.88l1.4-1.08h.4l.4.68a4.5,4.5,0,0,0,1.619,1.54,5.2,5.2,0,0,0,2.661.62,5.671,5.671,0,0,0,4.14-1.68,6.121,6.121,0,0,0,1.7-4.56,7.006,7.006,0,0,0-.7-3.06,5.37,5.37,0,0,0-2.42-2.38,10.309,10.309,0,0,0-4.8-.92,24.917,24.917,0,0,0-3.88.36V9.735H44.634v3.08H33.8v6.12q1.279-.12,2.359-.12a13.418,13.418,0,0,1,6.2,1.2,7.517,7.517,0,0,1,3.259,3.02,7.868,7.868,0,0,1,.98,3.78A9.7,9.7,0,0,1,45.255,32a8.969,8.969,0,0,1-3.681,3.36A11.8,11.8,0,0,1,36.194,36.535Z"/>
        </g>
      </g>
    </g>
  </g>
</svg>
