<svg xmlns="http://www.w3.org/2000/svg" viewBox="0 0 58.265 47.191">
  <defs>
    <style>
      .cls-1 {
        fill: #191919;
        stroke: #e4e4e4;
        stroke-miterlimit: 10;
        stroke-width: 0.25px;
      }

      .cls-2 {
        fill: #e4e4e4;
      }
    </style>
  </defs>
  <g id="Layer_2" data-name="Layer 2">
    <g id="Interface">
      <g>
        <rect class="cls-1" x="0.125" y="0.125" width="58.015" height="46.941"/>
        <g>
          <path class="cls-2" d="M15.548,36.135v-.64l3.6-1.6V13.615l-7,3.52v-1.4l9.6-6h.8V33.9l3.2,1.6v.64Z"/>
          <path class="cls-2" d="M31.528,36.535v-1.16a16.422,16.422,0,0,0,7.821-5.08,15.738,15.738,0,0,0,3.54-8.32,8.346,8.346,0,0,1-2.68,2.38,7.381,7.381,0,0,1-3.681.9,6.838,6.838,0,0,1-3.739-1,6.653,6.653,0,0,1-2.44-2.74,8.765,8.765,0,0,1-.861-3.94,8.647,8.647,0,0,1,.96-3.94,7.733,7.733,0,0,1,2.881-3.1,8.9,8.9,0,0,1,4.8-1.2,8.226,8.226,0,0,1,4.6,1.28,8.591,8.591,0,0,1,3.04,3.48,11.214,11.214,0,0,1,1.08,5,15.907,15.907,0,0,1-1.861,7.66,17.689,17.689,0,0,1-5.3,5.96A25.359,25.359,0,0,1,31.528,36.535ZM33.169,16.7q0,5.88,4.919,5.88a5.834,5.834,0,0,0,4.96-2.68v-.44a13.721,13.721,0,0,0-.7-4.82A5.71,5.71,0,0,0,40.528,12a4.1,4.1,0,0,0-2.48-.82,4.467,4.467,0,0,0-2.7.8,4.866,4.866,0,0,0-1.64,2.06A6.683,6.683,0,0,0,33.169,16.7Z"/>
        </g>
      </g>
    </g>
  </g>
</svg>
