<svg xmlns="http://www.w3.org/2000/svg" viewBox="0 0 58.265 47.191">
  <defs>
    <style>
      .cls-1 {
        fill: #191919;
        stroke: #e4e4e4;
        stroke-miterlimit: 10;
        stroke-width: 0.25px;
      }

      .cls-2 {
        fill: #e4e4e4;
      }
    </style>
  </defs>
  <g id="Layer_2" data-name="Layer 2">
    <g id="Interface">
      <g>
        <rect class="cls-1" x="0.125" y="0.125" width="58.015" height="46.941"/>
        <g>
          <path class="cls-2" d="M10.963,36.135v-1q3.479-4,5.719-6.68t3.5-4.46a20.6,20.6,0,0,0,1.84-3.02,7.956,7.956,0,0,0,.72-2.26,16.266,16.266,0,0,0,.14-2.22,5.55,5.55,0,0,0-1.28-3.86,4.045,4.045,0,0,0-3.119-1.42,4.377,4.377,0,0,0-3.2,1.1,4.434,4.434,0,0,0-1.12,3.3v1.8l-.2.28H12.122a2.1,2.1,0,0,1-1.2-.28q-.4-.279-.4-1.4a4.356,4.356,0,0,1,.62-2.14,6.058,6.058,0,0,1,1.9-1.98q1.039-.72,1.98-1.3a8.889,8.889,0,0,1,2.04-.92,9.111,9.111,0,0,1,2.66-.34,6.831,6.831,0,0,1,3.62.96,7.047,7.047,0,0,1,3.42,6.12,8.69,8.69,0,0,1-.319,2.42,8.8,8.8,0,0,1-1.061,2.26,25.853,25.853,0,0,1-2.04,2.7q-1.3,1.54-3.28,3.72t-4.74,5.34h9.4l2-3.88h.64l-.4,7.16Z"/>
          <path class="cls-2" d="M34.954,36.135v-.64l3.6-1.6V13.615l-7,3.52v-1.4l9.6-6h.8V33.9l3.2,1.6v.64Z"/>
        </g>
      </g>
    </g>
  </g>
</svg>
