<svg xmlns="http://www.w3.org/2000/svg" viewBox="0 0 600 650">
  <defs>
    <style>
      .cls-1 {
        fill: #212121;
      }
    </style>
  </defs>
  <g id="Layer_2" data-name="Layer 2">
    <g id="Opening_interview" data-name="Opening interview">
      <path class="cls-1" d="M595.428,645.171c5.012,5.162.385,1.522-1.273,0,2.006,2.048-1.893-2.676-3.725,0,2.806,1.943-3.614,6.453-6.038,0,.03,4.744-7.1,4.157-8.209,0,2.551,3.917-3.837,4.869-10.241,0,1.754,2.2-15.085-5.791-12.133,0-12.425-3.385-3.867-5.814-13.884,0-9.119,2.072-7.344,1.539-15.5,0-10.774.372-10.921,1.418-16.968,0-3.835,1.752-6.43,8.571-18.3,0-1.481-3.994-15.035-7.716-19.49,0-1.675-1.5-16.919.52-20.54,0-1.509-4.291-18.4.723-21.452,0-6.643,4.486-17.81.845-22.222,0-3.327,1.521-11.723,4.109-22.853,0-7.119-1.755-16.755.454-23.343,0-12.824,4.1-13.537-.619-23.694,0-9.274.109-12.626-4.844-23.9,0-11.946-9.882-13.1,4.5-23.974,0-6.138,4.606-15.176,8.045-23.9,0-5.837,4.18-14.516-4.554-23.693,0-5.946-3.379-12.344,2.5-23.344,0-10.478,0-9.581-3.56-22.852,0-.206,5.736-18.467-4.815-22.223,0-9.86-5.831-17.792,7.1-21.451,0-2.556,3.583-16.376,1.166-20.541,0-8.844-.69-15.408-1.244-19.489,0-1.594-5.639-15.545-5.358-18.3,0-8.964-3.669-10.829,2.538-16.967,0-2.794,5.107-6.5,6.6-15.5,0-7.058-.635-17.355-4.456-13.885,0-4.052.618-9.737,3.433-12.133,0-5.736,1.447-6.558,1.76-10.241,0-9.717-.2-1.147-1.633-8.209,0-.725-1.237-5.034-.57-6.037,0-4.384-1.208-4.459,8.58-3.725,0,.32-2.367-.209,1.576-1.273,0-.507,3.1-.094-3.6,0-1.18,1.284-3.536.889-5,0-3.461,3.458-2.157-1.461-2.866,0-5.621-3.29-3.233-2.973-1.889,0-7.661-.762-5.16-1.467-3.049,0-9.581,5.345-9.549,2.088-10.449,0-11.381-5.381-1.611.128-7.226,0-13.062,1.863-3.782,2.961-11.664,0-14.622,1.055-6.765-1.273-9.75,0-16.061-.649-5.8-2.812-12.641,0-17.383-3.105-1.337,4.976-11.316,0-18.582,1.837-1.264,2.144-18.687,0-19.662-2.762-10.176,1.71-16.5,0-20.623-1.63-10.627,2.083-14.587,0-21.463,8.752-10.231,3.389-16.052,0-22.182,1.933-2.134-4.347-13.814,0-22.783-1.611-11.417,2.483-13.979,0-23.263,1.388-4.626-8.253-18.757,0-23.623-1.686-15.015.429-14.678,0-23.863-1.492-5.848,1.4-13.684,0-23.983.79-4.647-.629-22.57,0-23.983-4.963-6.658.149-18.768,0-23.863-1.806-12.652-3.665-13.846,0-23.622,2.343-6.924,6.957-13.6,0-23.263-2.63-16.958-1.578-12.635,0-22.783,7.164-3.441,7.814-16.691,0-22.183-10.772-6.858,10.889-14.934,0-21.463,1.879-2.213,9.057-18.512,0-20.622a189.03,189.03,0,0,0,0-19.662c-2.889-10.072,3.537-10.047,0-18.583.754-8.83,3.937-14.978,0-17.382.164,1.071.09-9.852,0-16.062,5.62-8.531-4.027-4.878,0-14.622,3.184-3.168-1.082-9.914,0-13.061,2.617-6.1-1.441-6.834,0-11.382,3.272-9.792,5.707-5.507,0-9.581,5.209-7.1-6.858-8.187,0-7.661,2.64,7.238-10.039-8.33,0-5.62C4.9.71,3.367,7.422,3.93,6.272c-.112-2.036-.542,1.1,0-1.18,3.018-12.183,3.651,5.735,1.273,0,1.379,7.206-7.812-6.212,3.725,0-.648,2.748,7.619-6.839,6.037,0,5.076.537,8.282-.363,8.209,0-4.349-5.721,1.659,7.112,10.241,0-2.292,5.127-.762,2.9,12.133,0-1.281-1.929,9.518,3.717,13.885,0-3.07,2,6.436,1.958,15.5,0,3.859-2.364,13.325.959,16.967,0,4.632,7.823,4.382-3.292,18.3,0-1.812,6.96,6.822-.087,19.489,0,8.286-1.582,12.568,6.283,20.541,0,9.254.069,21.42.923,21.451,0,5.493-.1,12.02,2.5,22.223,0,5.421,1.517,12.615,2.653,22.852,0,5.4-1.651,18.761-.444,23.344,0,5.135,5.272,15.987-1.782,23.693,0,2.229-.211,20.135.771,23.9,0,7.364.994,13.985-.549,23.974,0,11.714-.594,15.191-.556,23.9,0,8.662.389,18.526.22,23.694,0,12.822.242,11.575-.255,23.343,0,12.323-1.141,14.458-2.838,22.853,0,15.12,4.012,11.777-.006,22.222,0,15.954,1.517,15.813,2.944,21.452,0,2.376,2.371,12.634-.713,20.54,0,8.064,1.658,7.021-5.092,19.49,0,9.144-5.632,10.931-1.6,18.3,0,7.469-3.409,2.787-.474,16.968,0,12.1-6.5,9.686-7.07,15.5,0a17.061,17.061,0,0,0,13.884,0c3.694-1.365,6.467.3,12.133,0,.264-3.715,5.773,2.059,10.241,0,2.533-3.21,6.826,2.551,8.209,0,1.521-4.151,6.393-1.416,6.038,0,.932-8.79,5.1-.913,3.725,0-3.432,3.032,1.5-1.048,1.273,0-1.658-1.037-.581,3.676,0,1.18,3.962-1.527-6.754,2.525,0,3.461-6.85,4.126-5,3.752,0,5.62-.674.169,10.617,7.044,0,7.661-1.2,1.484,4.058,5.961,0,9.581.383,6.78,3.934,12,0,11.382-1.319,6.166-.072,8.905,0,13.061,1.087,5.424-1.713,8.319,0,14.622-3.231,3.9.718,8.9,0,16.062-.654,7.184,2.006,12.889,0,17.382,1.788,6.666-2.874,11.1,0,18.583-.079-.667,3.443,9.488,0,19.662-3.925,5.62-1.329,9.327,0,20.622.577,4.76-2.3,9.248,0,21.463-6.333,9.909,2.449,11.5,0,22.183-2.186,6.1,7.124,7.99,0,22.783-4.467,13.352-2.762,12.863,0,23.263-1.109,7.442,3.8,20.084,0,23.622,3.646,14.044,6.5,13.055,0,23.863,9.019,9.256.408,23.613,0,23.983-3.321,9.8.04,17.766,0,23.983,2.392-1.975-2.029,15.846,0,23.863-2.7,10.359,1.719,20.58,0,23.623,3.876,9.815,3.673,13.319,0,23.263.95,6.724-1.715,16.456,0,22.783-3.065,7.679,1.244,14.22,0,22.183-1.316,6.83,1.3,12.338,0,21.462-.444,7.654-1.105,11.445,0,20.623,2.369,9.981-3.308,11.1,0,19.662-1.9,8.981,4.49,11.608,0,18.582,4.809,5.3-4.267,12.1,0,17.383.326,4.227-.67,9.407,0,16.062-2.455,9.44,3.953,4.41,0,14.621-2.181,4.022-2.594,11.264,0,13.062-4.271,7.006,2.567,9.959,0,11.381.226,2.928-2.605.735,0,9.581,6.839,6.353,3.016.226,0,7.661.385,2.309-.754,12.565,0,5.621,5.214-.9,3.356.954,0,3.461C592.938,641.116,593.727,650.159,595.428,645.171Z"/>
    </g>
  </g>
</svg>
