<svg xmlns="http://www.w3.org/2000/svg" viewBox="0 0 516.365 12.676">
  <defs>
    <style>
      .cls-1 {
        fill: #6e7884;
      }

      .cls-2 {
        fill: #7b8d9e;
      }
    </style>
  </defs>
  <g id="Layer_2" data-name="Layer 2">
    <g id="Layer_1-2" data-name="Layer 1">
      <circle class="cls-1" cx="48.59" cy="5.402" r="4.5"/>
      <circle class="cls-1" cx="134.59" cy="5.402" r="4.5"/>
      <circle class="cls-1" cx="59.59" cy="5.402" r="1.5"/>
      <circle class="cls-1" cx="67.59" cy="5.402" r="1.5"/>
      <circle class="cls-1" cx="75.59" cy="5.402" r="1.5"/>
      <circle class="cls-1" cx="83.59" cy="5.402" r="1.5"/>
      <circle class="cls-1" cx="91.59" cy="5.402" r="1.5"/>
      <circle class="cls-1" cx="99.59" cy="5.402" r="1.5"/>
      <circle class="cls-1" cx="107.59" cy="5.402" r="1.5"/>
      <circle class="cls-1" cx="115.59" cy="5.402" r="1.5"/>
      <circle class="cls-1" cx="123.59" cy="5.402" r="1.5"/>
      <circle class="cls-1" cx="220.59" cy="5.402" r="4.5"/>
      <circle class="cls-1" cx="145.59" cy="5.402" r="1.5"/>
      <circle class="cls-1" cx="153.59" cy="5.402" r="1.5"/>
      <circle class="cls-1" cx="161.59" cy="5.402" r="1.5"/>
      <circle class="cls-1" cx="169.59" cy="5.402" r="1.5"/>
      <circle class="cls-1" cx="177.59" cy="5.402" r="1.5"/>
      <circle class="cls-1" cx="185.59" cy="5.402" r="1.5"/>
      <circle class="cls-1" cx="193.59" cy="5.402" r="1.5"/>
      <circle class="cls-1" cx="201.59" cy="5.402" r="1.5"/>
      <circle class="cls-1" cx="209.59" cy="5.402" r="1.5"/>
      <circle class="cls-1" cx="306.59" cy="5.402" r="4.5"/>
      <circle class="cls-1" cx="231.59" cy="5.402" r="1.5"/>
      <circle class="cls-1" cx="239.59" cy="5.402" r="1.5"/>
      <circle class="cls-1" cx="247.59" cy="5.402" r="1.5"/>
      <circle class="cls-1" cx="255.59" cy="5.402" r="1.5"/>
      <circle class="cls-1" cx="263.59" cy="5.402" r="1.5"/>
      <circle class="cls-1" cx="271.59" cy="5.402" r="1.5"/>
      <circle class="cls-1" cx="279.59" cy="5.402" r="1.5"/>
      <circle class="cls-1" cx="287.59" cy="5.402" r="1.5"/>
      <circle class="cls-1" cx="295.59" cy="5.402" r="1.5"/>
      <circle class="cls-1" cx="392.59" cy="5.402" r="4.5"/>
      <circle class="cls-1" cx="317.59" cy="5.402" r="1.5"/>
      <circle class="cls-1" cx="325.59" cy="5.402" r="1.5"/>
      <circle class="cls-1" cx="333.59" cy="5.402" r="1.5"/>
      <circle class="cls-1" cx="341.59" cy="5.402" r="1.5"/>
      <circle class="cls-1" cx="349.59" cy="5.402" r="1.5"/>
      <circle class="cls-1" cx="357.59" cy="5.402" r="1.5"/>
      <circle class="cls-1" cx="365.59" cy="5.402" r="1.5"/>
      <circle class="cls-1" cx="373.59" cy="5.402" r="1.5"/>
      <circle class="cls-1" cx="381.59" cy="5.402" r="1.5"/>
      <circle class="cls-1" cx="403.59" cy="5.402" r="1.5"/>
      <circle class="cls-1" cx="411.59" cy="5.402" r="1.5"/>
      <circle class="cls-1" cx="419.59" cy="5.402" r="1.5"/>
      <circle class="cls-1" cx="427.59" cy="5.402" r="1.5"/>
      <circle class="cls-1" cx="435.59" cy="5.402" r="1.5"/>
      <circle class="cls-1" cx="443.59" cy="5.402" r="1.5"/>
      <circle class="cls-1" cx="451.59" cy="5.402" r="1.5"/>
      <circle class="cls-1" cx="459.59" cy="5.402" r="1.5"/>
      <circle class="cls-1" cx="467.59" cy="5.402" r="1.5"/>
      <g>
        <path class="cls-2" d="M501.574,5.618H497.34v3.3h4.883V9.9H496.09V.66h6.062v.984H497.34v2.99h4.234Z"/>
        <path class="cls-2" d="M504.572,3.034l.088,1.022a2.5,2.5,0,0,1,.86-.847,2.3,2.3,0,0,1,1.177-.3,2.242,2.242,0,0,1,1.721.651,2.857,2.857,0,0,1,.609,2.009V9.9h-1.25V5.592a1.852,1.852,0,0,0-.359-1.288,1.432,1.432,0,0,0-1.094-.381,1.771,1.771,0,0,0-.957.26,1.9,1.9,0,0,0-.662.711V9.9h-1.25V3.034Z"/>
        <path class="cls-2" d="M510.557,6.6a4.575,4.575,0,0,1,.709-2.672,2.278,2.278,0,0,1,1.982-1.016,2.46,2.46,0,0,1,1.07.222,2.2,2.2,0,0,1,.8.648V0h1.25V9.9h-1.021l-.147-.844a2.231,2.231,0,0,1-.824.73,2.486,2.486,0,0,1-1.137.248,2.359,2.359,0,0,1-1.968-.911,3.791,3.791,0,0,1-.711-2.4Zm1.252.134a2.911,2.911,0,0,0,.424,1.666,1.484,1.484,0,0,0,1.32.625,1.656,1.656,0,0,0,.939-.254,1.9,1.9,0,0,0,.623-.711V4.85a1.93,1.93,0,0,0-.625-.676,1.646,1.646,0,0,0-.924-.251,1.428,1.428,0,0,0-1.33.743,3.839,3.839,0,0,0-.427,1.929Z"/>
      </g>
      <g>
        <path class="cls-2" d="M0,9.9V.66H3.016a3.659,3.659,0,0,1,2.265.625A2.212,2.212,0,0,1,6.1,3.161a1.7,1.7,0,0,1-.393,1.1,2.335,2.335,0,0,1-1.035.721A2.131,2.131,0,0,1,5.989,5.8a2.418,2.418,0,0,1,.48,1.491,2.358,2.358,0,0,1-.823,1.94A3.431,3.431,0,0,1,3.415,9.9ZM1.25,4.589H3.275a1.663,1.663,0,0,0,1.137-.384A1.35,1.35,0,0,0,4.85,3.136a1.339,1.339,0,0,0-.473-1.121,2.169,2.169,0,0,0-1.361-.371H1.25Zm0,.984V8.918H3.415A1.94,1.94,0,0,0,4.742,8.5a1.508,1.508,0,0,0,.476-1.192,1.884,1.884,0,0,0-.4-1.271A1.523,1.523,0,0,0,3.6,5.573Z"/>
        <path class="cls-2" d="M10.925,10.036A2.9,2.9,0,0,1,8.643,9.08,3.6,3.6,0,0,1,7.8,6.6v-.28a3.519,3.519,0,0,1,.872-2.44,2.687,2.687,0,0,1,2.066-.975,2.6,2.6,0,0,1,2.1.838,3.334,3.334,0,0,1,.711,2.234V6.76H9.091l-.02.032a2.706,2.706,0,0,0,.5,1.624,1.6,1.6,0,0,0,1.352.636,3.158,3.158,0,0,0,1.114-.181,2.573,2.573,0,0,0,.828-.5l.489.813a2.906,2.906,0,0,1-.971.607A3.913,3.913,0,0,1,10.925,10.036Zm-.191-6.145a1.358,1.358,0,0,0-1.073.528,2.5,2.5,0,0,0-.545,1.326l.012.031H12.3V5.612A1.9,1.9,0,0,0,11.9,4.385,1.4,1.4,0,0,0,10.734,3.891Z"/>
        <path class="cls-2" d="M14.676,6.6A4.511,4.511,0,0,1,15.4,3.923a2.323,2.323,0,0,1,2-1.016,2.407,2.407,0,0,1,1.15.264,2.254,2.254,0,0,1,.825.758l.152-.895h1V9.94a2.621,2.621,0,0,1-.767,2.029,3.158,3.158,0,0,1-2.215.707,4.646,4.646,0,0,1-1.07-.136,4.146,4.146,0,0,1-1.012-.372l.316-.971a3.231,3.231,0,0,0,.813.308,3.934,3.934,0,0,0,.939.118,1.821,1.821,0,0,0,1.33-.416,1.719,1.719,0,0,0,.416-1.267V9.166a2.181,2.181,0,0,1-.806.651,2.522,2.522,0,0,1-1.078.219A2.4,2.4,0,0,1,15.4,9.122a3.745,3.745,0,0,1-.723-2.393Zm1.25.134a2.856,2.856,0,0,0,.438,1.663A1.515,1.515,0,0,0,17.7,9.02a1.656,1.656,0,0,0,.946-.257,1.957,1.957,0,0,0,.628-.727V4.875a1.938,1.938,0,0,0-.628-.7,1.651,1.651,0,0,0-.933-.257,1.456,1.456,0,0,0-1.339.749A3.719,3.719,0,0,0,15.926,6.6Z"/>
        <path class="cls-2" d="M23.689,1.276h-1.25V0h1.25Zm0,8.626h-1.25V3.034h1.25Z"/>
        <path class="cls-2" d="M26.73,3.034l.088,1.022a2.5,2.5,0,0,1,.861-.847,2.291,2.291,0,0,1,1.177-.3,2.24,2.24,0,0,1,1.72.651,2.857,2.857,0,0,1,.61,2.009V9.9h-1.25V5.592A1.857,1.857,0,0,0,29.577,4.3a1.436,1.436,0,0,0-1.1-.381,1.77,1.77,0,0,0-.956.26,1.908,1.908,0,0,0-.663.711V9.9h-1.25V3.034Z"/>
      </g>
      <circle class="cls-1" cx="478.59" cy="5.402" r="4.5"/>
    </g>
  </g>
</svg>
