<svg xmlns="http://www.w3.org/2000/svg" viewBox="0 0 399.516 218.06">
  <defs>
    <style>
      .cls-1 {
        fill: #0f1014;
        stroke: #f9c023;
        stroke-miterlimit: 10;
      }

      .cls-2 {
        fill: #f9c023;
      }

      .cls-3 {
        fill: #6e7884;
      }
    </style>
  </defs>
  <g id="Layer_2" data-name="Layer 2">
    <g id="Layer_1-2" data-name="Layer 1">
      <g>
        <polygon class="cls-1" points="399.016 134.873 214.664 134.873 199.349 215.316 184.849 134.873 0.5 134.873 0.5 0.5 399.016 0.5 399.016 134.873"/>
        <g>
          <g>
            <path class="cls-2" d="M38.284,42.311V41.2l1.433-.246V30.823h-2.9L36.561,32.6h-1.3V29.514H45.9V32.6H44.612l-.263-1.776h-2.9V40.957l1.433.246v1.108Z"/>
            <path class="cls-2" d="M49.732,42.5a3.18,3.18,0,0,1-2.258-.725,2.662,2.662,0,0,1-.774-2.043,2.577,2.577,0,0,1,.5-1.578A3.192,3.192,0,0,1,48.634,37.1a6.092,6.092,0,0,1,2.25-.373h1.7V35.8a1.714,1.714,0,0,0-.523-1.336,2.115,2.115,0,0,0-1.472-.475,3.336,3.336,0,0,0-1.037.145,3.013,3.013,0,0,0-.8.4l-.185,1.328H47.227V33.68a4.5,4.5,0,0,1,1.5-.787,6.266,6.266,0,0,1,1.889-.268,4.1,4.1,0,0,1,2.716.826,2.915,2.915,0,0,1,.984,2.365V40.4c0,.123,0,.243.005.36s.01.234.022.352l.923.1v1.108H52.773c-.052-.258-.093-.489-.123-.7s-.05-.41-.061-.615a4.174,4.174,0,0,1-1.253,1.068A3.2,3.2,0,0,1,49.732,42.5Zm.255-1.45a3.07,3.07,0,0,0,1.573-.413,2.556,2.556,0,0,0,1.02-.993V37.916H50.822a2.51,2.51,0,0,0-1.793.571,1.734,1.734,0,0,0-.6,1.275,1.18,1.18,0,0,0,.386.953A1.767,1.767,0,0,0,49.987,41.045Z"/>
            <path class="cls-2" d="M55.9,45.967V44.851l1.345-.246V34.163l-1.432-.246V32.8h2.917l.159,1.16a3.182,3.182,0,0,1,1.156-.993,3.452,3.452,0,0,1,1.577-.343,3.227,3.227,0,0,1,2.013.637A3.965,3.965,0,0,1,64.9,35.047a7.481,7.481,0,0,1,.44,2.685v.184a6.017,6.017,0,0,1-.445,2.4,3.675,3.675,0,0,1-1.269,1.6,3.393,3.393,0,0,1-1.987.575A3.786,3.786,0,0,1,60.1,42.2a2.974,2.974,0,0,1-1.128-.875v3.279l1.511.246v1.116Zm5.212-4.825a2.135,2.135,0,0,0,1.864-.9,3.956,3.956,0,0,0,.632-2.329v-.184a5.974,5.974,0,0,0-.281-1.921,2.877,2.877,0,0,0-.839-1.3,2.081,2.081,0,0,0-1.393-.475,2.325,2.325,0,0,0-1.266.334,2.518,2.518,0,0,0-.852.914v4.632a2.4,2.4,0,0,0,.847.91A2.423,2.423,0,0,0,61.107,41.142Z"/>
            <path class="cls-2" d="M101.352,42.46a2.254,2.254,0,0,1-1.673-.62,2.708,2.708,0,0,1-.621-1.981V34.084h-1.5V32.8h1.5V30.507h1.732V32.8h2.065v1.283H100.79v5.775a1.555,1.555,0,0,0,.272,1.01.9.9,0,0,0,.73.325,4.5,4.5,0,0,0,.685-.057c.252-.038.449-.071.589-.1l.238,1.134a7.143,7.143,0,0,1-.928.2A6.451,6.451,0,0,1,101.352,42.46Z"/>
            <path class="cls-2" d="M108.267,42.5a3.934,3.934,0,0,1-3.744-2.333,5.785,5.785,0,0,1-.518-2.5v-.193a5.788,5.788,0,0,1,.518-2.5A4.1,4.1,0,0,1,106,33.249a4.417,4.417,0,0,1,4.527,0,4.118,4.118,0,0,1,1.472,1.714,5.763,5.763,0,0,1,.519,2.505v.193a5.792,5.792,0,0,1-.519,2.51,3.916,3.916,0,0,1-3.727,2.324Zm0-1.353a2.124,2.124,0,0,0,1.384-.453,2.768,2.768,0,0,0,.844-1.239,5.23,5.23,0,0,0,.286-1.789v-.193a5.234,5.234,0,0,0-.286-1.789,2.751,2.751,0,0,0-.848-1.239,2.368,2.368,0,0,0-2.786,0,2.728,2.728,0,0,0-.844,1.239,5.31,5.31,0,0,0-.281,1.789v.193a5.306,5.306,0,0,0,.281,1.789,2.706,2.706,0,0,0,.849,1.239A2.172,2.172,0,0,0,108.267,41.142Z"/>
            <path class="cls-2" d="M118.234,42.311V41.2l1.433-.246V29.962l-1.433-.246V28.6H121.4V40.957l1.433.246v1.108Z"/>
            <path class="cls-2" d="M124.074,42.311V41.2l1.433-.246V34.163l-1.433-.246V32.8h3.164v8.156l1.433.246v1.108Zm1.345-11.857V28.6h1.819v1.854Z"/>
            <path class="cls-2" d="M133.64,42.5a7.924,7.924,0,0,1-1.793-.193,10.518,10.518,0,0,1-1.776-.6l-.017-2.259h1.309l.325,1.363a5.178,5.178,0,0,0,.954.294,5.055,5.055,0,0,0,1,.092,2.261,2.261,0,0,0,1.511-.4,1.282,1.282,0,0,0,.457-1,1.205,1.205,0,0,0-.461-.953,4.107,4.107,0,0,0-1.674-.664,6.278,6.278,0,0,1-2.537-1.059,2.169,2.169,0,0,1-.812-1.771,2.28,2.28,0,0,1,.448-1.384,3.074,3.074,0,0,1,1.248-.972,4.5,4.5,0,0,1,1.863-.36,6.125,6.125,0,0,1,1.851.246,4.746,4.746,0,0,1,1.34.659l.088,2.171h-1.3l-.281-1.265a2.263,2.263,0,0,0-.73-.352,3.456,3.456,0,0,0-.967-.123,2.133,2.133,0,0,0-1.313.378,1.14,1.14,0,0,0-.506.949,1.127,1.127,0,0,0,.145.58,1.254,1.254,0,0,0,.558.444,6.432,6.432,0,0,0,1.213.391,6.381,6.381,0,0,1,2.774,1.187,2.316,2.316,0,0,1,.786,1.775,2.619,2.619,0,0,1-.892,2.017A4.083,4.083,0,0,1,133.64,42.5Z"/>
            <path class="cls-2" d="M142.074,42.46a2.257,2.257,0,0,1-1.674-.62,2.708,2.708,0,0,1-.62-1.981V34.084h-1.5V32.8h1.5V30.507h1.732V32.8h2.065v1.283h-2.065v5.775a1.549,1.549,0,0,0,.272,1.01.9.9,0,0,0,.73.325,4.5,4.5,0,0,0,.685-.057c.252-.038.448-.071.589-.1l.237,1.134a7.124,7.124,0,0,1-.927.2A6.46,6.46,0,0,1,142.074,42.46Z"/>
            <path class="cls-2" d="M149.052,42.5a4.273,4.273,0,0,1-2.294-.6,4.008,4.008,0,0,1-1.508-1.674,5.5,5.5,0,0,1-.531-2.479v-.386a5.142,5.142,0,0,1,.558-2.422,4.458,4.458,0,0,1,1.485-1.687,3.574,3.574,0,0,1,2.026-.62,4.072,4.072,0,0,1,2.149.527,3.32,3.32,0,0,1,1.3,1.481,5.325,5.325,0,0,1,.44,2.246V37.96h-6.17l-.027.044a4.268,4.268,0,0,0,.322,1.622,2.549,2.549,0,0,0,.874,1.111,2.305,2.305,0,0,0,1.371.405,4.354,4.354,0,0,0,1.542-.251,3.53,3.53,0,0,0,1.147-.69l.677,1.125a4.131,4.131,0,0,1-1.35.831A5.4,5.4,0,0,1,149.052,42.5Zm-2.488-5.888h4.386v-.229a2.99,2.99,0,0,0-.241-1.226,1.948,1.948,0,0,0-.721-.853,2.167,2.167,0,0,0-1.2-.312,1.774,1.774,0,0,0-1.055.339,2.6,2.6,0,0,0-.782.918,3.852,3.852,0,0,0-.4,1.319Z"/>
            <path class="cls-2" d="M153.87,42.311V41.2l1.433-.246V34.163l-1.433-.246V32.8h2.98l.123,1.415a3.439,3.439,0,0,1,1.19-1.173,3.183,3.183,0,0,1,1.631-.418,3.1,3.1,0,0,1,2.382.9,3.958,3.958,0,0,1,.843,2.782v4.649l1.433.246v1.108h-4.6V41.2l1.433-.246V36.343a2.576,2.576,0,0,0-.5-1.784,1.991,1.991,0,0,0-1.517-.528,2.444,2.444,0,0,0-1.323.361,2.63,2.63,0,0,0-.918.984v5.581l1.433.246v1.108Z"/>
            <path class="cls-2" d="M173.224,42.5a3.181,3.181,0,0,1-2.259-.725,2.662,2.662,0,0,1-.774-2.043,2.577,2.577,0,0,1,.5-1.578,3.192,3.192,0,0,1,1.437-1.046,6.092,6.092,0,0,1,2.25-.373h1.7V35.8a1.714,1.714,0,0,0-.523-1.336,2.115,2.115,0,0,0-1.472-.475,3.341,3.341,0,0,0-1.037.145,3.013,3.013,0,0,0-.8.4l-.184,1.328h-1.336V33.68a4.481,4.481,0,0,1,1.494-.787,6.266,6.266,0,0,1,1.889-.268,4.1,4.1,0,0,1,2.716.826,2.913,2.913,0,0,1,.985,2.365V40.4c0,.123,0,.243,0,.36s.009.234.021.352l.923.1v1.108h-2.487c-.053-.258-.094-.489-.123-.7s-.05-.41-.062-.615a4.174,4.174,0,0,1-1.253,1.068A3.2,3.2,0,0,1,173.224,42.5Zm.254-1.45a3.074,3.074,0,0,0,1.574-.413,2.56,2.56,0,0,0,1.019-.993V37.916h-1.758a2.512,2.512,0,0,0-1.793.571,1.734,1.734,0,0,0-.6,1.275,1.183,1.183,0,0,0,.386.953A1.767,1.767,0,0,0,173.478,41.045Z"/>
            <path class="cls-2" d="M180.08,42.311V41.2l1.433-.246V34.163l-1.433-.246V32.8h2.979l.124,1.415a3.439,3.439,0,0,1,1.19-1.173A3.18,3.18,0,0,1,186,32.625a3.1,3.1,0,0,1,2.382.9,3.958,3.958,0,0,1,.843,2.782v4.649l1.433.246v1.108h-4.6V41.2l1.433-.246V36.343a2.576,2.576,0,0,0-.5-1.784,1.991,1.991,0,0,0-1.517-.528,2.444,2.444,0,0,0-1.323.361,2.63,2.63,0,0,0-.918.984v5.581l1.433.246v1.108Z"/>
            <path class="cls-2" d="M195.285,42.5a3.417,3.417,0,0,1-1.991-.575,3.642,3.642,0,0,1-1.27-1.6,6.072,6.072,0,0,1-.439-2.4v-.184a7.5,7.5,0,0,1,.439-2.681,3.956,3.956,0,0,1,1.275-1.789,3.209,3.209,0,0,1,2-.637,3.382,3.382,0,0,1,1.489.312,3.067,3.067,0,0,1,1.1.9V29.962l-1.432-.246V28.6h3.164V40.957l1.432.246v1.108h-2.935l-.141-1.134a3.049,3.049,0,0,1-1.138.984A3.458,3.458,0,0,1,195.285,42.5Zm.44-1.406a2.286,2.286,0,0,0,1.3-.352,2.666,2.666,0,0,0,.87-.993V35.332a2.656,2.656,0,0,0-.87-.949,2.289,2.289,0,0,0-1.283-.352,1.987,1.987,0,0,0-1.362.471,2.811,2.811,0,0,0-.8,1.3,6.383,6.383,0,0,0-.264,1.93v.184a4.047,4.047,0,0,0,.589,2.3A2.045,2.045,0,0,0,195.725,41.089Z"/>
            <path class="cls-2" d="M206.711,42.311V41.2l1.432-.246V34.163l-1.432-.246V32.8h2.979l.15,1.213.017.167a3.324,3.324,0,0,1,1-1.143,2.32,2.32,0,0,1,1.358-.413,3.375,3.375,0,0,1,.558.048,2.694,2.694,0,0,1,.409.093l-.229,1.608-1.2-.07a1.658,1.658,0,0,0-1.151.312,2.309,2.309,0,0,0-.721.953v5.388l1.433.246v1.108Z"/>
            <path class="cls-2" d="M218.212,42.5a4.273,4.273,0,0,1-2.294-.6,4.014,4.014,0,0,1-1.508-1.674,5.518,5.518,0,0,1-.531-2.479v-.386a5.142,5.142,0,0,1,.558-2.422,4.467,4.467,0,0,1,1.485-1.687,3.574,3.574,0,0,1,2.026-.62,4.076,4.076,0,0,1,2.15.527,3.324,3.324,0,0,1,1.3,1.481,5.325,5.325,0,0,1,.44,2.246V37.96h-6.17l-.027.044a4.287,4.287,0,0,0,.322,1.622,2.549,2.549,0,0,0,.874,1.111,2.309,2.309,0,0,0,1.371.405,4.354,4.354,0,0,0,1.542-.251,3.53,3.53,0,0,0,1.147-.69l.677,1.125a4.131,4.131,0,0,1-1.35.831A5.4,5.4,0,0,1,218.212,42.5Zm-2.487-5.888h4.385v-.229a2.99,2.99,0,0,0-.241-1.226,1.948,1.948,0,0,0-.721-.853,2.165,2.165,0,0,0-1.2-.312,1.774,1.774,0,0,0-1.055.339,2.6,2.6,0,0,0-.782.918,3.852,3.852,0,0,0-.4,1.319Z"/>
            <path class="cls-2" d="M226.141,42.5a3.181,3.181,0,0,1-2.259-.725,2.662,2.662,0,0,1-.774-2.043,2.577,2.577,0,0,1,.5-1.578,3.192,3.192,0,0,1,1.437-1.046,6.092,6.092,0,0,1,2.25-.373h1.7V35.8a1.714,1.714,0,0,0-.523-1.336,2.115,2.115,0,0,0-1.472-.475,3.341,3.341,0,0,0-1.037.145,3.013,3.013,0,0,0-.8.4l-.184,1.328h-1.336V33.68a4.481,4.481,0,0,1,1.494-.787,6.266,6.266,0,0,1,1.889-.268,4.1,4.1,0,0,1,2.716.826,2.913,2.913,0,0,1,.985,2.365V40.4c0,.123,0,.243,0,.36s.009.234.021.352l.923.1v1.108h-2.487c-.053-.258-.094-.489-.124-.7s-.049-.41-.061-.615a4.174,4.174,0,0,1-1.253,1.068A3.2,3.2,0,0,1,226.141,42.5Zm.254-1.45a3.074,3.074,0,0,0,1.574-.413,2.56,2.56,0,0,0,1.019-.993V37.916H227.23a2.51,2.51,0,0,0-1.793.571,1.734,1.734,0,0,0-.6,1.275,1.183,1.183,0,0,0,.386.953A1.767,1.767,0,0,0,226.4,41.045Z"/>
            <path class="cls-2" d="M236.441,42.5a3.417,3.417,0,0,1-1.991-.575,3.64,3.64,0,0,1-1.269-1.6,6.072,6.072,0,0,1-.44-2.4v-.184a7.5,7.5,0,0,1,.44-2.681,3.954,3.954,0,0,1,1.274-1.789,3.213,3.213,0,0,1,2-.637,3.382,3.382,0,0,1,1.489.312,3.079,3.079,0,0,1,1.1.9V29.962l-1.433-.246V28.6h3.164V40.957l1.433.246v1.108H239.28l-.14-1.134a3.059,3.059,0,0,1-1.139.984A3.455,3.455,0,0,1,236.441,42.5Zm.44-1.406a2.292,2.292,0,0,0,1.3-.352,2.683,2.683,0,0,0,.87-.993V35.332a2.674,2.674,0,0,0-.87-.949,2.3,2.3,0,0,0-1.284-.352,1.988,1.988,0,0,0-1.362.471,2.819,2.819,0,0,0-.8,1.3,6.385,6.385,0,0,0-.263,1.93v.184a4.047,4.047,0,0,0,.588,2.3A2.045,2.045,0,0,0,236.881,41.089Z"/>
            <path class="cls-2" d="M250.961,42.5a3.185,3.185,0,0,1-2.259-.725,2.661,2.661,0,0,1-.773-2.043,2.577,2.577,0,0,1,.5-1.578,3.189,3.189,0,0,1,1.436-1.046,6.092,6.092,0,0,1,2.25-.373h1.7V35.8a1.711,1.711,0,0,0-.523-1.336,2.115,2.115,0,0,0-1.472-.475,3.341,3.341,0,0,0-1.037.145,3.028,3.028,0,0,0-.8.4l-.184,1.328h-1.336V33.68a4.5,4.5,0,0,1,1.494-.787,6.268,6.268,0,0,1,1.89-.268,4.1,4.1,0,0,1,2.716.826,2.915,2.915,0,0,1,.984,2.365V40.4c0,.123,0,.243,0,.36s.01.234.021.352l.923.1v1.108H254c-.053-.258-.094-.489-.123-.7s-.05-.41-.062-.615a4.174,4.174,0,0,1-1.253,1.068A3.2,3.2,0,0,1,250.961,42.5Zm.255-1.45a3.073,3.073,0,0,0,1.573-.413,2.553,2.553,0,0,0,1.019-.993V37.916h-1.757a2.508,2.508,0,0,0-1.793.571,1.731,1.731,0,0,0-.6,1.275,1.181,1.181,0,0,0,.387.953A1.765,1.765,0,0,0,251.216,41.045Z"/>
            <path class="cls-2" d="M265.665,42.46a2.257,2.257,0,0,1-1.674-.62,2.708,2.708,0,0,1-.62-1.981V34.084h-1.5V32.8h1.5V30.507H265.1V32.8h2.066v1.283H265.1v5.775a1.549,1.549,0,0,0,.273,1.01.9.9,0,0,0,.729.325,4.509,4.509,0,0,0,.686-.057c.252-.038.448-.071.589-.1l.237,1.134a7.106,7.106,0,0,1-.928.2A6.448,6.448,0,0,1,265.665,42.46Z"/>
            <path class="cls-2" d="M268.819,42.311V41.2l1.433-.246V34.163l-1.433-.246V32.8h2.98l.149,1.213.018.167a3.3,3.3,0,0,1,1-1.143,2.314,2.314,0,0,1,1.357-.413,3.387,3.387,0,0,1,.559.048,2.7,2.7,0,0,1,.408.093l-.229,1.608-1.2-.07a1.66,1.66,0,0,0-1.151.312,2.309,2.309,0,0,0-.721.953v5.388l1.433.246v1.108Z"/>
            <path class="cls-2" d="M279.219,42.5a3.181,3.181,0,0,1-2.259-.725,2.662,2.662,0,0,1-.774-2.043,2.577,2.577,0,0,1,.5-1.578A3.2,3.2,0,0,1,278.12,37.1a6.092,6.092,0,0,1,2.25-.373h1.7V35.8a1.711,1.711,0,0,0-.523-1.336,2.115,2.115,0,0,0-1.472-.475,3.341,3.341,0,0,0-1.037.145,3.028,3.028,0,0,0-.8.4l-.184,1.328h-1.336V33.68a4.5,4.5,0,0,1,1.494-.787,6.268,6.268,0,0,1,1.89-.268,4.1,4.1,0,0,1,2.715.826,2.913,2.913,0,0,1,.985,2.365V40.4c0,.123,0,.243,0,.36s.009.234.021.352l.923.1v1.108H282.26c-.053-.258-.094-.489-.123-.7s-.05-.41-.062-.615a4.174,4.174,0,0,1-1.253,1.068A3.2,3.2,0,0,1,279.219,42.5Zm.255-1.45a3.073,3.073,0,0,0,1.573-.413,2.56,2.56,0,0,0,1.019-.993V37.916h-1.758a2.507,2.507,0,0,0-1.792.571,1.731,1.731,0,0,0-.6,1.275,1.181,1.181,0,0,0,.387.953A1.763,1.763,0,0,0,279.474,41.045Z"/>
            <path class="cls-2" d="M286.076,42.311V41.2l1.433-.246V34.163l-1.433-.246V32.8h2.98l.123,1.415a3.447,3.447,0,0,1,1.19-1.173A3.185,3.185,0,0,1,292,32.625a3.1,3.1,0,0,1,2.382.9,3.958,3.958,0,0,1,.843,2.782v4.649l1.433.246v1.108h-4.6V41.2l1.433-.246V36.343a2.576,2.576,0,0,0-.5-1.784,1.991,1.991,0,0,0-1.517-.528,2.444,2.444,0,0,0-1.323.361,2.63,2.63,0,0,0-.918.984v5.581l1.433.246v1.108Z"/>
            <path class="cls-2" d="M301.642,42.5a7.924,7.924,0,0,1-1.793-.193,10.518,10.518,0,0,1-1.776-.6l-.017-2.259h1.309l.325,1.363a5.169,5.169,0,0,0,.953.294,5.073,5.073,0,0,0,1,.092,2.261,2.261,0,0,0,1.511-.4,1.282,1.282,0,0,0,.457-1,1.205,1.205,0,0,0-.461-.953,4.107,4.107,0,0,0-1.674-.664,6.278,6.278,0,0,1-2.537-1.059,2.169,2.169,0,0,1-.812-1.771,2.28,2.28,0,0,1,.448-1.384,3.074,3.074,0,0,1,1.248-.972,4.5,4.5,0,0,1,1.863-.36,6.125,6.125,0,0,1,1.851.246,4.746,4.746,0,0,1,1.34.659l.088,2.171h-1.3l-.281-1.265a2.273,2.273,0,0,0-.73-.352,3.456,3.456,0,0,0-.967-.123,2.133,2.133,0,0,0-1.313.378,1.14,1.14,0,0,0-.506.949,1.127,1.127,0,0,0,.145.58,1.254,1.254,0,0,0,.558.444,6.432,6.432,0,0,0,1.213.391,6.381,6.381,0,0,1,2.774,1.187,2.316,2.316,0,0,1,.786,1.775,2.619,2.619,0,0,1-.892,2.017A4.083,4.083,0,0,1,301.642,42.5Z"/>
            <path class="cls-2" d="M310.926,42.5a4.131,4.131,0,0,1-2.25-.6,4.026,4.026,0,0,1-1.486-1.674,5.557,5.557,0,0,1-.527-2.479v-.369a5.585,5.585,0,0,1,.51-2.426,3.961,3.961,0,0,1,3.753-2.32,5,5,0,0,1,2.016.378A4.146,4.146,0,0,1,314.4,34.04l.044,2.285h-1.353l-.3-1.661a2.181,2.181,0,0,0-.747-.492,2.759,2.759,0,0,0-1.055-.185,2.141,2.141,0,0,0-1.357.457,2.991,2.991,0,0,0-.91,1.222,4.312,4.312,0,0,0-.326,1.705v.369a4.857,4.857,0,0,0,.3,1.8,2.617,2.617,0,0,0,.869,1.182,2.416,2.416,0,0,0,2.809-.066,2.071,2.071,0,0,0,.712-1.327h1.555l.018.053a3.19,3.19,0,0,1-1.736,2.676A4.193,4.193,0,0,1,310.926,42.5Z"/>
            <path class="cls-2" d="M315.843,42.311V41.2l1.432-.246V34.163l-1.432-.246V32.8h2.979l.15,1.213.017.167a3.324,3.324,0,0,1,1-1.143,2.32,2.32,0,0,1,1.358-.413,3.375,3.375,0,0,1,.558.048,2.674,2.674,0,0,1,.408.093l-.228,1.608-1.2-.07a1.662,1.662,0,0,0-1.152.312,2.315,2.315,0,0,0-.72.953v5.388l1.432.246v1.108Z"/>
            <path class="cls-2" d="M323.469,42.311V41.2l1.432-.246V34.163l-1.432-.246V32.8h3.164v8.156l1.432.246v1.108Zm1.344-11.857V28.6h1.82v1.854Z"/>
            <path class="cls-2" d="M328.511,45.967V44.851l1.344-.246V34.163l-1.432-.246V32.8h2.918l.158,1.16a3.182,3.182,0,0,1,1.156-.993,3.455,3.455,0,0,1,1.577-.343,3.227,3.227,0,0,1,2.013.637,3.958,3.958,0,0,1,1.274,1.785,7.481,7.481,0,0,1,.44,2.685v.184a6.035,6.035,0,0,1-.444,2.4,3.677,3.677,0,0,1-1.27,1.6,3.392,3.392,0,0,1-1.986.575,3.779,3.779,0,0,1-1.543-.294,2.969,2.969,0,0,1-1.129-.875v3.279l1.512.246v1.116Zm5.212-4.825a2.134,2.134,0,0,0,1.863-.9,3.949,3.949,0,0,0,.633-2.329v-.184a5.973,5.973,0,0,0-.282-1.921,2.875,2.875,0,0,0-.838-1.3,2.083,2.083,0,0,0-1.394-.475,2.325,2.325,0,0,0-1.266.334,2.527,2.527,0,0,0-.852.914v4.632a2.259,2.259,0,0,0,2.136,1.231Z"/>
            <path class="cls-2" d="M342.485,42.46a2.258,2.258,0,0,1-1.674-.62,2.708,2.708,0,0,1-.62-1.981V34.084h-1.5V32.8h1.5V30.507h1.732V32.8h2.065v1.283h-2.065v5.775a1.555,1.555,0,0,0,.272,1.01.9.9,0,0,0,.73.325,4.5,4.5,0,0,0,.685-.057c.252-.038.448-.071.589-.1l.237,1.134a7.124,7.124,0,0,1-.927.2A6.46,6.46,0,0,1,342.485,42.46Z"/>
            <path class="cls-2" d="M39.365,72.5a3.934,3.934,0,0,1-3.744-2.333,5.77,5.77,0,0,1-.519-2.5v-.193a5.773,5.773,0,0,1,.519-2.5,4.1,4.1,0,0,1,1.472-1.718,4.417,4.417,0,0,1,4.527,0,4.118,4.118,0,0,1,1.472,1.714,5.778,5.778,0,0,1,.518,2.505v.193a5.807,5.807,0,0,1-.518,2.51A3.916,3.916,0,0,1,39.365,72.5Zm0-1.353a2.124,2.124,0,0,0,1.384-.453,2.776,2.776,0,0,0,.844-1.239,5.23,5.23,0,0,0,.286-1.789v-.193a5.234,5.234,0,0,0-.286-1.789,2.758,2.758,0,0,0-.848-1.239,2.368,2.368,0,0,0-2.786,0,2.728,2.728,0,0,0-.844,1.239,5.31,5.31,0,0,0-.281,1.789v.193a5.306,5.306,0,0,0,.281,1.789,2.706,2.706,0,0,0,.849,1.239A2.17,2.17,0,0,0,39.365,71.142Z"/>
            <path class="cls-2" d="M44.56,72.311V71.2l1.433-.246V64.084H44.508V62.8h1.485V61.6a3.259,3.259,0,0,1,.8-2.351,2.923,2.923,0,0,1,2.219-.831,4.754,4.754,0,0,1,.646.049q.346.048.716.136l-.211,1.318a3.724,3.724,0,0,0-.427-.061,5.025,5.025,0,0,0-.505-.027,1.376,1.376,0,0,0-1.133.453,2.037,2.037,0,0,0-.369,1.314v1.2H49.8v1.283H47.725v6.873l1.634.246v1.108Z"/>
            <path class="cls-2" d="M58.8,72.46a2.257,2.257,0,0,1-1.674-.62,2.708,2.708,0,0,1-.62-1.981V64.084H55V62.8h1.5V60.507h1.731V62.8H60.3v1.283H58.236v5.775a1.549,1.549,0,0,0,.273,1.01.9.9,0,0,0,.729.325,4.509,4.509,0,0,0,.686-.057c.252-.038.448-.071.589-.1l.237,1.134a7.143,7.143,0,0,1-.928.2A6.448,6.448,0,0,1,58.8,72.46Z"/>
            <path class="cls-2" d="M61.86,72.311V71.2l1.433-.246V59.962l-1.433-.246V58.6h3.164v5.467A3.485,3.485,0,0,1,66.228,63a3.321,3.321,0,0,1,1.582-.378,3.068,3.068,0,0,1,2.373.914,4.035,4.035,0,0,1,.844,2.813v4.6l1.433.246v1.108h-4.6V71.2l1.433-.246V66.334a2.55,2.55,0,0,0-.505-1.74,1.926,1.926,0,0,0-1.508-.563,2.539,2.539,0,0,0-1.3.339,2.832,2.832,0,0,0-.962.918v5.669l1.433.246v1.108Z"/>
            <path class="cls-2" d="M77.569,72.5a4.275,4.275,0,0,1-2.294-.6,4.021,4.021,0,0,1-1.508-1.674,5.518,5.518,0,0,1-.531-2.479v-.386a5.142,5.142,0,0,1,.559-2.422,4.464,4.464,0,0,1,1.484-1.687,3.575,3.575,0,0,1,2.027-.62,4.072,4.072,0,0,1,2.149.527,3.326,3.326,0,0,1,1.305,1.481,5.326,5.326,0,0,1,.439,2.246V67.96h-6.17L75,68a4.287,4.287,0,0,0,.321,1.622,2.549,2.549,0,0,0,.874,1.111,2.309,2.309,0,0,0,1.371.405,4.351,4.351,0,0,0,1.542-.251,3.534,3.534,0,0,0,1.148-.69l.676,1.125a4.126,4.126,0,0,1-1.349.831A5.405,5.405,0,0,1,77.569,72.5Zm-2.487-5.888h4.386v-.229a2.974,2.974,0,0,0-.242-1.226,1.952,1.952,0,0,0-.72-.853,2.169,2.169,0,0,0-1.2-.312,1.772,1.772,0,0,0-1.055.339,2.589,2.589,0,0,0-.782.918,3.874,3.874,0,0,0-.405,1.319Z"/>
            <path class="cls-2" d="M86.956,72.311V71.2l1.433-.246V64.163l-1.433-.246V62.8H90.12v8.156l1.433.246v1.108ZM88.3,60.454V58.6H90.12v1.854Z"/>
            <path class="cls-2" d="M92.808,72.311V71.2l1.432-.246V64.163l-1.432-.246V62.8h2.979l.123,1.415a3.447,3.447,0,0,1,1.19-1.173,3.185,3.185,0,0,1,1.631-.418,3.1,3.1,0,0,1,2.382.9,3.954,3.954,0,0,1,.844,2.782v4.649l1.433.246v1.108h-4.6V71.2l1.432-.246V66.343a2.576,2.576,0,0,0-.5-1.784,1.99,1.99,0,0,0-1.516-.528,2.442,2.442,0,0,0-1.323.361,2.622,2.622,0,0,0-.918.984v5.581L97.4,71.2v1.108Z"/>
            <path class="cls-2" d="M107.423,72.46a2.257,2.257,0,0,1-1.674-.62,2.708,2.708,0,0,1-.62-1.981V64.084h-1.5V62.8h1.5V60.507h1.731V62.8h2.066v1.283H106.86v5.775a1.549,1.549,0,0,0,.273,1.01.9.9,0,0,0,.729.325,4.509,4.509,0,0,0,.686-.057c.252-.038.448-.071.589-.1l.237,1.134a7.143,7.143,0,0,1-.928.2A6.448,6.448,0,0,1,107.423,72.46Z"/>
            <path class="cls-2" d="M114.4,72.5a4.275,4.275,0,0,1-2.294-.6,4.012,4.012,0,0,1-1.507-1.674,5.5,5.5,0,0,1-.532-2.479v-.386a5.142,5.142,0,0,1,.559-2.422,4.464,4.464,0,0,1,1.484-1.687,3.575,3.575,0,0,1,2.027-.62,4.072,4.072,0,0,1,2.149.527,3.326,3.326,0,0,1,1.3,1.481,5.326,5.326,0,0,1,.439,2.246V67.96h-6.17l-.026.044a4.287,4.287,0,0,0,.321,1.622,2.549,2.549,0,0,0,.874,1.111,2.309,2.309,0,0,0,1.371.405,4.351,4.351,0,0,0,1.542-.251,3.534,3.534,0,0,0,1.148-.69l.677,1.125a4.141,4.141,0,0,1-1.35.831A5.405,5.405,0,0,1,114.4,72.5Zm-2.487-5.888H116.3v-.229a2.99,2.99,0,0,0-.241-1.226,1.961,1.961,0,0,0-.721-.853,2.167,2.167,0,0,0-1.2-.312,1.772,1.772,0,0,0-1.055.339,2.6,2.6,0,0,0-.782.918,3.874,3.874,0,0,0-.405,1.319Z"/>
            <path class="cls-2" d="M119.21,72.311V71.2l1.432-.246V64.163l-1.432-.246V62.8h2.979l.15,1.213.017.167a3.324,3.324,0,0,1,1-1.143,2.32,2.32,0,0,1,1.358-.413,3.375,3.375,0,0,1,.558.048,2.694,2.694,0,0,1,.409.093l-.229,1.608-1.2-.07a1.658,1.658,0,0,0-1.151.312,2.309,2.309,0,0,0-.721.953v5.388l1.433.246v1.108Z"/>
            <path class="cls-2" d="M131.025,72.311l-3.383-8.262-.985-.132V62.8h3.99v1.116l-1.239.176,2.109,5.414.247.765h.052l.282-.765,1.96-5.414-1.275-.176V62.8h3.982v1.116l-1,.132-3.217,8.262Z"/>
            <path class="cls-2" d="M137.855,72.311V71.2l1.433-.246V64.163l-1.433-.246V62.8h3.164v8.156l1.433.246v1.108ZM139.2,60.454V58.6h1.819v1.854Z"/>
            <path class="cls-2" d="M147.6,72.5a4.275,4.275,0,0,1-2.294-.6,4.012,4.012,0,0,1-1.507-1.674,5.5,5.5,0,0,1-.532-2.479v-.386a5.142,5.142,0,0,1,.559-2.422,4.464,4.464,0,0,1,1.484-1.687,3.575,3.575,0,0,1,2.027-.62,4.072,4.072,0,0,1,2.149.527,3.326,3.326,0,0,1,1.3,1.481,5.326,5.326,0,0,1,.439,2.246V67.96h-6.17l-.026.044a4.287,4.287,0,0,0,.321,1.622,2.549,2.549,0,0,0,.874,1.111,2.309,2.309,0,0,0,1.371.405,4.351,4.351,0,0,0,1.542-.251,3.524,3.524,0,0,0,1.148-.69l.677,1.125a4.131,4.131,0,0,1-1.35.831A5.4,5.4,0,0,1,147.6,72.5Zm-2.487-5.888H149.5v-.229a2.99,2.99,0,0,0-.241-1.226,1.961,1.961,0,0,0-.721-.853,2.167,2.167,0,0,0-1.2-.312,1.772,1.772,0,0,0-1.055.339,2.6,2.6,0,0,0-.782.918,3.874,3.874,0,0,0-.405,1.319Z"/>
            <path class="cls-2" d="M155.7,72.311l-2.505-8.271-1.063-.123V62.8h3.928v1.116l-1.168.193,1.309,4.738.3,1.125h.053l.386-1.125L159,62.8h1.459l1.969,6.029.421,1.336h.053l.413-1.336,1.327-4.728-1.195-.185V62.8h3.841v1.116l-1.055.15-2.461,8.244h-1.643L160.208,66.6l-.457-1.529-.053.008L159.25,66.6l-2.066,5.713Z"/>
            <path class="cls-2" d="M176.2,72.311l-2.5-8.271-1.063-.123V62.8h3.929v1.116l-1.169.193,1.309,4.738.3,1.125h.053l.386-1.125L179.5,62.8h1.459l1.969,6.029.422,1.336h.052l.413-1.336,1.327-4.728-1.195-.185V62.8h3.841v1.116l-1.055.15-2.461,8.244h-1.643L180.7,66.6l-.457-1.529-.053.008-.448,1.521-2.065,5.713Z"/>
            <path class="cls-2" d="M188.943,72.311V71.2l1.433-.246V64.163l-1.433-.246V62.8h3.164v8.156l1.433.246v1.108Zm1.345-11.857V58.6h1.819v1.854Z"/>
            <path class="cls-2" d="M197.654,72.46a2.257,2.257,0,0,1-1.674-.62,2.708,2.708,0,0,1-.62-1.981V64.084h-1.5V62.8h1.5V60.507h1.732V62.8h2.065v1.283h-2.065v5.775a1.555,1.555,0,0,0,.272,1.01.9.9,0,0,0,.73.325,4.5,4.5,0,0,0,.685-.057c.252-.038.448-.071.589-.1l.237,1.134a7.124,7.124,0,0,1-.927.2A6.46,6.46,0,0,1,197.654,72.46Z"/>
            <path class="cls-2" d="M200.716,72.311V71.2l1.432-.246V59.962l-1.432-.246V58.6h3.164v5.467a3.476,3.476,0,0,1,1.2-1.064,3.319,3.319,0,0,1,1.582-.378,3.071,3.071,0,0,1,2.373.914,4.04,4.04,0,0,1,.844,2.813v4.6l1.432.246v1.108h-4.6V71.2l1.432-.246V66.334a2.55,2.55,0,0,0-.505-1.74,1.924,1.924,0,0,0-1.507-.563,2.536,2.536,0,0,0-1.3.339,2.823,2.823,0,0,0-.962.918v5.669l1.432.246v1.108Z"/>
            <path class="cls-2" d="M217.028,72.311V71.2l1.433-.246V60.876l-1.433-.246V59.514h4.6V60.63l-1.433.246V70.984h4.527l.2-2.022h1.327v3.349Z"/>
            <path class="cls-2" d="M227.515,72.311V71.2l1.432-.246V64.163l-1.432-.246V62.8h3.164v8.156l1.432.246v1.108Zm1.344-11.857V58.6h1.82v1.854Z"/>
            <path class="cls-2" d="M237.266,72.5a4.273,4.273,0,0,1-2.294-.6,4.008,4.008,0,0,1-1.508-1.674,5.5,5.5,0,0,1-.531-2.479v-.386a5.142,5.142,0,0,1,.558-2.422,4.464,4.464,0,0,1,1.484-1.687,3.577,3.577,0,0,1,2.027-.62,4.072,4.072,0,0,1,2.149.527,3.326,3.326,0,0,1,1.3,1.481,5.326,5.326,0,0,1,.439,2.246V67.96h-6.17L234.7,68a4.287,4.287,0,0,0,.321,1.622,2.563,2.563,0,0,0,.874,1.111,2.31,2.31,0,0,0,1.372.405,4.358,4.358,0,0,0,1.542-.251,3.53,3.53,0,0,0,1.147-.69l.677,1.125a4.131,4.131,0,0,1-1.35.831A5.4,5.4,0,0,1,237.266,72.5Zm-2.488-5.888h4.386v-.229a2.99,2.99,0,0,0-.241-1.226,1.954,1.954,0,0,0-.721-.853,2.167,2.167,0,0,0-1.2-.312,1.774,1.774,0,0,0-1.055.339,2.6,2.6,0,0,0-.782.918,3.852,3.852,0,0,0-.4,1.319Z"/>
            <path class="cls-2" d="M246.168,72.5a3.045,3.045,0,0,1-2.417-.993,4.611,4.611,0,0,1-.87-3.094V64.163l-1.09-.246V62.8h2.821v5.625a3.548,3.548,0,0,0,.448,2.092,1.667,1.667,0,0,0,1.4.571,2.835,2.835,0,0,0,1.524-.374,2.333,2.333,0,0,0,.91-1.059V64.163l-1.274-.246V62.8h3.006v8.156l1.09.246v1.108h-2.646l-.114-1.407a3.218,3.218,0,0,1-1.155,1.178A3.174,3.174,0,0,1,246.168,72.5Z"/>
            <path class="cls-2" d="M256.011,72.46a2.257,2.257,0,0,1-1.674-.62,2.708,2.708,0,0,1-.62-1.981V64.084h-1.5V62.8h1.5V60.507h1.731V62.8h2.066v1.283h-2.066v5.775a1.549,1.549,0,0,0,.273,1.01.9.9,0,0,0,.729.325,4.509,4.509,0,0,0,.686-.057c.252-.038.448-.071.589-.1l.237,1.134a7.143,7.143,0,0,1-.928.2A6.448,6.448,0,0,1,256.011,72.46Z"/>
            <path class="cls-2" d="M262.988,72.5a4.275,4.275,0,0,1-2.294-.6,4.021,4.021,0,0,1-1.508-1.674,5.518,5.518,0,0,1-.531-2.479v-.386a5.142,5.142,0,0,1,.559-2.422,4.464,4.464,0,0,1,1.484-1.687,3.575,3.575,0,0,1,2.027-.62,4.072,4.072,0,0,1,2.149.527,3.326,3.326,0,0,1,1.3,1.481,5.326,5.326,0,0,1,.439,2.246V67.96h-6.17l-.026.044a4.268,4.268,0,0,0,.321,1.622,2.549,2.549,0,0,0,.874,1.111,2.309,2.309,0,0,0,1.371.405,4.351,4.351,0,0,0,1.542-.251,3.534,3.534,0,0,0,1.148-.69l.676,1.125a4.126,4.126,0,0,1-1.349.831A5.405,5.405,0,0,1,262.988,72.5ZM260.5,66.607h4.386v-.229a2.974,2.974,0,0,0-.242-1.226,1.952,1.952,0,0,0-.72-.853,2.169,2.169,0,0,0-1.2-.312,1.772,1.772,0,0,0-1.055.339,2.589,2.589,0,0,0-.782.918,3.874,3.874,0,0,0-.4,1.319Z"/>
            <path class="cls-2" d="M267.807,72.311V71.2l1.432-.246V64.163l-1.432-.246V62.8h2.979l.123,1.415a3.441,3.441,0,0,1,1.191-1.173,3.179,3.179,0,0,1,1.63-.418,3.1,3.1,0,0,1,2.382.9,3.954,3.954,0,0,1,.844,2.782v4.649l1.433.246v1.108h-4.6V71.2l1.433-.246V66.343a2.576,2.576,0,0,0-.5-1.784,1.989,1.989,0,0,0-1.516-.528,2.442,2.442,0,0,0-1.323.361,2.622,2.622,0,0,0-.918.984v5.581l1.432.246v1.108Z"/>
            <path class="cls-2" d="M282.623,72.5a3.185,3.185,0,0,1-2.259-.725,2.665,2.665,0,0,1-.773-2.043,2.577,2.577,0,0,1,.5-1.578,3.189,3.189,0,0,1,1.436-1.046,6.092,6.092,0,0,1,2.25-.373h1.7V65.8a1.711,1.711,0,0,0-.524-1.336,2.113,2.113,0,0,0-1.472-.475,3.341,3.341,0,0,0-1.037.145,3.006,3.006,0,0,0-.8.4l-.185,1.328h-1.336V63.68a4.5,4.5,0,0,1,1.494-.787,6.273,6.273,0,0,1,1.89-.268,4.1,4.1,0,0,1,2.716.826,2.915,2.915,0,0,1,.984,2.365V70.4c0,.123,0,.243,0,.36s.01.234.021.352l.923.1v1.108h-2.487c-.053-.258-.094-.489-.123-.7s-.05-.41-.062-.615a4.174,4.174,0,0,1-1.253,1.068A3.2,3.2,0,0,1,282.623,72.5Zm.255-1.45a3.073,3.073,0,0,0,1.573-.413,2.556,2.556,0,0,0,1.02-.993V67.916h-1.758a2.508,2.508,0,0,0-1.793.571,1.731,1.731,0,0,0-.6,1.275,1.181,1.181,0,0,0,.387.953A1.765,1.765,0,0,0,282.878,71.045Z"/>
            <path class="cls-2" d="M289.48,72.311V71.2l1.433-.246V64.163l-1.433-.246V62.8h2.98l.123,1.415a3.447,3.447,0,0,1,1.19-1.173,3.185,3.185,0,0,1,1.631-.418,3.1,3.1,0,0,1,2.382.9,3.954,3.954,0,0,1,.844,2.782v4.649l1.432.246v1.108h-4.6V71.2l1.432-.246V66.343a2.576,2.576,0,0,0-.5-1.784,1.99,1.99,0,0,0-1.516-.528,2.448,2.448,0,0,0-1.324.361,2.638,2.638,0,0,0-.918.984v5.581l1.433.246v1.108Z"/>
            <path class="cls-2" d="M304.1,72.46a2.255,2.255,0,0,1-1.674-.62,2.708,2.708,0,0,1-.62-1.981V64.084h-1.5V62.8h1.5V60.507h1.731V62.8H305.6v1.283h-2.066v5.775a1.549,1.549,0,0,0,.273,1.01.9.9,0,0,0,.729.325,4.509,4.509,0,0,0,.686-.057c.252-.038.448-.071.588-.1l.238,1.134a7.143,7.143,0,0,1-.928.2A6.448,6.448,0,0,1,304.1,72.46Z"/>
            <path class="cls-2" d="M311.689,72.311V71.2l1.433-.246V60.876l-1.433-.246V59.514h4.6V60.63l-1.433.246V70.984h4.527l.2-2.022h1.327v3.349Z"/>
            <path class="cls-2" d="M326.443,72.5a3.934,3.934,0,0,1-3.744-2.333,5.77,5.77,0,0,1-.518-2.5v-.193a5.773,5.773,0,0,1,.518-2.5,4.1,4.1,0,0,1,1.472-1.718,4.417,4.417,0,0,1,4.527,0,4.118,4.118,0,0,1,1.472,1.714,5.763,5.763,0,0,1,.518,2.505v.193a5.792,5.792,0,0,1-.518,2.51,3.916,3.916,0,0,1-3.727,2.324Zm0-1.353a2.124,2.124,0,0,0,1.384-.453,2.776,2.776,0,0,0,.844-1.239,5.23,5.23,0,0,0,.286-1.789v-.193a5.234,5.234,0,0,0-.286-1.789,2.758,2.758,0,0,0-.848-1.239,2.368,2.368,0,0,0-2.786,0,2.728,2.728,0,0,0-.844,1.239,5.31,5.31,0,0,0-.281,1.789v.193a5.306,5.306,0,0,0,.281,1.789,2.706,2.706,0,0,0,.849,1.239A2.172,2.172,0,0,0,326.443,71.142Z"/>
            <path class="cls-2" d="M334.991,72.311l-2.5-8.271-1.063-.123V62.8h3.928v1.116l-1.168.193,1.309,4.738.3,1.125h.053l.386-1.125L338.3,62.8h1.459l1.969,6.029.421,1.336h.053l.413-1.336,1.327-4.728-1.195-.185V62.8h3.841v1.116l-1.055.15-2.461,8.244h-1.643L339.5,66.6l-.457-1.529-.053.008-.448,1.521-2.066,5.713Z"/>
            <path class="cls-2" d="M346.945,72.311V70.535h1.732v1.776Z"/>
            <path class="cls-2" d="M38.284,102.311V101.2l1.433-.246V90.823h-2.9L36.561,92.6h-1.3V89.514H45.9V92.6H44.612l-.263-1.776h-2.9v10.134l1.433.246v1.108Z"/>
            <path class="cls-2" d="M49.732,102.5a3.18,3.18,0,0,1-2.258-.725,2.662,2.662,0,0,1-.774-2.043,2.577,2.577,0,0,1,.5-1.578A3.192,3.192,0,0,1,48.634,97.1a6.092,6.092,0,0,1,2.25-.373h1.7V95.8a1.714,1.714,0,0,0-.523-1.336,2.115,2.115,0,0,0-1.472-.475,3.336,3.336,0,0,0-1.037.145,3.013,3.013,0,0,0-.8.4l-.185,1.328H47.227V93.68a4.5,4.5,0,0,1,1.5-.787,6.266,6.266,0,0,1,1.889-.268,4.1,4.1,0,0,1,2.716.826,2.915,2.915,0,0,1,.984,2.365V100.4c0,.123,0,.243.005.36s.01.234.022.352l.923.1v1.108H52.773c-.052-.258-.093-.489-.123-.7s-.05-.41-.061-.615a4.174,4.174,0,0,1-1.253,1.068A3.2,3.2,0,0,1,49.732,102.5Zm.255-1.45a3.07,3.07,0,0,0,1.573-.413,2.556,2.556,0,0,0,1.02-.993V97.916H50.822a2.51,2.51,0,0,0-1.793.571,1.734,1.734,0,0,0-.6,1.275,1.18,1.18,0,0,0,.386.953A1.767,1.767,0,0,0,49.987,101.045Z"/>
            <path class="cls-2" d="M55.9,105.967v-1.116l1.345-.246V94.163l-1.432-.246V92.8h2.917l.159,1.16a3.182,3.182,0,0,1,1.156-.993,3.452,3.452,0,0,1,1.577-.343,3.227,3.227,0,0,1,2.013.637A3.965,3.965,0,0,1,64.9,95.047a7.481,7.481,0,0,1,.44,2.685v.184a6.017,6.017,0,0,1-.445,2.4,3.675,3.675,0,0,1-1.269,1.6,3.393,3.393,0,0,1-1.987.575A3.786,3.786,0,0,1,60.1,102.2a2.974,2.974,0,0,1-1.128-.875v3.279l1.511.246v1.116Zm5.212-4.825a2.135,2.135,0,0,0,1.864-.9,3.956,3.956,0,0,0,.632-2.329v-.184a5.974,5.974,0,0,0-.281-1.921,2.877,2.877,0,0,0-.839-1.305,2.081,2.081,0,0,0-1.393-.475,2.325,2.325,0,0,0-1.266.334,2.518,2.518,0,0,0-.852.914v4.632a2.4,2.4,0,0,0,.847.91A2.423,2.423,0,0,0,61.107,101.142Z"/>
            <path class="cls-2" d="M101.352,102.46a2.254,2.254,0,0,1-1.673-.62,2.708,2.708,0,0,1-.621-1.981V94.084h-1.5V92.8h1.5V90.507h1.732V92.8h2.065v1.283H100.79v5.775a1.555,1.555,0,0,0,.272,1.01.9.9,0,0,0,.73.325,4.5,4.5,0,0,0,.685-.057c.252-.038.449-.071.589-.1l.238,1.134a7.143,7.143,0,0,1-.928.2A6.451,6.451,0,0,1,101.352,102.46Z"/>
            <path class="cls-2" d="M108.267,102.5a3.934,3.934,0,0,1-3.744-2.333,5.785,5.785,0,0,1-.518-2.5v-.193a5.788,5.788,0,0,1,.518-2.5A4.1,4.1,0,0,1,106,93.249a4.417,4.417,0,0,1,4.527,0,4.118,4.118,0,0,1,1.472,1.714,5.763,5.763,0,0,1,.519,2.505v.193a5.792,5.792,0,0,1-.519,2.51,3.916,3.916,0,0,1-3.727,2.324Zm0-1.353a2.124,2.124,0,0,0,1.384-.453,2.768,2.768,0,0,0,.844-1.239,5.23,5.23,0,0,0,.286-1.789v-.193a5.234,5.234,0,0,0-.286-1.789,2.751,2.751,0,0,0-.848-1.239,2.368,2.368,0,0,0-2.786,0,2.728,2.728,0,0,0-.844,1.239,5.31,5.31,0,0,0-.281,1.789v.193a5.306,5.306,0,0,0,.281,1.789,2.706,2.706,0,0,0,.849,1.239A2.172,2.172,0,0,0,108.267,101.142Z"/>
            <path class="cls-2" d="M118.164,106.152a3.042,3.042,0,0,1-.51-.04,3.424,3.424,0,0,1-.474-.119l.114-1.318a2.151,2.151,0,0,0,.417.079,4.206,4.206,0,0,0,.453.035.944.944,0,0,0,.822-.452,2.224,2.224,0,0,0,.3-1.244v-8.93l-1.433-.246V92.8h3.164v10.292a3.161,3.161,0,0,1-.755,2.263A2.762,2.762,0,0,1,118.164,106.152Zm1.037-15.7V88.6h1.819v1.854Z"/>
            <path class="cls-2" d="M126.917,102.5a3.045,3.045,0,0,1-2.417-.993,4.611,4.611,0,0,1-.87-3.094V94.163l-1.09-.246V92.8h2.821v5.625a3.548,3.548,0,0,0,.448,2.092,1.667,1.667,0,0,0,1.4.571,2.835,2.835,0,0,0,1.524-.374,2.341,2.341,0,0,0,.911-1.059V94.163l-1.275-.246V92.8h3.006v8.156l1.09.246v1.108h-2.646L129.7,100.9a3.218,3.218,0,0,1-1.155,1.178A3.174,3.174,0,0,1,126.917,102.5Z"/>
            <path class="cls-2" d="M133.721,102.311V101.2l1.432-.246V94.163l-1.432-.246V92.8h2.988l.114,1.239A3.113,3.113,0,0,1,138,92.994a3.614,3.614,0,0,1,1.67-.369,2.94,2.94,0,0,1,1.63.44,2.655,2.655,0,0,1,1.024,1.318,3.52,3.52,0,0,1,1.187-1.283,3.109,3.109,0,0,1,1.722-.475,2.857,2.857,0,0,1,2.3,1,4.553,4.553,0,0,1,.844,3v4.333l1.432.246v1.108h-4.6V101.2l1.433-.246v-4.35a3.163,3.163,0,0,0-.484-1.991,1.751,1.751,0,0,0-1.432-.585,1.829,1.829,0,0,0-1.456.638,2.766,2.766,0,0,0-.636,1.6v4.684l1.432.246v1.108h-4.6V101.2l1.432-.246v-4.35a3.119,3.119,0,0,0-.5-1.956,1.732,1.732,0,0,0-1.436-.62,2.377,2.377,0,0,0-1.3.326,2.088,2.088,0,0,0-.782.914v5.686l1.432.246v1.108Z"/>
            <path class="cls-2" d="M150.3,105.967v-1.116l1.344-.246V94.163l-1.432-.246V92.8h2.918l.158,1.16a3.182,3.182,0,0,1,1.156-.993,3.455,3.455,0,0,1,1.577-.343,3.227,3.227,0,0,1,2.013.637,3.958,3.958,0,0,1,1.274,1.785,7.481,7.481,0,0,1,.44,2.685v.184a6.035,6.035,0,0,1-.444,2.4,3.677,3.677,0,0,1-1.27,1.6,3.392,3.392,0,0,1-1.986.575,3.779,3.779,0,0,1-1.543-.294,2.969,2.969,0,0,1-1.129-.875v3.279l1.512.246v1.116Zm5.212-4.825a2.134,2.134,0,0,0,1.863-.9,3.949,3.949,0,0,0,.633-2.329v-.184a5.973,5.973,0,0,0-.282-1.921,2.875,2.875,0,0,0-.838-1.305,2.081,2.081,0,0,0-1.394-.475,2.325,2.325,0,0,0-1.266.334,2.527,2.527,0,0,0-.852.914v4.632a2.259,2.259,0,0,0,2.136,1.231Z"/>
            <path class="cls-2" d="M168.917,102.46a2.257,2.257,0,0,1-1.674-.62,2.708,2.708,0,0,1-.62-1.981V94.084h-1.5V92.8h1.5V90.507h1.731V92.8h2.066v1.283h-2.066v5.775a1.549,1.549,0,0,0,.273,1.01.9.9,0,0,0,.729.325,4.509,4.509,0,0,0,.686-.057c.252-.038.448-.071.589-.1l.237,1.134a7.106,7.106,0,0,1-.928.2A6.448,6.448,0,0,1,168.917,102.46Z"/>
            <path class="cls-2" d="M175.833,102.5a3.931,3.931,0,0,1-3.744-2.333,5.77,5.77,0,0,1-.519-2.5v-.193a5.773,5.773,0,0,1,.519-2.5,4.1,4.1,0,0,1,1.471-1.718,4.419,4.419,0,0,1,4.528,0,4.108,4.108,0,0,1,1.471,1.714,5.763,5.763,0,0,1,.519,2.505v.193a5.792,5.792,0,0,1-.519,2.51,3.914,3.914,0,0,1-3.726,2.324Zm0-1.353a2.124,2.124,0,0,0,1.384-.453,2.766,2.766,0,0,0,.843-1.239,5.205,5.205,0,0,0,.287-1.789v-.193a5.209,5.209,0,0,0-.287-1.789,2.749,2.749,0,0,0-.847-1.239,2.368,2.368,0,0,0-2.786,0,2.721,2.721,0,0,0-.844,1.239,5.286,5.286,0,0,0-.281,1.789v.193a5.282,5.282,0,0,0,.281,1.789,2.7,2.7,0,0,0,.849,1.239A2.168,2.168,0,0,0,175.833,101.142Z"/>
            <path class="cls-2" d="M189.245,102.46a2.257,2.257,0,0,1-1.674-.62,2.708,2.708,0,0,1-.62-1.981V94.084h-1.5V92.8h1.5V90.507h1.732V92.8h2.065v1.283h-2.065v5.775a1.549,1.549,0,0,0,.272,1.01.9.9,0,0,0,.729.325,4.5,4.5,0,0,0,.686-.057c.252-.038.448-.071.589-.1l.237,1.134a7.106,7.106,0,0,1-.928.2A6.448,6.448,0,0,1,189.245,102.46Z"/>
            <path class="cls-2" d="M192.307,102.311V101.2l1.432-.246V89.962l-1.432-.246V88.6h3.164v5.467a3.476,3.476,0,0,1,1.2-1.064,3.319,3.319,0,0,1,1.582-.378,3.071,3.071,0,0,1,2.373.914,4.04,4.04,0,0,1,.844,2.813v4.6l1.432.246v1.108h-4.6V101.2l1.433-.246V96.334a2.55,2.55,0,0,0-.5-1.74,1.926,1.926,0,0,0-1.508-.563,2.535,2.535,0,0,0-1.3.339,2.823,2.823,0,0,0-.962.918v5.669l1.432.246v1.108Z"/>
            <path class="cls-2" d="M207.113,102.5a3.185,3.185,0,0,1-2.259-.725,2.665,2.665,0,0,1-.773-2.043,2.577,2.577,0,0,1,.5-1.578,3.192,3.192,0,0,1,1.437-1.046,6.092,6.092,0,0,1,2.25-.373h1.7V95.8a1.711,1.711,0,0,0-.524-1.336,2.11,2.11,0,0,0-1.471-.475,3.336,3.336,0,0,0-1.037.145,3.013,3.013,0,0,0-.8.4l-.185,1.328h-1.336V93.68a4.5,4.5,0,0,1,1.494-.787,6.277,6.277,0,0,1,1.89-.268,4.1,4.1,0,0,1,2.716.826,2.915,2.915,0,0,1,.984,2.365V100.4c0,.123,0,.243,0,.36s.01.234.022.352l.923.1v1.108h-2.488c-.053-.258-.094-.489-.123-.7s-.05-.41-.061-.615a4.174,4.174,0,0,1-1.253,1.068A3.2,3.2,0,0,1,207.113,102.5Zm.255-1.45a3.07,3.07,0,0,0,1.573-.413,2.556,2.556,0,0,0,1.02-.993V97.916H208.2a2.508,2.508,0,0,0-1.793.571,1.735,1.735,0,0,0-.6,1.275,1.181,1.181,0,0,0,.387.953A1.767,1.767,0,0,0,207.368,101.045Z"/>
            <path class="cls-2" d="M216.937,102.46a2.254,2.254,0,0,1-1.673-.62,2.708,2.708,0,0,1-.621-1.981V94.084h-1.5V92.8h1.5V90.507h1.732V92.8h2.065v1.283h-2.065v5.775a1.555,1.555,0,0,0,.272,1.01.9.9,0,0,0,.73.325,4.5,4.5,0,0,0,.685-.057c.252-.038.449-.071.589-.1l.238,1.134a7.143,7.143,0,0,1-.928.2A6.451,6.451,0,0,1,216.937,102.46Z"/>
            <path class="cls-2" d="M228.319,102.5a7.936,7.936,0,0,1-1.793-.193,10.539,10.539,0,0,1-1.775-.6l-.018-2.259h1.31l.325,1.363a5.169,5.169,0,0,0,.953.294,5.069,5.069,0,0,0,1,.092,2.266,2.266,0,0,0,1.512-.4,1.282,1.282,0,0,0,.457-1,1.205,1.205,0,0,0-.461-.953,4.113,4.113,0,0,0-1.675-.664,6.279,6.279,0,0,1-2.536-1.059,2.169,2.169,0,0,1-.812-1.771,2.28,2.28,0,0,1,.448-1.384,3.074,3.074,0,0,1,1.248-.972,4.5,4.5,0,0,1,1.863-.36,6.125,6.125,0,0,1,1.851.246,4.759,4.759,0,0,1,1.34.659l.088,2.171h-1.3l-.282-1.265a2.268,2.268,0,0,0-.729-.352,3.461,3.461,0,0,0-.967-.123,2.133,2.133,0,0,0-1.313.378,1.174,1.174,0,0,0-.362,1.529,1.264,1.264,0,0,0,.559.444,6.407,6.407,0,0,0,1.213.391,6.371,6.371,0,0,1,2.773,1.187,2.313,2.313,0,0,1,.786,1.775,2.618,2.618,0,0,1-.891,2.017A4.084,4.084,0,0,1,228.319,102.5Z"/>
            <path class="cls-2" d="M233.088,105.967v-1.116l1.345-.246V94.163L233,93.917V92.8h2.918l.158,1.16a3.182,3.182,0,0,1,1.156-.993,3.455,3.455,0,0,1,1.577-.343,3.223,3.223,0,0,1,2.013.637,3.96,3.96,0,0,1,1.275,1.785,7.482,7.482,0,0,1,.439,2.685v.184a6.018,6.018,0,0,1-.444,2.4,3.677,3.677,0,0,1-1.27,1.6,3.392,3.392,0,0,1-1.986.575,3.779,3.779,0,0,1-1.543-.294,2.977,2.977,0,0,1-1.129-.875v3.279l1.512.246v1.116Zm5.212-4.825a2.134,2.134,0,0,0,1.863-.9,3.949,3.949,0,0,0,.633-2.329v-.184a6,6,0,0,0-.281-1.921,2.885,2.885,0,0,0-.839-1.305,2.081,2.081,0,0,0-1.394-.475,2.319,2.319,0,0,0-1.265.334,2.521,2.521,0,0,0-.853.914v4.632a2.262,2.262,0,0,0,2.136,1.231Z"/>
            <path class="cls-2" d="M248.229,102.5a4.275,4.275,0,0,1-2.294-.6,4.012,4.012,0,0,1-1.507-1.674,5.5,5.5,0,0,1-.532-2.479v-.386a5.142,5.142,0,0,1,.559-2.422,4.464,4.464,0,0,1,1.484-1.687,3.577,3.577,0,0,1,2.027-.62,4.072,4.072,0,0,1,2.149.527,3.326,3.326,0,0,1,1.3,1.481,5.326,5.326,0,0,1,.439,2.246V97.96h-6.17l-.026.044a4.287,4.287,0,0,0,.321,1.622,2.549,2.549,0,0,0,.874,1.111,2.309,2.309,0,0,0,1.371.405,4.351,4.351,0,0,0,1.542-.251,3.524,3.524,0,0,0,1.148-.69l.677,1.125a4.131,4.131,0,0,1-1.35.831A5.4,5.4,0,0,1,248.229,102.5Zm-2.487-5.888h4.386v-.229a2.99,2.99,0,0,0-.241-1.226,1.954,1.954,0,0,0-.721-.853,2.167,2.167,0,0,0-1.2-.312,1.772,1.772,0,0,0-1.055.339,2.6,2.6,0,0,0-.782.918,3.852,3.852,0,0,0-.4,1.319Z"/>
            <path class="cls-2" d="M257.465,102.5a4.131,4.131,0,0,1-2.25-.6,4.026,4.026,0,0,1-1.486-1.674,5.557,5.557,0,0,1-.527-2.479v-.369a5.585,5.585,0,0,1,.51-2.426,3.961,3.961,0,0,1,3.753-2.32,5,5,0,0,1,2.016.378,4.146,4.146,0,0,1,1.455,1.037l.044,2.285h-1.353l-.3-1.661a2.181,2.181,0,0,0-.747-.492,2.759,2.759,0,0,0-1.055-.185,2.143,2.143,0,0,0-1.357.457,2.991,2.991,0,0,0-.91,1.222,4.312,4.312,0,0,0-.326,1.7v.369a4.857,4.857,0,0,0,.3,1.8,2.617,2.617,0,0,0,.869,1.182,2.416,2.416,0,0,0,2.809-.066,2.071,2.071,0,0,0,.712-1.327h1.556l.017.053a3.19,3.19,0,0,1-1.736,2.676A4.193,4.193,0,0,1,257.465,102.5Z"/>
            <path class="cls-2" d="M262.364,102.311V101.2l1.433-.246V94.163l-1.433-.246V92.8h3.164v8.156l1.433.246v1.108Zm1.345-11.857V88.6h1.819v1.854Z"/>
            <path class="cls-2" d="M268.087,102.311V101.2l1.432-.246V94.084h-1.485V92.8h1.485V91.773a3.227,3.227,0,0,1,.941-2.479,3.66,3.66,0,0,1,2.6-.879,4.9,4.9,0,0,1,1.161.141q.579.141,1.336.395l-.291,1.407a7.859,7.859,0,0,0-.993-.317,4.432,4.432,0,0,0-1.081-.132,2.042,2.042,0,0,0-1.49.457,1.928,1.928,0,0,0-.452,1.407V92.8h5.423v8.156l1.432.246v1.108h-4.6V101.2l1.432-.246V94.084h-3.691v6.873l1.432.246v1.108Z"/>
            <path class="cls-2" d="M283.108,102.5a4.136,4.136,0,0,1-2.25-.6,4.031,4.031,0,0,1-1.485-1.674,5.544,5.544,0,0,1-.527-2.479v-.369a5.6,5.6,0,0,1,.509-2.426,3.961,3.961,0,0,1,3.753-2.32,5,5,0,0,1,2.017.378,4.155,4.155,0,0,1,1.455,1.037l.044,2.285H285.27l-.3-1.661a2.2,2.2,0,0,0-.747-.492,2.763,2.763,0,0,0-1.055-.185,2.144,2.144,0,0,0-1.358.457,3.009,3.009,0,0,0-.91,1.222,4.312,4.312,0,0,0-.325,1.7v.369a4.857,4.857,0,0,0,.3,1.8,2.617,2.617,0,0,0,.869,1.182,2.414,2.414,0,0,0,2.808-.066,2.067,2.067,0,0,0,.712-1.327h1.556l.018.053a3.194,3.194,0,0,1-1.737,2.676A4.193,4.193,0,0,1,283.108,102.5Z"/>
            <path class="cls-2" d="M296.512,102.5a7.924,7.924,0,0,1-1.793-.193,10.518,10.518,0,0,1-1.776-.6l-.017-2.259h1.309l.325,1.363a5.178,5.178,0,0,0,.954.294,5.055,5.055,0,0,0,1,.092,2.261,2.261,0,0,0,1.511-.4,1.282,1.282,0,0,0,.457-1,1.205,1.205,0,0,0-.461-.953,4.107,4.107,0,0,0-1.674-.664,6.278,6.278,0,0,1-2.537-1.059A2.172,2.172,0,0,1,293,95.341a2.28,2.28,0,0,1,.448-1.384,3.074,3.074,0,0,1,1.248-.972,4.505,4.505,0,0,1,1.864-.36,6.123,6.123,0,0,1,1.85.246,4.746,4.746,0,0,1,1.34.659l.088,2.171h-1.3l-.281-1.265a2.263,2.263,0,0,0-.73-.352,3.454,3.454,0,0,0-.966-.123,2.136,2.136,0,0,0-1.314.378,1.14,1.14,0,0,0-.506.949,1.127,1.127,0,0,0,.145.58,1.254,1.254,0,0,0,.558.444,6.432,6.432,0,0,0,1.213.391,6.381,6.381,0,0,1,2.774,1.187,2.316,2.316,0,0,1,.786,1.775,2.619,2.619,0,0,1-.892,2.017A4.081,4.081,0,0,1,296.512,102.5Z"/>
            <path class="cls-2" d="M305.85,102.5a4.273,4.273,0,0,1-2.294-.6,4.008,4.008,0,0,1-1.508-1.674,5.5,5.5,0,0,1-.531-2.479v-.386a5.142,5.142,0,0,1,.558-2.422,4.464,4.464,0,0,1,1.484-1.687,3.577,3.577,0,0,1,2.027-.62,4.072,4.072,0,0,1,2.149.527,3.326,3.326,0,0,1,1.305,1.481,5.326,5.326,0,0,1,.439,2.246V97.96h-6.17l-.026.044a4.287,4.287,0,0,0,.321,1.622,2.563,2.563,0,0,0,.874,1.111,2.31,2.31,0,0,0,1.372.405,4.358,4.358,0,0,0,1.542-.251,3.53,3.53,0,0,0,1.147-.69l.677,1.125a4.131,4.131,0,0,1-1.35.831A5.4,5.4,0,0,1,305.85,102.5Zm-2.488-5.888h4.386v-.229a2.99,2.99,0,0,0-.241-1.226,1.954,1.954,0,0,0-.721-.853,2.167,2.167,0,0,0-1.2-.312,1.774,1.774,0,0,0-1.055.339,2.6,2.6,0,0,0-.782.918,3.852,3.852,0,0,0-.4,1.319Z"/>
            <path class="cls-2" d="M314.961,106.152a6.5,6.5,0,0,1-1.486-.189,5.785,5.785,0,0,1-1.406-.515l.448-1.344a5.613,5.613,0,0,0,2.426.589,2.082,2.082,0,0,0,1.7-.651,2.817,2.817,0,0,0,.541-1.854v-.906a3.053,3.053,0,0,1-1.116.906,3.783,3.783,0,0,1-3.5-.268,3.677,3.677,0,0,1-1.3-1.609,5.912,5.912,0,0,1-.453-2.4v-.184a7.3,7.3,0,0,1,.453-2.681,4.013,4.013,0,0,1,1.3-1.789,3.266,3.266,0,0,1,2.022-.637,3.371,3.371,0,0,1,1.573.352A3.091,3.091,0,0,1,317.3,94l.158-1.195h1.459v9.387a4.522,4.522,0,0,1-.462,2.118,3.206,3.206,0,0,1-1.344,1.367A4.46,4.46,0,0,1,314.961,106.152Zm.044-5.063a2.289,2.289,0,0,0,1.309-.356,2.686,2.686,0,0,0,.87-1.006V95.35a2.676,2.676,0,0,0-.87-.963,2.284,2.284,0,0,0-1.292-.356,2.031,2.031,0,0,0-1.375.475,2.844,2.844,0,0,0-.822,1.305,6.156,6.156,0,0,0-.272,1.921v.184a3.955,3.955,0,0,0,.606,2.3A2.1,2.1,0,0,0,315.005,101.089Zm3.647-6.873-.677-1.415h2.119v1.107Z"/>
            <path class="cls-2" d="M321.182,102.311V101.2l1.432-.246V94.163l-1.432-.246V92.8h2.988l.114,1.239a3.113,3.113,0,0,1,1.178-1.046,3.614,3.614,0,0,1,1.67-.369,2.94,2.94,0,0,1,1.63.44,2.655,2.655,0,0,1,1.024,1.318,3.52,3.52,0,0,1,1.187-1.283,3.109,3.109,0,0,1,1.722-.475,2.858,2.858,0,0,1,2.3,1,4.559,4.559,0,0,1,.844,3v4.333l1.432.246v1.108h-4.605V101.2l1.432-.246v-4.35a3.164,3.164,0,0,0-.483-1.991,1.751,1.751,0,0,0-1.433-.585,1.828,1.828,0,0,0-1.455.638,2.766,2.766,0,0,0-.636,1.6v4.684l1.432.246v1.108h-4.6V101.2l1.432-.246v-4.35a3.119,3.119,0,0,0-.5-1.956,1.732,1.732,0,0,0-1.436-.62,2.377,2.377,0,0,0-1.3.326,2.088,2.088,0,0,0-.782.914v5.686l1.432.246v1.108Z"/>
            <path class="cls-2" d="M342.44,102.5a4.275,4.275,0,0,1-2.294-.6,4.012,4.012,0,0,1-1.507-1.674,5.5,5.5,0,0,1-.532-2.479v-.386a5.142,5.142,0,0,1,.559-2.422,4.464,4.464,0,0,1,1.484-1.687,3.575,3.575,0,0,1,2.027-.62,4.072,4.072,0,0,1,2.149.527,3.326,3.326,0,0,1,1.3,1.481,5.326,5.326,0,0,1,.439,2.246V97.96H339.9l-.026.044a4.287,4.287,0,0,0,.321,1.622,2.549,2.549,0,0,0,.874,1.111,2.309,2.309,0,0,0,1.371.405,4.351,4.351,0,0,0,1.542-.251,3.524,3.524,0,0,0,1.148-.69l.677,1.125a4.131,4.131,0,0,1-1.35.831A5.405,5.405,0,0,1,342.44,102.5Zm-2.487-5.888h4.386v-.229a2.99,2.99,0,0,0-.241-1.226,1.961,1.961,0,0,0-.721-.853,2.167,2.167,0,0,0-1.2-.312,1.772,1.772,0,0,0-1.055.339,2.6,2.6,0,0,0-.782.918,3.874,3.874,0,0,0-.4,1.319Z"/>
            <path class="cls-2" d="M347.259,102.311V101.2l1.432-.246V94.163l-1.432-.246V92.8h2.979l.123,1.415a3.45,3.45,0,0,1,1.191-1.173,3.18,3.18,0,0,1,1.631-.418,3.1,3.1,0,0,1,2.381.9,3.954,3.954,0,0,1,.844,2.782v4.649l1.433.246v1.108h-4.6V101.2l1.433-.246V96.343a2.576,2.576,0,0,0-.5-1.784,1.991,1.991,0,0,0-1.517-.528,2.444,2.444,0,0,0-1.323.361,2.622,2.622,0,0,0-.918.984v5.581l1.432.246v1.108Z"/>
            <path class="cls-2" d="M361.875,102.46a2.257,2.257,0,0,1-1.674-.62,2.708,2.708,0,0,1-.62-1.981V94.084h-1.5V92.8h1.5V90.507h1.731V92.8h2.066v1.283h-2.066v5.775a1.549,1.549,0,0,0,.273,1.01.9.9,0,0,0,.729.325,4.509,4.509,0,0,0,.686-.057c.252-.038.448-.071.589-.1l.237,1.134a7.106,7.106,0,0,1-.928.2A6.448,6.448,0,0,1,361.875,102.46Z"/>
            <path class="cls-2" d="M365.347,102.311v-1.776h1.731v1.776Z"/>
          </g>
          <g>
            <polygon class="cls-2" points="75.708 42.15 87.404 35.736 75.616 29.23 75.708 42.15"/>
            <circle class="cls-3" cx="81.51" cy="95.355" r="5.894"/>
          </g>
        </g>
      </g>
    </g>
  </g>
</svg>
