<svg xmlns="http://www.w3.org/2000/svg" viewBox="0 0 485.578 169.93">
  <defs>
    <style>
      .cls-1 {
        fill: #0f1014;
      }

      .cls-1, .cls-3 {
        stroke: #f9c023;
        stroke-miterlimit: 10;
      }

      .cls-2 {
        fill: #f9c023;
      }

      .cls-3 {
        fill: none;
      }
    </style>
  </defs>
  <g id="Layer_2" data-name="Layer 2">
    <g id="Layer_1-2" data-name="Layer 1">
      <g>
        <g>
          <polygon class="cls-1" points="413.531 169.43 0.5 169.43 0.5 0.5 413.531 0.5 413.531 40.699 483.531 58.335 413.531 75.972 413.531 169.43"/>
          <g>
            <path class="cls-2" d="M49.1,60.69V59.583l1.432-.246V49.2h-2.9l-.255,1.775h-1.3V47.893H56.706v3.085H55.423L55.159,49.2h-2.9V59.337l1.433.246V60.69Z"/>
            <path class="cls-2" d="M60.543,60.875a3.189,3.189,0,0,1-2.259-.725,2.668,2.668,0,0,1-.773-2.044,2.576,2.576,0,0,1,.5-1.577,3.187,3.187,0,0,1,1.436-1.046,6.091,6.091,0,0,1,2.25-.374h1.7v-.932a1.709,1.709,0,0,0-.524-1.335,2.107,2.107,0,0,0-1.471-.475,3.307,3.307,0,0,0-1.037.145,3.013,3.013,0,0,0-.8.4l-.185,1.327H58.038v-2.18a4.5,4.5,0,0,1,1.494-.786,6.277,6.277,0,0,1,1.89-.268,4.1,4.1,0,0,1,2.716.826,2.915,2.915,0,0,1,.984,2.364v4.579c0,.123,0,.243,0,.36s.01.235.022.352l.922.1V60.69H63.584Q63.5,60.3,63.461,60c-.029-.205-.05-.41-.061-.615a4.185,4.185,0,0,1-1.253,1.067A3.19,3.19,0,0,1,60.543,60.875Zm.255-1.45a3.071,3.071,0,0,0,1.573-.414,2.556,2.556,0,0,0,1.02-.993V56.3H61.633a2.5,2.5,0,0,0-1.793.571,1.733,1.733,0,0,0-.6,1.274,1.184,1.184,0,0,0,.387.954A1.767,1.767,0,0,0,60.8,59.425Z"/>
            <path class="cls-2" d="M66.706,64.346V63.23l1.345-.246V52.543L66.618,52.3V51.18h2.918l.158,1.161a3.205,3.205,0,0,1,1.157-.994,3.464,3.464,0,0,1,1.577-.342,3.221,3.221,0,0,1,2.013.637,3.962,3.962,0,0,1,1.274,1.784,7.489,7.489,0,0,1,.439,2.685V56.3a6.013,6.013,0,0,1-.444,2.4,3.677,3.677,0,0,1-1.269,1.6,3.387,3.387,0,0,1-1.987.576,3.766,3.766,0,0,1-1.543-.3,2.992,2.992,0,0,1-1.129-.874v3.278l1.512.246v1.116Zm5.212-4.825a2.135,2.135,0,0,0,1.863-.9,3.951,3.951,0,0,0,.633-2.329v-.185a5.991,5.991,0,0,0-.281-1.92,2.894,2.894,0,0,0-.839-1.306,2.08,2.08,0,0,0-1.393-.474,2.312,2.312,0,0,0-1.266.334,2.5,2.5,0,0,0-.853.914v4.632a2.4,2.4,0,0,0,.848.909A2.42,2.42,0,0,0,71.918,59.521Z"/>
            <path class="cls-2" d="M125.584,60.84a2.261,2.261,0,0,1-1.674-.62,2.711,2.711,0,0,1-.62-1.982V52.464h-1.5V51.18h1.5V48.886h1.732V51.18h2.065v1.284h-2.065v5.774a1.554,1.554,0,0,0,.272,1.011.9.9,0,0,0,.73.325,4.629,4.629,0,0,0,.685-.057q.378-.057.589-.1l.237,1.134a7.294,7.294,0,0,1-.927.2A6.58,6.58,0,0,1,125.584,60.84Z"/>
            <path class="cls-2" d="M132.5,60.875a3.937,3.937,0,0,1-3.744-2.334,5.766,5.766,0,0,1-.519-2.5v-.194a5.766,5.766,0,0,1,.519-2.5,4.1,4.1,0,0,1,1.472-1.718,4.417,4.417,0,0,1,4.527,0,4.115,4.115,0,0,1,1.472,1.713,5.778,5.778,0,0,1,.518,2.505v.194a5.8,5.8,0,0,1-.518,2.509,3.919,3.919,0,0,1-3.727,2.325Zm0-1.354a2.129,2.129,0,0,0,1.384-.452,2.773,2.773,0,0,0,.844-1.24,5.224,5.224,0,0,0,.286-1.788v-.194a5.224,5.224,0,0,0-.286-1.788,2.747,2.747,0,0,0-.848-1.239,2.368,2.368,0,0,0-2.786,0,2.718,2.718,0,0,0-.844,1.239,5.3,5.3,0,0,0-.281,1.788v.194a5.3,5.3,0,0,0,.281,1.788,2.7,2.7,0,0,0,.849,1.24A2.177,2.177,0,0,0,132.5,59.521Z"/>
            <path class="cls-2" d="M142.536,60.69V59.583l1.433-.246V52.543l-1.433-.246V51.18h2.98l.149,1.213.018.167a3.3,3.3,0,0,1,1-1.142,2.307,2.307,0,0,1,1.357-.413,3.387,3.387,0,0,1,.559.048,2.733,2.733,0,0,1,.408.092l-.228,1.609-1.2-.071a1.66,1.66,0,0,0-1.151.312,2.312,2.312,0,0,0-.721.954v5.388l1.433.246V60.69Z"/>
            <path class="cls-2" d="M154.038,60.875a4.284,4.284,0,0,1-2.294-.6,4.03,4.03,0,0,1-1.508-1.675,5.516,5.516,0,0,1-.531-2.478v-.387a5.138,5.138,0,0,1,.559-2.421,4.467,4.467,0,0,1,1.484-1.688,3.574,3.574,0,0,1,2.027-.619,4.063,4.063,0,0,1,2.149.527,3.316,3.316,0,0,1,1.305,1.481,5.321,5.321,0,0,1,.439,2.245V56.34H151.5l-.026.043a4.287,4.287,0,0,0,.321,1.622,2.552,2.552,0,0,0,.874,1.112,2.316,2.316,0,0,0,1.371.4,4.351,4.351,0,0,0,1.542-.25,3.552,3.552,0,0,0,1.148-.69l.676,1.125a4.141,4.141,0,0,1-1.349.83A5.384,5.384,0,0,1,154.038,60.875Zm-2.487-5.889h4.386v-.228a2.979,2.979,0,0,0-.242-1.227,1.95,1.95,0,0,0-.72-.852,2.161,2.161,0,0,0-1.2-.312,1.778,1.778,0,0,0-1.055.338,2.593,2.593,0,0,0-.782.919,3.869,3.869,0,0,0-.405,1.318Z"/>
            <path class="cls-2" d="M161.967,60.875a3.189,3.189,0,0,1-2.259-.725,2.668,2.668,0,0,1-.773-2.044,2.576,2.576,0,0,1,.5-1.577,3.181,3.181,0,0,1,1.436-1.046,6.091,6.091,0,0,1,2.25-.374h1.7v-.932a1.709,1.709,0,0,0-.524-1.335,2.108,2.108,0,0,0-1.472-.475,3.311,3.311,0,0,0-1.037.145,3.006,3.006,0,0,0-.8.4l-.185,1.327h-1.336v-2.18a4.5,4.5,0,0,1,1.494-.786,6.273,6.273,0,0,1,1.89-.268,4.1,4.1,0,0,1,2.716.826,2.915,2.915,0,0,1,.984,2.364v4.579c0,.123,0,.243,0,.36s.01.235.021.352l.923.1V60.69h-2.487q-.079-.387-.123-.694t-.062-.615a4.185,4.185,0,0,1-1.253,1.067A3.187,3.187,0,0,1,161.967,60.875Zm.255-1.45a3.073,3.073,0,0,0,1.573-.414,2.556,2.556,0,0,0,1.02-.993V56.3h-1.758a2.5,2.5,0,0,0-1.793.571,1.729,1.729,0,0,0-.6,1.274,1.184,1.184,0,0,0,.387.954A1.765,1.765,0,0,0,162.222,59.425Z"/>
            <path class="cls-2" d="M172.268,60.875a3.406,3.406,0,0,1-1.991-.576,3.636,3.636,0,0,1-1.27-1.6,6.067,6.067,0,0,1-.439-2.4v-.185a7.5,7.5,0,0,1,.439-2.681,3.964,3.964,0,0,1,1.274-1.788,3.207,3.207,0,0,1,2-.637,3.384,3.384,0,0,1,1.49.312,3.081,3.081,0,0,1,1.1.9V48.342l-1.433-.247V46.979h3.165V59.337l1.432.246V60.69h-2.935l-.141-1.134a3.063,3.063,0,0,1-1.139.985A3.464,3.464,0,0,1,172.268,60.875Zm.439-1.407a2.3,2.3,0,0,0,1.3-.351,2.673,2.673,0,0,0,.87-.993V53.712a2.678,2.678,0,0,0-.87-.95,2.289,2.289,0,0,0-1.283-.351,2,2,0,0,0-1.363.47,2.813,2.813,0,0,0-.8,1.3,6.381,6.381,0,0,0-.264,1.929V56.3a4.035,4.035,0,0,0,.589,2.3A2.043,2.043,0,0,0,172.707,59.468Z"/>
            <path class="cls-2" d="M186.787,60.875a3.189,3.189,0,0,1-2.259-.725,2.668,2.668,0,0,1-.773-2.044,2.576,2.576,0,0,1,.5-1.577,3.185,3.185,0,0,1,1.437-1.046,6.091,6.091,0,0,1,2.25-.374h1.7v-.932a1.709,1.709,0,0,0-.524-1.335,2.106,2.106,0,0,0-1.471-.475,3.307,3.307,0,0,0-1.037.145,3.013,3.013,0,0,0-.8.4l-.185,1.327h-1.336v-2.18a4.494,4.494,0,0,1,1.495-.786,6.266,6.266,0,0,1,1.889-.268,4.1,4.1,0,0,1,2.716.826,2.915,2.915,0,0,1,.984,2.364v4.579c0,.123,0,.243,0,.36s.01.235.022.352l.923.1V60.69h-2.488q-.078-.387-.123-.694c-.029-.205-.05-.41-.061-.615a4.185,4.185,0,0,1-1.253,1.067A3.188,3.188,0,0,1,186.787,60.875Zm.255-1.45a3.071,3.071,0,0,0,1.573-.414,2.556,2.556,0,0,0,1.02-.993V56.3h-1.758a2.505,2.505,0,0,0-1.793.571,1.733,1.733,0,0,0-.6,1.274,1.184,1.184,0,0,0,.387.954A1.767,1.767,0,0,0,187.042,59.425Z"/>
            <path class="cls-2" d="M193.644,60.69V59.583l1.432-.246V52.543l-1.432-.246V51.18h2.979l.123,1.415a3.458,3.458,0,0,1,1.191-1.173,3.18,3.18,0,0,1,1.631-.417,3.1,3.1,0,0,1,2.381.9,3.954,3.954,0,0,1,.844,2.782v4.65l1.433.246V60.69h-4.6V59.583l1.433-.246V54.722a2.578,2.578,0,0,0-.5-1.784,2,2,0,0,0-1.517-.527,2.444,2.444,0,0,0-1.323.36,2.625,2.625,0,0,0-.918.985v5.581l1.432.246V60.69Z"/>
            <path class="cls-2" d="M208.848,60.875a3.406,3.406,0,0,1-1.991-.576,3.636,3.636,0,0,1-1.27-1.6,6.067,6.067,0,0,1-.439-2.4v-.185a7.5,7.5,0,0,1,.439-2.681,3.964,3.964,0,0,1,1.274-1.788,3.207,3.207,0,0,1,2-.637,3.384,3.384,0,0,1,1.49.312,3.081,3.081,0,0,1,1.1.9V48.342l-1.432-.247V46.979h3.164V59.337l1.432.246V60.69h-2.935l-.141-1.134a3.063,3.063,0,0,1-1.139.985A3.464,3.464,0,0,1,208.848,60.875Zm.439-1.407a2.3,2.3,0,0,0,1.3-.351,2.673,2.673,0,0,0,.87-.993V53.712a2.678,2.678,0,0,0-.87-.95,2.289,2.289,0,0,0-1.283-.351,1.991,1.991,0,0,0-1.362.47,2.814,2.814,0,0,0-.8,1.3,6.381,6.381,0,0,0-.264,1.929V56.3a4.035,4.035,0,0,0,.589,2.3A2.043,2.043,0,0,0,209.287,59.468Z"/>
            <path class="cls-2" d="M220.2,60.69V59.583l1.433-.246v-11L220.2,48.1V46.979h3.164V59.337l1.433.246V60.69Z"/>
            <path class="cls-2" d="M226.043,60.69V59.583l1.433-.246V52.543l-1.433-.246V51.18h3.164v8.157l1.433.246V60.69Zm1.345-11.856V46.979h1.819v1.855Z"/>
            <path class="cls-2" d="M235.609,60.875a7.923,7.923,0,0,1-1.793-.194,10.6,10.6,0,0,1-1.776-.6l-.017-2.259h1.309l.325,1.362a5.253,5.253,0,0,0,.953.3,5.15,5.15,0,0,0,1,.092,2.266,2.266,0,0,0,1.511-.4,1.285,1.285,0,0,0,.457-1,1.208,1.208,0,0,0-.461-.954,4.107,4.107,0,0,0-1.674-.664,6.264,6.264,0,0,1-2.537-1.059,2.168,2.168,0,0,1-.812-1.771,2.28,2.28,0,0,1,.448-1.384,3.072,3.072,0,0,1,1.248-.971,4.5,4.5,0,0,1,1.863-.36,6.125,6.125,0,0,1,1.851.246,4.719,4.719,0,0,1,1.34.659l.088,2.171h-1.3l-.281-1.266a2.283,2.283,0,0,0-.73-.351,3.456,3.456,0,0,0-.967-.123,2.139,2.139,0,0,0-1.313.377,1.142,1.142,0,0,0-.506.95,1.13,1.13,0,0,0,.145.58,1.254,1.254,0,0,0,.558.444,6.582,6.582,0,0,0,1.213.391,6.37,6.37,0,0,1,2.774,1.186,2.32,2.32,0,0,1,.786,1.776,2.622,2.622,0,0,1-.892,2.017A4.083,4.083,0,0,1,235.609,60.875Z"/>
            <path class="cls-2" d="M244.043,60.84a2.261,2.261,0,0,1-1.674-.62,2.711,2.711,0,0,1-.62-1.982V52.464h-1.5V51.18h1.5V48.886h1.732V51.18h2.065v1.284h-2.065v5.774a1.554,1.554,0,0,0,.272,1.011.9.9,0,0,0,.73.325,4.629,4.629,0,0,0,.685-.057q.378-.057.589-.1l.237,1.134a7.294,7.294,0,0,1-.927.2A6.58,6.58,0,0,1,244.043,60.84Z"/>
            <path class="cls-2" d="M251.021,60.875a4.282,4.282,0,0,1-2.294-.6,4.017,4.017,0,0,1-1.508-1.675,5.5,5.5,0,0,1-.531-2.478v-.387a5.138,5.138,0,0,1,.558-2.421,4.461,4.461,0,0,1,1.485-1.688,3.573,3.573,0,0,1,2.026-.619,4.063,4.063,0,0,1,2.149.527,3.31,3.31,0,0,1,1.305,1.481,5.321,5.321,0,0,1,.44,2.245V56.34h-6.17l-.027.043a4.268,4.268,0,0,0,.322,1.622,2.552,2.552,0,0,0,.874,1.112,2.312,2.312,0,0,0,1.371.4,4.355,4.355,0,0,0,1.542-.25,3.547,3.547,0,0,0,1.147-.69l.677,1.125a4.146,4.146,0,0,1-1.35.83A5.375,5.375,0,0,1,251.021,60.875Zm-2.488-5.889h4.386v-.228a3,3,0,0,0-.241-1.227,1.945,1.945,0,0,0-.721-.852,2.159,2.159,0,0,0-1.2-.312,1.78,1.78,0,0,0-1.055.338,2.6,2.6,0,0,0-.782.919,3.846,3.846,0,0,0-.4,1.318Z"/>
            <path class="cls-2" d="M255.839,60.69V59.583l1.433-.246V52.543l-1.433-.246V51.18h2.98l.123,1.415a3.447,3.447,0,0,1,1.19-1.173,3.182,3.182,0,0,1,1.631-.417,3.107,3.107,0,0,1,2.382.9,3.958,3.958,0,0,1,.843,2.782v4.65l1.433.246V60.69h-4.6V59.583l1.433-.246V54.722a2.578,2.578,0,0,0-.5-1.784,2,2,0,0,0-1.517-.527,2.444,2.444,0,0,0-1.323.36,2.633,2.633,0,0,0-.918.985v5.581l1.433.246V60.69Z"/>
            <path class="cls-2" d="M275.474,60.84a2.261,2.261,0,0,1-1.674-.62,2.711,2.711,0,0,1-.62-1.982V52.464h-1.5V51.18h1.5V48.886h1.731V51.18h2.066v1.284h-2.066v5.774a1.554,1.554,0,0,0,.273,1.011.9.9,0,0,0,.729.325,4.641,4.641,0,0,0,.686-.057q.378-.057.589-.1l.237,1.134a7.313,7.313,0,0,1-.928.2A6.568,6.568,0,0,1,275.474,60.84Z"/>
            <path class="cls-2" d="M282.389,60.875a3.934,3.934,0,0,1-3.744-2.334,5.766,5.766,0,0,1-.519-2.5v-.194a5.766,5.766,0,0,1,.519-2.5,4.1,4.1,0,0,1,1.471-1.718,4.419,4.419,0,0,1,4.528,0,4.113,4.113,0,0,1,1.471,1.713,5.763,5.763,0,0,1,.519,2.505v.194a5.788,5.788,0,0,1-.519,2.509,3.916,3.916,0,0,1-3.726,2.325Zm0-1.354a2.129,2.129,0,0,0,1.384-.452,2.764,2.764,0,0,0,.843-1.24,5.2,5.2,0,0,0,.286-1.788v-.194a5.2,5.2,0,0,0-.286-1.788,2.738,2.738,0,0,0-.847-1.239,2.368,2.368,0,0,0-2.786,0,2.71,2.71,0,0,0-.844,1.239,5.276,5.276,0,0,0-.281,1.788v.194a5.276,5.276,0,0,0,.281,1.788,2.7,2.7,0,0,0,.848,1.24A2.178,2.178,0,0,0,282.389,59.521Z"/>
            <path class="cls-2" d="M295.52,60.875a3.188,3.188,0,0,1-2.259-.725,2.665,2.665,0,0,1-.774-2.044,2.57,2.57,0,0,1,.5-1.577,3.181,3.181,0,0,1,1.436-1.046,6.091,6.091,0,0,1,2.25-.374h1.7v-.932a1.709,1.709,0,0,0-.523-1.335,2.11,2.11,0,0,0-1.472-.475,3.311,3.311,0,0,0-1.037.145,3.028,3.028,0,0,0-.8.4l-.184,1.327h-1.336v-2.18a4.5,4.5,0,0,1,1.494-.786,6.268,6.268,0,0,1,1.89-.268,4.094,4.094,0,0,1,2.715.826A2.912,2.912,0,0,1,300.1,54.2v4.579c0,.123,0,.243,0,.36s.009.235.021.352l.923.1V60.69h-2.487q-.079-.387-.123-.694c-.03-.205-.05-.41-.062-.615a4.185,4.185,0,0,1-1.253,1.067A3.187,3.187,0,0,1,295.52,60.875Zm.255-1.45a3.073,3.073,0,0,0,1.573-.414,2.56,2.56,0,0,0,1.019-.993V56.3H296.61a2.5,2.5,0,0,0-1.793.571,1.729,1.729,0,0,0-.6,1.274,1.184,1.184,0,0,0,.387.954A1.763,1.763,0,0,0,295.775,59.425Z"/>
            <path class="cls-2" d="M306.6,64.346V63.23l1.344-.246V52.543l-1.432-.246V51.18h2.918l.158,1.161a3.194,3.194,0,0,1,1.156-.994,3.467,3.467,0,0,1,1.577-.342,3.219,3.219,0,0,1,2.013.637,3.947,3.947,0,0,1,1.274,1.784,7.488,7.488,0,0,1,.44,2.685V56.3a6.03,6.03,0,0,1-.444,2.4,3.671,3.671,0,0,1-1.27,1.6,3.386,3.386,0,0,1-1.986.576,3.762,3.762,0,0,1-1.543-.3,2.977,2.977,0,0,1-1.129-.874v3.278l1.512.246v1.116Zm5.212-4.825a2.136,2.136,0,0,0,1.863-.9,3.951,3.951,0,0,0,.633-2.329v-.185a5.962,5.962,0,0,0-.282-1.92,2.884,2.884,0,0,0-.838-1.306,2.081,2.081,0,0,0-1.394-.474,2.316,2.316,0,0,0-1.266.334,2.511,2.511,0,0,0-.852.914v4.632a2.263,2.263,0,0,0,2.136,1.23Z"/>
            <path class="cls-2" d="M321.693,60.875a3.937,3.937,0,0,1-3.745-2.334,5.78,5.78,0,0,1-.518-2.5v-.194a5.78,5.78,0,0,1,.518-2.5,4.1,4.1,0,0,1,1.472-1.718,4.417,4.417,0,0,1,4.527,0,4.115,4.115,0,0,1,1.472,1.713,5.763,5.763,0,0,1,.519,2.505v.194a5.788,5.788,0,0,1-.519,2.509,3.919,3.919,0,0,1-3.726,2.325Zm0-1.354a2.128,2.128,0,0,0,1.383-.452,2.765,2.765,0,0,0,.844-1.24,5.224,5.224,0,0,0,.286-1.788v-.194a5.224,5.224,0,0,0-.286-1.788,2.74,2.74,0,0,0-.848-1.239,2.368,2.368,0,0,0-2.786,0,2.709,2.709,0,0,0-.843,1.239,5.275,5.275,0,0,0-.282,1.788v.194a5.275,5.275,0,0,0,.282,1.788,2.7,2.7,0,0,0,.848,1.24A2.178,2.178,0,0,0,321.693,59.521Z"/>
            <path class="cls-2" d="M326.867,60.69V59.583l1.433-.246V52.543l-1.433-.246V51.18h2.98L330,52.393l.018.167a3.3,3.3,0,0,1,1-1.142,2.309,2.309,0,0,1,1.357-.413,3.387,3.387,0,0,1,.559.048,2.733,2.733,0,0,1,.408.092l-.228,1.609-1.2-.071a1.66,1.66,0,0,0-1.151.312,2.321,2.321,0,0,0-.721.954v5.388l1.433.246V60.69Z"/>
            <path class="cls-2" d="M338.1,60.84a2.261,2.261,0,0,1-1.674-.62,2.711,2.711,0,0,1-.62-1.982V52.464h-1.5V51.18h1.5V48.886h1.731V51.18h2.066v1.284H337.54v5.774a1.554,1.554,0,0,0,.273,1.011.9.9,0,0,0,.729.325,4.641,4.641,0,0,0,.686-.057q.378-.057.589-.1l.237,1.134a7.313,7.313,0,0,1-.928.2A6.568,6.568,0,0,1,338.1,60.84Z"/>
            <path class="cls-2" d="M341.239,60.69V59.583l1.433-.246V52.543l-1.433-.246V51.18H344.4v8.157l1.433.246V60.69Zm1.345-11.856V46.979H344.4v1.855Z"/>
            <path class="cls-2" d="M350.938,60.875a3.934,3.934,0,0,1-3.744-2.334,5.766,5.766,0,0,1-.519-2.5v-.194a5.766,5.766,0,0,1,.519-2.5,4.088,4.088,0,0,1,1.471-1.718,4.419,4.419,0,0,1,4.528,0,4.113,4.113,0,0,1,1.471,1.713,5.763,5.763,0,0,1,.519,2.505v.194a5.788,5.788,0,0,1-.519,2.509,3.919,3.919,0,0,1-3.726,2.325Zm0-1.354a2.128,2.128,0,0,0,1.383-.452,2.757,2.757,0,0,0,.844-1.24,5.2,5.2,0,0,0,.286-1.788v-.194a5.2,5.2,0,0,0-.286-1.788,2.738,2.738,0,0,0-.847-1.239,2.37,2.37,0,0,0-2.787,0,2.709,2.709,0,0,0-.843,1.239,5.275,5.275,0,0,0-.282,1.788v.194a5.275,5.275,0,0,0,.282,1.788,2.7,2.7,0,0,0,.848,1.24A2.178,2.178,0,0,0,350.938,59.521Z"/>
            <path class="cls-2" d="M356.12,60.69V59.583l1.433-.246V52.543L356.12,52.3V51.18h2.98l.123,1.415a3.456,3.456,0,0,1,1.19-1.173,3.185,3.185,0,0,1,1.631-.417,3.107,3.107,0,0,1,2.382.9,3.958,3.958,0,0,1,.844,2.782v4.65l1.432.246V60.69h-4.6V59.583l1.432-.246V54.722a2.578,2.578,0,0,0-.5-1.784,1.994,1.994,0,0,0-1.516-.527,2.445,2.445,0,0,0-1.324.36,2.641,2.641,0,0,0-.918.985v5.581l1.433.246V60.69Z"/>
            <path class="cls-2" d="M50.176,90.875a3.934,3.934,0,0,1-3.744-2.334,5.766,5.766,0,0,1-.519-2.5v-.194a5.766,5.766,0,0,1,.519-2.5A4.1,4.1,0,0,1,47.9,81.629a4.419,4.419,0,0,1,4.528,0A4.105,4.105,0,0,1,53.9,83.342a5.763,5.763,0,0,1,.519,2.5v.194A5.788,5.788,0,0,1,53.9,88.55a3.916,3.916,0,0,1-3.726,2.325Zm0-1.354a2.129,2.129,0,0,0,1.384-.452,2.764,2.764,0,0,0,.843-1.24,5.2,5.2,0,0,0,.287-1.788v-.194a5.2,5.2,0,0,0-.287-1.788,2.738,2.738,0,0,0-.847-1.239,2.368,2.368,0,0,0-2.786,0,2.71,2.71,0,0,0-.844,1.239,5.276,5.276,0,0,0-.281,1.788v.194a5.276,5.276,0,0,0,.281,1.788,2.7,2.7,0,0,0,.849,1.24A2.175,2.175,0,0,0,50.176,89.521Z"/>
            <path class="cls-2" d="M55.371,90.69V89.583l1.433-.246V82.464H55.319V81.18H56.8v-1.2a3.262,3.262,0,0,1,.8-2.351,2.922,2.922,0,0,1,2.219-.83,4.744,4.744,0,0,1,.646.048c.23.032.47.078.716.136L60.97,78.3a3.723,3.723,0,0,0-.427-.062,5.042,5.042,0,0,0-.505-.026,1.381,1.381,0,0,0-1.134.452,2.037,2.037,0,0,0-.369,1.314v1.2H60.61v1.284H58.535v6.873l1.635.246V90.69Z"/>
            <path class="cls-2" d="M69.61,90.84a2.259,2.259,0,0,1-1.674-.62,2.711,2.711,0,0,1-.62-1.982V82.464h-1.5V81.18h1.5V78.886h1.731V81.18h2.065v1.284H69.047v5.774a1.56,1.56,0,0,0,.272,1.011.9.9,0,0,0,.73.325,4.641,4.641,0,0,0,.686-.057c.251-.038.448-.072.588-.1l.238,1.134a7.313,7.313,0,0,1-.928.2A6.568,6.568,0,0,1,69.61,90.84Z"/>
            <path class="cls-2" d="M72.671,90.69V89.583l1.433-.246v-11L72.671,78.1V76.979h3.164v5.467a3.472,3.472,0,0,1,1.2-1.063,3.321,3.321,0,0,1,1.582-.378,3.065,3.065,0,0,1,2.373.914,4.032,4.032,0,0,1,.844,2.812v4.606l1.433.246V90.69h-4.6V89.583l1.433-.246V84.714a2.551,2.551,0,0,0-.5-1.741,1.926,1.926,0,0,0-1.508-.562,2.548,2.548,0,0,0-1.3.338,2.826,2.826,0,0,0-.962.919v5.669l1.433.246V90.69Z"/>
            <path class="cls-2" d="M88.38,90.875a4.282,4.282,0,0,1-2.294-.6A4.03,4.03,0,0,1,84.578,88.6a5.516,5.516,0,0,1-.531-2.478v-.387a5.138,5.138,0,0,1,.559-2.421,4.467,4.467,0,0,1,1.484-1.688,3.573,3.573,0,0,1,2.026-.619,4.064,4.064,0,0,1,2.15.527,3.314,3.314,0,0,1,1.3,1.481,5.321,5.321,0,0,1,.44,2.245V86.34H85.84l-.026.043a4.268,4.268,0,0,0,.321,1.622,2.552,2.552,0,0,0,.874,1.112,2.316,2.316,0,0,0,1.371.4,4.351,4.351,0,0,0,1.542-.25,3.547,3.547,0,0,0,1.147-.69l.677,1.125a4.152,4.152,0,0,1-1.349.83A5.384,5.384,0,0,1,88.38,90.875Zm-2.487-5.889h4.385v-.228a3,3,0,0,0-.241-1.227,1.95,1.95,0,0,0-.72-.852,2.162,2.162,0,0,0-1.2-.312,1.777,1.777,0,0,0-1.054.338,2.605,2.605,0,0,0-.783.919,3.868,3.868,0,0,0-.4,1.318Z"/>
            <path class="cls-2" d="M97.767,90.69V89.583l1.432-.246V82.543L97.767,82.3V81.18h3.164v8.157l1.432.246V90.69Zm1.344-11.856V76.979h1.82v1.855Z"/>
            <path class="cls-2" d="M103.618,90.69V89.583l1.433-.246V82.543l-1.433-.246V81.18h2.98l.123,1.415a3.456,3.456,0,0,1,1.19-1.173,3.185,3.185,0,0,1,1.631-.417,3.106,3.106,0,0,1,2.382.9,3.958,3.958,0,0,1,.844,2.782v4.65l1.432.246V90.69h-4.6V89.583l1.432-.246V84.722a2.578,2.578,0,0,0-.5-1.784,1.994,1.994,0,0,0-1.516-.527,2.447,2.447,0,0,0-1.324.36,2.641,2.641,0,0,0-.918.985v5.581l1.433.246V90.69Z"/>
            <path class="cls-2" d="M118.234,90.84a2.259,2.259,0,0,1-1.674-.62,2.711,2.711,0,0,1-.62-1.982V82.464h-1.5V81.18h1.5V78.886h1.731V81.18h2.065v1.284h-2.065v5.774a1.554,1.554,0,0,0,.273,1.011.9.9,0,0,0,.729.325,4.641,4.641,0,0,0,.686-.057c.251-.038.448-.072.588-.1l.238,1.134a7.313,7.313,0,0,1-.928.2A6.568,6.568,0,0,1,118.234,90.84Z"/>
            <path class="cls-2" d="M125.211,90.875a4.284,4.284,0,0,1-2.294-.6,4.03,4.03,0,0,1-1.508-1.675,5.516,5.516,0,0,1-.531-2.478v-.387a5.138,5.138,0,0,1,.559-2.421,4.467,4.467,0,0,1,1.484-1.688,3.573,3.573,0,0,1,2.026-.619,4.064,4.064,0,0,1,2.15.527,3.316,3.316,0,0,1,1.3,1.481,5.336,5.336,0,0,1,.439,2.245V86.34h-6.17l-.026.043a4.268,4.268,0,0,0,.321,1.622,2.552,2.552,0,0,0,.874,1.112,2.316,2.316,0,0,0,1.371.4,4.351,4.351,0,0,0,1.542-.25,3.562,3.562,0,0,0,1.148-.69l.676,1.125a4.152,4.152,0,0,1-1.349.83A5.384,5.384,0,0,1,125.211,90.875Zm-2.487-5.889h4.386v-.228a3,3,0,0,0-.242-1.227,1.95,1.95,0,0,0-.72-.852,2.162,2.162,0,0,0-1.2-.312,1.777,1.777,0,0,0-1.054.338,2.605,2.605,0,0,0-.783.919,3.868,3.868,0,0,0-.4,1.318Z"/>
            <path class="cls-2" d="M130.021,90.69V89.583l1.432-.246V82.543l-1.432-.246V81.18H133l.15,1.213.017.167a3.32,3.32,0,0,1,1-1.142,2.313,2.313,0,0,1,1.358-.413,3.375,3.375,0,0,1,.558.048,2.7,2.7,0,0,1,.408.092l-.228,1.609-1.2-.071a1.662,1.662,0,0,0-1.152.312,2.319,2.319,0,0,0-.72.954v5.388l1.432.246V90.69Z"/>
            <path class="cls-2" d="M141.836,90.69l-3.384-8.262-.984-.131V81.18h3.99V82.3l-1.239.175,2.109,5.414.246.765h.053l.281-.765,1.96-5.414-1.274-.175V81.18h3.981V82.3l-1,.131-3.216,8.262Z"/>
            <path class="cls-2" d="M148.666,90.69V89.583l1.433-.246V82.543l-1.433-.246V81.18h3.164v8.157l1.433.246V90.69Zm1.345-11.856V76.979h1.819v1.855Z"/>
            <path class="cls-2" d="M158.416,90.875a4.284,4.284,0,0,1-2.294-.6,4.03,4.03,0,0,1-1.508-1.675,5.516,5.516,0,0,1-.531-2.478v-.387a5.138,5.138,0,0,1,.559-2.421,4.467,4.467,0,0,1,1.484-1.688,3.573,3.573,0,0,1,2.026-.619,4.064,4.064,0,0,1,2.15.527,3.316,3.316,0,0,1,1.305,1.481,5.321,5.321,0,0,1,.439,2.245V86.34h-6.17l-.026.043a4.268,4.268,0,0,0,.321,1.622,2.552,2.552,0,0,0,.874,1.112,2.316,2.316,0,0,0,1.371.4,4.351,4.351,0,0,0,1.542-.25,3.552,3.552,0,0,0,1.148-.69l.676,1.125a4.141,4.141,0,0,1-1.349.83A5.384,5.384,0,0,1,158.416,90.875Zm-2.487-5.889h4.386v-.228a2.979,2.979,0,0,0-.242-1.227,1.95,1.95,0,0,0-.72-.852,2.162,2.162,0,0,0-1.2-.312,1.777,1.777,0,0,0-1.054.338,2.593,2.593,0,0,0-.782.919,3.847,3.847,0,0,0-.405,1.318Z"/>
            <path class="cls-2" d="M166.51,90.69l-2.5-8.27-1.063-.123V81.18h3.928V82.3l-1.169.193,1.31,4.737.3,1.125h.052l.387-1.125,2.066-6.047h1.459l1.968,6.03.422,1.336h.053l.413-1.336,1.327-4.729-1.195-.184V81.18H178.1V82.3l-1.055.149-2.461,8.244h-1.643l-1.925-5.713-.457-1.529-.053.009-.448,1.52L168,90.69Z"/>
            <path class="cls-2" d="M187.006,90.69l-2.5-8.27-1.063-.123V81.18h3.928V82.3l-1.169.193,1.31,4.737.3,1.125h.053l.386-1.125,2.066-6.047h1.459l1.968,6.03.422,1.336h.053l.413-1.336,1.327-4.729-1.195-.184V81.18H198.6V82.3l-1.055.149-2.461,8.244H193.44l-1.925-5.713-.457-1.529-.053.009-.448,1.52-2.066,5.713Z"/>
            <path class="cls-2" d="M199.754,90.69V89.583l1.433-.246V82.543l-1.433-.246V81.18h3.164v8.157l1.433.246V90.69ZM201.1,78.834V76.979h1.819v1.855Z"/>
            <path class="cls-2" d="M208.465,90.84a2.261,2.261,0,0,1-1.674-.62,2.711,2.711,0,0,1-.62-1.982V82.464h-1.5V81.18h1.5V78.886H207.9V81.18h2.066v1.284H207.9v5.774a1.554,1.554,0,0,0,.273,1.011.9.9,0,0,0,.729.325,4.631,4.631,0,0,0,.686-.057q.378-.057.589-.1l.237,1.134a7.274,7.274,0,0,1-.928.2A6.568,6.568,0,0,1,208.465,90.84Z"/>
            <path class="cls-2" d="M211.527,90.69V89.583l1.432-.246v-11l-1.432-.247V76.979h3.164v5.467a3.463,3.463,0,0,1,1.2-1.063,3.319,3.319,0,0,1,1.582-.378,3.068,3.068,0,0,1,2.373.914,4.037,4.037,0,0,1,.844,2.812v4.606l1.432.246V90.69h-4.6V89.583l1.433-.246V84.714a2.551,2.551,0,0,0-.5-1.741,1.926,1.926,0,0,0-1.508-.562,2.551,2.551,0,0,0-1.3.338,2.832,2.832,0,0,0-.961.919v5.669l1.432.246V90.69Z"/>
            <path class="cls-2" d="M227.839,90.69V89.583l1.433-.246V79.256l-1.433-.247V77.893h4.6v1.116L231,79.256V89.363h4.526l.2-2.021h1.327V90.69Z"/>
            <path class="cls-2" d="M238.325,90.69V89.583l1.433-.246V82.543l-1.433-.246V81.18h3.164v8.157l1.433.246V90.69Zm1.345-11.856V76.979h1.819v1.855Z"/>
            <path class="cls-2" d="M248.076,90.875a4.284,4.284,0,0,1-2.294-.6,4.021,4.021,0,0,1-1.507-1.675,5.5,5.5,0,0,1-.532-2.478v-.387a5.138,5.138,0,0,1,.559-2.421,4.467,4.467,0,0,1,1.484-1.688,3.574,3.574,0,0,1,2.027-.619,4.063,4.063,0,0,1,2.149.527,3.316,3.316,0,0,1,1.305,1.481,5.321,5.321,0,0,1,.439,2.245V86.34h-6.17l-.026.043a4.287,4.287,0,0,0,.321,1.622,2.552,2.552,0,0,0,.874,1.112,2.316,2.316,0,0,0,1.371.4,4.351,4.351,0,0,0,1.542-.25,3.541,3.541,0,0,0,1.148-.69l.677,1.125a4.157,4.157,0,0,1-1.35.83A5.384,5.384,0,0,1,248.076,90.875Zm-2.487-5.889h4.386v-.228a3,3,0,0,0-.241-1.227,1.958,1.958,0,0,0-.721-.852,2.159,2.159,0,0,0-1.2-.312,1.778,1.778,0,0,0-1.055.338,2.6,2.6,0,0,0-.782.919,3.869,3.869,0,0,0-.405,1.318Z"/>
            <path class="cls-2" d="M256.979,90.875a3.044,3.044,0,0,1-2.417-.993,4.615,4.615,0,0,1-.87-3.094V82.543L252.6,82.3V81.18h2.821v5.625a3.54,3.54,0,0,0,.448,2.092,1.667,1.667,0,0,0,1.4.571,2.844,2.844,0,0,0,1.524-.373,2.339,2.339,0,0,0,.91-1.059V82.543l-1.274-.246V81.18h3.006v8.157l1.09.246V90.69h-2.646l-.114-1.406a3.225,3.225,0,0,1-1.155,1.178A3.184,3.184,0,0,1,256.979,90.875Z"/>
            <path class="cls-2" d="M266.821,90.84a2.258,2.258,0,0,1-1.673-.62,2.711,2.711,0,0,1-.621-1.982V82.464h-1.5V81.18h1.5V78.886h1.732V81.18h2.065v1.284h-2.065v5.774a1.56,1.56,0,0,0,.272,1.011.9.9,0,0,0,.73.325,4.629,4.629,0,0,0,.685-.057c.252-.038.449-.072.589-.1l.238,1.134a7.313,7.313,0,0,1-.928.2A6.57,6.57,0,0,1,266.821,90.84Z"/>
            <path class="cls-2" d="M273.8,90.875a4.282,4.282,0,0,1-2.294-.6A4.03,4.03,0,0,1,270,88.6a5.516,5.516,0,0,1-.531-2.478v-.387a5.138,5.138,0,0,1,.559-2.421,4.467,4.467,0,0,1,1.484-1.688,3.573,3.573,0,0,1,2.026-.619,4.064,4.064,0,0,1,2.15.527,3.314,3.314,0,0,1,1.3,1.481,5.321,5.321,0,0,1,.44,2.245V86.34h-6.17l-.026.043a4.268,4.268,0,0,0,.321,1.622,2.552,2.552,0,0,0,.874,1.112,2.316,2.316,0,0,0,1.371.4,4.351,4.351,0,0,0,1.542-.25,3.547,3.547,0,0,0,1.147-.69l.677,1.125a4.152,4.152,0,0,1-1.349.83A5.384,5.384,0,0,1,273.8,90.875Zm-2.487-5.889H275.7v-.228a3,3,0,0,0-.241-1.227,1.945,1.945,0,0,0-.721-.852,2.157,2.157,0,0,0-1.2-.312,1.777,1.777,0,0,0-1.054.338,2.6,2.6,0,0,0-.783.919,3.868,3.868,0,0,0-.4,1.318Z"/>
            <path class="cls-2" d="M278.617,90.69V89.583l1.433-.246V82.543l-1.433-.246V81.18h2.98l.123,1.415a3.456,3.456,0,0,1,1.19-1.173,3.185,3.185,0,0,1,1.631-.417,3.106,3.106,0,0,1,2.382.9,3.958,3.958,0,0,1,.844,2.782v4.65l1.432.246V90.69h-4.6V89.583l1.432-.246V84.722a2.578,2.578,0,0,0-.5-1.784,1.994,1.994,0,0,0-1.516-.527,2.447,2.447,0,0,0-1.324.36,2.641,2.641,0,0,0-.918.985v5.581l1.433.246V90.69Z"/>
            <path class="cls-2" d="M293.434,90.875a3.189,3.189,0,0,1-2.259-.725,2.665,2.665,0,0,1-.773-2.044,2.576,2.576,0,0,1,.5-1.577,3.181,3.181,0,0,1,1.436-1.046,6.091,6.091,0,0,1,2.25-.374h1.7v-.932a1.709,1.709,0,0,0-.523-1.335,2.11,2.11,0,0,0-1.472-.475,3.311,3.311,0,0,0-1.037.145,3.028,3.028,0,0,0-.8.4l-.184,1.327h-1.336v-2.18a4.5,4.5,0,0,1,1.494-.786,6.268,6.268,0,0,1,1.89-.268,4.094,4.094,0,0,1,2.715.826,2.912,2.912,0,0,1,.985,2.364v4.579c0,.123,0,.243,0,.36s.009.235.021.352l.923.1V90.69h-2.487q-.079-.387-.123-.694c-.03-.2-.05-.41-.062-.615a4.185,4.185,0,0,1-1.253,1.067A3.187,3.187,0,0,1,293.434,90.875Zm.255-1.45a3.073,3.073,0,0,0,1.573-.414,2.56,2.56,0,0,0,1.019-.993V86.3h-1.757a2.5,2.5,0,0,0-1.793.571,1.729,1.729,0,0,0-.6,1.274,1.184,1.184,0,0,0,.387.954A1.763,1.763,0,0,0,293.689,89.425Z"/>
            <path class="cls-2" d="M300.291,90.69V89.583l1.433-.246V82.543l-1.433-.246V81.18h2.98l.123,1.415a3.456,3.456,0,0,1,1.19-1.173,3.185,3.185,0,0,1,1.631-.417,3.107,3.107,0,0,1,2.382.9,3.958,3.958,0,0,1,.844,2.782v4.65l1.432.246V90.69h-4.6V89.583l1.432-.246V84.722a2.578,2.578,0,0,0-.5-1.784,2,2,0,0,0-1.517-.527,2.444,2.444,0,0,0-1.323.36,2.633,2.633,0,0,0-.918.985v5.581l1.433.246V90.69Z"/>
            <path class="cls-2" d="M314.906,90.84a2.258,2.258,0,0,1-1.673-.62,2.711,2.711,0,0,1-.621-1.982V82.464h-1.5V81.18h1.5V78.886h1.732V81.18h2.065v1.284h-2.065v5.774a1.56,1.56,0,0,0,.272,1.011.9.9,0,0,0,.73.325,4.629,4.629,0,0,0,.685-.057c.252-.038.449-.072.589-.1l.238,1.134a7.313,7.313,0,0,1-.928.2A6.57,6.57,0,0,1,314.906,90.84Z"/>
            <path class="cls-2" d="M322.5,90.69V89.583l1.433-.246V79.256l-1.433-.247V77.893h4.6v1.116l-1.433.247V89.363h4.527l.2-2.021h1.327V90.69Z"/>
            <path class="cls-2" d="M337.254,90.875a3.937,3.937,0,0,1-3.744-2.334,5.766,5.766,0,0,1-.519-2.5v-.194a5.766,5.766,0,0,1,.519-2.5,4.1,4.1,0,0,1,1.472-1.718,4.021,4.021,0,0,1,2.254-.624,4.062,4.062,0,0,1,2.273.624,4.115,4.115,0,0,1,1.472,1.713,5.778,5.778,0,0,1,.518,2.5v.194a5.8,5.8,0,0,1-.518,2.509,3.919,3.919,0,0,1-3.727,2.325Zm0-1.354a2.129,2.129,0,0,0,1.384-.452,2.773,2.773,0,0,0,.844-1.24,5.224,5.224,0,0,0,.286-1.788v-.194a5.224,5.224,0,0,0-.286-1.788,2.747,2.747,0,0,0-.848-1.239,2.368,2.368,0,0,0-2.786,0A2.718,2.718,0,0,0,335,84.059a5.3,5.3,0,0,0-.281,1.788v.194A5.3,5.3,0,0,0,335,87.829a2.7,2.7,0,0,0,.849,1.24A2.175,2.175,0,0,0,337.254,89.521Z"/>
            <path class="cls-2" d="M345.8,90.69l-2.5-8.27-1.063-.123V81.18h3.928V82.3l-1.169.193,1.31,4.737.3,1.125h.052l.387-1.125,2.066-6.047h1.459l1.968,6.03.422,1.336h.053l.413-1.336,1.327-4.729-1.2-.184V81.18H357.4V82.3l-1.055.149-2.461,8.244h-1.644l-1.924-5.713-.457-1.529-.053.009-.448,1.52-2.066,5.713Z"/>
            <path class="cls-2" d="M357.756,90.69V88.915h1.731V90.69Z"/>
            <path class="cls-2" d="M49.1,120.69v-1.107l1.432-.246V109.2h-2.9l-.255,1.775h-1.3v-3.085H56.706v3.085H55.423l-.264-1.775h-2.9v10.134l1.433.246v1.107Z"/>
            <path class="cls-2" d="M60.543,120.875a3.189,3.189,0,0,1-2.259-.725,2.668,2.668,0,0,1-.773-2.044,2.576,2.576,0,0,1,.5-1.577,3.187,3.187,0,0,1,1.436-1.046,6.091,6.091,0,0,1,2.25-.374h1.7v-.932a1.709,1.709,0,0,0-.524-1.335,2.107,2.107,0,0,0-1.471-.475,3.307,3.307,0,0,0-1.037.145,3.013,3.013,0,0,0-.8.4l-.185,1.327H58.038v-2.18a4.5,4.5,0,0,1,1.494-.786,6.277,6.277,0,0,1,1.89-.268,4.1,4.1,0,0,1,2.716.826,2.915,2.915,0,0,1,.984,2.364v4.579c0,.123,0,.243,0,.36s.01.235.022.352l.922.1v1.107H63.584q-.08-.387-.123-.694c-.029-.2-.05-.41-.061-.615a4.185,4.185,0,0,1-1.253,1.067A3.19,3.19,0,0,1,60.543,120.875Zm.255-1.45a3.071,3.071,0,0,0,1.573-.414,2.556,2.556,0,0,0,1.02-.993V116.3H61.633a2.5,2.5,0,0,0-1.793.571,1.733,1.733,0,0,0-.6,1.274,1.184,1.184,0,0,0,.387.954A1.767,1.767,0,0,0,60.8,119.425Z"/>
            <path class="cls-2" d="M66.706,124.346V123.23l1.345-.246V112.543l-1.433-.246V111.18h2.918l.158,1.161a3.205,3.205,0,0,1,1.157-.994,3.464,3.464,0,0,1,1.577-.342,3.221,3.221,0,0,1,2.013.637,3.962,3.962,0,0,1,1.274,1.784,7.489,7.489,0,0,1,.439,2.685v.185a6.013,6.013,0,0,1-.444,2.4,3.677,3.677,0,0,1-1.269,1.6,3.387,3.387,0,0,1-1.987.576,3.766,3.766,0,0,1-1.543-.3,2.992,2.992,0,0,1-1.129-.874v3.278l1.512.246v1.116Zm5.212-4.825a2.135,2.135,0,0,0,1.863-.9,3.951,3.951,0,0,0,.633-2.329v-.185a5.991,5.991,0,0,0-.281-1.92,2.894,2.894,0,0,0-.839-1.306,2.08,2.08,0,0,0-1.393-.474,2.312,2.312,0,0,0-1.266.334,2.5,2.5,0,0,0-.853.914v4.632a2.4,2.4,0,0,0,.848.909A2.42,2.42,0,0,0,71.918,119.521Z"/>
            <path class="cls-2" d="M125.584,120.84a2.261,2.261,0,0,1-1.674-.62,2.711,2.711,0,0,1-.62-1.982v-5.774h-1.5V111.18h1.5v-2.294h1.732v2.294h2.065v1.284h-2.065v5.774a1.554,1.554,0,0,0,.272,1.011.9.9,0,0,0,.73.325,4.629,4.629,0,0,0,.685-.057q.378-.057.589-.1l.237,1.134a7.294,7.294,0,0,1-.927.2A6.58,6.58,0,0,1,125.584,120.84Z"/>
            <path class="cls-2" d="M132.5,120.875a3.937,3.937,0,0,1-3.744-2.334,5.766,5.766,0,0,1-.519-2.5v-.194a5.766,5.766,0,0,1,.519-2.5,4.1,4.1,0,0,1,1.472-1.718,4.417,4.417,0,0,1,4.527,0,4.115,4.115,0,0,1,1.472,1.713,5.778,5.778,0,0,1,.518,2.5v.194a5.8,5.8,0,0,1-.518,2.509,3.919,3.919,0,0,1-3.727,2.325Zm0-1.354a2.129,2.129,0,0,0,1.384-.452,2.773,2.773,0,0,0,.844-1.24,5.224,5.224,0,0,0,.286-1.788v-.194a5.224,5.224,0,0,0-.286-1.788,2.747,2.747,0,0,0-.848-1.239,2.368,2.368,0,0,0-2.786,0,2.718,2.718,0,0,0-.844,1.239,5.3,5.3,0,0,0-.281,1.788v.194a5.3,5.3,0,0,0,.281,1.788,2.7,2.7,0,0,0,.849,1.24A2.177,2.177,0,0,0,132.5,119.521Z"/>
            <path class="cls-2" d="M146.4,120.875a7.935,7.935,0,0,1-1.793-.194,10.621,10.621,0,0,1-1.775-.6l-.017-2.259h1.309l.325,1.362a5.253,5.253,0,0,0,.953.3,5.146,5.146,0,0,0,1,.092,2.269,2.269,0,0,0,1.512-.4,1.285,1.285,0,0,0,.457-1,1.208,1.208,0,0,0-.461-.954,4.107,4.107,0,0,0-1.675-.664,6.265,6.265,0,0,1-2.536-1.059,2.168,2.168,0,0,1-.812-1.771,2.28,2.28,0,0,1,.448-1.384,3.072,3.072,0,0,1,1.248-.971,4.5,4.5,0,0,1,1.863-.36,6.125,6.125,0,0,1,1.851.246,4.719,4.719,0,0,1,1.34.659l.088,2.171h-1.3l-.281-1.266a2.293,2.293,0,0,0-.73-.351,3.456,3.456,0,0,0-.967-.123,2.139,2.139,0,0,0-1.313.377,1.142,1.142,0,0,0-.506.95,1.13,1.13,0,0,0,.145.58,1.254,1.254,0,0,0,.558.444,6.582,6.582,0,0,0,1.213.391,6.37,6.37,0,0,1,2.774,1.186,2.32,2.32,0,0,1,.786,1.776,2.622,2.622,0,0,1-.892,2.017A4.084,4.084,0,0,1,146.4,120.875Z"/>
            <path class="cls-2" d="M151.292,120.69v-1.107l1.433-.246v-11l-1.433-.247v-1.116h3.164v12.358l1.433.246v1.107Zm3.041-2.751-.641-1.362,4.13-4.113.044-.053-1.019-.114V111.18h4.1V112.3l-1.222.228Zm3.068,2.751v-1.107l.966-.115-.026-.035-2.751-3.55.9-1.38,3.841,4.869,1.371.211v1.107Z"/>
            <path class="cls-2" d="M162.826,120.69v-1.107l1.433-.246v-6.794l-1.433-.246V111.18h3.164v8.157l1.433.246v1.107Zm1.345-11.856v-1.855h1.819v1.855Z"/>
            <path class="cls-2" d="M167.868,124.346V123.23l1.345-.246V112.543l-1.433-.246V111.18H170.7l.159,1.161a3.194,3.194,0,0,1,1.156-.994,3.464,3.464,0,0,1,1.577-.342,3.221,3.221,0,0,1,2.013.637,3.962,3.962,0,0,1,1.274,1.784,7.488,7.488,0,0,1,.44,2.685v.185a6.012,6.012,0,0,1-.445,2.4,3.677,3.677,0,0,1-1.269,1.6,3.387,3.387,0,0,1-1.987.576,3.766,3.766,0,0,1-1.543-.3,2.992,2.992,0,0,1-1.129-.874v3.278l1.512.246v1.116Zm5.212-4.825a2.136,2.136,0,0,0,1.864-.9,3.958,3.958,0,0,0,.632-2.329v-.185a5.964,5.964,0,0,0-.281-1.92,2.886,2.886,0,0,0-.839-1.306,2.08,2.08,0,0,0-1.393-.474,2.314,2.314,0,0,0-1.266.334,2.5,2.5,0,0,0-.853.914v4.632a2.263,2.263,0,0,0,2.136,1.23Z"/>
            <path class="cls-2" d="M186.484,120.84a2.259,2.259,0,0,1-1.674-.62,2.711,2.711,0,0,1-.62-1.982v-5.774h-1.5V111.18h1.5v-2.294h1.731v2.294h2.065v1.284h-2.065v5.774a1.554,1.554,0,0,0,.273,1.011.9.9,0,0,0,.729.325,4.641,4.641,0,0,0,.686-.057c.251-.038.448-.072.588-.1l.238,1.134a7.313,7.313,0,0,1-.928.2A6.568,6.568,0,0,1,186.484,120.84Z"/>
            <path class="cls-2" d="M193.4,120.875a3.937,3.937,0,0,1-3.745-2.334,5.78,5.78,0,0,1-.518-2.5v-.194a5.78,5.78,0,0,1,.518-2.5,4.1,4.1,0,0,1,1.472-1.718,4.417,4.417,0,0,1,4.527,0,4.115,4.115,0,0,1,1.472,1.713,5.763,5.763,0,0,1,.519,2.5v.194a5.788,5.788,0,0,1-.519,2.509,3.919,3.919,0,0,1-3.726,2.325Zm0-1.354a2.128,2.128,0,0,0,1.383-.452,2.765,2.765,0,0,0,.844-1.24,5.2,5.2,0,0,0,.286-1.788v-.194a5.2,5.2,0,0,0-.286-1.788,2.74,2.74,0,0,0-.848-1.239,2.368,2.368,0,0,0-2.786,0,2.709,2.709,0,0,0-.843,1.239,5.275,5.275,0,0,0-.282,1.788v.194a5.275,5.275,0,0,0,.282,1.788,2.7,2.7,0,0,0,.848,1.24A2.178,2.178,0,0,0,193.4,119.521Z"/>
            <path class="cls-2" d="M206.812,120.84a2.261,2.261,0,0,1-1.674-.62,2.711,2.711,0,0,1-.62-1.982v-5.774h-1.5V111.18h1.5v-2.294h1.731v2.294h2.066v1.284h-2.066v5.774a1.554,1.554,0,0,0,.273,1.011.9.9,0,0,0,.729.325,4.641,4.641,0,0,0,.686-.057q.378-.057.589-.1l.237,1.134a7.313,7.313,0,0,1-.928.2A6.568,6.568,0,0,1,206.812,120.84Z"/>
            <path class="cls-2" d="M209.873,120.69v-1.107l1.433-.246v-11l-1.433-.247v-1.116h3.164v5.467a3.472,3.472,0,0,1,1.2-1.063,3.321,3.321,0,0,1,1.582-.378,3.065,3.065,0,0,1,2.373.914,4.032,4.032,0,0,1,.844,2.812v4.606l1.433.246v1.107h-4.6v-1.107l1.433-.246v-4.623a2.551,2.551,0,0,0-.5-1.741,1.926,1.926,0,0,0-1.508-.562,2.548,2.548,0,0,0-1.3.338,2.835,2.835,0,0,0-.962.919v5.669l1.433.246v1.107Z"/>
            <path class="cls-2" d="M225.582,120.875a4.284,4.284,0,0,1-2.294-.6,4.03,4.03,0,0,1-1.508-1.675,5.516,5.516,0,0,1-.531-2.478v-.387a5.138,5.138,0,0,1,.559-2.421,4.467,4.467,0,0,1,1.484-1.688,3.574,3.574,0,0,1,2.027-.619,4.063,4.063,0,0,1,2.149.527,3.316,3.316,0,0,1,1.305,1.481,5.321,5.321,0,0,1,.439,2.245v1.082h-6.17l-.026.043a4.268,4.268,0,0,0,.321,1.622,2.552,2.552,0,0,0,.874,1.112,2.316,2.316,0,0,0,1.371.4,4.351,4.351,0,0,0,1.542-.25,3.552,3.552,0,0,0,1.148-.69l.676,1.125a4.141,4.141,0,0,1-1.349.83A5.384,5.384,0,0,1,225.582,120.875Zm-2.487-5.889h4.386v-.228a2.979,2.979,0,0,0-.242-1.227,1.95,1.95,0,0,0-.72-.852,2.161,2.161,0,0,0-1.2-.312,1.778,1.778,0,0,0-1.055.338,2.593,2.593,0,0,0-.782.919,3.869,3.869,0,0,0-.405,1.318Z"/>
            <path class="cls-2" d="M235.03,120.69v-1.107l1.433-.246v-6.794l-1.433-.246V111.18h2.98l.123,1.415a3.456,3.456,0,0,1,1.19-1.173,3.185,3.185,0,0,1,1.631-.417,3.1,3.1,0,0,1,2.382.9,3.954,3.954,0,0,1,.844,2.782v4.65l1.432.246v1.107h-4.6v-1.107l1.432-.246v-4.615a2.578,2.578,0,0,0-.5-1.784,1.994,1.994,0,0,0-1.516-.527,2.447,2.447,0,0,0-1.324.36,2.641,2.641,0,0,0-.918.985v5.581l1.433.246v1.107Z"/>
            <path class="cls-2" d="M250.749,120.875a4.284,4.284,0,0,1-2.294-.6,4.03,4.03,0,0,1-1.508-1.675,5.516,5.516,0,0,1-.531-2.478v-.387a5.138,5.138,0,0,1,.559-2.421,4.467,4.467,0,0,1,1.484-1.688,3.573,3.573,0,0,1,2.026-.619,4.064,4.064,0,0,1,2.15.527,3.316,3.316,0,0,1,1.305,1.481,5.321,5.321,0,0,1,.439,2.245v1.082h-6.17l-.026.043a4.268,4.268,0,0,0,.321,1.622,2.552,2.552,0,0,0,.874,1.112,2.316,2.316,0,0,0,1.371.4,4.351,4.351,0,0,0,1.542-.25,3.552,3.552,0,0,0,1.148-.69l.676,1.125a4.141,4.141,0,0,1-1.349.83A5.384,5.384,0,0,1,250.749,120.875Zm-2.487-5.889h4.386v-.228a2.979,2.979,0,0,0-.242-1.227,1.95,1.95,0,0,0-.72-.852,2.162,2.162,0,0,0-1.2-.312,1.777,1.777,0,0,0-1.054.338,2.593,2.593,0,0,0-.782.919,3.869,3.869,0,0,0-.405,1.318Z"/>
            <path class="cls-2" d="M255.432,120.69v-1.107l1.054-.2,2.839-3.5-2.777-3.384-.94-.2V111.18h3.726V112.3l-.949.105,1.951,2.426,1.9-2.435-1.02-.1V111.18h3.665V112.3l-.967.2-2.575,3.357,2.962,3.525.984.2v1.107H261.25v-1.107l1.143-.1-2.083-2.54-2.022,2.54,1.029.1v1.107Z"/>
            <path class="cls-2" d="M269.822,120.84a2.258,2.258,0,0,1-1.673-.62,2.711,2.711,0,0,1-.621-1.982v-5.774h-1.5V111.18h1.5v-2.294h1.732v2.294h2.065v1.284H269.26v5.774a1.56,1.56,0,0,0,.272,1.011.9.9,0,0,0,.73.325,4.629,4.629,0,0,0,.685-.057c.252-.038.449-.072.589-.1l.238,1.134a7.313,7.313,0,0,1-.928.2A6.57,6.57,0,0,1,269.822,120.84Z"/>
            <path class="cls-2" d="M277.091,124.346V123.23l1.345-.246V112.543L277,112.3V111.18h2.918l.158,1.161a3.2,3.2,0,0,1,1.156-.994,3.472,3.472,0,0,1,1.578-.342,3.216,3.216,0,0,1,2.012.637,3.956,3.956,0,0,1,1.275,1.784,7.489,7.489,0,0,1,.439,2.685v.185a6.013,6.013,0,0,1-.444,2.4,3.671,3.671,0,0,1-1.27,1.6,3.384,3.384,0,0,1-1.986.576,3.762,3.762,0,0,1-1.543-.3,2.992,2.992,0,0,1-1.129-.874v3.278l1.512.246v1.116Zm5.212-4.825a2.136,2.136,0,0,0,1.863-.9,3.951,3.951,0,0,0,.633-2.329v-.185a5.991,5.991,0,0,0-.281-1.92,2.894,2.894,0,0,0-.839-1.306,2.081,2.081,0,0,0-1.394-.474,2.31,2.31,0,0,0-1.265.334,2.5,2.5,0,0,0-.853.914v4.632a2.263,2.263,0,0,0,2.136,1.23Z"/>
            <path class="cls-2" d="M292.18,120.875a3.934,3.934,0,0,1-3.744-2.334,5.766,5.766,0,0,1-.519-2.5v-.194a5.766,5.766,0,0,1,.519-2.5,4.1,4.1,0,0,1,1.471-1.718,4.419,4.419,0,0,1,4.528,0,4.113,4.113,0,0,1,1.471,1.713,5.763,5.763,0,0,1,.519,2.5v.194a5.788,5.788,0,0,1-.519,2.509,3.916,3.916,0,0,1-3.726,2.325Zm0-1.354a2.129,2.129,0,0,0,1.384-.452,2.764,2.764,0,0,0,.843-1.24,5.2,5.2,0,0,0,.287-1.788v-.194a5.2,5.2,0,0,0-.287-1.788,2.738,2.738,0,0,0-.847-1.239,2.368,2.368,0,0,0-2.786,0,2.71,2.71,0,0,0-.844,1.239,5.276,5.276,0,0,0-.281,1.788v.194a5.276,5.276,0,0,0,.281,1.788,2.7,2.7,0,0,0,.848,1.24A2.178,2.178,0,0,0,292.18,119.521Z"/>
            <path class="cls-2" d="M297.355,120.69v-1.107l1.432-.246v-6.794l-1.432-.246V111.18h2.979l.15,1.213.017.167a3.32,3.32,0,0,1,1-1.142,2.313,2.313,0,0,1,1.358-.413,3.375,3.375,0,0,1,.558.048,2.7,2.7,0,0,1,.408.092l-.228,1.609-1.2-.071a1.662,1.662,0,0,0-1.152.312,2.319,2.319,0,0,0-.72.954v5.388l1.432.246v1.107Z"/>
            <path class="cls-2" d="M308.59,120.84a2.261,2.261,0,0,1-1.674-.62,2.711,2.711,0,0,1-.62-1.982v-5.774h-1.5V111.18h1.5v-2.294h1.731v2.294h2.066v1.284h-2.066v5.774a1.554,1.554,0,0,0,.273,1.011.9.9,0,0,0,.729.325,4.631,4.631,0,0,0,.686-.057q.378-.057.589-.1l.237,1.134a7.274,7.274,0,0,1-.928.2A6.568,6.568,0,0,1,308.59,120.84Z"/>
            <path class="cls-2" d="M311.728,120.69v-1.107l1.432-.246v-6.794l-1.432-.246V111.18h3.164v8.157l1.432.246v1.107Zm1.344-11.856v-1.855h1.82v1.855Z"/>
            <path class="cls-2" d="M321.425,120.875a3.934,3.934,0,0,1-3.744-2.334,5.766,5.766,0,0,1-.519-2.5v-.194a5.766,5.766,0,0,1,.519-2.5,4.1,4.1,0,0,1,1.471-1.718,4.419,4.419,0,0,1,4.528,0,4.115,4.115,0,0,1,1.472,1.713,5.778,5.778,0,0,1,.518,2.5v.194a5.8,5.8,0,0,1-.518,2.509,3.919,3.919,0,0,1-3.727,2.325Zm0-1.354a2.129,2.129,0,0,0,1.384-.452,2.764,2.764,0,0,0,.843-1.24,5.2,5.2,0,0,0,.287-1.788v-.194a5.2,5.2,0,0,0-.287-1.788,2.738,2.738,0,0,0-.847-1.239,2.368,2.368,0,0,0-2.786,0,2.71,2.71,0,0,0-.844,1.239,5.276,5.276,0,0,0-.281,1.788v.194a5.276,5.276,0,0,0,.281,1.788,2.7,2.7,0,0,0,.849,1.24A2.175,2.175,0,0,0,321.425,119.521Z"/>
            <path class="cls-2" d="M326.609,120.69v-1.107l1.432-.246v-6.794l-1.432-.246V111.18h2.979l.123,1.415a3.45,3.45,0,0,1,1.191-1.173,3.179,3.179,0,0,1,1.63-.417,3.1,3.1,0,0,1,2.382.9,3.954,3.954,0,0,1,.844,2.782v4.65l1.433.246v1.107h-4.6v-1.107l1.433-.246v-4.615a2.578,2.578,0,0,0-.5-1.784,1.992,1.992,0,0,0-1.516-.527,2.441,2.441,0,0,0-1.323.36,2.625,2.625,0,0,0-.918.985v5.581l1.432.246v1.107Z"/>
            <path class="cls-2" d="M338.989,120.69v-1.775h1.732v1.775Z"/>
          </g>
        </g>
        <g>
          <polygon class="cls-2" points="91.446 62.825 107.298 54.131 91.322 45.314 91.446 62.825"/>
          <g>
            <circle class="cls-3" cx="99.31" cy="115.273" r="13.678"/>
            <g>
              <polygon class="cls-2" points="101.692 119.203 105.547 115.349 101.637 111.439 101.692 119.203"/>
              <line class="cls-3" x1="92.076" y1="115.321" x2="103.163" y2="115.321"/>
            </g>
          </g>
        </g>
      </g>
    </g>
  </g>
</svg>
