<svg xmlns="http://www.w3.org/2000/svg" viewBox="0 0 58.265 28.223">
  <defs>
    <style>
      .cls-1 {
        fill: #191919;
        stroke: #e4e4e4;
        stroke-miterlimit: 10;
        stroke-width: 0.25px;
      }

      .cls-2 {
        fill: #e4e4e4;
      }
    </style>
  </defs>
  <g id="Layer_2" data-name="Layer 2">
    <g id="Interface">
      <g>
        <rect class="cls-1" x="0.125" y="0.125" width="58.015" height="27.973"/>
        <g>
          <path class="cls-2" d="M12.307,20.693a.523.523,0,0,1-.276-.072.282.282,0,0,1-.12-.264,1.21,1.21,0,0,1,.023-.174c.017-.084.052-.262.109-.534h.072l.323.078a1.146,1.146,0,0,0,.277.03.651.651,0,0,0,.708-.6,5.092,5.092,0,0,0,.1-1.152V11.369l-.971-.48V10.7h3.2v.192l-.985.48v4.356a9.92,9.92,0,0,1-.269,2.424,3.759,3.759,0,0,1-.786,1.632,7.829,7.829,0,0,1-.552.564,1.463,1.463,0,0,1-.408.27A1.177,1.177,0,0,1,12.307,20.693Z"/>
          <path class="cls-2" d="M22.627,18.737a3.926,3.926,0,0,1-1.656-.336,2.491,2.491,0,0,1-1.146-1.056,3.757,3.757,0,0,1-.414-1.884V11.369l-.973-.48V10.7h3.2v.192l-.971.48v3.96a3.36,3.36,0,0,0,.311,1.578,1.862,1.862,0,0,0,.841.834,2.724,2.724,0,0,0,1.188.252,2.183,2.183,0,0,0,.978-.222,1.646,1.646,0,0,0,.72-.72,2.727,2.727,0,0,0,.269-1.3v-4.4L23.8,10.889V10.7h2.988v.192l-.972.468v4.1a3.757,3.757,0,0,1-.414,1.884A2.51,2.51,0,0,1,24.27,18.4,3.837,3.837,0,0,1,22.627,18.737Z"/>
          <path class="cls-2" d="M29.383,18.617v-.192l.971-.48V11.393l-.96-.5V10.7h1.885l4.6,5.652V11.357l-1.236-.468V10.7h3.036v.192l-.96.468v7.32H36.2l-5-6.144v5.424l1.237.468v.192Z"/>
          <path class="cls-2" d="M40.159,18.617v-.192l.972-.48V11.369l-.972-.48V10.7h6.023v2.064h-.191l-.78-1.4H42.39V14.2h1.993l.611-1.008h.192v2.652h-.192l-.611-.984H42.39v3.1h3.145l.792-1.584h.191v2.244Z"/>
        </g>
      </g>
    </g>
  </g>
</svg>
