<!-- Generator: Adobe Illustrator 24.3.0, SVG Export Plug-In  -->
<svg version="1.1" xmlns="http://www.w3.org/2000/svg" xmlns:xlink="http://www.w3.org/1999/xlink" x="0px" y="0px"
	 width="56.076px" height="768px" viewBox="0 0 56.076 768" style="overflow:visible;enable-background:new 0 0 56.076 768;"
	 xml:space="preserve">
<style type="text/css">
	.st0{fill:#7B8D9E;}
	.st1{fill:#6E7884;}
	.st2{fill:none;stroke:#6E7884;stroke-miterlimit:10;}
	.st3{fill:#F9C023;}
	.st4{fill:none;stroke:#F9C023;stroke-miterlimit:10;}
	.st5{fill:#FF4733;}
	.st6{font-family:'Roboto-Regular';}
	.st7{font-size:13px;}
	.st8{font-size:39.9313px;}
</style>
<defs>
</defs>
<g>
	<g>
		<g>
			<path class="st0" d="M54.197,84.256v1.251h-6.684c-0.826,0-1.48-0.262-1.965-0.784s-0.727-1.201-0.727-2.034
				c0-0.889,0.226-1.596,0.679-2.121c0.453-0.524,1.108-0.776,1.968-0.755l0.038,0.013v1.199c-0.571,0-0.998,0.146-1.279,0.436
				s-0.422,0.699-0.422,1.229c0,0.461,0.155,0.838,0.466,1.129c0.312,0.293,0.727,0.438,1.247,0.438H54.197z"/>
			<path class="st0" d="M45.971,91.836c-0.368-0.216-0.651-0.493-0.851-0.831c-0.199-0.339-0.298-0.73-0.298-1.175
				c0-0.749,0.238-1.333,0.717-1.752s1.223-0.628,2.234-0.628h4.05v1.25h-4.062c-0.732,0-1.235,0.107-1.511,0.324
				c-0.275,0.215-0.412,0.552-0.412,1.009c0,0.444,0.09,0.812,0.27,1.102s0.435,0.509,0.765,0.657h4.951v1.25h-6.868v-1.123
				L45.971,91.836z"/>
			<path class="st0" d="M44.955,96.215v-1.25h9.902v1.25H44.955z"/>
			<path class="st0" d="M47.5,100.24l-0.863,0.222v0.039l5.187,1.688v1.391l-7.922-2.889c-0.461-0.173-0.863-0.422-1.206-0.745
				c-0.343-0.324-0.514-0.761-0.514-1.312c0-0.102,0.011-0.23,0.034-0.387s0.046-0.277,0.067-0.361l0.983,0.127
				c0.004-0.025,0,0.049-0.013,0.225s-0.02,0.287-0.02,0.334c0,0.266,0.119,0.484,0.355,0.653c0.237,0.169,0.5,0.312,0.787,0.425
				l0.718,0.299l6.729-2.552v1.396L47.5,100.24z"/>
		</g>
	</g>
	<g>
		<g>
			<path class="st0" d="M47.336,326.18v-3.871l-2.381-0.877v-1.275l9.242,3.574v1.072l-9.242,3.517v-1.276L47.336,326.18z
				 M48.383,322.696v3.11l4.209-1.523v-0.038L48.383,322.696z"/>
			<path class="st0" d="M45.971,333.715c-0.368-0.216-0.651-0.493-0.851-0.831c-0.199-0.339-0.298-0.73-0.298-1.175
				c0-0.749,0.238-1.333,0.717-1.752s1.223-0.628,2.234-0.628h4.05v1.25h-4.062c-0.732,0-1.235,0.107-1.511,0.324
				c-0.275,0.215-0.412,0.552-0.412,1.009c0,0.444,0.09,0.812,0.27,1.102s0.435,0.509,0.765,0.657h4.951v1.25h-6.868v-1.123
				L45.971,333.715z"/>
			<path class="st0" d="M48.262,336.47c1.105,0,1.996,0.241,2.673,0.724s1.016,1.149,1.016,1.999c0,0.437-0.088,0.819-0.264,1.149
				s-0.429,0.605-0.759,0.825l0.896,0.152v0.996h-6.906c-0.88,0-1.557-0.256-2.028-0.768s-0.707-1.25-0.707-2.215
				c0-0.33,0.045-0.688,0.136-1.07s0.215-0.721,0.372-1.012l0.971,0.316c-0.127,0.225-0.229,0.496-0.308,0.812
				c-0.078,0.318-0.118,0.631-0.118,0.939c0,0.609,0.139,1.053,0.416,1.33s0.699,0.416,1.267,0.416h0.774
				c-0.288-0.225-0.505-0.493-0.65-0.807c-0.146-0.312-0.219-0.672-0.219-1.078c0-0.843,0.305-1.505,0.914-1.987
				s1.406-0.724,2.393-0.724H48.262z M48.129,337.72c-0.689,0-1.244,0.146-1.663,0.438s-0.628,0.736-0.628,1.333
				c0,0.377,0.085,0.691,0.257,0.945c0.171,0.254,0.413,0.464,0.727,0.629h3.161c0.292-0.161,0.523-0.37,0.695-0.629
				c0.171-0.258,0.257-0.568,0.257-0.933c0-0.597-0.25-1.043-0.749-1.339c-0.499-0.297-1.141-0.445-1.924-0.445H48.129z"/>
			<path class="st0" d="M45.971,348.493c-0.368-0.216-0.651-0.493-0.851-0.831c-0.199-0.339-0.298-0.73-0.298-1.175
				c0-0.749,0.238-1.333,0.717-1.752s1.223-0.628,2.234-0.628h4.05v1.25h-4.062c-0.732,0-1.235,0.107-1.511,0.324
				c-0.275,0.215-0.412,0.552-0.412,1.009c0,0.444,0.09,0.812,0.27,1.102s0.435,0.509,0.765,0.657h4.951v1.25h-6.868v-1.123
				L45.971,348.493z"/>
			<path class="st0" d="M46.783,355.513c0.275,0,0.502-0.104,0.68-0.314c0.178-0.209,0.332-0.605,0.463-1.189
				c0.182-0.834,0.428-1.462,0.738-1.883s0.734-0.631,1.271-0.631c0.558,0,1.033,0.236,1.426,0.711
				c0.394,0.474,0.59,1.092,0.59,1.854c0,0.799-0.205,1.436-0.616,1.907c-0.41,0.472-0.909,0.697-1.498,0.676l-0.037-0.013v-1.193
				c0.3,0,0.569-0.126,0.809-0.378s0.359-0.585,0.359-0.999c0-0.445-0.098-0.775-0.293-0.99c-0.194-0.217-0.429-0.324-0.704-0.324
				c-0.271,0-0.484,0.096-0.642,0.285c-0.156,0.191-0.296,0.578-0.418,1.162c-0.187,0.867-0.439,1.513-0.759,1.936
				c-0.319,0.424-0.748,0.635-1.286,0.635c-0.609,0-1.102-0.246-1.479-0.739s-0.564-1.137-0.564-1.933
				c0-0.876,0.222-1.565,0.666-2.069s0.963-0.743,1.555-0.718l0.039,0.014v1.193c-0.442,0.021-0.766,0.186-0.97,0.494
				c-0.204,0.31-0.307,0.671-0.307,1.086c0,0.444,0.09,0.792,0.27,1.044S46.491,355.513,46.783,355.513z"/>
			<path class="st0" d="M53.48,359.969h-1.657v1.301h-0.927v-1.301h-4.17c-0.322,0-0.549,0.066-0.68,0.199
				c-0.131,0.134-0.197,0.311-0.197,0.53c0,0.072,0.009,0.151,0.025,0.238c0.018,0.087,0.039,0.164,0.064,0.231l-0.857,0.165
				c-0.076-0.093-0.139-0.229-0.188-0.409s-0.072-0.361-0.072-0.543c0-0.508,0.153-0.912,0.46-1.213
				c0.307-0.3,0.788-0.45,1.444-0.45h4.17v-1.092h0.927v1.092h1.657V359.969z"/>
		</g>
	</g>
	<g>
		<g>
			<path class="st0" d="M47.282,654.901c0.421,0,0.773-0.158,1.058-0.476c0.283-0.317,0.522-0.88,0.716-1.688
				c0.233-0.978,0.577-1.74,1.031-2.288c0.453-0.548,1.024-0.822,1.711-0.822c0.722,0,1.323,0.295,1.808,0.886
				c0.483,0.59,0.725,1.355,0.725,2.295c0,1.011-0.276,1.816-0.831,2.415s-1.197,0.888-1.93,0.866l-0.038-0.013v-1.193
				c0.542,0,0.979-0.179,1.314-0.536c0.334-0.357,0.501-0.871,0.501-1.539c0-0.623-0.141-1.1-0.422-1.432s-0.648-0.498-1.102-0.498
				c-0.402,0-0.737,0.18-1.006,0.539s-0.505,0.943-0.708,1.752c-0.241,0.974-0.597,1.714-1.066,2.222s-1.052,0.762-1.746,0.762
				c-0.744,0-1.343-0.305-1.796-0.914s-0.679-1.405-0.679-2.387c0-0.923,0.25-1.738,0.752-2.447
				c0.501-0.709,1.171-1.053,2.009-1.031l0.038,0.013v1.193c-0.593,0-1.043,0.218-1.352,0.654c-0.31,0.436-0.464,0.975-0.464,1.618
				c0,0.631,0.133,1.13,0.397,1.498S46.828,654.901,47.282,654.901z"/>
			<path class="st0" d="M44.822,660.588c0-0.956,0.318-1.717,0.955-2.282c0.637-0.564,1.463-0.847,2.479-0.847h0.279
				c0.978,0,1.791,0.29,2.44,0.872s0.975,1.271,0.975,2.066c0,0.927-0.279,1.627-0.838,2.101c-0.559,0.475-1.304,0.711-2.234,0.711
				h-0.78v-4.455l-0.032-0.02c-0.658,0.013-1.199,0.18-1.624,0.502c-0.424,0.321-0.636,0.771-0.636,1.352
				c0,0.423,0.061,0.795,0.181,1.114c0.121,0.319,0.287,0.596,0.498,0.828l-0.812,0.489c-0.243-0.246-0.445-0.569-0.607-0.972
				S44.822,661.16,44.822,660.588z M50.967,660.398c0-0.419-0.177-0.776-0.528-1.073c-0.353-0.296-0.794-0.478-1.326-0.545
				l-0.031,0.012v3.168h0.164c0.489,0,0.898-0.131,1.228-0.394S50.967,660.915,50.967,660.398z"/>
			<path class="st0" d="M48.129,670.465c-0.99,0-1.789-0.236-2.396-0.711c-0.607-0.474-0.91-1.127-0.91-1.961
				c0-0.423,0.07-0.795,0.212-1.114s0.354-0.591,0.638-0.815h-3.357v-1.25h9.509v0.958l-0.889,0.196
				c0.33,0.225,0.582,0.504,0.755,0.838c0.174,0.335,0.261,0.725,0.261,1.168c0,0.852-0.338,1.513-1.013,1.984
				s-1.566,0.707-2.676,0.707H48.129z M48.266,669.215c0.777,0,1.417-0.153,1.918-0.46s0.751-0.759,0.751-1.355
				c0-0.359-0.081-0.667-0.244-0.921s-0.386-0.459-0.669-0.615h-3.315c-0.283,0.156-0.504,0.361-0.663,0.615
				c-0.158,0.254-0.237,0.565-0.237,0.934c0,0.593,0.217,1.041,0.649,1.346c0.434,0.305,0.992,0.457,1.678,0.457H48.266z"/>
			<path class="st0" d="M53.48,673.653h-1.657v1.301h-0.927v-1.301h-4.17c-0.322,0-0.549,0.066-0.68,0.199
				c-0.131,0.134-0.197,0.311-0.197,0.53c0,0.072,0.009,0.151,0.025,0.238c0.018,0.087,0.039,0.164,0.064,0.231l-0.857,0.165
				c-0.076-0.093-0.139-0.229-0.188-0.409s-0.072-0.361-0.072-0.543c0-0.508,0.153-0.912,0.46-1.213
				c0.307-0.3,0.788-0.45,1.444-0.45h4.17v-1.092h0.927v1.092h1.657V673.653z"/>
			<path class="st0" d="M44.822,679.346c0-0.956,0.318-1.717,0.955-2.282c0.637-0.564,1.463-0.847,2.479-0.847h0.279
				c0.978,0,1.791,0.29,2.44,0.872s0.975,1.271,0.975,2.066c0,0.927-0.279,1.627-0.838,2.101c-0.559,0.475-1.304,0.711-2.234,0.711
				h-0.78v-4.455l-0.032-0.02c-0.658,0.013-1.199,0.18-1.624,0.502c-0.424,0.321-0.636,0.771-0.636,1.352
				c0,0.423,0.061,0.795,0.181,1.114c0.121,0.319,0.287,0.596,0.498,0.828l-0.812,0.489c-0.243-0.246-0.445-0.569-0.607-0.972
				S44.822,679.918,44.822,679.346z M50.967,679.156c0-0.419-0.177-0.776-0.528-1.073c-0.353-0.296-0.794-0.478-1.326-0.545
				l-0.031,0.012v3.168h0.164c0.489,0,0.898-0.131,1.228-0.394S50.967,679.672,50.967,679.156z"/>
			<path class="st0" d="M51.823,684.489l-0.901,0.088c0.326,0.225,0.579,0.51,0.759,0.854s0.27,0.745,0.27,1.202
				s-0.105,0.85-0.317,1.178s-0.529,0.574-0.952,0.74c0.39,0.215,0.698,0.501,0.927,0.856s0.343,0.771,0.343,1.244
				c0,0.698-0.24,1.251-0.721,1.657s-1.202,0.609-2.167,0.609h-4.107v-1.251h4.119c0.678,0,1.157-0.116,1.438-0.349
				c0.281-0.233,0.422-0.58,0.422-1.041c0-0.428-0.148-0.773-0.444-1.038s-0.671-0.42-1.123-0.467h-0.051h-4.361v-1.257h4.119
				c0.644,0,1.114-0.119,1.413-0.358c0.298-0.239,0.447-0.583,0.447-1.032c0-0.381-0.078-0.693-0.235-0.939
				c-0.156-0.245-0.376-0.434-0.66-0.564h-5.084v-1.25h6.868V684.489z"/>
			<path class="st0" d="M48.129,700.598c-0.99,0-1.789-0.238-2.396-0.715c-0.607-0.476-0.91-1.131-0.91-1.965
				c0-0.452,0.087-0.846,0.263-1.18c0.176-0.335,0.435-0.612,0.778-0.832l-0.908-0.152v-1.021h9.902v1.25h-3.847
				c0.305,0.216,0.537,0.483,0.698,0.803s0.241,0.693,0.241,1.121c0,0.846-0.339,1.506-1.016,1.98
				c-0.677,0.474-1.567,0.711-2.673,0.711H48.129z M48.262,699.347c0.787,0,1.43-0.145,1.927-0.435s0.746-0.731,0.746-1.324
				c0-0.385-0.094-0.709-0.282-0.974s-0.441-0.476-0.759-0.632h-2.978c-0.338,0.161-0.603,0.371-0.793,0.632
				c-0.19,0.26-0.285,0.589-0.285,0.987c0,0.588,0.209,1.025,0.628,1.313s0.974,0.432,1.663,0.432H48.262z"/>
			<path class="st0" d="M44.822,704.971c0-0.956,0.318-1.717,0.955-2.282c0.637-0.564,1.463-0.847,2.479-0.847h0.279
				c0.978,0,1.791,0.29,2.44,0.872s0.975,1.271,0.975,2.066c0,0.927-0.279,1.627-0.838,2.101c-0.559,0.475-1.304,0.711-2.234,0.711
				h-0.78v-4.455l-0.032-0.02c-0.658,0.013-1.199,0.18-1.624,0.502c-0.424,0.321-0.636,0.771-0.636,1.352
				c0,0.423,0.061,0.795,0.181,1.114c0.121,0.319,0.287,0.596,0.498,0.828l-0.812,0.489c-0.243-0.246-0.445-0.569-0.607-0.972
				S44.822,705.543,44.822,704.971z M50.967,704.781c0-0.419-0.177-0.776-0.528-1.073c-0.353-0.296-0.794-0.478-1.326-0.545
				l-0.031,0.012v3.168h0.164c0.489,0,0.898-0.131,1.228-0.394S50.967,705.297,50.967,704.781z"/>
			<path class="st0" d="M50.719,712.247l0.038-0.642c0-0.33-0.078-0.608-0.235-0.835c-0.156-0.227-0.376-0.4-0.66-0.523h-4.906
				v-1.25h6.868v1.117l-1.003,0.12c0.355,0.194,0.633,0.435,0.832,0.721c0.198,0.285,0.298,0.614,0.298,0.987
				c0,0.093-0.008,0.182-0.022,0.266c-0.015,0.085-0.03,0.155-0.047,0.21L50.719,712.247z"/>
		</g>
	</g>
	
		<rect x="26.226" y="88.296" transform="matrix(-1.836970e-16 1 -1 -1.836970e-16 121.8359 63.7683)" class="st1" width="5.616" height="9.011"/>
	
		<rect x="26.226" y="101.901" transform="matrix(-1.836970e-16 1 -1 -1.836970e-16 132.4364 74.3687)" class="st1" width="5.616" height="3.004"/>
	
		<rect x="26.226" y="109.497" transform="matrix(-1.836970e-16 1 -1 -1.836970e-16 143.0368 84.9691)" class="st1" width="5.616" height="9.011"/>
	
		<rect x="26.226" y="120.098" transform="matrix(-1.836970e-16 1 -1 -1.836970e-16 153.6373 95.5696)" class="st1" width="5.616" height="9.011"/>
	
		<rect x="26.226" y="130.698" transform="matrix(-1.836970e-16 1 -1 -1.836970e-16 164.2377 106.17)" class="st1" width="5.616" height="9.011"/>
	
		<rect x="26.226" y="144.302" transform="matrix(-1.836970e-16 1 -1 -1.836970e-16 174.8382 116.7705)" class="st1" width="5.616" height="3.004"/>
	
		<rect x="26.226" y="154.903" transform="matrix(-1.836970e-16 1 -1 -1.836970e-16 185.4386 127.3709)" class="st1" width="5.616" height="3.004"/>
	
		<rect x="26.226" y="165.503" transform="matrix(-1.836970e-16 1 -1 -1.836970e-16 196.039 137.9713)" class="st1" width="5.616" height="3.004"/>
	
		<rect x="26.226" y="176.104" transform="matrix(-1.836970e-16 1 -1 -1.836970e-16 206.6395 148.5718)" class="st1" width="5.616" height="3.004"/>
	
		<rect x="26.226" y="186.704" transform="matrix(-1.836970e-16 1 -1 -1.836970e-16 217.2399 159.1722)" class="st1" width="5.616" height="3.004"/>
	
		<rect x="26.226" y="194.301" transform="matrix(-1.836970e-16 1 -1 -1.836970e-16 227.8404 169.7727)" class="st1" width="5.616" height="9.011"/>
	
		<rect x="26.226" y="204.901" transform="matrix(-1.836970e-16 1 -1 -1.836970e-16 238.4408 180.3731)" class="st1" width="5.616" height="9.011"/>
	
		<rect x="26.226" y="215.502" transform="matrix(-1.836970e-16 1 -1 -1.836970e-16 249.0412 190.9736)" class="st1" width="5.616" height="9.011"/>
	
		<rect x="26.226" y="229.106" transform="matrix(-1.836970e-16 1 -1 -1.836970e-16 259.6417 201.574)" class="st1" width="5.616" height="3.004"/>
	
		<rect x="26.226" y="239.706" transform="matrix(-1.836970e-16 1 -1 -1.836970e-16 270.2421 212.1744)" class="st1" width="5.616" height="3.004"/>
	
		<rect x="26.226" y="250.307" transform="matrix(-1.836970e-16 1 -1 -1.836970e-16 280.8426 222.7749)" class="st1" width="5.616" height="3.004"/>
	
		<rect x="26.226" y="260.907" transform="matrix(-1.836970e-16 1 -1 -1.836970e-16 291.443 233.3753)" class="st1" width="5.616" height="3.004"/>
	
		<rect x="26.226" y="271.508" transform="matrix(-1.836970e-16 1 -1 -1.836970e-16 302.0435 243.9758)" class="st1" width="5.616" height="3.004"/>
	
		<rect x="26.226" y="282.108" transform="matrix(-1.836970e-16 1 -1 -1.836970e-16 312.6439 254.5762)" class="st1" width="5.616" height="3.004"/>
	
		<rect x="26.226" y="292.709" transform="matrix(-1.836970e-16 1 -1 -1.836970e-16 323.2443 265.1766)" class="st1" width="5.616" height="3.004"/>
	
		<rect x="26.226" y="300.305" transform="matrix(-1.836970e-16 1 -1 -1.836970e-16 333.8448 275.7771)" class="st1" width="5.616" height="9.011"/>
	
		<rect x="26.226" y="313.909" transform="matrix(-1.836970e-16 1 -1 -1.836970e-16 344.4452 286.3775)" class="st1" width="5.616" height="3.004"/>
	
		<rect x="26.226" y="321.506" transform="matrix(-1.836970e-16 1 -1 -1.836970e-16 355.0457 296.978)" class="st1" width="5.616" height="9.011"/>
	
		<rect x="26.226" y="335.11" transform="matrix(-1.836970e-16 1 -1 -1.836970e-16 365.6461 307.5784)" class="st1" width="5.616" height="3.004"/>
	
		<rect x="26.226" y="345.711" transform="matrix(-1.836970e-16 1 -1 -1.836970e-16 376.2466 318.1789)" class="st1" width="5.616" height="3.004"/>
	
		<rect x="26.226" y="353.307" transform="matrix(-1.836970e-16 1 -1 -1.836970e-16 386.847 328.7793)" class="st1" width="5.616" height="9.011"/>
	
		<rect x="26.226" y="366.912" transform="matrix(-1.836970e-16 1 -1 -1.836970e-16 397.4474 339.3797)" class="st1" width="5.616" height="3.004"/>
	
		<rect x="26.226" y="377.512" transform="matrix(-1.836970e-16 1 -1 -1.836970e-16 408.0479 349.9802)" class="st1" width="5.616" height="3.004"/>
	
		<rect x="26.226" y="388.113" transform="matrix(-1.836970e-16 1 -1 -1.836970e-16 418.6483 360.5806)" class="st1" width="5.616" height="3.004"/>
	
		<rect x="26.226" y="395.709" transform="matrix(-1.836970e-16 1 -1 -1.836970e-16 429.2487 371.1811)" class="st1" width="5.616" height="9.011"/>
	
		<rect x="26.226" y="409.313" transform="matrix(-1.836970e-16 1 -1 -1.836970e-16 439.8492 381.7815)" class="st1" width="5.616" height="3.004"/>
	
		<rect x="26.226" y="416.91" transform="matrix(-1.836970e-16 1 -1 -1.836970e-16 450.4496 392.382)" class="st1" width="5.616" height="9.011"/>
	
		<rect x="26.226" y="430.514" transform="matrix(-1.836970e-16 1 -1 -1.836970e-16 461.0501 402.9824)" class="st1" width="5.616" height="3.004"/>
	
		<rect x="26.226" y="441.115" transform="matrix(-1.836970e-16 1 -1 -1.836970e-16 471.6505 413.5828)" class="st1" width="5.616" height="3.004"/>
	
		<rect x="26.226" y="451.715" transform="matrix(-1.836970e-16 1 -1 -1.836970e-16 482.251 424.1833)" class="st1" width="5.616" height="3.004"/>
	
		<rect x="26.226" y="462.316" transform="matrix(-1.836970e-16 1 -1 -1.836970e-16 492.8514 434.7837)" class="st1" width="5.616" height="3.004"/>
	
		<rect x="26.226" y="472.916" transform="matrix(-1.836970e-16 1 -1 -1.836970e-16 503.4518 445.3842)" class="st1" width="5.616" height="3.004"/>
	
		<rect x="26.226" y="483.517" transform="matrix(-1.836970e-16 1 -1 -1.836970e-16 514.0523 455.9846)" class="st1" width="5.616" height="3.004"/>
	
		<rect x="26.226" y="494.117" transform="matrix(-1.836970e-16 1 -1 -1.836970e-16 524.6527 466.5851)" class="st1" width="5.616" height="3.004"/>
	
		<rect x="26.226" y="501.714" transform="matrix(-1.836970e-16 1 -1 -1.836970e-16 535.2532 477.1855)" class="st1" width="5.616" height="9.011"/>
	
		<rect x="26.226" y="515.318" transform="matrix(-1.836970e-16 1 -1 -1.836970e-16 545.8536 487.7859)" class="st1" width="5.616" height="3.004"/>
	
		<rect x="26.226" y="525.918" transform="matrix(-1.836970e-16 1 -1 -1.836970e-16 556.454 498.3864)" class="st1" width="5.616" height="3.004"/>
	
		<rect x="26.226" y="533.515" transform="matrix(-1.836970e-16 1 -1 -1.836970e-16 567.0545 508.9868)" class="st1" width="5.616" height="9.011"/>
	
		<rect x="26.226" y="544.115" transform="matrix(-1.836970e-16 1 -1 -1.836970e-16 577.655 519.5873)" class="st1" width="5.616" height="9.011"/>
	
		<rect x="26.226" y="554.716" transform="matrix(-1.836970e-16 1 -1 -1.836970e-16 588.2554 530.1877)" class="st1" width="5.616" height="9.011"/>
	
		<rect x="26.226" y="568.32" transform="matrix(-1.836970e-16 1 -1 -1.836970e-16 598.8558 540.7881)" class="st1" width="5.616" height="3.004"/>
	
		<rect x="26.226" y="575.917" transform="matrix(-1.836970e-16 1 -1 -1.836970e-16 609.4562 551.3886)" class="st1" width="5.616" height="9.011"/>
	
		<rect x="26.226" y="586.517" transform="matrix(-1.836970e-16 1 -1 -1.836970e-16 620.0567 561.989)" class="st1" width="5.616" height="9.011"/>
	
		<rect x="26.226" y="597.118" transform="matrix(-1.836970e-16 1 -1 -1.836970e-16 630.6572 572.5895)" class="st1" width="5.616" height="9.011"/>
	
		<rect x="26.226" y="607.718" transform="matrix(-1.836970e-16 1 -1 -1.836970e-16 641.2576 583.1899)" class="st1" width="5.616" height="9.011"/>
	
		<rect x="26.226" y="618.318" transform="matrix(-1.836970e-16 1 -1 -1.836970e-16 651.858 593.7903)" class="st1" width="5.616" height="9.011"/>
	
		<rect x="26.226" y="628.919" transform="matrix(-1.836970e-16 1 -1 -1.836970e-16 662.4585 604.3908)" class="st1" width="5.616" height="9.011"/>
	
		<rect x="26.226" y="639.519" transform="matrix(-1.836970e-16 1 -1 -1.836970e-16 673.0589 614.9912)" class="st1" width="5.616" height="9.011"/>
	
		<rect x="26.226" y="650.12" transform="matrix(-1.836970e-16 1 -1 -1.836970e-16 683.6594 625.5917)" class="st1" width="5.616" height="9.011"/>
	
		<rect x="26.226" y="660.72" transform="matrix(-1.836970e-16 1 -1 -1.836970e-16 694.2598 636.1921)" class="st1" width="5.616" height="9.011"/>
	
		<rect x="26.226" y="671.321" transform="matrix(-1.836970e-16 1 -1 -1.836970e-16 704.8602 646.7925)" class="st1" width="5.616" height="9.011"/>
	
		<rect x="26.226" y="681.921" transform="matrix(-1.836970e-16 1 -1 -1.836970e-16 715.4607 657.393)" class="st1" width="5.616" height="9.011"/>
	
		<rect x="26.226" y="692.522" transform="matrix(-1.836970e-16 1 -1 -1.836970e-16 726.0611 667.9935)" class="st1" width="5.616" height="9.011"/>
	
		<rect x="26.226" y="703.122" transform="matrix(-1.836970e-16 1 -1 -1.836970e-16 736.6616 678.5939)" class="st1" width="5.616" height="9.011"/>
	
		<rect x="26.226" y="713.722" transform="matrix(-1.836970e-16 1 -1 -1.836970e-16 747.262 689.1943)" class="st1" width="5.616" height="9.011"/>
	
		<rect x="26.226" y="724.323" transform="matrix(-1.836970e-16 1 -1 -1.836970e-16 757.8624 699.7947)" class="st1" width="5.616" height="9.011"/>
	
		<rect x="26.226" y="734.923" transform="matrix(-1.836970e-16 1 -1 -1.836970e-16 768.4629 710.3952)" class="st1" width="5.616" height="9.011"/>
	<line class="st2" x1="24.528" y1="638.725" x2="55.627" y2="638.725"/>
	
		<rect x="26.226" y="77.696" transform="matrix(-1.836970e-16 1 -1 -1.836970e-16 111.2355 53.1678)" class="st3" width="5.616" height="9.011"/>
	<line class="st2" x1="24.528" y1="310.03" x2="55.627" y2="310.03"/>
	<g>
		<g>
			<path class="st4" d="M21.862,43.722V15.334h8.715c3.717,0,6.701,1.141,8.949,3.422c2.249,2.281,3.374,5.229,3.374,8.842v3.881
				c0,3.626-1.125,6.573-3.374,8.842c-2.249,2.269-5.232,3.402-8.949,3.402H21.862z M25.703,18.356V40.7h4.875
				c2.625,0,4.696-0.863,6.21-2.591c1.514-1.727,2.271-3.941,2.271-6.643V27.55c0-2.675-0.757-4.876-2.271-6.604
				s-3.584-2.591-6.21-2.591H25.703z"/>
		</g>
		<g>
			<g>
				<g>
					<path class="st4" d="M49.263,44.379c0-1.292-0.487-2.374-1.462-3.247c-0.975-0.872-2.704-1.605-5.186-2.2
						c-3.003-0.717-5.346-1.771-7.029-3.166c-1.683-1.395-2.525-3.146-2.525-5.258c0-2.215,0.907-4.064,2.72-5.551
						c1.813-1.485,4.163-2.228,7.048-2.228c3.106,0,5.579,0.852,7.419,2.554c1.839,1.703,2.726,3.679,2.661,5.928l-0.039,0.117
						h-3.666c0-1.664-0.549-3.01-1.647-4.036c-1.099-1.027-2.674-1.541-4.728-1.541c-1.911,0-3.376,0.433-4.397,1.297
						s-1.53,1.992-1.53,3.383c0,1.235,0.552,2.266,1.657,3.091c1.104,0.825,2.898,1.55,5.381,2.174
						c2.99,0.741,5.264,1.833,6.824,3.275c1.56,1.443,2.34,3.23,2.34,5.362c0,2.288-0.936,4.127-2.808,5.518
						c-1.872,1.391-4.316,2.086-7.332,2.086c-2.833,0-5.339-0.77-7.516-2.311c-2.177-1.54-3.234-3.597-3.168-6.171l0.039-0.117
						h3.666c0,1.82,0.669,3.205,2.008,4.153c1.338,0.949,2.996,1.424,4.972,1.424c1.937,0,3.471-0.407,4.602-1.222
						C48.698,46.88,49.263,45.775,49.263,44.379z"/>
				</g>
			</g>
		</g>
	</g>
	<rect class="st5" width="3.596" height="768"/>
</g>
</svg>
