<!-- Generator: Adobe Illustrator 24.2.1, SVG Export Plug-In  -->
<svg version="1.1" xmlns="http://www.w3.org/2000/svg" xmlns:xlink="http://www.w3.org/1999/xlink" x="0px" y="0px" width="58.3px"
	 height="28.2px" viewBox="0 0 58.3 28.2" style="overflow:visible;enable-background:new 0 0 58.3 28.2;" xml:space="preserve">
<style type="text/css">
	.st0{fill:#191919;stroke:#E4E4E4;stroke-width:0.25;stroke-miterlimit:10;}
	.st1{fill:#E4E4E4;}
</style>
<defs>
</defs>
<g>
	<rect x="0.1" y="0.1" class="st0" width="58" height="28"/>
	<g>
		<g>
			<g>
				<path class="st1" d="M12.3,20.7c-0.1,0-0.2,0-0.3-0.1c-0.1,0-0.1-0.1-0.1-0.3c0,0,0-0.1,0-0.2c0-0.1,0.1-0.3,0.1-0.5h0.1
					c0.1,0,0.2,0.1,0.3,0.1c0.1,0,0.2,0,0.3,0c0.2,0,0.3,0,0.4-0.1c0.1-0.1,0.2-0.2,0.3-0.5c0.1-0.2,0.1-0.6,0.1-1.2v-6.6l-1-0.5
					v-0.2h3.2v0.2l-1,0.5v4.4c0,0.9-0.1,1.7-0.3,2.4c-0.2,0.7-0.4,1.3-0.8,1.6c-0.2,0.2-0.4,0.4-0.6,0.6c-0.1,0.1-0.3,0.2-0.4,0.3
					C12.6,20.7,12.5,20.7,12.3,20.7z"/>
				<path class="st1" d="M22.6,18.7c-0.6,0-1.2-0.1-1.7-0.3s-0.9-0.6-1.1-1.1s-0.4-1.1-0.4-1.9v-4.1l-1-0.5v-0.2h3.2v0.2l-1,0.5v4
					c0,0.7,0.1,1.2,0.3,1.6c0.2,0.4,0.5,0.7,0.8,0.8S22.6,18,23,18c0.4,0,0.7-0.1,1-0.2c0.3-0.1,0.5-0.4,0.7-0.7
					c0.2-0.3,0.3-0.8,0.3-1.3v-4.4l-1.2-0.5v-0.2h3v0.2l-1,0.5v4.1c0,0.8-0.1,1.4-0.4,1.9s-0.7,0.8-1.1,1.1
					C23.8,18.6,23.2,18.7,22.6,18.7z"/>
				<path class="st1" d="M29.4,18.6v-0.2l1-0.5v-6.6l-1-0.5v-0.2h1.9l4.6,5.7v-5l-1.2-0.5v-0.2h3v0.2l-1,0.5v7.3h-0.5l-5-6.1V18
					l1.2,0.5v0.2H29.4z"/>
				<path class="st1" d="M40.2,18.6v-0.2l1-0.5v-6.6l-1-0.5v-0.2h6v2.1H46l-0.8-1.4h-2.8v2.8h2l0.6-1h0.2v2.7H45l-0.6-1h-2V18h3.1
					l0.8-1.6h0.2v2.2H40.2z"/>
			</g>
		</g>
	</g>
</g>
</svg>
