<!-- Generator: Adobe Illustrator 24.3.0, SVG Export Plug-In  -->
<svg version="1.1" xmlns="http://www.w3.org/2000/svg" xmlns:xlink="http://www.w3.org/1999/xlink" x="0px" y="0px"
	 width="1570.03px" height="13055.653px" viewBox="0 0 1570.03 13055.653"
	 style="overflow:visible;enable-background:new 0 0 1570.03 13055.653;" xml:space="preserve">
<style type="text/css">
	.st0{opacity:0.3;}
	.st1{fill:none;stroke:#FFFFFF;stroke-width:3;stroke-miterlimit:10;}
	.st2{fill:none;stroke:#FFFFFF;stroke-miterlimit:10;}
	.st3{fill:none;stroke:#FFFFFF;stroke-miterlimit:10;stroke-dasharray:12.0778,12.0778;}
</style>
<defs>
</defs>
<g class="st0">
	<g>
		<line class="st1" x1="1570.03" y1="769.5" x2="0" y2="769.5"/>
		<line class="st1" x1="1570.03" y1="1.5" x2="0" y2="1.5"/>
		<g>
			<g>
				<line class="st2" x1="1570.03" y1="577.5" x2="1564.03" y2="577.5"/>
				<line class="st3" x1="1551.953" y1="577.5" x2="12.039" y2="577.5"/>
				<line class="st2" x1="6" y1="577.5" x2="0" y2="577.5"/>
			</g>
		</g>
		<g>
			<g>
				<line class="st2" x1="1570.03" y1="385.5" x2="1564.03" y2="385.5"/>
				<line class="st3" x1="1551.953" y1="385.5" x2="12.039" y2="385.5"/>
				<line class="st2" x1="6" y1="385.5" x2="0" y2="385.5"/>
			</g>
		</g>
		<g>
			<g>
				<line class="st2" x1="1570.03" y1="193.5" x2="1564.03" y2="193.5"/>
				<line class="st3" x1="1551.953" y1="193.5" x2="12.039" y2="193.5"/>
				<line class="st2" x1="6" y1="193.5" x2="0" y2="193.5"/>
			</g>
		</g>
	</g>
	<g>
		<line class="st1" x1="1570.03" y1="1537.291" x2="0" y2="1537.291"/>
		<line class="st1" x1="1570.03" y1="769.291" x2="0" y2="769.291"/>
		<g>
			<g>
				<line class="st2" x1="1570.03" y1="1345.291" x2="1564.03" y2="1345.291"/>
				<line class="st3" x1="1551.953" y1="1345.291" x2="12.039" y2="1345.291"/>
				<line class="st2" x1="6" y1="1345.291" x2="0" y2="1345.291"/>
			</g>
		</g>
		<g>
			<g>
				<line class="st2" x1="1570.03" y1="1153.291" x2="1564.03" y2="1153.291"/>
				<line class="st3" x1="1551.953" y1="1153.291" x2="12.039" y2="1153.291"/>
				<line class="st2" x1="6" y1="1153.291" x2="0" y2="1153.291"/>
			</g>
		</g>
		<g>
			<g>
				<line class="st2" x1="1570.03" y1="961.291" x2="1564.03" y2="961.291"/>
				<line class="st3" x1="1551.953" y1="961.291" x2="12.039" y2="961.291"/>
				<line class="st2" x1="6" y1="961.291" x2="0" y2="961.291"/>
			</g>
		</g>
	</g>
	<g>
		<line class="st1" x1="1570.03" y1="2305.082" x2="0" y2="2305.082"/>
		<line class="st1" x1="1570.03" y1="1537.082" x2="0" y2="1537.082"/>
		<g>
			<g>
				<line class="st2" x1="1570.03" y1="2113.082" x2="1564.03" y2="2113.082"/>
				<line class="st3" x1="1551.953" y1="2113.082" x2="12.039" y2="2113.082"/>
				<line class="st2" x1="6" y1="2113.082" x2="0" y2="2113.082"/>
			</g>
		</g>
		<g>
			<g>
				<line class="st2" x1="1570.03" y1="1921.082" x2="1564.03" y2="1921.082"/>
				<line class="st3" x1="1551.953" y1="1921.082" x2="12.039" y2="1921.082"/>
				<line class="st2" x1="6" y1="1921.082" x2="0" y2="1921.082"/>
			</g>
		</g>
		<g>
			<g>
				<line class="st2" x1="1570.03" y1="1729.082" x2="1564.03" y2="1729.082"/>
				<line class="st3" x1="1551.953" y1="1729.082" x2="12.039" y2="1729.082"/>
				<line class="st2" x1="6" y1="1729.082" x2="0" y2="1729.082"/>
			</g>
		</g>
	</g>
	<g>
		<line class="st1" x1="1570.03" y1="3072.873" x2="0" y2="3072.873"/>
		<line class="st1" x1="1570.03" y1="2304.873" x2="0" y2="2304.873"/>
		<g>
			<g>
				<line class="st2" x1="1570.03" y1="2880.872" x2="1564.03" y2="2880.872"/>
				<line class="st3" x1="1551.953" y1="2880.872" x2="12.039" y2="2880.872"/>
				<line class="st2" x1="6" y1="2880.872" x2="0" y2="2880.872"/>
			</g>
		</g>
		<g>
			<g>
				<line class="st2" x1="1570.03" y1="2688.872" x2="1564.03" y2="2688.872"/>
				<line class="st3" x1="1551.953" y1="2688.872" x2="12.039" y2="2688.872"/>
				<line class="st2" x1="6" y1="2688.872" x2="0" y2="2688.872"/>
			</g>
		</g>
		<g>
			<g>
				<line class="st2" x1="1570.03" y1="2496.872" x2="1564.03" y2="2496.872"/>
				<line class="st3" x1="1551.953" y1="2496.872" x2="12.039" y2="2496.872"/>
				<line class="st2" x1="6" y1="2496.872" x2="0" y2="2496.872"/>
			</g>
		</g>
	</g>
	<g>
		<line class="st1" x1="1570.03" y1="3840.663" x2="0" y2="3840.663"/>
		<line class="st1" x1="1570.03" y1="3072.663" x2="0" y2="3072.663"/>
		<g>
			<g>
				<line class="st2" x1="1570.03" y1="3648.663" x2="1564.03" y2="3648.663"/>
				<line class="st3" x1="1551.953" y1="3648.663" x2="12.039" y2="3648.663"/>
				<line class="st2" x1="6" y1="3648.663" x2="0" y2="3648.663"/>
			</g>
		</g>
		<g>
			<g>
				<line class="st2" x1="1570.03" y1="3456.663" x2="1564.03" y2="3456.663"/>
				<line class="st3" x1="1551.953" y1="3456.663" x2="12.039" y2="3456.663"/>
				<line class="st2" x1="6" y1="3456.663" x2="0" y2="3456.663"/>
			</g>
		</g>
		<g>
			<g>
				<line class="st2" x1="1570.03" y1="3264.663" x2="1564.03" y2="3264.663"/>
				<line class="st3" x1="1551.953" y1="3264.663" x2="12.039" y2="3264.663"/>
				<line class="st2" x1="6" y1="3264.663" x2="0" y2="3264.663"/>
			</g>
		</g>
	</g>
	<g>
		<line class="st1" x1="1570.03" y1="4608.454" x2="0" y2="4608.454"/>
		<line class="st1" x1="1570.03" y1="3840.454" x2="0" y2="3840.454"/>
		<g>
			<g>
				<line class="st2" x1="1570.03" y1="4416.454" x2="1564.03" y2="4416.454"/>
				<line class="st3" x1="1551.953" y1="4416.454" x2="12.039" y2="4416.454"/>
				<line class="st2" x1="6" y1="4416.454" x2="0" y2="4416.454"/>
			</g>
		</g>
		<g>
			<g>
				<line class="st2" x1="1570.03" y1="4224.454" x2="1564.03" y2="4224.454"/>
				<line class="st3" x1="1551.953" y1="4224.454" x2="12.039" y2="4224.454"/>
				<line class="st2" x1="6" y1="4224.454" x2="0" y2="4224.454"/>
			</g>
		</g>
		<g>
			<g>
				<line class="st2" x1="1570.03" y1="4032.454" x2="1564.03" y2="4032.454"/>
				<line class="st3" x1="1551.953" y1="4032.454" x2="12.039" y2="4032.454"/>
				<line class="st2" x1="6" y1="4032.454" x2="0" y2="4032.454"/>
			</g>
		</g>
	</g>
	<g>
		<line class="st1" x1="1570.03" y1="5376.245" x2="0" y2="5376.245"/>
		<line class="st1" x1="1570.03" y1="4608.245" x2="0" y2="4608.245"/>
		<g>
			<g>
				<line class="st2" x1="1570.03" y1="5184.245" x2="1564.03" y2="5184.245"/>
				<line class="st3" x1="1551.953" y1="5184.245" x2="12.039" y2="5184.245"/>
				<line class="st2" x1="6" y1="5184.245" x2="0" y2="5184.245"/>
			</g>
		</g>
		<g>
			<g>
				<line class="st2" x1="1570.03" y1="4992.245" x2="1564.03" y2="4992.245"/>
				<line class="st3" x1="1551.953" y1="4992.245" x2="12.039" y2="4992.245"/>
				<line class="st2" x1="6" y1="4992.245" x2="0" y2="4992.245"/>
			</g>
		</g>
		<g>
			<g>
				<line class="st2" x1="1570.03" y1="4800.245" x2="1564.03" y2="4800.245"/>
				<line class="st3" x1="1551.953" y1="4800.245" x2="12.039" y2="4800.245"/>
				<line class="st2" x1="6" y1="4800.245" x2="0" y2="4800.245"/>
			</g>
		</g>
	</g>
	<g>
		<line class="st1" x1="1570.03" y1="6144.036" x2="0" y2="6144.036"/>
		<line class="st1" x1="1570.03" y1="5376.036" x2="0" y2="5376.036"/>
		<g>
			<g>
				<line class="st2" x1="1570.03" y1="5952.036" x2="1564.03" y2="5952.036"/>
				<line class="st3" x1="1551.953" y1="5952.036" x2="12.039" y2="5952.036"/>
				<line class="st2" x1="6" y1="5952.036" x2="0" y2="5952.036"/>
			</g>
		</g>
		<g>
			<g>
				<line class="st2" x1="1570.03" y1="5760.036" x2="1564.03" y2="5760.036"/>
				<line class="st3" x1="1551.953" y1="5760.036" x2="12.039" y2="5760.036"/>
				<line class="st2" x1="6" y1="5760.036" x2="0" y2="5760.036"/>
			</g>
		</g>
		<g>
			<g>
				<line class="st2" x1="1570.03" y1="5568.036" x2="1564.03" y2="5568.036"/>
				<line class="st3" x1="1551.953" y1="5568.036" x2="12.039" y2="5568.036"/>
				<line class="st2" x1="6" y1="5568.036" x2="0" y2="5568.036"/>
			</g>
		</g>
	</g>
	<g>
		<line class="st1" x1="1570.03" y1="6911.827" x2="0" y2="6911.827"/>
		<line class="st1" x1="1570.03" y1="6143.827" x2="0" y2="6143.827"/>
		<g>
			<g>
				<line class="st2" x1="1570.03" y1="6719.826" x2="1564.03" y2="6719.826"/>
				<line class="st3" x1="1551.953" y1="6719.826" x2="12.039" y2="6719.826"/>
				<line class="st2" x1="6" y1="6719.826" x2="0" y2="6719.826"/>
			</g>
		</g>
		<g>
			<g>
				<line class="st2" x1="1570.03" y1="6527.826" x2="1564.03" y2="6527.826"/>
				<line class="st3" x1="1551.953" y1="6527.826" x2="12.039" y2="6527.826"/>
				<line class="st2" x1="6" y1="6527.826" x2="0" y2="6527.826"/>
			</g>
		</g>
		<g>
			<g>
				<line class="st2" x1="1570.03" y1="6335.826" x2="1564.03" y2="6335.826"/>
				<line class="st3" x1="1551.953" y1="6335.826" x2="12.039" y2="6335.826"/>
				<line class="st2" x1="6" y1="6335.826" x2="0" y2="6335.826"/>
			</g>
		</g>
	</g>
	<g>
		<line class="st1" x1="1570.03" y1="7679.617" x2="0" y2="7679.617"/>
		<line class="st1" x1="1570.03" y1="6911.617" x2="0" y2="6911.617"/>
		<g>
			<g>
				<line class="st2" x1="1570.03" y1="7487.617" x2="1564.03" y2="7487.617"/>
				<line class="st3" x1="1551.953" y1="7487.617" x2="12.039" y2="7487.617"/>
				<line class="st2" x1="6" y1="7487.617" x2="0" y2="7487.617"/>
			</g>
		</g>
		<g>
			<g>
				<line class="st2" x1="1570.03" y1="7295.617" x2="1564.03" y2="7295.617"/>
				<line class="st3" x1="1551.953" y1="7295.617" x2="12.039" y2="7295.617"/>
				<line class="st2" x1="6" y1="7295.617" x2="0" y2="7295.617"/>
			</g>
		</g>
		<g>
			<g>
				<line class="st2" x1="1570.03" y1="7103.617" x2="1564.03" y2="7103.617"/>
				<line class="st3" x1="1551.953" y1="7103.617" x2="12.039" y2="7103.617"/>
				<line class="st2" x1="6" y1="7103.617" x2="0" y2="7103.617"/>
			</g>
		</g>
	</g>
	<g>
		<line class="st1" x1="1570.03" y1="8447.408" x2="0" y2="8447.408"/>
		<line class="st1" x1="1570.03" y1="7679.408" x2="0" y2="7679.408"/>
		<g>
			<g>
				<line class="st2" x1="1570.03" y1="8255.408" x2="1564.03" y2="8255.408"/>
				<line class="st3" x1="1551.953" y1="8255.408" x2="12.039" y2="8255.408"/>
				<line class="st2" x1="6" y1="8255.408" x2="0" y2="8255.408"/>
			</g>
		</g>
		<g>
			<g>
				<line class="st2" x1="1570.03" y1="8063.408" x2="1564.03" y2="8063.408"/>
				<line class="st3" x1="1551.953" y1="8063.408" x2="12.039" y2="8063.408"/>
				<line class="st2" x1="6" y1="8063.408" x2="0" y2="8063.408"/>
			</g>
		</g>
		<g>
			<g>
				<line class="st2" x1="1570.03" y1="7871.408" x2="1564.03" y2="7871.408"/>
				<line class="st3" x1="1551.953" y1="7871.408" x2="12.039" y2="7871.408"/>
				<line class="st2" x1="6" y1="7871.408" x2="0" y2="7871.408"/>
			</g>
		</g>
	</g>
	<g>
		<line class="st1" x1="1570.03" y1="9215.199" x2="0" y2="9215.199"/>
		<line class="st1" x1="1570.03" y1="8447.199" x2="0" y2="8447.199"/>
		<g>
			<g>
				<line class="st2" x1="1570.03" y1="9023.199" x2="1564.03" y2="9023.199"/>
				<line class="st3" x1="1551.953" y1="9023.199" x2="12.039" y2="9023.199"/>
				<line class="st2" x1="6" y1="9023.199" x2="0" y2="9023.199"/>
			</g>
		</g>
		<g>
			<g>
				<line class="st2" x1="1570.03" y1="8831.199" x2="1564.03" y2="8831.199"/>
				<line class="st3" x1="1551.953" y1="8831.199" x2="12.039" y2="8831.199"/>
				<line class="st2" x1="6" y1="8831.199" x2="0" y2="8831.199"/>
			</g>
		</g>
		<g>
			<g>
				<line class="st2" x1="1570.03" y1="8639.199" x2="1564.03" y2="8639.199"/>
				<line class="st3" x1="1551.953" y1="8639.199" x2="12.039" y2="8639.199"/>
				<line class="st2" x1="6" y1="8639.199" x2="0" y2="8639.199"/>
			</g>
		</g>
	</g>
	<g>
		<line class="st1" x1="1570.03" y1="9982.99" x2="0" y2="9982.99"/>
		<line class="st1" x1="1570.03" y1="9214.99" x2="0" y2="9214.99"/>
		<g>
			<g>
				<line class="st2" x1="1570.03" y1="9790.989" x2="1564.03" y2="9790.989"/>
				<line class="st3" x1="1551.953" y1="9790.989" x2="12.039" y2="9790.989"/>
				<line class="st2" x1="6" y1="9790.989" x2="0" y2="9790.989"/>
			</g>
		</g>
		<g>
			<g>
				<line class="st2" x1="1570.03" y1="9598.989" x2="1564.03" y2="9598.989"/>
				<line class="st3" x1="1551.953" y1="9598.989" x2="12.039" y2="9598.989"/>
				<line class="st2" x1="6" y1="9598.989" x2="0" y2="9598.989"/>
			</g>
		</g>
		<g>
			<g>
				<line class="st2" x1="1570.03" y1="9406.989" x2="1564.03" y2="9406.989"/>
				<line class="st3" x1="1551.953" y1="9406.989" x2="12.039" y2="9406.989"/>
				<line class="st2" x1="6" y1="9406.989" x2="0" y2="9406.989"/>
			</g>
		</g>
	</g>
	<g>
		<line class="st1" x1="1570.03" y1="10750.78" x2="0" y2="10750.78"/>
		<line class="st1" x1="1570.03" y1="9982.78" x2="0" y2="9982.78"/>
		<g>
			<g>
				<line class="st2" x1="1570.03" y1="10558.78" x2="1564.03" y2="10558.78"/>
				<line class="st3" x1="1551.953" y1="10558.78" x2="12.039" y2="10558.78"/>
				<line class="st2" x1="6" y1="10558.78" x2="0" y2="10558.78"/>
			</g>
		</g>
		<g>
			<g>
				<line class="st2" x1="1570.03" y1="10366.78" x2="1564.03" y2="10366.78"/>
				<line class="st3" x1="1551.953" y1="10366.78" x2="12.039" y2="10366.78"/>
				<line class="st2" x1="6" y1="10366.78" x2="0" y2="10366.78"/>
			</g>
		</g>
		<g>
			<g>
				<line class="st2" x1="1570.03" y1="10174.78" x2="1564.03" y2="10174.78"/>
				<line class="st3" x1="1551.953" y1="10174.78" x2="12.039" y2="10174.78"/>
				<line class="st2" x1="6" y1="10174.78" x2="0" y2="10174.78"/>
			</g>
		</g>
	</g>
	<g>
		<line class="st1" x1="1570.03" y1="11518.571" x2="0" y2="11518.571"/>
		<line class="st1" x1="1570.03" y1="10750.571" x2="0" y2="10750.571"/>
		<g>
			<g>
				<line class="st2" x1="1570.03" y1="11326.571" x2="1564.03" y2="11326.571"/>
				<line class="st3" x1="1551.953" y1="11326.571" x2="12.039" y2="11326.571"/>
				<line class="st2" x1="6" y1="11326.571" x2="0" y2="11326.571"/>
			</g>
		</g>
		<g>
			<g>
				<line class="st2" x1="1570.03" y1="11134.571" x2="1564.03" y2="11134.571"/>
				<line class="st3" x1="1551.953" y1="11134.571" x2="12.039" y2="11134.571"/>
				<line class="st2" x1="6" y1="11134.571" x2="0" y2="11134.571"/>
			</g>
		</g>
		<g>
			<g>
				<line class="st2" x1="1570.03" y1="10942.571" x2="1564.03" y2="10942.571"/>
				<line class="st3" x1="1551.953" y1="10942.571" x2="12.039" y2="10942.571"/>
				<line class="st2" x1="6" y1="10942.571" x2="0" y2="10942.571"/>
			</g>
		</g>
	</g>
	<g>
		<line class="st1" x1="1570.03" y1="12286.362" x2="0" y2="12286.362"/>
		<line class="st1" x1="1570.03" y1="11518.362" x2="0" y2="11518.362"/>
		<g>
			<g>
				<line class="st2" x1="1570.03" y1="12094.362" x2="1564.03" y2="12094.362"/>
				<line class="st3" x1="1551.953" y1="12094.362" x2="12.039" y2="12094.362"/>
				<line class="st2" x1="6" y1="12094.362" x2="0" y2="12094.362"/>
			</g>
		</g>
		<g>
			<g>
				<line class="st2" x1="1570.03" y1="11902.362" x2="1564.03" y2="11902.362"/>
				<line class="st3" x1="1551.953" y1="11902.362" x2="12.039" y2="11902.362"/>
				<line class="st2" x1="6" y1="11902.362" x2="0" y2="11902.362"/>
			</g>
		</g>
		<g>
			<g>
				<line class="st2" x1="1570.03" y1="11710.362" x2="1564.03" y2="11710.362"/>
				<line class="st3" x1="1551.953" y1="11710.362" x2="12.039" y2="11710.362"/>
				<line class="st2" x1="6" y1="11710.362" x2="0" y2="11710.362"/>
			</g>
		</g>
	</g>
	<g>
		<line class="st1" x1="1570.03" y1="13054.153" x2="0" y2="13054.153"/>
		<line class="st1" x1="1570.03" y1="12286.153" x2="0" y2="12286.153"/>
		<g>
			<g>
				<line class="st2" x1="1570.03" y1="12862.153" x2="1564.03" y2="12862.153"/>
				<line class="st3" x1="1551.953" y1="12862.153" x2="12.039" y2="12862.153"/>
				<line class="st2" x1="6" y1="12862.153" x2="0" y2="12862.153"/>
			</g>
		</g>
		<g>
			<g>
				<line class="st2" x1="1570.03" y1="12670.153" x2="1564.03" y2="12670.153"/>
				<line class="st3" x1="1551.953" y1="12670.153" x2="12.039" y2="12670.153"/>
				<line class="st2" x1="6" y1="12670.153" x2="0" y2="12670.153"/>
			</g>
		</g>
		<g>
			<g>
				<line class="st2" x1="1570.03" y1="12478.153" x2="1564.03" y2="12478.153"/>
				<line class="st3" x1="1551.953" y1="12478.153" x2="12.039" y2="12478.153"/>
				<line class="st2" x1="6" y1="12478.153" x2="0" y2="12478.153"/>
			</g>
		</g>
	</g>
</g>
</svg>
