<!-- Generator: Adobe Illustrator 24.2.1, SVG Export Plug-In  -->
<svg version="1.1" xmlns="http://www.w3.org/2000/svg" xmlns:xlink="http://www.w3.org/1999/xlink" x="0px" y="0px" width="58.3px"
	 height="47.2px" viewBox="0 0 58.3 47.2" style="overflow:visible;enable-background:new 0 0 58.3 47.2;" xml:space="preserve">
<style type="text/css">
	.st0{fill:#191919;stroke:#E4E4E4;stroke-width:0.25;stroke-miterlimit:10;}
	.st1{fill:#E4E4E4;}
</style>
<defs>
</defs>
<g>
	<rect x="0.1" y="0.1" class="st0" width="58" height="46.9"/>
	<g>
		<g>
			<path class="st1" d="M15.2,36.1v-0.6l3.6-1.6V13.6l-7,3.5v-1.4l9.6-6h0.8v24.2l3.2,1.6v0.6H15.2z"/>
			<path class="st1" d="M30.7,36.1v-1c2.3-2.7,4.2-4.9,5.7-6.7c1.5-1.8,2.7-3.3,3.5-4.5c0.8-1.2,1.5-2.2,1.8-3
				c0.4-0.8,0.6-1.6,0.7-2.3c0.1-0.7,0.1-1.4,0.1-2.2c0-1.6-0.4-2.9-1.3-3.9c-0.9-0.9-1.9-1.4-3.1-1.4c-1.4,0-2.5,0.4-3.2,1.1
				c-0.7,0.7-1.1,1.8-1.1,3.3v1.8l-0.2,0.3h-1.8c-0.5,0-0.9-0.1-1.2-0.3c-0.3-0.2-0.4-0.7-0.4-1.4c0-0.7,0.2-1.4,0.6-2.1
				c0.4-0.7,1-1.4,1.9-2c0.7-0.5,1.4-0.9,2-1.3c0.6-0.4,1.3-0.7,2-0.9c0.7-0.2,1.6-0.3,2.7-0.3c1.4,0,2.6,0.3,3.6,1
				c1.1,0.6,1.9,1.5,2.5,2.6c0.6,1.1,0.9,2.3,0.9,3.6c0,0.9-0.1,1.7-0.3,2.4c-0.2,0.7-0.6,1.5-1.1,2.3c-0.5,0.8-1.2,1.7-2,2.7
				c-0.9,1-2,2.3-3.3,3.7c-1.3,1.5-2.9,3.2-4.7,5.3h9.4l2-3.9h0.6l-0.4,7.2H30.7z"/>
		</g>
	</g>
</g>
</svg>
