<!-- Generator: Adobe Illustrator 24.2.0, SVG Export Plug-In  -->
<svg version="1.1" xmlns="http://www.w3.org/2000/svg" xmlns:xlink="http://www.w3.org/1999/xlink" x="0px" y="0px"
	 width="1671.733px" height="15204.814px" viewBox="0 0 1671.733 15204.814"
	 style="overflow:visible;enable-background:new 0 0 1671.733 15204.814;" xml:space="preserve">
<style type="text/css">
	.st0{fill:none;stroke:#4D4D4D;stroke-miterlimit:10;}
	.st1{fill:none;stroke:#4D4D4D;stroke-miterlimit:10;stroke-dasharray:11.9405,11.9405;}
	.st2{fill:none;stroke:#808080;stroke-width:2;stroke-miterlimit:10;}
	.st3{fill:none;stroke:#808080;stroke-width:2;stroke-miterlimit:10;stroke-dasharray:11.9405,11.9405;}
</style>
<defs>
</defs>
<g>
	<g>
		<line class="st0" x1="0" y1="203.815" x2="6" y2="203.815"/>
		<line class="st1" x1="17.94" y1="203.815" x2="1659.763" y2="203.815"/>
		<line class="st0" x1="1665.733" y1="203.815" x2="1671.733" y2="203.815"/>
	</g>
</g>
<g>
	<g>
		<line class="st0" x1="0" y1="403.815" x2="6" y2="403.815"/>
		<line class="st1" x1="17.94" y1="403.815" x2="1659.763" y2="403.815"/>
		<line class="st0" x1="1665.733" y1="403.815" x2="1671.733" y2="403.815"/>
	</g>
</g>
<g>
	<g>
		<line class="st0" x1="0" y1="603.815" x2="6" y2="603.815"/>
		<line class="st1" x1="17.94" y1="603.815" x2="1659.763" y2="603.815"/>
		<line class="st0" x1="1665.733" y1="603.815" x2="1671.733" y2="603.815"/>
	</g>
</g>
<g>
	<g>
		<line class="st2" x1="0" y1="803.815" x2="6" y2="803.815"/>
		<line class="st3" x1="17.94" y1="803.815" x2="1659.763" y2="803.815"/>
		<line class="st2" x1="1665.733" y1="803.815" x2="1671.733" y2="803.815"/>
	</g>
</g>
<g>
	<g>
		<line class="st2" x1="0" y1="1" x2="6" y2="1"/>
		<line class="st3" x1="17.94" y1="1" x2="1659.763" y2="1"/>
		<line class="st2" x1="1665.733" y1="1" x2="1671.733" y2="1"/>
	</g>
</g>
<g>
	<g>
		<line class="st0" x1="0" y1="1003.815" x2="6" y2="1003.815"/>
		<line class="st1" x1="17.94" y1="1003.815" x2="1659.763" y2="1003.815"/>
		<line class="st0" x1="1665.733" y1="1003.815" x2="1671.733" y2="1003.815"/>
	</g>
</g>
<g>
	<g>
		<line class="st0" x1="0" y1="1203.815" x2="6" y2="1203.815"/>
		<line class="st1" x1="17.94" y1="1203.815" x2="1659.763" y2="1203.815"/>
		<line class="st0" x1="1665.733" y1="1203.815" x2="1671.733" y2="1203.815"/>
	</g>
</g>
<g>
	<g>
		<line class="st0" x1="0" y1="1403.815" x2="6" y2="1403.815"/>
		<line class="st1" x1="17.94" y1="1403.815" x2="1659.763" y2="1403.815"/>
		<line class="st0" x1="1665.733" y1="1403.815" x2="1671.733" y2="1403.815"/>
	</g>
</g>
<g>
	<g>
		<line class="st2" x1="0" y1="1603.815" x2="6" y2="1603.815"/>
		<line class="st3" x1="17.94" y1="1603.815" x2="1659.763" y2="1603.815"/>
		<line class="st2" x1="1665.733" y1="1603.815" x2="1671.733" y2="1603.815"/>
	</g>
</g>
<g>
	<g>
		<line class="st0" x1="0" y1="1803.815" x2="6" y2="1803.815"/>
		<line class="st1" x1="17.94" y1="1803.815" x2="1659.763" y2="1803.815"/>
		<line class="st0" x1="1665.733" y1="1803.815" x2="1671.733" y2="1803.815"/>
	</g>
</g>
<g>
	<g>
		<line class="st0" x1="0" y1="2003.815" x2="6" y2="2003.815"/>
		<line class="st1" x1="17.94" y1="2003.815" x2="1659.763" y2="2003.815"/>
		<line class="st0" x1="1665.733" y1="2003.815" x2="1671.733" y2="2003.815"/>
	</g>
</g>
<g>
	<g>
		<line class="st0" x1="0" y1="2203.815" x2="6" y2="2203.815"/>
		<line class="st1" x1="17.94" y1="2203.815" x2="1659.763" y2="2203.815"/>
		<line class="st0" x1="1665.733" y1="2203.815" x2="1671.733" y2="2203.815"/>
	</g>
</g>
<g>
	<g>
		<line class="st2" x1="0" y1="2403.815" x2="6" y2="2403.815"/>
		<line class="st3" x1="17.94" y1="2403.815" x2="1659.763" y2="2403.815"/>
		<line class="st2" x1="1665.733" y1="2403.815" x2="1671.733" y2="2403.815"/>
	</g>
</g>
<g>
	<g>
		<line class="st0" x1="0" y1="2603.815" x2="6" y2="2603.815"/>
		<line class="st1" x1="17.94" y1="2603.815" x2="1659.763" y2="2603.815"/>
		<line class="st0" x1="1665.733" y1="2603.815" x2="1671.733" y2="2603.815"/>
	</g>
</g>
<g>
	<g>
		<line class="st0" x1="0" y1="2803.815" x2="6" y2="2803.815"/>
		<line class="st1" x1="17.94" y1="2803.815" x2="1659.763" y2="2803.815"/>
		<line class="st0" x1="1665.733" y1="2803.815" x2="1671.733" y2="2803.815"/>
	</g>
</g>
<g>
	<g>
		<line class="st0" x1="0" y1="3003.815" x2="6" y2="3003.815"/>
		<line class="st1" x1="17.94" y1="3003.815" x2="1659.763" y2="3003.815"/>
		<line class="st0" x1="1665.733" y1="3003.815" x2="1671.733" y2="3003.815"/>
	</g>
</g>
<g>
	<g>
		<line class="st2" x1="0" y1="3203.815" x2="6" y2="3203.815"/>
		<line class="st3" x1="17.94" y1="3203.815" x2="1659.763" y2="3203.815"/>
		<line class="st2" x1="1665.733" y1="3203.815" x2="1671.733" y2="3203.815"/>
	</g>
</g>
<g>
	<g>
		<line class="st0" x1="0" y1="3403.815" x2="6" y2="3403.815"/>
		<line class="st1" x1="17.94" y1="3403.815" x2="1659.763" y2="3403.815"/>
		<line class="st0" x1="1665.733" y1="3403.815" x2="1671.733" y2="3403.815"/>
	</g>
</g>
<g>
	<g>
		<line class="st0" x1="0" y1="3603.815" x2="6" y2="3603.815"/>
		<line class="st1" x1="17.94" y1="3603.815" x2="1659.763" y2="3603.815"/>
		<line class="st0" x1="1665.733" y1="3603.815" x2="1671.733" y2="3603.815"/>
	</g>
</g>
<g>
	<g>
		<line class="st0" x1="0" y1="3803.815" x2="6" y2="3803.815"/>
		<line class="st1" x1="17.94" y1="3803.815" x2="1659.763" y2="3803.815"/>
		<line class="st0" x1="1665.733" y1="3803.815" x2="1671.733" y2="3803.815"/>
	</g>
</g>
<g>
	<g>
		<line class="st2" x1="0" y1="4003.815" x2="6" y2="4003.815"/>
		<line class="st3" x1="17.94" y1="4003.815" x2="1659.763" y2="4003.815"/>
		<line class="st2" x1="1665.733" y1="4003.815" x2="1671.733" y2="4003.815"/>
	</g>
</g>
<g>
	<g>
		<line class="st0" x1="0" y1="4203.815" x2="6" y2="4203.815"/>
		<line class="st1" x1="17.94" y1="4203.815" x2="1659.763" y2="4203.815"/>
		<line class="st0" x1="1665.733" y1="4203.815" x2="1671.733" y2="4203.815"/>
	</g>
</g>
<g>
	<g>
		<line class="st0" x1="0" y1="4403.815" x2="6" y2="4403.815"/>
		<line class="st1" x1="17.94" y1="4403.815" x2="1659.763" y2="4403.815"/>
		<line class="st0" x1="1665.733" y1="4403.815" x2="1671.733" y2="4403.815"/>
	</g>
</g>
<g>
	<g>
		<line class="st0" x1="0" y1="4603.815" x2="6" y2="4603.815"/>
		<line class="st1" x1="17.94" y1="4603.815" x2="1659.763" y2="4603.815"/>
		<line class="st0" x1="1665.733" y1="4603.815" x2="1671.733" y2="4603.815"/>
	</g>
</g>
<g>
	<g>
		<line class="st2" x1="0" y1="4803.815" x2="6" y2="4803.815"/>
		<line class="st3" x1="17.94" y1="4803.815" x2="1659.763" y2="4803.815"/>
		<line class="st2" x1="1665.733" y1="4803.815" x2="1671.733" y2="4803.815"/>
	</g>
</g>
<g>
	<g>
		<line class="st0" x1="0" y1="5003.815" x2="6" y2="5003.815"/>
		<line class="st1" x1="17.94" y1="5003.815" x2="1659.763" y2="5003.815"/>
		<line class="st0" x1="1665.733" y1="5003.815" x2="1671.733" y2="5003.815"/>
	</g>
</g>
<g>
	<g>
		<line class="st0" x1="0" y1="5203.815" x2="6" y2="5203.815"/>
		<line class="st1" x1="17.94" y1="5203.815" x2="1659.763" y2="5203.815"/>
		<line class="st0" x1="1665.733" y1="5203.815" x2="1671.733" y2="5203.815"/>
	</g>
</g>
<g>
	<g>
		<line class="st0" x1="0" y1="5403.815" x2="6" y2="5403.815"/>
		<line class="st1" x1="17.94" y1="5403.815" x2="1659.763" y2="5403.815"/>
		<line class="st0" x1="1665.733" y1="5403.815" x2="1671.733" y2="5403.815"/>
	</g>
</g>
<g>
	<g>
		<line class="st2" x1="0" y1="5603.815" x2="6" y2="5603.815"/>
		<line class="st3" x1="17.94" y1="5603.815" x2="1659.763" y2="5603.815"/>
		<line class="st2" x1="1665.733" y1="5603.815" x2="1671.733" y2="5603.815"/>
	</g>
</g>
<g>
	<g>
		<line class="st0" x1="0" y1="5803.815" x2="6" y2="5803.815"/>
		<line class="st1" x1="17.94" y1="5803.815" x2="1659.763" y2="5803.815"/>
		<line class="st0" x1="1665.733" y1="5803.815" x2="1671.733" y2="5803.815"/>
	</g>
</g>
<g>
	<g>
		<line class="st0" x1="0" y1="6003.815" x2="6" y2="6003.815"/>
		<line class="st1" x1="17.94" y1="6003.815" x2="1659.763" y2="6003.815"/>
		<line class="st0" x1="1665.733" y1="6003.815" x2="1671.733" y2="6003.815"/>
	</g>
</g>
<g>
	<g>
		<line class="st0" x1="0" y1="6203.815" x2="6" y2="6203.815"/>
		<line class="st1" x1="17.94" y1="6203.815" x2="1659.763" y2="6203.815"/>
		<line class="st0" x1="1665.733" y1="6203.815" x2="1671.733" y2="6203.815"/>
	</g>
</g>
<g>
	<g>
		<line class="st2" x1="0" y1="6403.815" x2="6" y2="6403.815"/>
		<line class="st3" x1="17.94" y1="6403.815" x2="1659.763" y2="6403.815"/>
		<line class="st2" x1="1665.733" y1="6403.815" x2="1671.733" y2="6403.815"/>
	</g>
</g>
<g>
	<g>
		<line class="st0" x1="0" y1="6603.815" x2="6" y2="6603.815"/>
		<line class="st1" x1="17.94" y1="6603.815" x2="1659.763" y2="6603.815"/>
		<line class="st0" x1="1665.733" y1="6603.815" x2="1671.733" y2="6603.815"/>
	</g>
</g>
<g>
	<g>
		<line class="st0" x1="0" y1="6803.815" x2="6" y2="6803.815"/>
		<line class="st1" x1="17.94" y1="6803.815" x2="1659.763" y2="6803.815"/>
		<line class="st0" x1="1665.733" y1="6803.815" x2="1671.733" y2="6803.815"/>
	</g>
</g>
<g>
	<g>
		<line class="st0" x1="0" y1="7003.815" x2="6" y2="7003.815"/>
		<line class="st1" x1="17.94" y1="7003.815" x2="1659.763" y2="7003.815"/>
		<line class="st0" x1="1665.733" y1="7003.815" x2="1671.733" y2="7003.815"/>
	</g>
</g>
<g>
	<g>
		<line class="st2" x1="0" y1="7203.815" x2="6" y2="7203.815"/>
		<line class="st3" x1="17.94" y1="7203.815" x2="1659.763" y2="7203.815"/>
		<line class="st2" x1="1665.733" y1="7203.815" x2="1671.733" y2="7203.815"/>
	</g>
</g>
<g>
	<g>
		<line class="st0" x1="0" y1="7403.815" x2="6" y2="7403.815"/>
		<line class="st1" x1="17.94" y1="7403.815" x2="1659.763" y2="7403.815"/>
		<line class="st0" x1="1665.733" y1="7403.815" x2="1671.733" y2="7403.815"/>
	</g>
</g>
<g>
	<g>
		<line class="st0" x1="0" y1="7603.815" x2="6" y2="7603.815"/>
		<line class="st1" x1="17.94" y1="7603.815" x2="1659.763" y2="7603.815"/>
		<line class="st0" x1="1665.733" y1="7603.815" x2="1671.733" y2="7603.815"/>
	</g>
</g>
<g>
	<g>
		<line class="st0" x1="0" y1="7803.815" x2="6" y2="7803.815"/>
		<line class="st1" x1="17.94" y1="7803.815" x2="1659.763" y2="7803.815"/>
		<line class="st0" x1="1665.733" y1="7803.815" x2="1671.733" y2="7803.815"/>
	</g>
</g>
<g>
	<g>
		<line class="st2" x1="0" y1="8003.815" x2="6" y2="8003.815"/>
		<line class="st3" x1="17.94" y1="8003.815" x2="1659.763" y2="8003.815"/>
		<line class="st2" x1="1665.733" y1="8003.815" x2="1671.733" y2="8003.815"/>
	</g>
</g>
<g>
	<g>
		<line class="st0" x1="0" y1="8203.815" x2="6" y2="8203.815"/>
		<line class="st1" x1="17.94" y1="8203.815" x2="1659.763" y2="8203.815"/>
		<line class="st0" x1="1665.733" y1="8203.815" x2="1671.733" y2="8203.815"/>
	</g>
</g>
<g>
	<g>
		<line class="st0" x1="0" y1="8403.815" x2="6" y2="8403.815"/>
		<line class="st1" x1="17.94" y1="8403.815" x2="1659.763" y2="8403.815"/>
		<line class="st0" x1="1665.733" y1="8403.815" x2="1671.733" y2="8403.815"/>
	</g>
</g>
<g>
	<g>
		<line class="st0" x1="0" y1="8603.815" x2="6" y2="8603.815"/>
		<line class="st1" x1="17.94" y1="8603.815" x2="1659.763" y2="8603.815"/>
		<line class="st0" x1="1665.733" y1="8603.815" x2="1671.733" y2="8603.815"/>
	</g>
</g>
<g>
	<g>
		<line class="st2" x1="0" y1="8803.815" x2="6" y2="8803.815"/>
		<line class="st3" x1="17.94" y1="8803.815" x2="1659.763" y2="8803.815"/>
		<line class="st2" x1="1665.733" y1="8803.815" x2="1671.733" y2="8803.815"/>
	</g>
</g>
<g>
	<g>
		<line class="st0" x1="0" y1="9003.815" x2="6" y2="9003.815"/>
		<line class="st1" x1="17.94" y1="9003.815" x2="1659.763" y2="9003.815"/>
		<line class="st0" x1="1665.733" y1="9003.815" x2="1671.733" y2="9003.815"/>
	</g>
</g>
<g>
	<g>
		<line class="st0" x1="0" y1="9203.815" x2="6" y2="9203.815"/>
		<line class="st1" x1="17.94" y1="9203.815" x2="1659.763" y2="9203.815"/>
		<line class="st0" x1="1665.733" y1="9203.815" x2="1671.733" y2="9203.815"/>
	</g>
</g>
<g>
	<g>
		<line class="st0" x1="0" y1="9403.815" x2="6" y2="9403.815"/>
		<line class="st1" x1="17.94" y1="9403.815" x2="1659.763" y2="9403.815"/>
		<line class="st0" x1="1665.733" y1="9403.815" x2="1671.733" y2="9403.815"/>
	</g>
</g>
<g>
	<g>
		<line class="st2" x1="0" y1="9603.815" x2="6" y2="9603.815"/>
		<line class="st3" x1="17.94" y1="9603.815" x2="1659.763" y2="9603.815"/>
		<line class="st2" x1="1665.733" y1="9603.815" x2="1671.733" y2="9603.815"/>
	</g>
</g>
<g>
	<g>
		<line class="st0" x1="0" y1="9803.815" x2="6" y2="9803.815"/>
		<line class="st1" x1="17.94" y1="9803.815" x2="1659.763" y2="9803.815"/>
		<line class="st0" x1="1665.733" y1="9803.815" x2="1671.733" y2="9803.815"/>
	</g>
</g>
<g>
	<g>
		<line class="st0" x1="0" y1="10003.815" x2="6" y2="10003.815"/>
		<line class="st1" x1="17.94" y1="10003.815" x2="1659.763" y2="10003.815"/>
		<line class="st0" x1="1665.733" y1="10003.815" x2="1671.733" y2="10003.815"/>
	</g>
</g>
<g>
	<g>
		<line class="st0" x1="0" y1="10203.815" x2="6" y2="10203.815"/>
		<line class="st1" x1="17.94" y1="10203.815" x2="1659.763" y2="10203.815"/>
		<line class="st0" x1="1665.733" y1="10203.815" x2="1671.733" y2="10203.815"/>
	</g>
</g>
<g>
	<g>
		<line class="st2" x1="0" y1="10403.815" x2="6" y2="10403.815"/>
		<line class="st3" x1="17.94" y1="10403.815" x2="1659.763" y2="10403.815"/>
		<line class="st2" x1="1665.733" y1="10403.815" x2="1671.733" y2="10403.815"/>
	</g>
</g>
<g>
	<g>
		<line class="st0" x1="0" y1="10603.815" x2="6" y2="10603.815"/>
		<line class="st1" x1="17.94" y1="10603.815" x2="1659.763" y2="10603.815"/>
		<line class="st0" x1="1665.733" y1="10603.815" x2="1671.733" y2="10603.815"/>
	</g>
</g>
<g>
	<g>
		<line class="st0" x1="0" y1="10803.815" x2="6" y2="10803.815"/>
		<line class="st1" x1="17.94" y1="10803.815" x2="1659.763" y2="10803.815"/>
		<line class="st0" x1="1665.733" y1="10803.815" x2="1671.733" y2="10803.815"/>
	</g>
</g>
<g>
	<g>
		<line class="st0" x1="0" y1="11003.815" x2="6" y2="11003.815"/>
		<line class="st1" x1="17.94" y1="11003.815" x2="1659.763" y2="11003.815"/>
		<line class="st0" x1="1665.733" y1="11003.815" x2="1671.733" y2="11003.815"/>
	</g>
</g>
<g>
	<g>
		<line class="st2" x1="0" y1="11203.815" x2="6" y2="11203.815"/>
		<line class="st3" x1="17.94" y1="11203.815" x2="1659.763" y2="11203.815"/>
		<line class="st2" x1="1665.733" y1="11203.815" x2="1671.733" y2="11203.815"/>
	</g>
</g>
<g>
	<g>
		<line class="st0" x1="0" y1="11403.815" x2="6" y2="11403.815"/>
		<line class="st1" x1="17.94" y1="11403.815" x2="1659.763" y2="11403.815"/>
		<line class="st0" x1="1665.733" y1="11403.815" x2="1671.733" y2="11403.815"/>
	</g>
</g>
<g>
	<g>
		<line class="st0" x1="0" y1="11603.815" x2="6" y2="11603.815"/>
		<line class="st1" x1="17.94" y1="11603.815" x2="1659.763" y2="11603.815"/>
		<line class="st0" x1="1665.733" y1="11603.815" x2="1671.733" y2="11603.815"/>
	</g>
</g>
<g>
	<g>
		<line class="st0" x1="0" y1="11803.815" x2="6" y2="11803.815"/>
		<line class="st1" x1="17.94" y1="11803.815" x2="1659.763" y2="11803.815"/>
		<line class="st0" x1="1665.733" y1="11803.815" x2="1671.733" y2="11803.815"/>
	</g>
</g>
<g>
	<g>
		<line class="st2" x1="0" y1="12003.815" x2="6" y2="12003.815"/>
		<line class="st3" x1="17.94" y1="12003.815" x2="1659.763" y2="12003.815"/>
		<line class="st2" x1="1665.733" y1="12003.815" x2="1671.733" y2="12003.815"/>
	</g>
</g>
<g>
	<g>
		<line class="st0" x1="0" y1="12203.815" x2="6" y2="12203.815"/>
		<line class="st1" x1="17.94" y1="12203.815" x2="1659.763" y2="12203.815"/>
		<line class="st0" x1="1665.733" y1="12203.815" x2="1671.733" y2="12203.815"/>
	</g>
</g>
<g>
	<g>
		<line class="st0" x1="0" y1="12403.815" x2="6" y2="12403.815"/>
		<line class="st1" x1="17.94" y1="12403.815" x2="1659.763" y2="12403.815"/>
		<line class="st0" x1="1665.733" y1="12403.815" x2="1671.733" y2="12403.815"/>
	</g>
</g>
<g>
	<g>
		<line class="st0" x1="0" y1="12603.815" x2="6" y2="12603.815"/>
		<line class="st1" x1="17.94" y1="12603.815" x2="1659.763" y2="12603.815"/>
		<line class="st0" x1="1665.733" y1="12603.815" x2="1671.733" y2="12603.815"/>
	</g>
</g>
<g>
	<g>
		<line class="st2" x1="0" y1="12803.815" x2="6" y2="12803.815"/>
		<line class="st3" x1="17.94" y1="12803.815" x2="1659.763" y2="12803.815"/>
		<line class="st2" x1="1665.733" y1="12803.815" x2="1671.733" y2="12803.815"/>
	</g>
</g>
<g>
	<g>
		<line class="st0" x1="0" y1="13003.815" x2="6" y2="13003.815"/>
		<line class="st1" x1="17.94" y1="13003.815" x2="1659.763" y2="13003.815"/>
		<line class="st0" x1="1665.733" y1="13003.815" x2="1671.733" y2="13003.815"/>
	</g>
</g>
<g>
	<g>
		<line class="st0" x1="0" y1="13203.815" x2="6" y2="13203.815"/>
		<line class="st1" x1="17.94" y1="13203.815" x2="1659.763" y2="13203.815"/>
		<line class="st0" x1="1665.733" y1="13203.815" x2="1671.733" y2="13203.815"/>
	</g>
</g>
<g>
	<g>
		<line class="st0" x1="0" y1="13403.815" x2="6" y2="13403.815"/>
		<line class="st1" x1="17.94" y1="13403.815" x2="1659.763" y2="13403.815"/>
		<line class="st0" x1="1665.733" y1="13403.815" x2="1671.733" y2="13403.815"/>
	</g>
</g>
<g>
	<g>
		<line class="st2" x1="0" y1="13603.815" x2="6" y2="13603.815"/>
		<line class="st3" x1="17.94" y1="13603.815" x2="1659.763" y2="13603.815"/>
		<line class="st2" x1="1665.733" y1="13603.815" x2="1671.733" y2="13603.815"/>
	</g>
</g>
<g>
	<g>
		<line class="st0" x1="0" y1="13803.815" x2="6" y2="13803.815"/>
		<line class="st1" x1="17.94" y1="13803.815" x2="1659.763" y2="13803.815"/>
		<line class="st0" x1="1665.733" y1="13803.815" x2="1671.733" y2="13803.815"/>
	</g>
</g>
<g>
	<g>
		<line class="st0" x1="0" y1="14003.815" x2="6" y2="14003.815"/>
		<line class="st1" x1="17.94" y1="14003.815" x2="1659.763" y2="14003.815"/>
		<line class="st0" x1="1665.733" y1="14003.815" x2="1671.733" y2="14003.815"/>
	</g>
</g>
<g>
	<g>
		<line class="st0" x1="0" y1="14203.815" x2="6" y2="14203.815"/>
		<line class="st1" x1="17.94" y1="14203.815" x2="1659.763" y2="14203.815"/>
		<line class="st0" x1="1665.733" y1="14203.815" x2="1671.733" y2="14203.815"/>
	</g>
</g>
<g>
	<g>
		<line class="st2" x1="0" y1="14403.815" x2="6" y2="14403.815"/>
		<line class="st3" x1="17.94" y1="14403.815" x2="1659.763" y2="14403.815"/>
		<line class="st2" x1="1665.733" y1="14403.815" x2="1671.733" y2="14403.815"/>
	</g>
</g>
<g>
	<g>
		<line class="st2" x1="0" y1="15203.814" x2="6" y2="15203.814"/>
		<line class="st3" x1="17.94" y1="15203.814" x2="1659.763" y2="15203.814"/>
		<line class="st2" x1="1665.733" y1="15203.814" x2="1671.733" y2="15203.814"/>
	</g>
</g>
<g>
	<g>
		<line class="st0" x1="0" y1="14603.815" x2="6" y2="14603.815"/>
		<line class="st1" x1="17.94" y1="14603.815" x2="1659.763" y2="14603.815"/>
		<line class="st0" x1="1665.733" y1="14603.815" x2="1671.733" y2="14603.815"/>
	</g>
</g>
<g>
	<g>
		<line class="st0" x1="0" y1="14803.815" x2="6" y2="14803.815"/>
		<line class="st1" x1="17.94" y1="14803.815" x2="1659.763" y2="14803.815"/>
		<line class="st0" x1="1665.733" y1="14803.815" x2="1671.733" y2="14803.815"/>
	</g>
</g>
<g>
	<g>
		<line class="st0" x1="0" y1="15003.815" x2="6" y2="15003.815"/>
		<line class="st1" x1="17.94" y1="15003.815" x2="1659.763" y2="15003.815"/>
		<line class="st0" x1="1665.733" y1="15003.815" x2="1671.733" y2="15003.815"/>
	</g>
</g>
</svg>
