<!-- Generator: Adobe Illustrator 24.2.1, SVG Export Plug-In  -->
<svg version="1.1" xmlns="http://www.w3.org/2000/svg" xmlns:xlink="http://www.w3.org/1999/xlink" x="0px" y="0px" width="58.3px"
	 height="47.2px" viewBox="0 0 58.3 47.2" style="overflow:visible;enable-background:new 0 0 58.3 47.2;" xml:space="preserve">
<style type="text/css">
	.st0{fill:#191919;stroke:#E4E4E4;stroke-width:0.25;stroke-miterlimit:10;}
	.st1{fill:#E4E4E4;}
</style>
<defs>
</defs>
<g>
	<rect x="0.1" y="0.1" class="st0" width="58" height="46.9"/>
	<g>
		<g>
			<path class="st1" d="M15.6,36.1v-0.6l3.6-1.6V13.6l-7,3.5v-1.4l9.6-6h0.8v24.2l3.2,1.6v0.6H15.6z"/>
			<path class="st1" d="M38,36.5c-2.5,0-4.6-0.6-6.2-1.8c-1.5-1.1-2.2-2.2-2.2-3.4c0-0.6,0.1-0.9,0.4-1.1c0.2-0.1,0.6-0.2,1.1-0.2
				h1.8l0.3,0.3v1.3c0,0.9,0.4,1.6,1.2,2.2c0.8,0.6,2.1,0.9,3.8,0.9c1.7,0,3-0.5,3.9-1.5c0.9-1,1.4-2.3,1.4-4c0-1.8-0.5-3.2-1.4-4.3
				c-1-1.1-2.7-1.6-5.2-1.6h-2.4v-1.8h1.1c1.9,0,3.5-0.5,4.7-1.5s1.9-2.4,1.9-4.2c0-1.7-0.4-2.9-1.1-3.7s-1.8-1.1-3.1-1.1
				c-1.2,0-2.1,0.3-2.8,1c-0.7,0.7-1.1,1.5-1.1,2.6v1.4l-0.3,0.3h-1.7c-0.5,0-0.9-0.1-1.2-0.2c-0.3-0.2-0.4-0.5-0.4-1.2
				c0-0.7,0.2-1.4,0.7-2.1c0.5-0.7,1.2-1.4,2.2-2c0.9-0.6,1.8-1,2.6-1.3c0.8-0.3,1.8-0.4,2.9-0.4c1.4,0,2.6,0.3,3.7,0.8
				c1.1,0.6,1.9,1.3,2.6,2.3c0.6,1,0.9,2,0.9,3.2c0,1.4-0.5,2.6-1.6,3.7c-1,1.1-2.5,1.9-4.2,2.4c2.4,0.4,4.2,1.2,5.4,2.5
				c1.2,1.3,1.8,2.9,1.8,4.8c0,1.3-0.4,2.5-1.3,3.6c-0.9,1.1-2,2-3.4,2.7S39.7,36.5,38,36.5z"/>
		</g>
	</g>
</g>
</svg>
