<svg xmlns="http://www.w3.org/2000/svg" viewBox="0 0 360.482 109.978">
  <defs>
    <style>
      .cls-1 {
        fill: #e6e6e6;
      }

      .cls-2 {
        fill: #f9c023;
      }
    </style>
  </defs>
  <g id="Layer_2" data-name="Layer 2">
    <g id="Layer_1-2" data-name="Layer 1">
      <g>
        <g>
          <path class="cls-1" d="M.85,13.1A6.971,6.971,0,0,1,0,9.649a8.709,8.709,0,0,1,2.143-5.9A13.9,13.9,0,0,1,7.3,0l.81,1.39v.385A5.593,5.593,0,0,0,6.079,3.126,7.962,7.962,0,0,0,4.42,5.519a6.7,6.7,0,0,0-.638,2.818,4.127,4.127,0,0,0,.6,2.258,2.265,2.265,0,0,0,1.64,1.1l-.116.694-2.469,2.7A4.016,4.016,0,0,1,.85,13.1Zm9.185,0a6.981,6.981,0,0,1-.848-3.455,8.712,8.712,0,0,1,2.141-5.9A13.917,13.917,0,0,1,16.48,0l.811,1.39v.385a5.585,5.585,0,0,0-2.026,1.351,7.983,7.983,0,0,0-1.66,2.393,6.711,6.711,0,0,0-.636,2.818,4.143,4.143,0,0,0,.6,2.258,2.272,2.272,0,0,0,1.641,1.1l-.116.694-2.47,2.7A4.02,4.02,0,0,1,10.035,13.1Z"/>
          <path class="cls-1" d="M20.63,28.619a2.612,2.612,0,0,1,1.949-.869,2,2,0,0,1,1.564.58,2.224,2.224,0,0,1,.52,1.544,2.954,2.954,0,0,1-.888,2.238,2.87,2.87,0,0,1-2.045.849,1.844,1.844,0,0,1-1.389-.56,2.091,2.091,0,0,1-.541-1.524A3.131,3.131,0,0,1,20.63,28.619Zm9.919,0A2.613,2.613,0,0,1,32.5,27.75a1.939,1.939,0,0,1,1.524.58,2.159,2.159,0,0,1,.522,1.505,3,3,0,0,1-.888,2.277,2.873,2.873,0,0,1-2.046.849,1.8,1.8,0,0,1-1.35-.56,2.1,2.1,0,0,1-.54-1.524A3.134,3.134,0,0,1,30.549,28.619Zm9.92.019a2.547,2.547,0,0,1,1.91-.888,1.994,1.994,0,0,1,1.563.58,2.163,2.163,0,0,1,.521,1.505,3,3,0,0,1-.888,2.277,2.872,2.872,0,0,1-2.045.849,1.788,1.788,0,0,1-1.371-.56,2.146,2.146,0,0,1-.52-1.524A3.149,3.149,0,0,1,40.469,28.638Z"/>
          <path class="cls-1" d="M54.846,29.564a1.247,1.247,0,0,0,.173.715.521.521,0,0,0,.444.25,1.759,1.759,0,0,0,.868-.25,6.265,6.265,0,0,0,1.1-.869l.5,1a8.083,8.083,0,0,1-1.776,1.7A4.6,4.6,0,0,1,53.34,33a3.072,3.072,0,0,1-2.065-.618,1.993,1.993,0,0,1-.6-1.814q.193-1.7,1-7.3,1.079-7.486,1.311-9.378L50.6,12.968l.27-1.351,5.712-.888.888.425L54.884,29.179ZM54.4,5.982A2.189,2.189,0,0,1,53.765,4.4a2.82,2.82,0,0,1,.83-2.046,2.639,2.639,0,0,1,1.949-.849,2.077,2.077,0,0,1,1.62.637,2.234,2.234,0,0,1,.579,1.563,3.138,3.138,0,0,1-.81,2.085,2.591,2.591,0,0,1-2.007.849A2.05,2.05,0,0,1,54.4,5.982Z"/>
          <path class="cls-1" d="M66.81,28.638a1.886,1.886,0,0,0,.366,1.313,1.746,1.746,0,0,0,1.293.385,5.071,5.071,0,0,0,1.911-.462,7.16,7.16,0,0,0,1.717-.966l.386,1.313a8.769,8.769,0,0,1-2.663,1.872A8.29,8.29,0,0,1,66.076,33a3.659,3.659,0,0,1-2.489-.792,3.078,3.078,0,0,1-.907-2.451q0-.732.27-3.087l1.737-13.045H62.371l.348-1.583,2.392-.811q.849-.925,2.432-5.287H69.7l-.656,5.249h4.94l-.308,2.432H68.739l-1.659,12.2A19.65,19.65,0,0,0,66.81,28.638Z"/>
          <path class="cls-1" d="M85.528,13.605a.616.616,0,0,0-.541-.29,1.124,1.124,0,0,0-.6.155c-.168.1-.393.258-.676.463l-.5-1.158a5.209,5.209,0,0,1,1.506-1.293,4.446,4.446,0,0,1,2.47-.753,2.63,2.63,0,0,1,1.987.638,3.556,3.556,0,0,1,.792,1.948l1.5,12.583.385,3.705,1.506-3.975,5.789-14.744h3.667L104.4,26.129l.309,3.435,1.969-2.894a30.85,30.85,0,0,0,2.7-5.133,15.464,15.464,0,0,0,1.312-5.519,7.165,7.165,0,0,0-.347-1.853,5.193,5.193,0,0,1-.27-1.428,1.921,1.921,0,0,1,2.007-2.008q2.393,0,2.47,3.822a14.357,14.357,0,0,1-1.988,6.233,55.639,55.639,0,0,1-4.418,7.121l-3.282,4.863-3.242.193-.849-6.639-.81-7.641-.193-2.625-.811,2.663-3.474,7.6L92.63,32.729l-3.4.271L88,26.322,85.875,14.551A3.074,3.074,0,0,0,85.528,13.605Z"/>
          <path class="cls-1" d="M132.924,29.41a1.367,1.367,0,0,0,.212.849.676.676,0,0,0,.559.27,3.053,3.053,0,0,0,1.7-.965l.54,1a6.174,6.174,0,0,1-1.6,1.563,4.345,4.345,0,0,1-2.644.869,2.8,2.8,0,0,1-1.891-.6,2.24,2.24,0,0,1-.655-1.872l.154-1.119a12.07,12.07,0,0,1-2.876,2.548A6.473,6.473,0,0,1,122.889,33a5.305,5.305,0,0,1-4.67-2.22,10.035,10.035,0,0,1-1.544-5.847,16.155,16.155,0,0,1,1.467-6.619,13.851,13.851,0,0,1,4.284-5.461,10.53,10.53,0,0,1,6.6-2.162,10.926,10.926,0,0,1,2.007.212q1.119.213,2.046.483l2.355-.657-2.471,18.257A1.875,1.875,0,0,0,132.924,29.41Zm-4.323-16.6a5.611,5.611,0,0,0-4.207,1.814,11.474,11.474,0,0,0-2.605,4.535,17.869,17.869,0,0,0-.869,5.462,9.114,9.114,0,0,0,.83,4.3,2.645,2.645,0,0,0,2.451,1.524,4.55,4.55,0,0,0,2.721-1.022,11.19,11.19,0,0,0,2.335-2.336l1.814-13.662A4.631,4.631,0,0,0,128.6,12.814Z"/>
          <path class="cls-1" d="M150.658,13.47a6.366,6.366,0,0,0-2.682-.54,4.657,4.657,0,0,0-2.78.752,2.526,2.526,0,0,0-1.042,2.181,3.454,3.454,0,0,0,.85,2.258,13.6,13.6,0,0,0,2.509,2.219,26.535,26.535,0,0,1,2.2,1.8,7.305,7.305,0,0,1,1.466,1.968,5.6,5.6,0,0,1,.618,2.644,5.449,5.449,0,0,1-1.081,3.416,6.593,6.593,0,0,1-2.914,2.123,10.938,10.938,0,0,1-3.994.714,15.978,15.978,0,0,1-3.474-.386,5.783,5.783,0,0,1-2.277-.849l.656-2.818a8.181,8.181,0,0,0,2.2,1.158,8.336,8.336,0,0,0,2.973.54,5.3,5.3,0,0,0,2.778-.694,2.448,2.448,0,0,0,1.158-2.278,3.226,3.226,0,0,0-.926-2.316,19.292,19.292,0,0,0-2.741-2.238q-3.936-2.74-3.936-6.33a5.265,5.265,0,0,1,1.022-3.2,6.559,6.559,0,0,1,2.8-2.142,9.979,9.979,0,0,1,3.937-.753,16.6,16.6,0,0,1,2.836.251,11.55,11.55,0,0,1,2.027.482l-.656,3.05A4.152,4.152,0,0,0,150.658,13.47Z"/>
          <path class="cls-1" d="M170.322,5.152a9.24,9.24,0,0,1,2.857-2.913,6.706,6.706,0,0,1,3.666-1.081,8.805,8.805,0,0,1,3.127.463l-1,2.856a4.181,4.181,0,0,0-2.663-.849q-2.858,0-3.512,4.9l-.31,2.431h4.555l-.348,2.548h-4.553L169.705,32.5a15.14,15.14,0,0,1-2.509,7.063,6.15,6.15,0,0,1-5.134,2.779,18.527,18.527,0,0,1-1.871-.1,10.869,10.869,0,0,1-1.409-.212l.927-2.933a9.546,9.546,0,0,0,1.331.444,6.492,6.492,0,0,0,1.679.289,1.906,1.906,0,0,0,1.737-1.158,10.543,10.543,0,0,0,.926-3.4l2.74-21.768h-2.547l.309-1.428,2.663-1.042.27-1.814A10.6,10.6,0,0,1,170.322,5.152Z"/>
          <path class="cls-1" d="M194.754,13.007a9.656,9.656,0,0,1,2.045,6.6,15.733,15.733,0,0,1-1.408,6.6,12.359,12.359,0,0,1-3.976,4.96,9.61,9.61,0,0,1-5.809,1.871,7.415,7.415,0,0,1-5.866-2.315,9.652,9.652,0,0,1-2.046-6.6,15.791,15.791,0,0,1,1.409-6.639,12.2,12.2,0,0,1,3.975-4.94,9.682,9.682,0,0,1,5.809-1.853A7.413,7.413,0,0,1,194.754,13.007Zm-9.842,1.486a10.972,10.972,0,0,0-2.142,4.245,19.394,19.394,0,0,0-.714,5.23q0,7.025,4.207,7.025a4.2,4.2,0,0,0,3.357-1.7A11.278,11.278,0,0,0,191.7,25.01a20.1,20.1,0,0,0,.695-5.249q0-6.946-4.052-6.947A4.363,4.363,0,0,0,184.912,14.493Z"/>
          <path class="cls-1" d="M207.9,13.644a8.889,8.889,0,0,1,2.45-2.084,5.9,5.9,0,0,1,3.01-.831,1.979,1.979,0,0,1,1.236.271l-.888,4.438a3.268,3.268,0,0,0-1.892-.424,5.857,5.857,0,0,0-3.145.984,6.232,6.232,0,0,0-2.373,2.76l-1.815,13.856H200.5l2.432-18.565-1.968-.965.308-1.467,4.747-.888.811.464-.271,3.474-.154,1.505A8.76,8.76,0,0,1,207.9,13.644Z"/>
          <path class="cls-1" d="M229.143,38.808a9.6,9.6,0,0,1-3.918,2.644,13.433,13.433,0,0,1-4.574.811,14.724,14.724,0,0,1-2.528-.232,9.186,9.186,0,0,1-1.949-.5l.81-3.242a13.1,13.1,0,0,0,2.239.907,8.964,8.964,0,0,0,2.741.444,5.619,5.619,0,0,0,3.589-.946,5.312,5.312,0,0,0,1.506-3.492l.694-5.018a8.987,8.987,0,0,1-2.566,2.026,6.844,6.844,0,0,1-3.262.792,5.538,5.538,0,0,1-4.805-2.22,9.768,9.768,0,0,1-1.6-5.847A15.992,15.992,0,0,1,217,18.314a14.016,14.016,0,0,1,4.3-5.461,10.53,10.53,0,0,1,6.6-2.162,10.7,10.7,0,0,1,2.22.251,12.1,12.1,0,0,1,2.025.6l2.509-.849L231.188,34.08A8.532,8.532,0,0,1,229.143,38.808Zm-1.7-25.994a5.639,5.639,0,0,0-4.284,1.853,11.606,11.606,0,0,0-2.586,4.612,18.379,18.379,0,0,0-.849,5.423,8.278,8.278,0,0,0,.907,4.226,2.809,2.809,0,0,0,2.528,1.524,4.984,4.984,0,0,0,2.818-.907,8.1,8.1,0,0,0,2.161-2.065l2.046-13.933A4.568,4.568,0,0,0,227.444,12.814Z"/>
          <path class="cls-1" d="M254.771,13.007q2.045,2.316,2.044,6.6a15.717,15.717,0,0,1-1.408,6.6,12.348,12.348,0,0,1-3.975,4.96,9.612,9.612,0,0,1-5.809,1.871,7.413,7.413,0,0,1-5.866-2.315,9.652,9.652,0,0,1-2.046-6.6,15.806,15.806,0,0,1,1.408-6.639,12.209,12.209,0,0,1,3.976-4.94,9.679,9.679,0,0,1,5.808-1.853A7.417,7.417,0,0,1,254.771,13.007Zm-9.842,1.486a10.987,10.987,0,0,0-2.143,4.245,19.433,19.433,0,0,0-.714,5.23q0,7.025,4.207,7.025a4.2,4.2,0,0,0,3.358-1.7,11.292,11.292,0,0,0,2.084-4.284,20.1,20.1,0,0,0,.695-5.249q0-6.946-4.053-6.947A4.362,4.362,0,0,0,244.929,14.493Z"/>
          <path class="cls-1" d="M265.075,28.638a1.886,1.886,0,0,0,.366,1.313,1.748,1.748,0,0,0,1.293.385,5.075,5.075,0,0,0,1.912-.462,7.151,7.151,0,0,0,1.716-.966l.387,1.313a8.769,8.769,0,0,1-2.663,1.872,8.29,8.29,0,0,1-3.744.907,3.657,3.657,0,0,1-2.489-.792,3.078,3.078,0,0,1-.908-2.451q0-.732.271-3.087l1.736-13.045h-2.315l.347-1.583,2.393-.811q.848-.925,2.432-5.287h2.161l-.657,5.249h4.941l-.309,2.432h-4.94l-1.659,12.2A19.677,19.677,0,0,0,265.075,28.638Z"/>
          <path class="cls-1" d="M278.775,28.638a1.881,1.881,0,0,0,.367,1.313,1.745,1.745,0,0,0,1.293.385,5.071,5.071,0,0,0,1.911-.462,7.151,7.151,0,0,0,1.716-.966l.387,1.313a8.769,8.769,0,0,1-2.663,1.872,8.29,8.29,0,0,1-3.744.907,3.657,3.657,0,0,1-2.489-.792,3.078,3.078,0,0,1-.907-2.451q0-.732.27-3.087l1.736-13.045h-2.315l.348-1.583,2.392-.811q.849-.925,2.432-5.287h2.161l-.656,5.249h4.94l-.308,2.432h-4.941l-1.659,12.2A19.677,19.677,0,0,0,278.775,28.638Z"/>
          <path class="cls-1" d="M299.906,31.726a9.558,9.558,0,0,1-4.96,1.312,7.6,7.6,0,0,1-4.361-1.177,6.928,6.928,0,0,1-2.547-3.088,10.418,10.418,0,0,1-.81-4.11,16.266,16.266,0,0,1,1.5-6.967,12.856,12.856,0,0,1,4.13-5.113,9.683,9.683,0,0,1,5.79-1.892A5.949,5.949,0,0,1,302.84,12a4.527,4.527,0,0,1,1.408,3.474,5.909,5.909,0,0,1-2.161,4.651,14.167,14.167,0,0,1-5.133,2.8,19.276,19.276,0,0,1-5.365.965,8.52,8.52,0,0,0,.907,4.67,3.577,3.577,0,0,0,3.377,1.93,7.388,7.388,0,0,0,3.377-.83,10.847,10.847,0,0,0,2.991-2.258l.888,1.505A9.711,9.711,0,0,1,299.906,31.726ZM294.657,14.2a10.263,10.263,0,0,0-2.1,3.57A15.867,15.867,0,0,0,291.627,22a12.674,12.674,0,0,0,3.879-.83,8.894,8.894,0,0,0,3.378-2.161,4.529,4.529,0,0,0,1.35-3.223,3.366,3.366,0,0,0-.656-2.239,2.3,2.3,0,0,0-1.852-.772A4.09,4.09,0,0,0,294.657,14.2Z"/>
          <path class="cls-1" d="M317.757,12.081a7.626,7.626,0,0,1,4.284-1.39A4.3,4.3,0,0,1,325.418,12a6.342,6.342,0,0,1,1.178,4.285,36.531,36.531,0,0,1-.734,5.4l-.231,1.39-.193,1.119a30.8,30.8,0,0,0-.734,5.094v.232q0,1,.5,1a2.965,2.965,0,0,0,1.814-.926l.5,1.042a6.841,6.841,0,0,1-1.7,1.5,4.853,4.853,0,0,1-2.817.85q-2.586,0-2.586-2.432a34.529,34.529,0,0,1,.733-5.017l.271-1.428.154-.927a40.181,40.181,0,0,0,.849-6.523,4.389,4.389,0,0,0-.54-2.431,2.061,2.061,0,0,0-1.738-.656,5.5,5.5,0,0,0-3.3,1.486,13.956,13.956,0,0,0-3.146,3.647l-1.852,13.895h-3.976l2.471-18.6-1.93-.965.309-1.466,5.017-.888.811.425-.464,4.554A14.244,14.244,0,0,1,317.757,12.081Z"/>
          <path class="cls-1" d="M331.42,28.561a2.526,2.526,0,0,1,1.93-.888,2.068,2.068,0,0,1,1.639.637,2.341,2.341,0,0,1,.56,1.6,2.952,2.952,0,0,1-.888,2.238,2.873,2.873,0,0,1-2.045.85,1.909,1.909,0,0,1-1.428-.6,2.2,2.2,0,0,1-.579-1.6A3.191,3.191,0,0,1,331.42,28.561Z"/>
          <path class="cls-1" d="M350.485,2.065a6.981,6.981,0,0,1,.85,3.454,8.706,8.706,0,0,1-2.143,5.9,13.89,13.89,0,0,1-5.152,3.744l-.811-1.389v-.386a5.583,5.583,0,0,0,2.027-1.351,7.95,7.95,0,0,0,1.659-2.393,6.694,6.694,0,0,0,.638-2.817,4.135,4.135,0,0,0-.6-2.258,2.267,2.267,0,0,0-1.641-1.1l.117-.7L347.9.077A4.019,4.019,0,0,1,350.485,2.065Zm9.148,0a6.991,6.991,0,0,1,.849,3.454,8.71,8.71,0,0,1-2.142,5.9,13.906,13.906,0,0,1-5.152,3.744l-.811-1.389v-.386a5.58,5.58,0,0,0,2.026-1.351,7.95,7.95,0,0,0,1.659-2.393,6.693,6.693,0,0,0,.637-2.817,4.143,4.143,0,0,0-.6-2.258,2.272,2.272,0,0,0-1.641-1.1l.116-.7,2.47-2.7A4.024,4.024,0,0,1,359.633,2.065Z"/>
        </g>
        <g>
          <path class="cls-2" d="M111.757,103.7v-1.73h5.491v1.73Z"/>
          <path class="cls-2" d="M125.6,109.742v-1.415l1.831-.315V95.131l-1.831-.314V93.39h5.874v1.427l-1.831.314v12.915h5.784l.257-2.583h1.7v4.279Z"/>
          <path class="cls-2" d="M138.969,109.742v-1.415l1.831-.315V99.331l-1.831-.314V97.591h4.043v10.421l1.831.315v1.415Zm1.719-15.15v-2.37h2.324v2.37Z"/>
          <path class="cls-2" d="M151.391,109.978a5.467,5.467,0,0,1-2.931-.77,5.124,5.124,0,0,1-1.926-2.139,7.039,7.039,0,0,1-.68-3.167v-.494a6.585,6.585,0,0,1,.713-3.094,5.726,5.726,0,0,1,1.9-2.156,4.562,4.562,0,0,1,2.589-.792,5.2,5.2,0,0,1,2.745.674,4.235,4.235,0,0,1,1.668,1.892,6.81,6.81,0,0,1,.561,2.87v1.381h-7.883l-.035.056a5.536,5.536,0,0,0,.41,2.072,3.279,3.279,0,0,0,1.118,1.421,2.958,2.958,0,0,0,1.752.516,5.55,5.55,0,0,0,1.971-.32,4.526,4.526,0,0,0,1.466-.881l.864,1.437a5.283,5.283,0,0,1-1.723,1.061A6.894,6.894,0,0,1,151.391,109.978Zm-3.178-7.525h5.6v-.292a3.793,3.793,0,0,0-.308-1.566,2.475,2.475,0,0,0-.921-1.09,2.759,2.759,0,0,0-1.532-.4,2.27,2.27,0,0,0-1.348.432,3.322,3.322,0,0,0-1,1.174,4.921,4.921,0,0,0-.517,1.684Z"/>
          <path class="cls-2" d="M162.73,109.978a3.892,3.892,0,0,1-3.088-1.269,5.894,5.894,0,0,1-1.112-3.953V99.331l-1.392-.314V97.591h3.6v7.187a4.533,4.533,0,0,0,.572,2.673,2.129,2.129,0,0,0,1.786.73,3.641,3.641,0,0,0,1.949-.477,3,3,0,0,0,1.162-1.354V99.331l-1.629-.314V97.591h3.842v10.421l1.392.315v1.415h-3.38l-.147-1.8a4.1,4.1,0,0,1-1.477,1.505A4.049,4.049,0,0,1,162.73,109.978Z"/>
          <path class="cls-2" d="M175.27,109.933a2.891,2.891,0,0,1-2.14-.792,3.472,3.472,0,0,1-.792-2.532V99.23h-1.92V97.591h1.92V94.659h2.213v2.932h2.638V99.23h-2.638v7.379a1.992,1.992,0,0,0,.347,1.291,1.156,1.156,0,0,0,.933.416,5.865,5.865,0,0,0,.876-.073c.322-.049.572-.092.752-.129l.3,1.448a9.123,9.123,0,0,1-1.185.259A8.414,8.414,0,0,1,175.27,109.933Z"/>
          <path class="cls-2" d="M184.148,109.978a5.463,5.463,0,0,1-2.93-.77,5.124,5.124,0,0,1-1.926-2.139,7.039,7.039,0,0,1-.68-3.167v-.494a6.585,6.585,0,0,1,.713-3.094,5.726,5.726,0,0,1,1.9-2.156,4.561,4.561,0,0,1,2.588-.792,5.2,5.2,0,0,1,2.746.674,4.235,4.235,0,0,1,1.668,1.892,6.81,6.81,0,0,1,.561,2.87v1.381H180.9l-.034.056a5.516,5.516,0,0,0,.41,2.072,3.284,3.284,0,0,0,1.117,1.421,2.962,2.962,0,0,0,1.752.516,5.555,5.555,0,0,0,1.972-.32,4.526,4.526,0,0,0,1.466-.881l.864,1.437a5.293,5.293,0,0,1-1.723,1.061A6.9,6.9,0,0,1,184.148,109.978Zm-3.177-7.525h5.6v-.292a3.793,3.793,0,0,0-.308-1.566,2.475,2.475,0,0,0-.921-1.09,2.76,2.76,0,0,0-1.533-.4,2.267,2.267,0,0,0-1.347.432,3.322,3.322,0,0,0-1,1.174,4.921,4.921,0,0,0-.517,1.684Z"/>
          <path class="cls-2" d="M190.271,109.742v-1.415l1.831-.315V99.331l-1.831-.314V97.591h3.807l.156,1.808a4.419,4.419,0,0,1,1.523-1.5,4.066,4.066,0,0,1,2.083-.533,3.967,3.967,0,0,1,3.043,1.151,5.053,5.053,0,0,1,1.078,3.555v5.94l1.831.315v1.415h-5.874v-1.415l1.831-.315v-5.9a3.285,3.285,0,0,0-.635-2.279,2.537,2.537,0,0,0-1.936-.674,3.121,3.121,0,0,0-1.691.46,3.372,3.372,0,0,0-1.174,1.258v7.131l1.832.315v1.415Z"/>
          <path class="cls-2" d="M209.169,109.978a4.071,4.071,0,0,1-2.887-.927,3.406,3.406,0,0,1-.988-2.611,3.3,3.3,0,0,1,.635-2.016,4.087,4.087,0,0,1,1.836-1.336,7.785,7.785,0,0,1,2.875-.477h2.168V101.42a2.19,2.19,0,0,0-.668-1.707,2.7,2.7,0,0,0-1.881-.606,4.232,4.232,0,0,0-1.326.185,3.867,3.867,0,0,0-1.022.511l-.236,1.7h-1.707V98.714a5.752,5.752,0,0,1,1.91-1.006,8.028,8.028,0,0,1,2.414-.342,5.238,5.238,0,0,1,3.471,1.056,3.724,3.724,0,0,1,1.258,3.021v5.851c0,.157,0,.31,0,.46s.014.3.029.449l1.179.124v1.415h-3.178c-.068-.329-.12-.625-.158-.887s-.063-.524-.078-.786a5.374,5.374,0,0,1-1.6,1.364A4.092,4.092,0,0,1,209.169,109.978Zm.326-1.853a3.932,3.932,0,0,0,2.01-.528,3.279,3.279,0,0,0,1.3-1.269v-2.2h-2.246a3.2,3.2,0,0,0-2.291.73,2.211,2.211,0,0,0-.764,1.628A1.514,1.514,0,0,0,208,107.7,2.261,2.261,0,0,0,209.5,108.125Z"/>
          <path class="cls-2" d="M217.9,109.742v-1.415l1.831-.315V99.331l-1.831-.314V97.591H221.7l.156,1.808a4.419,4.419,0,0,1,1.523-1.5,4.066,4.066,0,0,1,2.083-.533,3.967,3.967,0,0,1,3.043,1.151,5.053,5.053,0,0,1,1.078,3.555v5.94l1.831.315v1.415h-5.874v-1.415l1.831-.315v-5.9a3.285,3.285,0,0,0-.635-2.279,2.537,2.537,0,0,0-1.936-.674,3.121,3.121,0,0,0-1.691.46,3.372,3.372,0,0,0-1.174,1.258v7.131l1.832.315v1.415Z"/>
          <path class="cls-2" d="M236.535,109.933a2.89,2.89,0,0,1-2.139-.792,3.468,3.468,0,0,1-.792-2.532V99.23h-1.92V97.591h1.92V94.659h2.212v2.932h2.639V99.23h-2.639v7.379a1.991,1.991,0,0,0,.348,1.291,1.155,1.155,0,0,0,.933.416,5.886,5.886,0,0,0,.876-.073c.322-.049.572-.092.752-.129l.3,1.448a9.067,9.067,0,0,1-1.184.259A8.426,8.426,0,0,1,236.535,109.933Z"/>
          <path class="cls-2" d="M246.238,109.742v-1.415l1.83-.315V95.131l-1.83-.314V93.39h6.4a6.846,6.846,0,0,1,3.779,1.034,7,7,0,0,1,2.51,2.841,9.165,9.165,0,0,1,.9,4.133v.348a9.375,9.375,0,0,1-.864,4.082,6.923,6.923,0,0,1-2.454,2.864,6.659,6.659,0,0,1-3.756,1.05Zm4.043-1.73h2.358a4.263,4.263,0,0,0,2.662-.847,5.469,5.469,0,0,0,1.713-2.269,8.018,8.018,0,0,0,.6-3.15v-.371a8.089,8.089,0,0,0-.6-3.195,5.272,5.272,0,0,0-1.713-2.229,4.365,4.365,0,0,0-2.662-.82h-2.358Z"/>
          <path class="cls-2" d="M261.252,109.742v-2.269h2.212v2.269Z"/>
          <path class="cls-2" d="M272.531,109.978a7.343,7.343,0,0,1-4.1-1.078,6.646,6.646,0,0,1-2.471-2.954,10.468,10.468,0,0,1-.825-4.256v-.236A10.063,10.063,0,0,1,266,97.181a6.958,6.958,0,0,1,2.482-2.948,6.8,6.8,0,0,1,3.863-1.078,8.16,8.16,0,0,1,2.9.494,6.937,6.937,0,0,1,2.179,1.257v3.527h-1.763l-.236-2.583a3.5,3.5,0,0,0-.825-.472,5.13,5.13,0,0,0-1.033-.292,7.063,7.063,0,0,0-1.23-.1,4.434,4.434,0,0,0-2.719.826,5.073,5.073,0,0,0-1.683,2.274,9.033,9.033,0,0,0-.574,3.346v.259a9.029,9.029,0,0,0,.613,3.509,4.759,4.759,0,0,0,1.785,2.218,5.12,5.12,0,0,0,2.858.764,6.231,6.231,0,0,0,1.538-.191,4.514,4.514,0,0,0,1.248-.494l.247-2.28h1.729v3.549a7.687,7.687,0,0,1-2.2.893A10.862,10.862,0,0,1,272.531,109.978Z"/>
          <path class="cls-2" d="M280.179,109.742v-2.269h2.212v2.269Z"/>
          <path class="cls-2" d="M290.713,109.742v-1.415l1.83-.315V95.131l-1.83-.314V93.39h5.873v1.427l-1.83.314v12.915h5.783l.258-2.583h1.7v4.279Z"/>
          <path class="cls-2" d="M309.53,109.978A5.03,5.03,0,0,1,304.747,107a7.371,7.371,0,0,1-.663-3.195v-.247a7.371,7.371,0,0,1,.663-3.2,5.235,5.235,0,0,1,1.881-2.2,5.644,5.644,0,0,1,5.783,0,5.243,5.243,0,0,1,1.881,2.19,7.367,7.367,0,0,1,.663,3.2v.247a7.4,7.4,0,0,1-.663,3.206,5,5,0,0,1-4.762,2.971Zm0-1.73a2.719,2.719,0,0,0,1.77-.578,3.535,3.535,0,0,0,1.078-1.584,6.668,6.668,0,0,0,.365-2.285v-.247a6.672,6.672,0,0,0-.365-2.285,3.519,3.519,0,0,0-1.084-1.584,3.031,3.031,0,0,0-3.561,0,3.5,3.5,0,0,0-1.078,1.584,6.773,6.773,0,0,0-.359,2.285v.247a6.769,6.769,0,0,0,.359,2.285,3.475,3.475,0,0,0,1.084,1.584A2.779,2.779,0,0,0,309.53,108.248Z"/>
          <path class="cls-2" d="M320.413,109.742l-3.2-10.568-1.359-.157V97.591h5.019v1.426l-1.493.247,1.673,6.053.383,1.438h.066l.494-1.438,2.64-7.726H326.5l2.516,7.7.539,1.707h.067l.528-1.707,1.7-6.042-1.528-.236V97.591h4.909v1.426l-1.348.191-3.145,10.534h-2.1l-2.46-7.3-.584-1.954-.067.011-.573,1.943-2.639,7.3Z"/>
        </g>
      </g>
    </g>
  </g>
</svg>
