<svg xmlns="http://www.w3.org/2000/svg" viewBox="0 0 31.099 627.692">
  <defs>
    <style>
      .cls-1 {
        fill: #7b8d9e;
      }

      .cls-2 {
        fill: #6e7884;
      }

      .cls-3 {
        fill: none;
        stroke: #6e7884;
        stroke-miterlimit: 10;
      }
    </style>
  </defs>
  <g id="Layer_2" data-name="Layer 2">
    <g id="interface">
      <g>
        <g>
          <path class="cls-1" d="M29.669,4.555V5.806H22.985a2.551,2.551,0,0,1-1.965-.784,2.878,2.878,0,0,1-.726-2.035A3.134,3.134,0,0,1,20.973.866,2.376,2.376,0,0,1,22.94.111l.038.013v1.2a1.707,1.707,0,0,0-1.279.436,1.692,1.692,0,0,0-.422,1.228,1.477,1.477,0,0,0,.466,1.129,1.746,1.746,0,0,0,1.247.439Z"/>
          <path class="cls-1" d="M21.442,12.134a2.331,2.331,0,0,1-.85-.831,2.269,2.269,0,0,1-.3-1.175,2.2,2.2,0,0,1,.717-1.752,3.328,3.328,0,0,1,2.234-.628H27.3V9H23.232a2.553,2.553,0,0,0-1.51.324,1.2,1.2,0,0,0-.413,1.009,2.059,2.059,0,0,0,.27,1.1,1.694,1.694,0,0,0,.765.657H27.3v1.25H20.427V12.217Z"/>
          <path class="cls-1" d="M20.427,16.514v-1.25h9.9v1.25Z"/>
          <path class="cls-1" d="M22.972,20.538l-.864.222V20.8L27.3,22.486v1.391l-7.922-2.889a3.567,3.567,0,0,1-1.206-.745,1.717,1.717,0,0,1-.514-1.311,2.738,2.738,0,0,1,.034-.387c.024-.156.046-.277.068-.361l.983.127a1.727,1.727,0,0,1-.013.224c-.012.176-.019.287-.019.334a.775.775,0,0,0,.355.654,3.73,3.73,0,0,0,.787.424l.718.3L27.3,17.694v1.4Z"/>
        </g>
        <g>
          <path class="cls-1" d="M22.807,239.15v-3.871l-2.38-.877v-1.275l9.242,3.574v1.072l-9.242,3.517v-1.276Zm1.047-3.484v3.11l4.209-1.523v-.038Z"/>
          <path class="cls-1" d="M21.442,246.686a2.339,2.339,0,0,1-.85-.831,2.269,2.269,0,0,1-.3-1.175,2.2,2.2,0,0,1,.717-1.752,3.328,3.328,0,0,1,2.234-.628H27.3v1.25H23.232a2.545,2.545,0,0,0-1.51.324,1.2,1.2,0,0,0-.413,1.009,2.055,2.055,0,0,0,.27,1.1,1.7,1.7,0,0,0,.765.658H27.3v1.25H20.427v-1.123Z"/>
          <path class="cls-1" d="M23.733,249.44a4.51,4.51,0,0,1,2.673.724,2.323,2.323,0,0,1,1.016,2,2.41,2.41,0,0,1-.264,1.15,2.265,2.265,0,0,1-.759.825l.9.152v1H20.389a2.626,2.626,0,0,1-2.029-.767,3.158,3.158,0,0,1-.707-2.215,4.654,4.654,0,0,1,.136-1.071,4.153,4.153,0,0,1,.372-1.011l.971.316a3.216,3.216,0,0,0-.308.813,3.934,3.934,0,0,0-.118.939,1.823,1.823,0,0,0,.416,1.33,1.719,1.719,0,0,0,1.267.416h.774a2.169,2.169,0,0,1-.65-.806,2.509,2.509,0,0,1-.219-1.079,2.4,2.4,0,0,1,.914-1.987,3.741,3.741,0,0,1,2.392-.724Zm-.133,1.25a2.856,2.856,0,0,0-1.663.439,1.514,1.514,0,0,0-.628,1.333,1.645,1.645,0,0,0,.257.945,1.942,1.942,0,0,0,.727.629h3.161a1.94,1.94,0,0,0,.7-.629,1.647,1.647,0,0,0,.257-.932,1.456,1.456,0,0,0-.749-1.339,3.722,3.722,0,0,0-1.924-.446Z"/>
          <path class="cls-1" d="M21.442,261.463a2.331,2.331,0,0,1-.85-.831,2.269,2.269,0,0,1-.3-1.175,2.2,2.2,0,0,1,.717-1.752,3.328,3.328,0,0,1,2.234-.628H27.3v1.25H23.232a2.553,2.553,0,0,0-1.51.324,1.2,1.2,0,0,0-.413,1.009,2.057,2.057,0,0,0,.27,1.1,1.688,1.688,0,0,0,.765.657H27.3v1.25H20.427v-1.123Z"/>
          <path class="cls-1" d="M22.255,268.483a.848.848,0,0,0,.679-.314,2.938,2.938,0,0,0,.463-1.189,5.007,5.007,0,0,1,.739-1.883,1.493,1.493,0,0,1,1.27-.631,1.789,1.789,0,0,1,1.426.711,3.234,3.234,0,0,1-.026,3.761,1.821,1.821,0,0,1-1.5.675l-.037-.012v-1.194a1.092,1.092,0,0,0,.809-.378,1.392,1.392,0,0,0,.359-1,1.432,1.432,0,0,0-.293-.99.908.908,0,0,0-.7-.324A.791.791,0,0,0,24.8,266a2.952,2.952,0,0,0-.418,1.162,5.026,5.026,0,0,1-.759,1.936,1.526,1.526,0,0,1-1.286.634,1.774,1.774,0,0,1-1.479-.739,3.094,3.094,0,0,1-.564-1.932,3.017,3.017,0,0,1,.666-2.07,1.9,1.9,0,0,1,1.555-.718l.039.014v1.194a1.145,1.145,0,0,0-.97.494,1.926,1.926,0,0,0-.307,1.086,1.769,1.769,0,0,0,.27,1.044A.832.832,0,0,0,22.255,268.483Z"/>
          <path class="cls-1" d="M28.952,272.94H27.3v1.3h-.927v-1.3H22.2a.937.937,0,0,0-.68.2.729.729,0,0,0-.2.53,1.251,1.251,0,0,0,.026.238,1.511,1.511,0,0,0,.064.232l-.857.165a1.1,1.1,0,0,1-.188-.409,2.062,2.062,0,0,1-.072-.543,1.621,1.621,0,0,1,.46-1.213,2,2,0,0,1,1.444-.45h4.17V270.6H27.3v1.092h1.657Z"/>
        </g>
        <g>
          <path class="cls-1" d="M22.754,570.176a1.359,1.359,0,0,0,1.057-.476,4,4,0,0,0,.716-1.688,5.592,5.592,0,0,1,1.031-2.288,2.133,2.133,0,0,1,1.711-.823,2.245,2.245,0,0,1,1.808.886,3.508,3.508,0,0,1,.725,2.295,3.417,3.417,0,0,1-.831,2.415,2.452,2.452,0,0,1-1.93.866L27,571.351v-1.194a1.714,1.714,0,0,0,1.314-.536,2.627,2.627,0,0,0,.079-2.971,1.373,1.373,0,0,0-1.1-.5,1.212,1.212,0,0,0-1.006.539,5.117,5.117,0,0,0-.708,1.752,5,5,0,0,1-1.066,2.222,2.284,2.284,0,0,1-1.747.762,2.131,2.131,0,0,1-1.8-.914,3.9,3.9,0,0,1-.679-2.387,4.126,4.126,0,0,1,.752-2.447,2.264,2.264,0,0,1,2.009-1.031l.038.012v1.194a1.55,1.55,0,0,0-1.352.654,2.723,2.723,0,0,0-.464,1.618,2.516,2.516,0,0,0,.4,1.5A1.26,1.26,0,0,0,22.754,570.176Z"/>
          <path class="cls-1" d="M20.294,575.863a2.9,2.9,0,0,1,.955-2.282,3.6,3.6,0,0,1,2.478-.847h.28a3.515,3.515,0,0,1,2.44.873,2.687,2.687,0,0,1,.975,2.066,2.6,2.6,0,0,1-.838,2.1,3.335,3.335,0,0,1-2.235.711h-.78v-4.455l-.032-.019a2.706,2.706,0,0,0-1.624.5,1.6,1.6,0,0,0-.636,1.351,3.168,3.168,0,0,0,.181,1.115,2.584,2.584,0,0,0,.5.828l-.813.489a2.9,2.9,0,0,1-.607-.972A3.907,3.907,0,0,1,20.294,575.863Zm6.144-.19a1.358,1.358,0,0,0-.528-1.073,2.5,2.5,0,0,0-1.326-.545l-.031.011v3.168h.164a1.9,1.9,0,0,0,1.227-.393A1.4,1.4,0,0,0,26.438,575.673Z"/>
          <path class="cls-1" d="M23.6,585.74a3.778,3.778,0,0,1-2.4-.711,2.348,2.348,0,0,1-.91-1.961,2.723,2.723,0,0,1,.212-1.114,2.125,2.125,0,0,1,.637-.815H17.786v-1.25H27.3v.958l-.889.2a2.272,2.272,0,0,1,.755.838,2.5,2.5,0,0,1,.261,1.168,2.282,2.282,0,0,1-1.013,1.984,4.578,4.578,0,0,1-2.676.707Zm.137-1.25a3.62,3.62,0,0,0,1.918-.46,1.49,1.49,0,0,0,.751-1.355,1.669,1.669,0,0,0-.244-.921,1.823,1.823,0,0,0-.669-.615H22.178a1.767,1.767,0,0,0-.663.615,1.726,1.726,0,0,0-.238.934,1.539,1.539,0,0,0,.65,1.345,2.848,2.848,0,0,0,1.677.457Z"/>
          <path class="cls-1" d="M28.952,588.928H27.3v1.3h-.927v-1.3H22.2a.937.937,0,0,0-.68.2.731.731,0,0,0-.2.53,1.252,1.252,0,0,0,.026.239,1.5,1.5,0,0,0,.064.231l-.857.165a1.091,1.091,0,0,1-.188-.409,2.057,2.057,0,0,1-.072-.543,1.621,1.621,0,0,1,.46-1.213,2,2,0,0,1,1.444-.45h4.17v-1.092H27.3v1.092h1.657Z"/>
          <path class="cls-1" d="M20.294,594.621a2.9,2.9,0,0,1,.955-2.282,3.6,3.6,0,0,1,2.478-.847h.28a3.519,3.519,0,0,1,2.44.872,2.689,2.689,0,0,1,.975,2.067,2.6,2.6,0,0,1-.838,2.1,3.335,3.335,0,0,1-2.235.711h-.78v-4.455l-.032-.019a2.692,2.692,0,0,0-1.624.5,1.6,1.6,0,0,0-.636,1.351,3.158,3.158,0,0,0,.181,1.114,2.578,2.578,0,0,0,.5.829l-.813.489a2.911,2.911,0,0,1-.607-.972A3.91,3.91,0,0,1,20.294,594.621Zm6.144-.19a1.36,1.36,0,0,0-.528-1.074,2.5,2.5,0,0,0-1.326-.544l-.031.011v3.168h.164a1.908,1.908,0,0,0,1.227-.393A1.406,1.406,0,0,0,26.438,594.431Z"/>
          <path class="cls-1" d="M27.3,599.764l-.9.088a2.314,2.314,0,0,1,.759.854,2.56,2.56,0,0,1,.27,1.2,2.124,2.124,0,0,1-.318,1.178,1.928,1.928,0,0,1-.952.74,2.536,2.536,0,0,1,.927.857,2.253,2.253,0,0,1,.343,1.244,2.055,2.055,0,0,1-.721,1.657,3.29,3.29,0,0,1-2.167.609H20.427v-1.251h4.119a2.289,2.289,0,0,0,1.438-.348,1.276,1.276,0,0,0,.422-1.041,1.325,1.325,0,0,0-.444-1.038,1.934,1.934,0,0,0-1.123-.467H20.427v-1.257h4.119a2.257,2.257,0,0,0,1.413-.358,1.248,1.248,0,0,0,.447-1.033,1.716,1.716,0,0,0-.235-.939,1.5,1.5,0,0,0-.66-.564H20.427v-1.25H27.3Z"/>
          <path class="cls-1" d="M23.6,615.873a3.768,3.768,0,0,1-2.4-.715,2.358,2.358,0,0,1-.91-1.965,2.5,2.5,0,0,1,.263-1.179,2.171,2.171,0,0,1,.778-.832l-.908-.153v-1.021h9.9v1.25H26.482a2.178,2.178,0,0,1,.7.8,2.459,2.459,0,0,1,.241,1.121,2.284,2.284,0,0,1-1.016,1.98,4.567,4.567,0,0,1-2.673.711Zm.133-1.251a3.792,3.792,0,0,0,1.927-.434,1.434,1.434,0,0,0,.746-1.325,1.636,1.636,0,0,0-.282-.973,1.993,1.993,0,0,0-.759-.632H22.388a2.04,2.04,0,0,0-.793.632,1.621,1.621,0,0,0-.286.987,1.484,1.484,0,0,0,.628,1.313,2.878,2.878,0,0,0,1.663.432Z"/>
          <path class="cls-1" d="M20.294,620.246a2.9,2.9,0,0,1,.955-2.282,3.6,3.6,0,0,1,2.478-.847h.28a3.519,3.519,0,0,1,2.44.872,2.689,2.689,0,0,1,.975,2.067,2.6,2.6,0,0,1-.838,2.1,3.335,3.335,0,0,1-2.235.711h-.78v-4.455l-.032-.019a2.692,2.692,0,0,0-1.624.5,1.6,1.6,0,0,0-.636,1.351,3.158,3.158,0,0,0,.181,1.114,2.578,2.578,0,0,0,.5.829l-.813.489a2.911,2.911,0,0,1-.607-.972A3.91,3.91,0,0,1,20.294,620.246Zm6.144-.19a1.36,1.36,0,0,0-.528-1.074,2.5,2.5,0,0,0-1.326-.544l-.031.011v3.168h.164a1.908,1.908,0,0,0,1.227-.393A1.406,1.406,0,0,0,26.438,620.056Z"/>
          <path class="cls-1" d="M26.19,627.522l.038-.642a1.431,1.431,0,0,0-.235-.835,1.5,1.5,0,0,0-.66-.523H20.427v-1.25H27.3v1.117l-1,.12a2.372,2.372,0,0,1,.832.721,1.688,1.688,0,0,1,.3.987,1.5,1.5,0,0,1-.023.265,1.577,1.577,0,0,1-.047.21Z"/>
        </g>
        <rect class="cls-2" x="2.006" y="8" width="5" height="9" transform="translate(17.006 7.994) rotate(90)"/>
        <rect class="cls-2" x="2.006" y="21" width="5" height="3" transform="translate(27.006 17.994) rotate(90)"/>
        <rect class="cls-2" x="2.006" y="28" width="5" height="9" transform="translate(37.006 27.994) rotate(90)"/>
        <rect class="cls-2" x="2.006" y="38" width="5" height="9" transform="translate(47.006 37.994) rotate(90)"/>
        <rect class="cls-2" x="2.006" y="48" width="5" height="9" transform="translate(57.006 47.994) rotate(90)"/>
        <rect class="cls-2" x="2.006" y="61" width="5" height="3" transform="translate(67.006 57.994) rotate(90)"/>
        <rect class="cls-2" x="2.006" y="71" width="5" height="3" transform="translate(77.006 67.994) rotate(90)"/>
        <rect class="cls-2" x="2.006" y="81" width="5" height="3" transform="translate(87.006 77.994) rotate(90)"/>
        <rect class="cls-2" x="2.006" y="91" width="5" height="3" transform="translate(97.006 87.994) rotate(90)"/>
        <rect class="cls-2" x="2.006" y="101" width="5" height="3" transform="translate(107.006 97.994) rotate(90)"/>
        <rect class="cls-2" x="2.006" y="108" width="5" height="9" transform="translate(117.006 107.994) rotate(90)"/>
        <rect class="cls-2" x="2.006" y="118" width="5" height="9" transform="translate(127.006 117.994) rotate(90)"/>
        <rect class="cls-2" x="2.006" y="128" width="5" height="9" transform="translate(137.006 127.994) rotate(90)"/>
        <rect class="cls-2" x="2.006" y="141" width="5" height="3" transform="translate(147.006 137.994) rotate(90)"/>
        <rect class="cls-2" x="2.006" y="151" width="5" height="3" transform="translate(157.006 147.994) rotate(90)"/>
        <rect class="cls-2" x="2.006" y="161" width="5" height="3" transform="translate(167.006 157.994) rotate(90)"/>
        <rect class="cls-2" x="2.006" y="171" width="5" height="3" transform="translate(177.006 167.994) rotate(90)"/>
        <rect class="cls-2" x="2.006" y="181" width="5" height="3" transform="translate(187.006 177.994) rotate(90)"/>
        <rect class="cls-2" x="2.006" y="191" width="5" height="3" transform="translate(197.006 187.994) rotate(90)"/>
        <rect class="cls-2" x="2.006" y="201" width="5" height="3" transform="translate(207.006 197.994) rotate(90)"/>
        <rect class="cls-2" x="2.006" y="208" width="5" height="9" transform="translate(217.006 207.994) rotate(90)"/>
        <rect class="cls-2" x="2.006" y="221" width="5" height="3" transform="translate(227.006 217.994) rotate(90)"/>
        <rect class="cls-2" x="2.006" y="229" width="5" height="9" transform="translate(238.006 228.994) rotate(90)"/>
        <rect class="cls-2" x="2.006" y="242" width="5" height="3" transform="translate(248.006 238.994) rotate(90)"/>
        <rect class="cls-2" x="2.006" y="252" width="5" height="3" transform="translate(258.006 248.994) rotate(90)"/>
        <rect class="cls-2" x="2.006" y="259" width="5" height="9" transform="translate(268.006 258.994) rotate(90)"/>
        <rect class="cls-2" x="2.006" y="272" width="5" height="3" transform="translate(278.006 268.994) rotate(90)"/>
        <rect class="cls-2" x="2.006" y="282" width="5" height="3" transform="translate(288.006 278.994) rotate(90)"/>
        <rect class="cls-2" x="2.006" y="292" width="5" height="3" transform="translate(298.006 288.994) rotate(90)"/>
        <rect class="cls-2" x="2.006" y="299" width="5" height="9" transform="translate(308.006 298.994) rotate(90)"/>
        <rect class="cls-2" x="2.006" y="312" width="5" height="3" transform="translate(318.006 308.994) rotate(90)"/>
        <rect class="cls-2" x="2.006" y="319" width="5" height="9" transform="translate(328.006 318.994) rotate(90)"/>
        <rect class="cls-2" x="2.006" y="332" width="5" height="3" transform="translate(338.006 328.994) rotate(90)"/>
        <rect class="cls-2" x="2.006" y="342" width="5" height="3" transform="translate(348.006 338.994) rotate(90)"/>
        <rect class="cls-2" x="2.006" y="352" width="5" height="3" transform="translate(358.006 348.994) rotate(90)"/>
        <rect class="cls-2" x="2.006" y="362" width="5" height="3" transform="translate(368.006 358.994) rotate(90)"/>
        <rect class="cls-2" x="2.006" y="372" width="5" height="3" transform="translate(378.006 368.994) rotate(90)"/>
        <rect class="cls-2" x="2.006" y="382" width="5" height="3" transform="translate(388.006 378.994) rotate(90)"/>
        <rect class="cls-2" x="2.006" y="392" width="5" height="3" transform="translate(398.006 388.994) rotate(90)"/>
        <rect class="cls-2" x="2.006" y="399" width="5" height="9" transform="translate(408.006 398.994) rotate(90)"/>
        <rect class="cls-2" x="2.006" y="412" width="5" height="3" transform="translate(418.006 408.994) rotate(90)"/>
        <rect class="cls-2" x="2.006" y="422" width="5" height="3" transform="translate(428.006 418.994) rotate(90)"/>
        <rect class="cls-2" x="2.006" y="429" width="5" height="9" transform="translate(438.006 428.994) rotate(90)"/>
        <rect class="cls-2" x="2.006" y="439" width="5" height="9" transform="translate(448.006 438.994) rotate(90)"/>
        <rect class="cls-2" x="2.006" y="449" width="5" height="9" transform="translate(458.006 448.994) rotate(90)"/>
        <rect class="cls-2" x="2.006" y="462" width="5" height="3" transform="translate(468.006 458.994) rotate(90)"/>
        <rect class="cls-2" x="2.006" y="469" width="5" height="9" transform="translate(478.006 468.994) rotate(90)"/>
        <rect class="cls-2" x="2.006" y="479" width="5" height="9" transform="translate(488.006 478.994) rotate(90)"/>
        <rect class="cls-2" x="2.006" y="489" width="5" height="9" transform="translate(498.006 488.994) rotate(90)"/>
        <rect class="cls-2" x="2.006" y="499" width="5" height="9" transform="translate(508.006 498.994) rotate(90)"/>
        <rect class="cls-2" x="2.006" y="509" width="5" height="9" transform="translate(518.006 508.994) rotate(90)"/>
        <rect class="cls-2" x="2.006" y="519" width="5" height="9" transform="translate(528.006 518.994) rotate(90)"/>
        <rect class="cls-2" x="2.006" y="529" width="5" height="9" transform="translate(538.006 528.994) rotate(90)"/>
        <rect class="cls-2" x="2.006" y="539" width="5" height="9" transform="translate(548.006 538.994) rotate(90)"/>
        <rect class="cls-2" x="2.006" y="549" width="5" height="9" transform="translate(558.006 548.994) rotate(90)"/>
        <rect class="cls-2" x="2.006" y="560" width="5" height="9" transform="translate(569.006 559.994) rotate(90)"/>
        <rect class="cls-2" x="2.006" y="570" width="5" height="9" transform="translate(579.006 569.994) rotate(90)"/>
        <rect class="cls-2" x="2.006" y="580" width="5" height="9" transform="translate(589.006 579.994) rotate(90)"/>
        <rect class="cls-2" x="2.006" y="590" width="5" height="9" transform="translate(599.006 589.994) rotate(90)"/>
        <rect class="cls-2" x="2.006" y="600" width="5" height="9" transform="translate(609.006 599.994) rotate(90)"/>
        <rect class="cls-2" x="2.006" y="610" width="5" height="9" transform="translate(619.006 609.994) rotate(90)"/>
        <rect class="cls-2" x="2.006" y="620" width="5" height="9" transform="translate(629.006 619.994) rotate(90)"/>
        <line class="cls-3" y1="559" x2="31.099" y2="559"/>
        <rect class="cls-2" x="2.006" y="-2" width="5" height="9" transform="translate(7.006 -2.006) rotate(90)"/>
        <line class="cls-3" y1="228" x2="31.099" y2="228"/>
      </g>
    </g>
  </g>
</svg>
