<svg xmlns="http://www.w3.org/2000/svg" viewBox="0 0 401.066 380.475">
  <defs>
    <style>
      .cls-1 {
        fill: #f9c023;
      }
    </style>
  </defs>
  <g id="Layer_2" data-name="Layer 2">
    <g id="Layer_1-2" data-name="Layer 1">
      <g>
        <g>
          <path class="cls-1" d="M.854,191.186v-4.271l13.666-2.9V85.618L.854,82.714V78.443h39.8q18.789,0,32.115,6.662a47.644,47.644,0,0,1,20.242,18.278,50.418,50.418,0,0,1,6.919,26.307q0,18.962-7.431,32.712a52.269,52.269,0,0,1-20.926,21.267q-13.5,7.519-32.115,7.517Zm41-106.764H24.769V185.207H42.705q14.006,0,24.342-6.406A43.5,43.5,0,0,0,83.1,161.121q5.721-11.274,5.723-26.136,0-15.2-5.466-26.648a40.176,40.176,0,0,0-15.972-17.68Q56.883,84.423,41.851,84.422Z"/>
          <path class="cls-1" d="M153.312,192.894q-12.132,0-20.414-5.125a32.519,32.519,0,0,1-12.47-13.836,47.976,47.976,0,0,1,.684-40.656,41.41,41.41,0,0,1,12.811-15.032,29.331,29.331,0,0,1,17.339-5.638q13.491,0,21.181,8.883t8.883,24.6l-.512.512H124.955q-.172,2.562-.171,5.466,0,15.034,8.114,24.343t22.805,9.309a42.443,42.443,0,0,0,14.6-2.391,25.563,25.563,0,0,0,10.335-6.492h.512v2.221a28.815,28.815,0,0,1-11.017,9.908A34.83,34.83,0,0,1,153.312,192.894Zm-4.1-76.528q-8.371,0-15.032,6.918t-8.712,19.559h46.463q-1.709-12.468-7-19.474T149.212,116.366Z"/>
          <path class="cls-1" d="M213.3,192.894a19.1,19.1,0,0,1-13.153-4.7q-5.3-4.7-5.3-13.068a17.868,17.868,0,0,1,5.894-13.666q5.892-5.464,19.559-8.882l16.74-4.271V134.131a14.872,14.872,0,0,0-5.3-11.872,18.142,18.142,0,0,0-12.127-4.527q-7.347,0-10.335,2.99a10.958,10.958,0,0,0-2.99,8.113v7l-.854.854H201c-1.823,0-3.019-.282-3.587-.854s-.854-1.649-.854-3.245a12.227,12.227,0,0,1,2.22-6.662,21.138,21.138,0,0,1,6.491-6.15,78.533,78.533,0,0,1,9.31-5.039,21.679,21.679,0,0,1,8.968-2.136q10.25,0,16.143,4.527t5.893,14.093v53.126a10.294,10.294,0,0,0,3.161,1.879,11.7,11.7,0,0,0,4.185.683h8.882l.171.171v.341a15.464,15.464,0,0,1-3.929,3.588,12.768,12.768,0,0,1-7.345,1.879q-5.982,0-9.224-3.075a12.53,12.53,0,0,1-3.929-7.174h-.342a37.05,37.05,0,0,1-10.676,7.345A31.005,31.005,0,0,1,213.3,192.894Zm-9.907-20.84q0,7.006,3.928,10.5t11.1,3.5a37,37,0,0,0,9.224-1.281,34.19,34.19,0,0,0,9.395-4.014V151.9q-14.181,2.907-21.438,5.809t-9.737,6.32A13.311,13.311,0,0,0,203.4,172.054Z"/>
          <path class="cls-1" d="M291.948,192.894a15.206,15.206,0,0,1-11.36-4.441q-4.356-4.442-4.356-12.471V120.124H261.2v-1.538l16.057-4.27,5.637-18.791h1.879v18.791h22.549v5.808H284.773v55.517q0,5.3,3.246,7.943a13.074,13.074,0,0,0,8.541,2.648,25.413,25.413,0,0,0,6.833-.855,25.968,25.968,0,0,0,5.808-2.391l.171.171v.683q-1.371,2.907-5.809,5.979T291.948,192.894Z"/>
          <path class="cls-1" d="M321.463,191.186v-2.563l10.762-2.9V71.269l-12.47-3.246V65.461l19.3-2.392h1.708v61.838h.342a48.121,48.121,0,0,1,11.957-9.395,27.2,27.2,0,0,1,12.641-2.905q10.762,0,17.68,5.979T390.3,136.01v49.709l10.762,2.9v2.563H369.635v-2.563l12.128-2.9v-45.1q0-10.419-5.552-15.8t-14.605-5.381a29.213,29.213,0,0,0-11.1,2.477,24.276,24.276,0,0,0-9.737,7.089v56.713l12.129,2.9v2.563Z"/>
          <path class="cls-1" d="M33.139,342.894a60.761,60.761,0,0,1-16.911-2.05,87.561,87.561,0,0,1-14.52-5.807L0,308.73H3.075l9.737,21.694a33.975,33.975,0,0,0,11.273,5.723A43.683,43.683,0,0,0,35.36,337.6q11.442,0,17.253-6.064t5.808-17q0-8.2-3.844-12.812a33.934,33.934,0,0,0-10.932-8.2q-7.091-3.588-16.655-8.37a83.439,83.439,0,0,1-12.556-7.517,25.2,25.2,0,0,1-7.6-8.8,27.532,27.532,0,0,1-2.562-12.555A24.925,24.925,0,0,1,8.8,242.2a37.016,37.016,0,0,1,11.7-11.1,29.12,29.12,0,0,1,15.374-4.355,47.558,47.558,0,0,1,13.751,1.879,77.437,77.437,0,0,1,12.9,5.295l1.708,25.624H61.154l-7.516-20.328a29.275,29.275,0,0,0-8.37-5.637A24.759,24.759,0,0,0,35.7,231.86q-10.422,0-16.058,5.979a20.4,20.4,0,0,0-5.637,14.52,20.989,20.989,0,0,0,2.648,10.933,25.351,25.351,0,0,0,8.114,8.028A129.137,129.137,0,0,0,38.6,279.007a135.456,135.456,0,0,1,16.912,9.481,30.1,30.1,0,0,1,9.822,10.335q3.159,5.808,3.16,14.69a23.658,23.658,0,0,1-5.21,15.117A36.939,36.939,0,0,1,50.05,339.05,38.688,38.688,0,0,1,33.139,342.894Z"/>
          <path class="cls-1" d="M80.831,341.186v-2.562l10.762-2.9V221.269l-12.47-3.246v-2.562l19.3-2.391h1.708v61.838h.342a48.151,48.151,0,0,1,11.957-9.4,27.2,27.2,0,0,1,12.641-2.9q10.763,0,17.68,5.978t6.918,17.424v49.71l10.762,2.9v2.562H129v-2.562l12.128-2.9v-45.1q0-10.417-5.552-15.8t-14.605-5.381a29.207,29.207,0,0,0-11.1,2.476,24.264,24.264,0,0,0-9.737,7.09V335.72l12.128,2.9v2.562Z"/>
          <path class="cls-1" d="M174.458,341.186v-2.562l10.762-2.9V270.807l-12.47-3.245V265l19.3-2.392h1.708V335.72l12.128,2.9v2.562ZM187.1,235.619a6.418,6.418,0,1,1,4.612-1.88A6.258,6.258,0,0,1,187.1,235.619Z"/>
          <path class="cls-1" d="M214.855,380.475v-2.562l10.762-2.905v-104.2l-12.471-1.537v-2.562l18.449-4.1H233.3l.683,10.591h.854A50.17,50.17,0,0,1,247.4,265.17a33.221,33.221,0,0,1,13.068-2.562,26.784,26.784,0,0,1,15.2,4.441,30.218,30.218,0,0,1,10.506,12.556q3.843,8.115,3.844,19.388,0,14.01-5.467,23.83a37.862,37.862,0,0,1-14.52,14.947,39.877,39.877,0,0,1-19.986,5.124,26.314,26.314,0,0,1-7.857-1.281,48.69,48.69,0,0,1-8.029-3.331v36.726l12.128,2.905v2.562Zm41-112.058a30.415,30.415,0,0,0-11.7,2.219,35.212,35.212,0,0,0-9.993,6.322v54.491a49.383,49.383,0,0,0,10.42,5.211,34.5,34.5,0,0,0,11.445,1.793,24.347,24.347,0,0,0,12.9-3.587q5.893-3.588,9.48-11.7t3.588-21.439q0-11.442-3.758-18.876a25.4,25.4,0,0,0-9.822-10.933A24.812,24.812,0,0,0,255.852,268.417Z"/>
        </g>
        <g>
          <path class="cls-1" d="M7.611,49.3l.263-.986,6.638-1.972L21.283,8.479H9.583L4.521,18.273H3.536L5.705,5.916h36.48L40.016,18.273H38.964L37.453,8.479H25.818L19.048,46.34l6.113,1.972-.2.986Z"/>
          <path class="cls-1" d="M45.531,49.3H41.652L49.671,3.681,45.07,2.3V1.774L53.812,0h.4l-4.6,26.161h.131a55.143,55.143,0,0,1,4.141-4.108,13.512,13.512,0,0,1,3.451-2.268,9.116,9.116,0,0,1,3.648-.723,5.349,5.349,0,0,1,4.831,2.53q1.609,2.532.756,7.2l-2.3,12.686a10.841,10.841,0,0,0-.229,3.648,1.15,1.15,0,0,0,1.216,1.019q2.627,0,5-5.193l.854.329a19.954,19.954,0,0,1-3.878,6.638,5.975,5.975,0,0,1-4.206,2.038,2.763,2.763,0,0,1-2.695-1.61q-.791-1.611-.2-5.095l2.563-14.723a7.576,7.576,0,0,0-.394-4.5q-.857-1.874-3.616-1.873a7.858,7.858,0,0,0-4.9,1.972A40.167,40.167,0,0,0,49.211,28.4Z"/>
          <path class="cls-1" d="M84.889,49.955q-4.929,0-7.263-3.023a12.438,12.438,0,0,1-2.334-7.823,21.474,21.474,0,0,1,1.315-7.46,22.154,22.154,0,0,1,3.615-6.409,18.937,18.937,0,0,1,5.194-4.5,11.887,11.887,0,0,1,6.046-1.676q3.418,0,5.062,1.577a4.819,4.819,0,0,1,1.643,3.55A5.463,5.463,0,0,1,96.359,28.1a15.559,15.559,0,0,1-5.948,3.22A62.9,62.9,0,0,1,79.3,33.72,28.234,28.234,0,0,0,79.04,37.6q0,4.47,1.971,6.9a6.858,6.858,0,0,0,5.653,2.432q5.257,0,9.2-6.114H96l.526.4a18.047,18.047,0,0,1-4.766,6.179A10.414,10.414,0,0,1,84.889,49.955ZM90.082,20.9a8.7,8.7,0,0,0-6.573,3.056,17.17,17.17,0,0,0-3.944,8.184q7.953-1.248,11.306-2.925t3.352-4.765a3.442,3.442,0,0,0-1.018-2.531A4.257,4.257,0,0,0,90.082,20.9Z"/>
        </g>
      </g>
    </g>
  </g>
</svg>
