<svg xmlns="http://www.w3.org/2000/svg" viewBox="0 0 320.668 471.111">
  <defs>
    <style>
      .cls-1 {
        fill: #292f33;
      }
    </style>
  </defs>
  <g id="Layer_2" data-name="Layer 2">
    <g id="Layer_1-2" data-name="Layer 1">
      <g>
        <rect class="cls-1" y="449.444" width="20.591" height="21.188"/>
        <rect class="cls-1" x="40.01" y="176.667" width="20.591" height="294.444"/>
        <rect class="cls-1" x="80.021" y="176.667" width="20.591" height="294.444"/>
        <rect class="cls-1" x="100.026" y="318.168" width="20.591" height="152.943"/>
        <rect class="cls-1" x="140.036" y="347.444" width="20.591" height="123.667"/>
        <rect class="cls-1" x="120.031" y="365.111" width="20.591" height="106"/>
        <rect class="cls-1" x="160.041" y="347.444" width="20.591" height="123.667"/>
        <rect class="cls-1" x="180.046" y="375.329" width="20.591" height="95.782"/>
        <rect class="cls-1" x="200.051" y="405.979" width="20.591" height="65.132"/>
        <rect class="cls-1" x="220.057" y="426.985" width="20.591" height="43.944"/>
        <rect class="cls-1" x="240.062" y="433.214" width="20.591" height="37.897"/>
        <rect class="cls-1" x="260.067" y="418.111" width="20.591" height="53"/>
        <rect class="cls-1" x="280.072" y="423.22" width="20.591" height="47.891"/>
        <rect class="cls-1" x="300.077" y="428.604" width="20.591" height="42.507"/>
        <rect class="cls-1" x="60.015" width="20.591" height="471.111"/>
        <rect class="cls-1" x="20.005" y="428.735" width="20.591" height="42.376"/>
      </g>
    </g>
  </g>
</svg>
