<svg xmlns="http://www.w3.org/2000/svg" viewBox="0 0 27.442 29.815">
  <defs>
    <style>
      .cls-1 {
        fill: #f2f2f2;
      }
    </style>
  </defs>
  <g id="Layer_2" data-name="Layer 2">
    <g id="Layer_1-2" data-name="Layer 1">
      <g>
        <g>
          <path class="cls-1" d="M8.291,20.132H4.863v9.529H3.42V20.132H0V19H8.291Z"/>
          <path class="cls-1" d="M17.72,25.281a4.555,4.555,0,0,1-1.212,3.245,4.121,4.121,0,0,1-3.146,1.289,3.9,3.9,0,0,1-3.036-1.289,4.648,4.648,0,0,1-1.168-3.245v-1.9a4.664,4.664,0,0,1,1.168-3.244,3.894,3.894,0,0,1,3.036-1.3,4.117,4.117,0,0,1,3.146,1.293,4.569,4.569,0,0,1,1.212,3.248ZM16.277,23.37a3.6,3.6,0,0,0-.791-2.4,2.639,2.639,0,0,0-2.124-.938,2.442,2.442,0,0,0-2.01.938,3.721,3.721,0,0,0-.751,2.4v1.911a3.743,3.743,0,0,0,.751,2.417,2.442,2.442,0,0,0,2.01.938,2.64,2.64,0,0,0,2.127-.934,3.629,3.629,0,0,0,.788-2.421Z"/>
          <path class="cls-1" d="M21.209,25.384v4.277H19.767V19h4.079a3.746,3.746,0,0,1,2.652.879,3.014,3.014,0,0,1,.944,2.314,3.008,3.008,0,0,1-.944,2.326,3.775,3.775,0,0,1-2.652.868Zm0-1.135h2.637a2.113,2.113,0,0,0,1.615-3.524,2.072,2.072,0,0,0-1.615-.593H21.209Z"/>
        </g>
        <polygon class="cls-1" points="21.473 7.515 13.958 0 6.336 7.622 21.473 7.515"/>
      </g>
    </g>
  </g>
</svg>
